G04 #@! TF.GenerationSoftware,KiCad,Pcbnew,(5.0.1)-4*
G04 #@! TF.CreationDate,2018-12-04T01:58:54+09:00*
G04 #@! TF.ProjectId,va4,7661342E6B696361645F706362000000,rev?*
G04 #@! TF.SameCoordinates,Original*
G04 #@! TF.FileFunction,Soldermask,Bot*
G04 #@! TF.FilePolarity,Negative*
%FSLAX46Y46*%
G04 Gerber Fmt 4.6, Leading zero omitted, Abs format (unit mm)*
G04 Created by KiCad (PCBNEW (5.0.1)-4) date 04/12/2018 01:58:54*
%MOMM*%
%LPD*%
G01*
G04 APERTURE LIST*
%ADD10C,0.100000*%
G04 APERTURE END LIST*
D10*
G36*
X119144096Y-95147033D02*
X119144098Y-95147034D01*
X119144099Y-95147034D01*
X119608352Y-95339333D01*
X120024284Y-95617250D01*
X120026171Y-95618511D01*
X120381489Y-95973829D01*
X120381491Y-95973832D01*
X120660667Y-96391648D01*
X120852966Y-96855901D01*
X120951000Y-97348748D01*
X120951000Y-97851252D01*
X120852966Y-98344099D01*
X120660667Y-98808352D01*
X120382750Y-99224284D01*
X120381489Y-99226171D01*
X120026171Y-99581489D01*
X120026168Y-99581491D01*
X119608352Y-99860667D01*
X119144099Y-100052966D01*
X119144098Y-100052966D01*
X119144096Y-100052967D01*
X118651253Y-100151000D01*
X118148747Y-100151000D01*
X117655904Y-100052967D01*
X117655902Y-100052966D01*
X117655901Y-100052966D01*
X117191648Y-99860667D01*
X116773832Y-99581491D01*
X116773829Y-99581489D01*
X116418511Y-99226171D01*
X116417250Y-99224284D01*
X116139333Y-98808352D01*
X115947034Y-98344099D01*
X115849000Y-97851252D01*
X115849000Y-97348748D01*
X115947034Y-96855901D01*
X116139333Y-96391648D01*
X116418509Y-95973832D01*
X116418511Y-95973829D01*
X116773829Y-95618511D01*
X116775716Y-95617250D01*
X117191648Y-95339333D01*
X117655901Y-95147034D01*
X117655902Y-95147034D01*
X117655904Y-95147033D01*
X118148747Y-95049000D01*
X118651253Y-95049000D01*
X119144096Y-95147033D01*
X119144096Y-95147033D01*
G37*
G36*
X117642301Y-90421078D02*
X117768862Y-90462505D01*
X117884895Y-90527820D01*
X117985963Y-90614522D01*
X118068174Y-90719275D01*
X118128368Y-90838052D01*
X118164233Y-90966293D01*
X118174392Y-91099067D01*
X118162342Y-91199006D01*
X118158452Y-91231268D01*
X118137547Y-91295130D01*
X118117025Y-91357826D01*
X118051710Y-91473859D01*
X117965010Y-91574925D01*
X117860253Y-91657139D01*
X117741478Y-91717331D01*
X117645367Y-91744211D01*
X117297003Y-91805637D01*
X116644404Y-91920708D01*
X116544897Y-91928321D01*
X116544896Y-91928321D01*
X116412697Y-91912382D01*
X116286136Y-91870955D01*
X116170103Y-91805640D01*
X116069035Y-91718938D01*
X115986824Y-91614185D01*
X115926630Y-91495408D01*
X115890765Y-91367167D01*
X115880607Y-91234394D01*
X115896546Y-91102195D01*
X115937973Y-90975634D01*
X116003288Y-90859601D01*
X116089990Y-90758533D01*
X116194743Y-90676322D01*
X116313520Y-90616129D01*
X116409631Y-90589249D01*
X117040850Y-90477948D01*
X117410593Y-90412752D01*
X117510101Y-90405139D01*
X117510103Y-90405139D01*
X117642301Y-90421078D01*
X117642301Y-90421078D01*
G37*
G36*
X118526234Y-87750479D02*
X118759005Y-87796780D01*
X118986673Y-87891083D01*
X119147740Y-87998705D01*
X119191571Y-88027992D01*
X119205747Y-88042168D01*
X119224689Y-88057714D01*
X119246293Y-88069262D01*
X119419685Y-88141083D01*
X119623656Y-88277373D01*
X119624583Y-88277992D01*
X119658053Y-88311462D01*
X119676995Y-88327008D01*
X119698598Y-88338556D01*
X119921980Y-88431083D01*
X120118120Y-88562140D01*
X120126878Y-88567992D01*
X120301122Y-88742236D01*
X120301124Y-88742239D01*
X120438031Y-88947134D01*
X120532334Y-89174802D01*
X120580409Y-89416492D01*
X120580409Y-89662918D01*
X120532334Y-89904608D01*
X120438031Y-90132276D01*
X120333706Y-90288409D01*
X120301122Y-90337174D01*
X120126878Y-90511418D01*
X120126875Y-90511420D01*
X119921980Y-90648327D01*
X119694312Y-90742630D01*
X119513044Y-90778686D01*
X119452623Y-90790705D01*
X119206195Y-90790705D01*
X119145774Y-90778686D01*
X118964506Y-90742630D01*
X118736838Y-90648327D01*
X118531943Y-90511420D01*
X118531940Y-90511418D01*
X118498470Y-90477948D01*
X118479528Y-90462402D01*
X118457925Y-90450854D01*
X118234543Y-90358327D01*
X118029648Y-90221420D01*
X118029645Y-90221418D01*
X118015469Y-90207242D01*
X117996527Y-90191696D01*
X117974923Y-90180148D01*
X117801531Y-90108327D01*
X117684441Y-90030089D01*
X117631108Y-89994454D01*
X117609497Y-89982903D01*
X117586048Y-89975790D01*
X117561661Y-89973388D01*
X117537275Y-89975790D01*
X117505156Y-89986889D01*
X117411031Y-90034590D01*
X117293598Y-90067433D01*
X115982677Y-90298583D01*
X115861094Y-90307885D01*
X115861091Y-90307885D01*
X115699555Y-90288409D01*
X115544925Y-90237793D01*
X115511262Y-90218844D01*
X115403134Y-90157980D01*
X115295665Y-90065785D01*
X115279641Y-90052039D01*
X115179188Y-89924042D01*
X115105639Y-89778912D01*
X115105637Y-89778908D01*
X115061814Y-89622214D01*
X115049402Y-89459981D01*
X115051730Y-89440672D01*
X115068878Y-89298442D01*
X115119494Y-89143812D01*
X115150354Y-89088989D01*
X115199307Y-89002021D01*
X115265350Y-88925037D01*
X115305248Y-88878528D01*
X115433245Y-88778075D01*
X115578375Y-88704526D01*
X115578379Y-88704524D01*
X115680136Y-88676066D01*
X115695815Y-88671681D01*
X116283866Y-88567992D01*
X117006732Y-88440531D01*
X117128315Y-88431229D01*
X117128319Y-88431229D01*
X117182628Y-88437777D01*
X117207127Y-88438312D01*
X117231259Y-88434057D01*
X117254097Y-88425175D01*
X117274764Y-88412009D01*
X117292465Y-88395064D01*
X117301520Y-88383129D01*
X117422387Y-88202239D01*
X117422389Y-88202236D01*
X117596633Y-88027992D01*
X117640464Y-87998705D01*
X117801531Y-87891083D01*
X118029199Y-87796780D01*
X118261970Y-87750479D01*
X118270888Y-87748705D01*
X118517316Y-87748705D01*
X118526234Y-87750479D01*
X118526234Y-87750479D01*
G37*
G36*
X113922812Y-88333033D02*
X114086784Y-88400953D01*
X114234354Y-88499556D01*
X114359853Y-88625055D01*
X114458456Y-88772625D01*
X114526376Y-88936597D01*
X114561000Y-89110668D01*
X114561000Y-89288150D01*
X114526376Y-89462221D01*
X114460511Y-89621231D01*
X114453402Y-89644669D01*
X114452429Y-89654544D01*
X114451000Y-89661728D01*
X114451000Y-89661730D01*
X114450763Y-89662919D01*
X114412532Y-89855121D01*
X114337075Y-90037290D01*
X114227525Y-90201243D01*
X114088103Y-90340665D01*
X113924150Y-90450215D01*
X113741981Y-90525672D01*
X113548590Y-90564140D01*
X113351410Y-90564140D01*
X113158019Y-90525672D01*
X112975850Y-90450215D01*
X112811897Y-90340665D01*
X112672475Y-90201243D01*
X112562925Y-90037290D01*
X112487468Y-89855121D01*
X112449000Y-89661730D01*
X112449000Y-89464550D01*
X112487468Y-89271159D01*
X112562925Y-89088990D01*
X112672475Y-88925037D01*
X112811899Y-88785613D01*
X112865236Y-88749974D01*
X112884178Y-88734429D01*
X112899719Y-88715491D01*
X112960147Y-88625055D01*
X113085646Y-88499556D01*
X113233216Y-88400953D01*
X113397188Y-88333033D01*
X113571259Y-88298409D01*
X113748741Y-88298409D01*
X113922812Y-88333033D01*
X113922812Y-88333033D01*
G37*
G36*
X121645284Y-86643232D02*
X121854752Y-86729996D01*
X122043273Y-86855962D01*
X122203588Y-87016277D01*
X122329554Y-87204798D01*
X122416318Y-87414266D01*
X122460550Y-87636635D01*
X122460550Y-87863365D01*
X122416318Y-88085734D01*
X122329554Y-88295202D01*
X122203588Y-88483723D01*
X122043273Y-88644038D01*
X121854752Y-88770004D01*
X121645284Y-88856768D01*
X121422915Y-88901000D01*
X121196185Y-88901000D01*
X120973816Y-88856768D01*
X120764348Y-88770004D01*
X120575827Y-88644038D01*
X120415512Y-88483723D01*
X120289546Y-88295202D01*
X120202782Y-88085734D01*
X120158550Y-87863365D01*
X120158550Y-87636635D01*
X120202782Y-87414266D01*
X120289546Y-87204798D01*
X120415512Y-87016277D01*
X120575827Y-86855962D01*
X120764348Y-86729996D01*
X120973816Y-86643232D01*
X121196185Y-86599000D01*
X121422915Y-86599000D01*
X121645284Y-86643232D01*
X121645284Y-86643232D01*
G37*
G36*
X110113414Y-86690827D02*
X110213688Y-86732362D01*
X110303938Y-86792665D01*
X110380681Y-86869408D01*
X110440984Y-86959658D01*
X110482519Y-87059932D01*
X110503693Y-87166383D01*
X110503693Y-87274923D01*
X110482519Y-87381374D01*
X110440984Y-87481648D01*
X110380681Y-87571898D01*
X110303938Y-87648641D01*
X110213688Y-87708944D01*
X110113414Y-87750479D01*
X110006963Y-87771653D01*
X109898423Y-87771653D01*
X109791972Y-87750479D01*
X109691698Y-87708944D01*
X109601448Y-87648641D01*
X109524705Y-87571898D01*
X109464402Y-87481648D01*
X109422867Y-87381374D01*
X109401693Y-87274923D01*
X109401693Y-87166383D01*
X109422867Y-87059932D01*
X109464402Y-86959658D01*
X109524705Y-86869408D01*
X109601448Y-86792665D01*
X109691698Y-86732362D01*
X109791972Y-86690827D01*
X109898423Y-86669653D01*
X110006963Y-86669653D01*
X110113414Y-86690827D01*
X110113414Y-86690827D01*
G37*
G36*
X116798252Y-82827818D02*
X116798254Y-82827819D01*
X116798255Y-82827819D01*
X117171513Y-82982427D01*
X117395381Y-83132011D01*
X117507439Y-83206886D01*
X117793114Y-83492561D01*
X117793116Y-83492564D01*
X118017573Y-83828487D01*
X118158444Y-84168582D01*
X118172182Y-84201748D01*
X118251000Y-84597993D01*
X118251000Y-85002007D01*
X118172280Y-85397761D01*
X118172181Y-85398255D01*
X118017573Y-85771513D01*
X117996387Y-85803220D01*
X117793114Y-86107439D01*
X117507439Y-86393114D01*
X117507436Y-86393116D01*
X117171513Y-86617573D01*
X116798255Y-86772181D01*
X116798254Y-86772181D01*
X116798252Y-86772182D01*
X116402007Y-86851000D01*
X115997993Y-86851000D01*
X115601748Y-86772182D01*
X115601746Y-86772181D01*
X115601745Y-86772181D01*
X115228487Y-86617573D01*
X114892564Y-86393116D01*
X114892561Y-86393114D01*
X114606886Y-86107439D01*
X114403613Y-85803220D01*
X114382427Y-85771513D01*
X114227819Y-85398255D01*
X114227721Y-85397761D01*
X114149000Y-85002007D01*
X114149000Y-84597993D01*
X114227818Y-84201748D01*
X114241556Y-84168582D01*
X114382427Y-83828487D01*
X114606884Y-83492564D01*
X114606886Y-83492561D01*
X114892561Y-83206886D01*
X115004619Y-83132011D01*
X115228487Y-82982427D01*
X115601745Y-82827819D01*
X115601746Y-82827819D01*
X115601748Y-82827818D01*
X115997993Y-82749000D01*
X116402007Y-82749000D01*
X116798252Y-82827818D01*
X116798252Y-82827818D01*
G37*
G36*
X120288217Y-81376925D02*
X120314324Y-81386106D01*
X120441713Y-81430903D01*
X120499713Y-81465239D01*
X120581725Y-81513789D01*
X120702880Y-81622399D01*
X120800515Y-81752555D01*
X120853247Y-81862491D01*
X120853250Y-81862498D01*
X120853251Y-81862501D01*
X121308530Y-83113366D01*
X121338803Y-83231488D01*
X121340754Y-83267229D01*
X121344701Y-83339513D01*
X121348429Y-83363733D01*
X121356810Y-83386759D01*
X121369522Y-83407708D01*
X121386077Y-83425774D01*
X121405838Y-83440264D01*
X121421669Y-83448179D01*
X121526673Y-83491673D01*
X121687740Y-83599295D01*
X121731571Y-83628582D01*
X121745748Y-83642759D01*
X121764690Y-83658305D01*
X121786293Y-83669852D01*
X121959684Y-83741673D01*
X122095692Y-83832551D01*
X122164582Y-83878582D01*
X122198051Y-83912051D01*
X122216993Y-83927597D01*
X122238598Y-83939145D01*
X122461980Y-84031673D01*
X122659961Y-84163960D01*
X122666878Y-84168582D01*
X122841122Y-84342826D01*
X122841124Y-84342829D01*
X122978031Y-84547724D01*
X123072334Y-84775392D01*
X123102325Y-84926168D01*
X123120409Y-85017081D01*
X123120409Y-85263509D01*
X123116832Y-85281491D01*
X123072334Y-85505198D01*
X122978031Y-85732866D01*
X122899096Y-85851000D01*
X122841122Y-85937764D01*
X122666878Y-86112008D01*
X122666875Y-86112010D01*
X122461980Y-86248917D01*
X122234312Y-86343220D01*
X122053044Y-86379276D01*
X121992623Y-86391295D01*
X121746195Y-86391295D01*
X121685773Y-86379276D01*
X121504506Y-86343220D01*
X121276838Y-86248917D01*
X121071943Y-86112010D01*
X121071940Y-86112008D01*
X121038471Y-86078539D01*
X121019529Y-86062993D01*
X120997924Y-86051445D01*
X120774542Y-85958917D01*
X120569647Y-85822010D01*
X120569644Y-85822008D01*
X120555467Y-85807831D01*
X120536525Y-85792285D01*
X120514922Y-85780738D01*
X120341531Y-85708917D01*
X120136636Y-85572010D01*
X120136633Y-85572008D01*
X119962389Y-85397764D01*
X119884698Y-85281491D01*
X119825480Y-85192866D01*
X119731177Y-84965198D01*
X119683102Y-84723508D01*
X119683102Y-84477082D01*
X119731177Y-84235392D01*
X119825480Y-84007724D01*
X119846012Y-83976996D01*
X119857558Y-83955395D01*
X119864671Y-83931945D01*
X119867073Y-83907559D01*
X119864671Y-83883173D01*
X119857558Y-83859724D01*
X119842067Y-83832551D01*
X119839018Y-83828486D01*
X119808895Y-83788330D01*
X119757648Y-83681489D01*
X119756163Y-83678394D01*
X119709887Y-83551252D01*
X119300880Y-82427518D01*
X119270606Y-82309397D01*
X119265712Y-82219753D01*
X119261736Y-82146931D01*
X119284732Y-81985860D01*
X119300476Y-81941090D01*
X119338710Y-81832364D01*
X119385957Y-81752555D01*
X119421596Y-81692352D01*
X119530206Y-81571197D01*
X119660361Y-81473563D01*
X119807065Y-81403195D01*
X119842478Y-81394119D01*
X119964680Y-81362799D01*
X120054324Y-81357905D01*
X120127146Y-81353929D01*
X120288217Y-81376925D01*
X120288217Y-81376925D01*
G37*
G36*
X47844096Y-80847033D02*
X47844098Y-80847034D01*
X47844099Y-80847034D01*
X48308352Y-81039333D01*
X48698196Y-81299819D01*
X48726171Y-81318511D01*
X49081489Y-81673829D01*
X49081491Y-81673832D01*
X49360667Y-82091648D01*
X49545818Y-82538644D01*
X49552967Y-82555904D01*
X49651000Y-83048747D01*
X49651000Y-83551253D01*
X49556349Y-84027096D01*
X49552966Y-84044099D01*
X49360667Y-84508352D01*
X49152260Y-84820255D01*
X49081489Y-84926171D01*
X48726171Y-85281489D01*
X48726168Y-85281491D01*
X48308352Y-85560667D01*
X47844099Y-85752966D01*
X47844098Y-85752966D01*
X47844096Y-85752967D01*
X47351253Y-85851000D01*
X46848747Y-85851000D01*
X46355904Y-85752967D01*
X46355902Y-85752966D01*
X46355901Y-85752966D01*
X45891648Y-85560667D01*
X45473832Y-85281491D01*
X45473829Y-85281489D01*
X45118511Y-84926171D01*
X45047740Y-84820255D01*
X44839333Y-84508352D01*
X44647034Y-84044099D01*
X44643652Y-84027096D01*
X44549000Y-83551253D01*
X44549000Y-83048747D01*
X44647033Y-82555904D01*
X44654182Y-82538644D01*
X44839333Y-82091648D01*
X45118509Y-81673832D01*
X45118511Y-81673829D01*
X45473829Y-81318511D01*
X45501804Y-81299819D01*
X45891648Y-81039333D01*
X46355901Y-80847034D01*
X46355902Y-80847034D01*
X46355904Y-80847033D01*
X46848747Y-80749000D01*
X47351253Y-80749000D01*
X47844096Y-80847033D01*
X47844096Y-80847033D01*
G37*
G36*
X107713621Y-83378859D02*
X107850022Y-83435358D01*
X107972779Y-83517382D01*
X108077175Y-83621778D01*
X108159199Y-83744535D01*
X108215698Y-83880936D01*
X108244500Y-84025738D01*
X108244500Y-84173376D01*
X108215698Y-84318178D01*
X108159199Y-84454579D01*
X108077175Y-84577336D01*
X107972779Y-84681732D01*
X107850022Y-84763756D01*
X107713621Y-84820255D01*
X107568819Y-84849057D01*
X107421181Y-84849057D01*
X107276379Y-84820255D01*
X107139978Y-84763756D01*
X107017221Y-84681732D01*
X106912825Y-84577336D01*
X106830801Y-84454579D01*
X106774302Y-84318178D01*
X106745500Y-84173376D01*
X106745500Y-84025738D01*
X106774302Y-83880936D01*
X106830801Y-83744535D01*
X106912825Y-83621778D01*
X107017221Y-83517382D01*
X107139978Y-83435358D01*
X107276379Y-83378859D01*
X107421181Y-83350057D01*
X107568819Y-83350057D01*
X107713621Y-83378859D01*
X107713621Y-83378859D01*
G37*
G36*
X129544096Y-79247033D02*
X129544098Y-79247034D01*
X129544099Y-79247034D01*
X130008352Y-79439333D01*
X130325102Y-79650979D01*
X130426171Y-79718511D01*
X130781489Y-80073829D01*
X130781491Y-80073832D01*
X131060667Y-80491648D01*
X131252875Y-80955682D01*
X131252967Y-80955904D01*
X131351000Y-81448747D01*
X131351000Y-81951253D01*
X131255308Y-82432329D01*
X131252966Y-82444099D01*
X131060667Y-82908352D01*
X130812049Y-83280435D01*
X130781489Y-83326171D01*
X130426171Y-83681489D01*
X130426168Y-83681491D01*
X130008352Y-83960667D01*
X129544099Y-84152966D01*
X129544098Y-84152966D01*
X129544096Y-84152967D01*
X129051253Y-84251000D01*
X128548747Y-84251000D01*
X128055904Y-84152967D01*
X128055902Y-84152966D01*
X128055901Y-84152966D01*
X127591648Y-83960667D01*
X127173832Y-83681491D01*
X127173829Y-83681489D01*
X126818511Y-83326171D01*
X126787951Y-83280435D01*
X126539333Y-82908352D01*
X126347034Y-82444099D01*
X126344693Y-82432329D01*
X126249000Y-81951253D01*
X126249000Y-81448747D01*
X126347033Y-80955904D01*
X126347125Y-80955682D01*
X126539333Y-80491648D01*
X126818509Y-80073832D01*
X126818511Y-80073829D01*
X127173829Y-79718511D01*
X127274898Y-79650979D01*
X127591648Y-79439333D01*
X128055901Y-79247034D01*
X128055902Y-79247034D01*
X128055904Y-79247033D01*
X128548747Y-79149000D01*
X129051253Y-79149000D01*
X129544096Y-79247033D01*
X129544096Y-79247033D01*
G37*
G36*
X122126492Y-81227112D02*
X122252107Y-81271286D01*
X122331875Y-81318509D01*
X122366697Y-81339123D01*
X122366698Y-81339124D01*
X122465851Y-81428009D01*
X122545754Y-81534527D01*
X122577083Y-81599845D01*
X122588915Y-81624512D01*
X122898753Y-82475782D01*
X122936550Y-82579627D01*
X122961323Y-82676289D01*
X122968583Y-82809252D01*
X122949763Y-82941076D01*
X122905589Y-83066692D01*
X122837752Y-83181283D01*
X122792742Y-83231491D01*
X122748867Y-83280434D01*
X122715145Y-83305730D01*
X122642348Y-83360338D01*
X122642346Y-83360339D01*
X122522283Y-83417928D01*
X122522281Y-83417929D01*
X122522280Y-83417929D01*
X122393293Y-83450988D01*
X122260329Y-83458248D01*
X122128506Y-83439427D01*
X122002891Y-83395254D01*
X121888300Y-83327417D01*
X121789147Y-83238530D01*
X121709244Y-83132012D01*
X121666087Y-83042036D01*
X121666083Y-83042028D01*
X121318452Y-82086923D01*
X121318448Y-82086912D01*
X121293675Y-81990250D01*
X121286415Y-81857287D01*
X121305235Y-81725463D01*
X121349409Y-81599848D01*
X121417247Y-81485257D01*
X121506132Y-81386104D01*
X121612650Y-81306201D01*
X121732716Y-81248611D01*
X121861705Y-81215552D01*
X121994668Y-81208292D01*
X122126492Y-81227112D01*
X122126492Y-81227112D01*
G37*
G36*
X95208702Y-81092194D02*
X95418170Y-81178958D01*
X95606691Y-81304924D01*
X95767006Y-81465239D01*
X95892972Y-81653760D01*
X95979736Y-81863228D01*
X96023968Y-82085597D01*
X96023968Y-82312327D01*
X95979736Y-82534696D01*
X95892972Y-82744164D01*
X95767006Y-82932685D01*
X95606691Y-83093000D01*
X95418170Y-83218966D01*
X95208702Y-83305730D01*
X94986333Y-83349962D01*
X94759603Y-83349962D01*
X94537234Y-83305730D01*
X94327766Y-83218966D01*
X94139245Y-83093000D01*
X93978930Y-82932685D01*
X93852964Y-82744164D01*
X93766200Y-82534696D01*
X93721968Y-82312327D01*
X93721968Y-82085597D01*
X93766200Y-81863228D01*
X93852964Y-81653760D01*
X93978930Y-81465239D01*
X94139245Y-81304924D01*
X94327766Y-81178958D01*
X94537234Y-81092194D01*
X94759603Y-81047962D01*
X94986333Y-81047962D01*
X95208702Y-81092194D01*
X95208702Y-81092194D01*
G37*
G36*
X100078874Y-78763681D02*
X100235569Y-78807505D01*
X100235570Y-78807505D01*
X100235572Y-78807506D01*
X100380702Y-78881055D01*
X100380704Y-78881056D01*
X100380703Y-78881056D01*
X100508700Y-78981508D01*
X100561670Y-79043254D01*
X100614638Y-79104998D01*
X100614639Y-79105000D01*
X100614640Y-79105001D01*
X100694452Y-79246789D01*
X100694453Y-79246792D01*
X100745069Y-79401423D01*
X100764515Y-79562709D01*
X100764545Y-79562962D01*
X100752134Y-79725195D01*
X100720993Y-79836538D01*
X100708308Y-79881893D01*
X100640378Y-80015934D01*
X100634758Y-80027024D01*
X100534306Y-80155021D01*
X100441755Y-80234416D01*
X99891077Y-80620004D01*
X99351348Y-80997926D01*
X99245082Y-81057743D01*
X99144798Y-81090569D01*
X99122369Y-81100438D01*
X99102297Y-81114493D01*
X99085352Y-81132194D01*
X99072186Y-81152861D01*
X99061087Y-81184980D01*
X99046259Y-81259525D01*
X99021100Y-81386007D01*
X98949278Y-81559401D01*
X98942168Y-81582841D01*
X98939766Y-81607227D01*
X98939766Y-81627280D01*
X98891691Y-81868970D01*
X98799163Y-82092352D01*
X98792053Y-82115793D01*
X98789651Y-82140179D01*
X98789651Y-82187517D01*
X98741576Y-82429207D01*
X98647273Y-82656875D01*
X98533052Y-82827818D01*
X98510364Y-82861773D01*
X98336120Y-83036017D01*
X98336117Y-83036019D01*
X98131222Y-83172926D01*
X97903554Y-83267229D01*
X97722286Y-83303285D01*
X97661865Y-83315304D01*
X97415437Y-83315304D01*
X97355016Y-83303285D01*
X97173748Y-83267229D01*
X96946080Y-83172926D01*
X96741185Y-83036019D01*
X96741182Y-83036017D01*
X96566938Y-82861773D01*
X96544250Y-82827818D01*
X96430029Y-82656875D01*
X96335726Y-82429207D01*
X96287651Y-82187517D01*
X96287651Y-81941091D01*
X96335726Y-81699401D01*
X96428254Y-81476019D01*
X96435364Y-81452578D01*
X96437766Y-81428192D01*
X96437766Y-81380853D01*
X96459560Y-81271289D01*
X96485841Y-81139164D01*
X96557663Y-80965770D01*
X96564773Y-80942330D01*
X96567175Y-80917944D01*
X96567175Y-80897890D01*
X96591798Y-80774102D01*
X96615250Y-80656201D01*
X96709553Y-80428533D01*
X96846460Y-80223638D01*
X96846462Y-80223635D01*
X97020706Y-80049391D01*
X97048230Y-80031000D01*
X97225604Y-79912482D01*
X97453272Y-79818179D01*
X97653582Y-79778335D01*
X97694961Y-79770104D01*
X97941389Y-79770104D01*
X98154755Y-79812545D01*
X98179141Y-79814947D01*
X98203527Y-79812545D01*
X98226977Y-79805432D01*
X98248587Y-79793881D01*
X98267529Y-79778335D01*
X98277474Y-79767119D01*
X98311246Y-79724087D01*
X98311249Y-79724084D01*
X98403799Y-79644689D01*
X98971710Y-79247033D01*
X99494206Y-78881177D01*
X99501573Y-78877030D01*
X99600469Y-78821362D01*
X99677085Y-78796284D01*
X99755103Y-78770745D01*
X99916639Y-78751269D01*
X99916641Y-78751269D01*
X100078874Y-78763681D01*
X100078874Y-78763681D01*
G37*
G36*
X108809809Y-81699401D02*
X109318530Y-81993111D01*
X108617530Y-83207279D01*
X108617529Y-83207279D01*
X108099773Y-82908352D01*
X107706470Y-82681279D01*
X108407470Y-81467111D01*
X108407471Y-81467111D01*
X108809809Y-81699401D01*
X108809809Y-81699401D01*
G37*
G36*
X100708725Y-80636879D02*
X100823877Y-80645689D01*
X100952116Y-80681554D01*
X101070896Y-80741748D01*
X101175647Y-80823958D01*
X101211345Y-80865571D01*
X101262349Y-80925026D01*
X101262350Y-80925028D01*
X101327669Y-81041067D01*
X101369092Y-81167616D01*
X101381592Y-81271289D01*
X101385032Y-81299821D01*
X101384544Y-81306201D01*
X101374874Y-81432593D01*
X101339009Y-81560832D01*
X101278815Y-81679612D01*
X101196603Y-81784365D01*
X101120864Y-81849338D01*
X101120858Y-81849343D01*
X100549874Y-82249150D01*
X100288267Y-82432329D01*
X100201302Y-82481282D01*
X100074753Y-82522705D01*
X99942550Y-82538645D01*
X99809777Y-82528487D01*
X99681536Y-82492622D01*
X99562757Y-82432427D01*
X99458009Y-82350220D01*
X99416243Y-82301533D01*
X99371305Y-82249150D01*
X99357164Y-82224029D01*
X99305985Y-82133109D01*
X99264562Y-82006560D01*
X99248622Y-81874357D01*
X99258780Y-81741584D01*
X99294645Y-81613343D01*
X99354840Y-81494564D01*
X99437049Y-81389813D01*
X99512790Y-81324838D01*
X100345386Y-80741847D01*
X100432351Y-80692894D01*
X100558900Y-80651471D01*
X100691103Y-80635531D01*
X100691105Y-80635531D01*
X100708725Y-80636879D01*
X100708725Y-80636879D01*
G37*
G36*
X91900555Y-76579264D02*
X91924548Y-76580574D01*
X92082161Y-76620968D01*
X92228865Y-76691336D01*
X92359022Y-76788972D01*
X92467632Y-76910125D01*
X92529749Y-77015056D01*
X92529751Y-77015060D01*
X93092314Y-78221478D01*
X93112023Y-78277525D01*
X93132768Y-78336514D01*
X93132768Y-78336516D01*
X93140581Y-78391239D01*
X93146405Y-78415041D01*
X93156761Y-78437250D01*
X93171251Y-78457011D01*
X93189318Y-78473566D01*
X93210267Y-78486278D01*
X93239938Y-78496170D01*
X93276175Y-78503378D01*
X93503843Y-78597681D01*
X93652424Y-78696960D01*
X93708741Y-78734590D01*
X93882985Y-78908834D01*
X93882987Y-78908837D01*
X94019894Y-79113732D01*
X94114197Y-79341400D01*
X94143086Y-79486635D01*
X94161154Y-79577466D01*
X94162272Y-79583090D01*
X94162272Y-79829516D01*
X94114197Y-80071206D01*
X94042375Y-80244600D01*
X94035265Y-80268040D01*
X94032863Y-80292426D01*
X94032863Y-80312480D01*
X94028638Y-80333720D01*
X93984788Y-80554169D01*
X93892260Y-80777551D01*
X93885150Y-80800992D01*
X93882748Y-80825378D01*
X93882748Y-80872717D01*
X93875485Y-80909228D01*
X93834673Y-81114406D01*
X93740370Y-81342074D01*
X93611775Y-81534529D01*
X93603461Y-81546972D01*
X93429217Y-81721216D01*
X93429214Y-81721218D01*
X93224319Y-81858125D01*
X92996651Y-81952428D01*
X92815384Y-81988484D01*
X92754962Y-82000503D01*
X92508534Y-82000503D01*
X92448112Y-81988484D01*
X92266845Y-81952428D01*
X92039177Y-81858125D01*
X91834282Y-81721218D01*
X91834279Y-81721216D01*
X91660035Y-81546972D01*
X91651721Y-81534529D01*
X91523126Y-81342074D01*
X91428823Y-81114406D01*
X91388011Y-80909228D01*
X91380748Y-80872717D01*
X91380748Y-80626289D01*
X91399433Y-80532352D01*
X91428823Y-80384600D01*
X91521351Y-80161218D01*
X91528461Y-80137777D01*
X91530863Y-80113391D01*
X91530863Y-80066052D01*
X91547398Y-79982925D01*
X91578938Y-79824363D01*
X91650760Y-79650969D01*
X91657870Y-79627529D01*
X91660272Y-79603143D01*
X91660272Y-79583089D01*
X91696408Y-79401423D01*
X91708347Y-79341400D01*
X91751837Y-79236405D01*
X91758950Y-79212957D01*
X91761352Y-79188571D01*
X91758950Y-79164185D01*
X91751837Y-79140735D01*
X91740286Y-79119125D01*
X91729428Y-79105133D01*
X91719922Y-79094529D01*
X91657212Y-79024577D01*
X91595095Y-78919646D01*
X91590053Y-78908834D01*
X91032530Y-77713223D01*
X90992076Y-77598186D01*
X90969080Y-77437113D01*
X90977951Y-77274650D01*
X90977951Y-77274647D01*
X91018345Y-77117034D01*
X91088713Y-76970330D01*
X91186349Y-76840173D01*
X91307502Y-76731563D01*
X91377509Y-76690120D01*
X91447515Y-76648677D01*
X91537629Y-76616988D01*
X91601008Y-76594699D01*
X91633209Y-76590102D01*
X91762082Y-76571703D01*
X91900555Y-76579264D01*
X91900555Y-76579264D01*
G37*
G36*
X119241981Y-79074328D02*
X119424150Y-79149785D01*
X119588103Y-79259335D01*
X119727525Y-79398757D01*
X119837075Y-79562710D01*
X119912532Y-79744879D01*
X119951000Y-79938270D01*
X119951000Y-80135450D01*
X119912532Y-80328841D01*
X119837075Y-80511010D01*
X119727525Y-80674963D01*
X119588101Y-80814387D01*
X119534764Y-80850026D01*
X119515822Y-80865571D01*
X119500281Y-80884509D01*
X119439853Y-80974945D01*
X119314354Y-81100444D01*
X119166784Y-81199047D01*
X119002812Y-81266967D01*
X118828741Y-81301591D01*
X118651259Y-81301591D01*
X118477188Y-81266967D01*
X118313216Y-81199047D01*
X118165646Y-81100444D01*
X118040147Y-80974945D01*
X117941544Y-80827375D01*
X117873624Y-80663403D01*
X117839000Y-80489332D01*
X117839000Y-80311850D01*
X117873624Y-80137779D01*
X117939489Y-79978769D01*
X117946598Y-79955331D01*
X117947571Y-79945456D01*
X117949505Y-79935734D01*
X117987468Y-79744879D01*
X118062925Y-79562710D01*
X118172475Y-79398757D01*
X118311897Y-79259335D01*
X118475850Y-79149785D01*
X118658019Y-79074328D01*
X118851410Y-79035860D01*
X119048590Y-79035860D01*
X119241981Y-79074328D01*
X119241981Y-79074328D01*
G37*
G36*
X75535734Y-78493232D02*
X75745202Y-78579996D01*
X75933723Y-78705962D01*
X76094038Y-78866277D01*
X76220004Y-79054798D01*
X76306768Y-79264266D01*
X76351000Y-79486635D01*
X76351000Y-79713365D01*
X76306768Y-79935734D01*
X76220004Y-80145202D01*
X76094038Y-80333723D01*
X75933723Y-80494038D01*
X75745202Y-80620004D01*
X75535734Y-80706768D01*
X75313365Y-80751000D01*
X75086635Y-80751000D01*
X74864266Y-80706768D01*
X74654798Y-80620004D01*
X74466277Y-80494038D01*
X74305962Y-80333723D01*
X74179996Y-80145202D01*
X74093232Y-79935734D01*
X74049000Y-79713365D01*
X74049000Y-79486635D01*
X74093232Y-79264266D01*
X74179996Y-79054798D01*
X74305962Y-78866277D01*
X74466277Y-78705962D01*
X74654798Y-78579996D01*
X74864266Y-78493232D01*
X75086635Y-78449000D01*
X75313365Y-78449000D01*
X75535734Y-78493232D01*
X75535734Y-78493232D01*
G37*
G36*
X56435734Y-78493232D02*
X56645202Y-78579996D01*
X56833723Y-78705962D01*
X56994038Y-78866277D01*
X57120004Y-79054798D01*
X57206768Y-79264266D01*
X57251000Y-79486635D01*
X57251000Y-79713365D01*
X57206768Y-79935734D01*
X57120004Y-80145202D01*
X56994038Y-80333723D01*
X56833723Y-80494038D01*
X56645202Y-80620004D01*
X56435734Y-80706768D01*
X56213365Y-80751000D01*
X55986635Y-80751000D01*
X55764266Y-80706768D01*
X55554798Y-80620004D01*
X55366277Y-80494038D01*
X55205962Y-80333723D01*
X55079996Y-80145202D01*
X54993232Y-79935734D01*
X54949000Y-79713365D01*
X54949000Y-79486635D01*
X54993232Y-79264266D01*
X55079996Y-79054798D01*
X55205962Y-78866277D01*
X55366277Y-78705962D01*
X55554798Y-78579996D01*
X55764266Y-78493232D01*
X55986635Y-78449000D01*
X56213365Y-78449000D01*
X56435734Y-78493232D01*
X56435734Y-78493232D01*
G37*
G36*
X110561757Y-78611702D02*
X111093530Y-78918721D01*
X110392530Y-80132889D01*
X110392529Y-80132889D01*
X109867072Y-79829516D01*
X109481470Y-79606889D01*
X110182470Y-78392721D01*
X110182471Y-78392721D01*
X110561757Y-78611702D01*
X110561757Y-78611702D01*
G37*
G36*
X90366970Y-77845274D02*
X90495967Y-77878334D01*
X90616024Y-77935921D01*
X90722548Y-78015828D01*
X90811434Y-78114980D01*
X90862273Y-78200859D01*
X91291822Y-79122025D01*
X91324932Y-79216178D01*
X91343752Y-79347998D01*
X91338765Y-79439333D01*
X91336492Y-79480962D01*
X91331996Y-79498503D01*
X91303432Y-79609957D01*
X91245845Y-79730014D01*
X91165938Y-79836538D01*
X91066786Y-79925424D01*
X90952201Y-79993257D01*
X90826579Y-80037434D01*
X90694759Y-80056254D01*
X90575563Y-80049746D01*
X90561795Y-80048994D01*
X90491587Y-80031000D01*
X90432802Y-80015934D01*
X90344975Y-79973807D01*
X90312741Y-79958346D01*
X90206220Y-79878440D01*
X90162362Y-79829517D01*
X90117334Y-79779288D01*
X90066495Y-79693409D01*
X89636946Y-78772242D01*
X89603836Y-78678089D01*
X89585016Y-78546269D01*
X89592276Y-78413308D01*
X89625336Y-78284311D01*
X89682923Y-78164254D01*
X89762830Y-78057730D01*
X89861982Y-77968844D01*
X89976567Y-77901011D01*
X90102189Y-77856834D01*
X90234009Y-77838014D01*
X90366970Y-77845274D01*
X90366970Y-77845274D01*
G37*
G36*
X60402100Y-74936160D02*
X60445767Y-74945342D01*
X60561327Y-74969641D01*
X60710958Y-75033541D01*
X60845251Y-75125406D01*
X60893857Y-75175085D01*
X60959042Y-75241708D01*
X61047957Y-75377973D01*
X61108579Y-75528965D01*
X61138579Y-75688883D01*
X61136804Y-75851581D01*
X61129766Y-75885052D01*
X61103323Y-76010808D01*
X61039423Y-76160438D01*
X61039421Y-76160441D01*
X60970574Y-76261085D01*
X60589041Y-76715778D01*
X60114930Y-77280802D01*
X60027772Y-77366078D01*
X59940392Y-77423095D01*
X59921282Y-77438433D01*
X59905531Y-77457205D01*
X59893745Y-77478688D01*
X59886376Y-77502058D01*
X59883708Y-77526417D01*
X59886103Y-77552165D01*
X59888228Y-77562849D01*
X59891000Y-77576787D01*
X59891000Y-77823213D01*
X59872076Y-77918352D01*
X59870631Y-77925613D01*
X59868229Y-77950000D01*
X59870631Y-77974383D01*
X59880316Y-78023074D01*
X59891000Y-78076787D01*
X59891000Y-78323214D01*
X59862675Y-78465614D01*
X59860273Y-78490000D01*
X59862675Y-78514386D01*
X59891000Y-78656786D01*
X59891000Y-78903214D01*
X59887915Y-78918721D01*
X59842925Y-79144903D01*
X59748622Y-79372571D01*
X59632354Y-79546578D01*
X59611713Y-79577469D01*
X59437469Y-79751713D01*
X59437466Y-79751715D01*
X59232571Y-79888622D01*
X59004903Y-79982925D01*
X58838955Y-80015934D01*
X58763214Y-80031000D01*
X58516786Y-80031000D01*
X58441045Y-80015934D01*
X58275097Y-79982925D01*
X58047429Y-79888622D01*
X57842534Y-79751715D01*
X57842531Y-79751713D01*
X57668287Y-79577469D01*
X57647646Y-79546578D01*
X57531378Y-79372571D01*
X57437075Y-79144903D01*
X57392085Y-78918721D01*
X57389000Y-78903214D01*
X57389000Y-78656786D01*
X57417325Y-78514386D01*
X57419727Y-78490000D01*
X57417325Y-78465614D01*
X57389000Y-78323214D01*
X57389000Y-78076787D01*
X57399684Y-78023074D01*
X57409369Y-77974383D01*
X57411771Y-77950000D01*
X57409369Y-77925613D01*
X57407925Y-77918352D01*
X57389000Y-77823213D01*
X57389000Y-77576787D01*
X57393898Y-77552165D01*
X57403599Y-77503393D01*
X57437075Y-77335097D01*
X57531378Y-77107429D01*
X57668285Y-76902534D01*
X57668287Y-76902531D01*
X57842531Y-76728287D01*
X57843458Y-76727668D01*
X58047429Y-76591378D01*
X58275097Y-76497075D01*
X58456364Y-76461019D01*
X58516786Y-76449000D01*
X58642761Y-76449000D01*
X58667147Y-76446598D01*
X58690596Y-76439485D01*
X58712207Y-76427934D01*
X58731149Y-76412388D01*
X58746695Y-76393446D01*
X58757717Y-76373092D01*
X58780577Y-76319563D01*
X58820580Y-76261085D01*
X58849426Y-76218916D01*
X59705068Y-75199200D01*
X59792227Y-75113922D01*
X59928492Y-75025007D01*
X60079484Y-74964385D01*
X60202473Y-74941313D01*
X60239401Y-74934385D01*
X60239402Y-74934385D01*
X60402100Y-74936160D01*
X60402100Y-74936160D01*
G37*
G36*
X51997526Y-74941313D02*
X52120515Y-74964385D01*
X52271507Y-75025007D01*
X52407772Y-75113922D01*
X52407773Y-75113923D01*
X52494930Y-75199198D01*
X52841296Y-75611981D01*
X53350574Y-76218915D01*
X53379420Y-76261084D01*
X53419420Y-76319557D01*
X53442282Y-76373092D01*
X53454069Y-76394575D01*
X53469820Y-76413347D01*
X53488930Y-76428685D01*
X53510665Y-76440000D01*
X53534191Y-76446857D01*
X53557239Y-76449000D01*
X53683214Y-76449000D01*
X53743636Y-76461019D01*
X53924903Y-76497075D01*
X54152571Y-76591378D01*
X54356542Y-76727668D01*
X54357469Y-76728287D01*
X54531713Y-76902531D01*
X54531715Y-76902534D01*
X54668622Y-77107429D01*
X54762925Y-77335097D01*
X54796401Y-77503393D01*
X54806103Y-77552165D01*
X54811000Y-77576787D01*
X54811000Y-77823213D01*
X54792076Y-77918352D01*
X54790631Y-77925613D01*
X54788229Y-77950000D01*
X54790631Y-77974383D01*
X54800316Y-78023074D01*
X54811000Y-78076787D01*
X54811000Y-78323214D01*
X54782675Y-78465614D01*
X54780273Y-78490000D01*
X54782675Y-78514386D01*
X54811000Y-78656786D01*
X54811000Y-78903214D01*
X54807915Y-78918721D01*
X54762925Y-79144903D01*
X54668622Y-79372571D01*
X54552354Y-79546578D01*
X54531713Y-79577469D01*
X54357469Y-79751713D01*
X54357466Y-79751715D01*
X54152571Y-79888622D01*
X53924903Y-79982925D01*
X53758955Y-80015934D01*
X53683214Y-80031000D01*
X53436786Y-80031000D01*
X53361045Y-80015934D01*
X53195097Y-79982925D01*
X52967429Y-79888622D01*
X52762534Y-79751715D01*
X52762531Y-79751713D01*
X52588287Y-79577469D01*
X52567646Y-79546578D01*
X52451378Y-79372571D01*
X52357075Y-79144903D01*
X52312085Y-78918721D01*
X52309000Y-78903214D01*
X52309000Y-78656786D01*
X52337325Y-78514386D01*
X52339727Y-78490000D01*
X52337325Y-78465614D01*
X52309000Y-78323214D01*
X52309000Y-78076787D01*
X52319684Y-78023074D01*
X52329369Y-77974383D01*
X52331771Y-77950000D01*
X52329369Y-77925613D01*
X52327925Y-77918352D01*
X52309000Y-77823213D01*
X52309000Y-77576787D01*
X52311772Y-77562849D01*
X52313897Y-77552165D01*
X52316299Y-77527779D01*
X52313897Y-77503393D01*
X52306784Y-77479944D01*
X52295232Y-77458333D01*
X52279687Y-77439391D01*
X52259607Y-77423095D01*
X52172228Y-77366079D01*
X52085070Y-77280802D01*
X52051208Y-77240447D01*
X51229426Y-76261084D01*
X51160579Y-76160440D01*
X51160578Y-76160438D01*
X51160577Y-76160437D01*
X51096677Y-76010807D01*
X51070234Y-75885049D01*
X51063196Y-75851580D01*
X51061421Y-75688883D01*
X51091421Y-75528965D01*
X51152043Y-75377973D01*
X51240958Y-75241708D01*
X51306143Y-75175085D01*
X51354749Y-75125406D01*
X51489042Y-75033541D01*
X51638673Y-74969641D01*
X51754233Y-74945342D01*
X51797900Y-74936160D01*
X51960597Y-74934385D01*
X51960598Y-74934385D01*
X51997526Y-74941313D01*
X51997526Y-74941313D01*
G37*
G36*
X79502100Y-74936160D02*
X79545767Y-74945342D01*
X79661327Y-74969641D01*
X79810958Y-75033541D01*
X79945251Y-75125406D01*
X79993857Y-75175085D01*
X80059042Y-75241708D01*
X80147957Y-75377973D01*
X80208579Y-75528965D01*
X80238579Y-75688883D01*
X80236804Y-75851581D01*
X80229766Y-75885052D01*
X80203323Y-76010808D01*
X80139423Y-76160438D01*
X80139421Y-76160441D01*
X80070574Y-76261085D01*
X79689041Y-76715778D01*
X79214930Y-77280802D01*
X79127772Y-77366078D01*
X79040392Y-77423095D01*
X79021282Y-77438433D01*
X79005531Y-77457205D01*
X78993745Y-77478688D01*
X78986376Y-77502058D01*
X78983708Y-77526417D01*
X78986103Y-77552165D01*
X78988228Y-77562849D01*
X78991000Y-77576787D01*
X78991000Y-77823213D01*
X78972076Y-77918352D01*
X78970631Y-77925613D01*
X78968229Y-77950000D01*
X78970631Y-77974383D01*
X78980316Y-78023074D01*
X78991000Y-78076787D01*
X78991000Y-78323214D01*
X78962675Y-78465614D01*
X78960273Y-78490000D01*
X78962675Y-78514386D01*
X78991000Y-78656786D01*
X78991000Y-78903214D01*
X78987915Y-78918721D01*
X78942925Y-79144903D01*
X78848622Y-79372571D01*
X78732354Y-79546578D01*
X78711713Y-79577469D01*
X78537469Y-79751713D01*
X78537466Y-79751715D01*
X78332571Y-79888622D01*
X78104903Y-79982925D01*
X77938955Y-80015934D01*
X77863214Y-80031000D01*
X77616786Y-80031000D01*
X77541045Y-80015934D01*
X77375097Y-79982925D01*
X77147429Y-79888622D01*
X76942534Y-79751715D01*
X76942531Y-79751713D01*
X76768287Y-79577469D01*
X76747646Y-79546578D01*
X76631378Y-79372571D01*
X76537075Y-79144903D01*
X76492085Y-78918721D01*
X76489000Y-78903214D01*
X76489000Y-78656786D01*
X76517325Y-78514386D01*
X76519727Y-78490000D01*
X76517325Y-78465614D01*
X76489000Y-78323214D01*
X76489000Y-78076787D01*
X76499684Y-78023074D01*
X76509369Y-77974383D01*
X76511771Y-77950000D01*
X76509369Y-77925613D01*
X76507925Y-77918352D01*
X76489000Y-77823213D01*
X76489000Y-77576787D01*
X76493898Y-77552165D01*
X76503599Y-77503393D01*
X76537075Y-77335097D01*
X76631378Y-77107429D01*
X76768285Y-76902534D01*
X76768287Y-76902531D01*
X76942531Y-76728287D01*
X76943458Y-76727668D01*
X77147429Y-76591378D01*
X77375097Y-76497075D01*
X77556364Y-76461019D01*
X77616786Y-76449000D01*
X77742761Y-76449000D01*
X77767147Y-76446598D01*
X77790596Y-76439485D01*
X77812207Y-76427934D01*
X77831149Y-76412388D01*
X77846695Y-76393446D01*
X77857717Y-76373092D01*
X77880577Y-76319563D01*
X77920580Y-76261085D01*
X77949426Y-76218916D01*
X78805068Y-75199200D01*
X78892227Y-75113922D01*
X79028492Y-75025007D01*
X79179484Y-74964385D01*
X79302473Y-74941313D01*
X79339401Y-74934385D01*
X79339402Y-74934385D01*
X79502100Y-74936160D01*
X79502100Y-74936160D01*
G37*
G36*
X71097526Y-74941313D02*
X71220515Y-74964385D01*
X71371507Y-75025007D01*
X71507772Y-75113922D01*
X71507773Y-75113923D01*
X71594930Y-75199198D01*
X71941296Y-75611981D01*
X72450574Y-76218915D01*
X72479420Y-76261084D01*
X72519420Y-76319557D01*
X72542282Y-76373092D01*
X72554069Y-76394575D01*
X72569820Y-76413347D01*
X72588930Y-76428685D01*
X72610665Y-76440000D01*
X72634191Y-76446857D01*
X72657239Y-76449000D01*
X72783214Y-76449000D01*
X72843636Y-76461019D01*
X73024903Y-76497075D01*
X73252571Y-76591378D01*
X73456542Y-76727668D01*
X73457469Y-76728287D01*
X73631713Y-76902531D01*
X73631715Y-76902534D01*
X73768622Y-77107429D01*
X73862925Y-77335097D01*
X73896401Y-77503393D01*
X73906103Y-77552165D01*
X73911000Y-77576787D01*
X73911000Y-77823213D01*
X73892076Y-77918352D01*
X73890631Y-77925613D01*
X73888229Y-77950000D01*
X73890631Y-77974383D01*
X73900316Y-78023074D01*
X73911000Y-78076787D01*
X73911000Y-78323214D01*
X73882675Y-78465614D01*
X73880273Y-78490000D01*
X73882675Y-78514386D01*
X73911000Y-78656786D01*
X73911000Y-78903214D01*
X73907915Y-78918721D01*
X73862925Y-79144903D01*
X73768622Y-79372571D01*
X73652354Y-79546578D01*
X73631713Y-79577469D01*
X73457469Y-79751713D01*
X73457466Y-79751715D01*
X73252571Y-79888622D01*
X73024903Y-79982925D01*
X72858955Y-80015934D01*
X72783214Y-80031000D01*
X72536786Y-80031000D01*
X72461045Y-80015934D01*
X72295097Y-79982925D01*
X72067429Y-79888622D01*
X71862534Y-79751715D01*
X71862531Y-79751713D01*
X71688287Y-79577469D01*
X71667646Y-79546578D01*
X71551378Y-79372571D01*
X71457075Y-79144903D01*
X71412085Y-78918721D01*
X71409000Y-78903214D01*
X71409000Y-78656786D01*
X71437325Y-78514386D01*
X71439727Y-78490000D01*
X71437325Y-78465614D01*
X71409000Y-78323214D01*
X71409000Y-78076787D01*
X71419684Y-78023074D01*
X71429369Y-77974383D01*
X71431771Y-77950000D01*
X71429369Y-77925613D01*
X71427925Y-77918352D01*
X71409000Y-77823213D01*
X71409000Y-77576787D01*
X71411772Y-77562849D01*
X71413897Y-77552165D01*
X71416299Y-77527779D01*
X71413897Y-77503393D01*
X71406784Y-77479944D01*
X71395232Y-77458333D01*
X71379687Y-77439391D01*
X71359607Y-77423095D01*
X71272228Y-77366079D01*
X71185070Y-77280802D01*
X71151208Y-77240447D01*
X70329426Y-76261084D01*
X70260579Y-76160440D01*
X70260578Y-76160438D01*
X70260577Y-76160437D01*
X70196677Y-76010807D01*
X70170234Y-75885049D01*
X70163196Y-75851580D01*
X70161421Y-75688883D01*
X70191421Y-75528965D01*
X70252043Y-75377973D01*
X70340958Y-75241708D01*
X70406143Y-75175085D01*
X70454749Y-75125406D01*
X70589042Y-75033541D01*
X70738673Y-74969641D01*
X70854233Y-74945342D01*
X70897900Y-74936160D01*
X71060597Y-74934385D01*
X71060598Y-74934385D01*
X71097526Y-74941313D01*
X71097526Y-74941313D01*
G37*
G36*
X101439403Y-76922505D02*
X101502318Y-76935019D01*
X101526702Y-76937421D01*
X101551088Y-76935019D01*
X101614001Y-76922505D01*
X101811182Y-76922505D01*
X102004573Y-76960973D01*
X102186742Y-77036430D01*
X102350695Y-77145980D01*
X102490117Y-77285402D01*
X102599667Y-77449355D01*
X102675124Y-77631524D01*
X102713592Y-77824915D01*
X102713592Y-78022095D01*
X102675124Y-78215486D01*
X102599667Y-78397655D01*
X102490117Y-78561608D01*
X102350695Y-78701030D01*
X102186742Y-78810580D01*
X102004573Y-78886037D01*
X101811182Y-78924505D01*
X101614002Y-78924505D01*
X101420611Y-78886037D01*
X101238442Y-78810580D01*
X101086676Y-78709173D01*
X101074492Y-78701032D01*
X101068398Y-78696960D01*
X101060730Y-78690667D01*
X101039132Y-78679123D01*
X100880119Y-78613257D01*
X100732549Y-78514654D01*
X100607050Y-78389155D01*
X100508447Y-78241585D01*
X100440527Y-78077613D01*
X100405903Y-77903542D01*
X100405903Y-77726060D01*
X100440527Y-77551989D01*
X100508447Y-77388017D01*
X100607050Y-77240447D01*
X100732549Y-77114948D01*
X100880119Y-77016345D01*
X101044091Y-76948425D01*
X101218162Y-76913801D01*
X101395645Y-76913801D01*
X101439403Y-76922505D01*
X101439403Y-76922505D01*
G37*
G36*
X115333414Y-77649521D02*
X115433688Y-77691056D01*
X115523938Y-77751359D01*
X115600681Y-77828102D01*
X115660984Y-77918352D01*
X115702519Y-78018626D01*
X115723693Y-78125077D01*
X115723693Y-78233617D01*
X115702519Y-78340068D01*
X115660984Y-78440342D01*
X115600681Y-78530592D01*
X115523938Y-78607335D01*
X115433688Y-78667638D01*
X115333414Y-78709173D01*
X115226963Y-78730347D01*
X115118423Y-78730347D01*
X115011972Y-78709173D01*
X114911698Y-78667638D01*
X114821448Y-78607335D01*
X114744705Y-78530592D01*
X114684402Y-78440342D01*
X114642867Y-78340068D01*
X114621693Y-78233617D01*
X114621693Y-78125077D01*
X114642867Y-78018626D01*
X114684402Y-77918352D01*
X114744705Y-77828102D01*
X114821448Y-77751359D01*
X114911698Y-77691056D01*
X115011972Y-77649521D01*
X115118423Y-77628347D01*
X115226963Y-77628347D01*
X115333414Y-77649521D01*
X115333414Y-77649521D01*
G37*
G36*
X50884754Y-76583996D02*
X50976840Y-76620968D01*
X51008326Y-76633609D01*
X51008330Y-76633611D01*
X51119847Y-76706377D01*
X51191173Y-76776164D01*
X51191178Y-76776170D01*
X51191180Y-76776172D01*
X51844511Y-77554780D01*
X51844513Y-77554783D01*
X51844517Y-77554788D01*
X51900859Y-77637151D01*
X51953155Y-77759608D01*
X51980556Y-77889920D01*
X51982010Y-78023074D01*
X51957457Y-78153950D01*
X51907844Y-78277522D01*
X51907843Y-78277523D01*
X51835076Y-78389042D01*
X51741950Y-78484222D01*
X51713947Y-78503378D01*
X51632045Y-78559405D01*
X51509585Y-78611702D01*
X51379275Y-78639103D01*
X51246120Y-78640557D01*
X51115243Y-78616004D01*
X50991673Y-78566392D01*
X50991670Y-78566390D01*
X50912379Y-78514651D01*
X50880151Y-78493622D01*
X50808823Y-78423833D01*
X50808819Y-78423829D01*
X50351095Y-77878334D01*
X50155487Y-77645217D01*
X50099142Y-77562850D01*
X50046845Y-77440390D01*
X50019444Y-77310080D01*
X50017991Y-77176925D01*
X50042543Y-77046051D01*
X50092158Y-76922475D01*
X50164924Y-76810958D01*
X50258049Y-76715779D01*
X50271792Y-76706378D01*
X50367955Y-76640595D01*
X50384316Y-76633608D01*
X50490415Y-76588298D01*
X50620725Y-76560897D01*
X50753880Y-76559444D01*
X50884754Y-76583996D01*
X50884754Y-76583996D01*
G37*
G36*
X69984754Y-76583996D02*
X70076840Y-76620968D01*
X70108326Y-76633609D01*
X70108330Y-76633611D01*
X70219847Y-76706377D01*
X70291173Y-76776164D01*
X70291178Y-76776170D01*
X70291180Y-76776172D01*
X70944511Y-77554780D01*
X70944513Y-77554783D01*
X70944517Y-77554788D01*
X71000859Y-77637151D01*
X71053155Y-77759608D01*
X71080556Y-77889920D01*
X71082010Y-78023074D01*
X71057457Y-78153950D01*
X71007844Y-78277522D01*
X71007843Y-78277523D01*
X70935076Y-78389042D01*
X70841950Y-78484222D01*
X70813947Y-78503378D01*
X70732045Y-78559405D01*
X70609585Y-78611702D01*
X70479275Y-78639103D01*
X70346120Y-78640557D01*
X70215243Y-78616004D01*
X70091673Y-78566392D01*
X70091670Y-78566390D01*
X70012379Y-78514651D01*
X69980151Y-78493622D01*
X69908823Y-78423833D01*
X69908819Y-78423829D01*
X69451095Y-77878334D01*
X69255487Y-77645217D01*
X69199142Y-77562850D01*
X69146845Y-77440390D01*
X69119444Y-77310080D01*
X69117991Y-77176925D01*
X69142543Y-77046051D01*
X69192158Y-76922475D01*
X69264924Y-76810958D01*
X69358049Y-76715779D01*
X69371792Y-76706378D01*
X69467955Y-76640595D01*
X69484316Y-76633608D01*
X69590415Y-76588298D01*
X69720725Y-76560897D01*
X69853880Y-76559444D01*
X69984754Y-76583996D01*
X69984754Y-76583996D01*
G37*
G36*
X80679275Y-76560897D02*
X80730669Y-76571704D01*
X80809585Y-76588298D01*
X80932045Y-76640595D01*
X81028209Y-76706378D01*
X81041951Y-76715779D01*
X81135075Y-76810957D01*
X81207844Y-76922478D01*
X81257457Y-77046050D01*
X81282010Y-77176926D01*
X81280556Y-77310080D01*
X81253155Y-77440392D01*
X81200859Y-77562849D01*
X81144517Y-77645212D01*
X81144514Y-77645215D01*
X81144511Y-77645220D01*
X80513141Y-78397656D01*
X80491173Y-78423836D01*
X80419847Y-78493623D01*
X80315662Y-78561605D01*
X80308328Y-78566390D01*
X80308323Y-78566392D01*
X80184754Y-78616004D01*
X80053880Y-78640556D01*
X79920725Y-78639103D01*
X79790415Y-78611702D01*
X79667955Y-78559405D01*
X79586053Y-78503378D01*
X79558050Y-78484222D01*
X79464924Y-78389042D01*
X79392157Y-78277523D01*
X79369657Y-78221481D01*
X79342543Y-78153949D01*
X79317991Y-78023075D01*
X79319444Y-77889920D01*
X79346845Y-77759610D01*
X79399142Y-77637150D01*
X79455487Y-77554783D01*
X79731279Y-77226107D01*
X80108819Y-76776171D01*
X80154411Y-76731563D01*
X80180151Y-76706378D01*
X80291668Y-76633611D01*
X80291671Y-76633609D01*
X80291673Y-76633608D01*
X80415243Y-76583996D01*
X80546120Y-76559443D01*
X80679275Y-76560897D01*
X80679275Y-76560897D01*
G37*
G36*
X61579275Y-76560897D02*
X61630669Y-76571704D01*
X61709585Y-76588298D01*
X61832045Y-76640595D01*
X61928209Y-76706378D01*
X61941951Y-76715779D01*
X62035075Y-76810957D01*
X62107844Y-76922478D01*
X62157457Y-77046050D01*
X62182010Y-77176926D01*
X62180556Y-77310080D01*
X62153155Y-77440392D01*
X62100859Y-77562849D01*
X62044517Y-77645212D01*
X62044514Y-77645215D01*
X62044511Y-77645220D01*
X61413141Y-78397656D01*
X61391173Y-78423836D01*
X61319847Y-78493623D01*
X61215662Y-78561605D01*
X61208328Y-78566390D01*
X61208323Y-78566392D01*
X61084754Y-78616004D01*
X60953880Y-78640556D01*
X60820725Y-78639103D01*
X60690415Y-78611702D01*
X60567955Y-78559405D01*
X60486053Y-78503378D01*
X60458050Y-78484222D01*
X60364924Y-78389042D01*
X60292157Y-78277523D01*
X60269657Y-78221481D01*
X60242543Y-78153949D01*
X60217991Y-78023075D01*
X60219444Y-77889920D01*
X60246845Y-77759610D01*
X60299142Y-77637150D01*
X60355487Y-77554783D01*
X60631279Y-77226107D01*
X61008819Y-76776171D01*
X61054411Y-76731563D01*
X61080151Y-76706378D01*
X61191668Y-76633611D01*
X61191671Y-76633609D01*
X61191673Y-76633608D01*
X61315243Y-76583996D01*
X61446120Y-76559443D01*
X61579275Y-76560897D01*
X61579275Y-76560897D01*
G37*
G36*
X96998252Y-74527818D02*
X96998254Y-74527819D01*
X96998255Y-74527819D01*
X97371513Y-74682427D01*
X97702905Y-74903857D01*
X97707439Y-74906886D01*
X97993114Y-75192561D01*
X97993116Y-75192564D01*
X98217573Y-75528487D01*
X98372181Y-75901745D01*
X98372182Y-75901748D01*
X98451000Y-76297993D01*
X98451000Y-76702007D01*
X98382566Y-77046050D01*
X98372181Y-77098255D01*
X98217573Y-77471513D01*
X98025074Y-77759608D01*
X97993114Y-77807439D01*
X97707439Y-78093114D01*
X97707436Y-78093116D01*
X97371513Y-78317573D01*
X96998255Y-78472181D01*
X96998254Y-78472181D01*
X96998252Y-78472182D01*
X96602007Y-78551000D01*
X96197993Y-78551000D01*
X95801748Y-78472182D01*
X95801746Y-78472181D01*
X95801745Y-78472181D01*
X95428487Y-78317573D01*
X95092564Y-78093116D01*
X95092561Y-78093114D01*
X94806886Y-77807439D01*
X94774926Y-77759608D01*
X94582427Y-77471513D01*
X94427819Y-77098255D01*
X94417435Y-77046050D01*
X94349000Y-76702007D01*
X94349000Y-76297993D01*
X94427818Y-75901748D01*
X94427819Y-75901745D01*
X94582427Y-75528487D01*
X94806884Y-75192564D01*
X94806886Y-75192561D01*
X95092561Y-74906886D01*
X95097095Y-74903857D01*
X95428487Y-74682427D01*
X95801745Y-74527819D01*
X95801746Y-74527819D01*
X95801748Y-74527818D01*
X96197993Y-74449000D01*
X96602007Y-74449000D01*
X96998252Y-74527818D01*
X96998252Y-74527818D01*
G37*
G36*
X112328836Y-77226107D02*
X111579336Y-78524279D01*
X110281164Y-77774779D01*
X111030664Y-76476607D01*
X112328836Y-77226107D01*
X112328836Y-77226107D01*
G37*
G36*
X91379389Y-74113963D02*
X91561558Y-74189420D01*
X91561559Y-74189421D01*
X91700768Y-74282437D01*
X91731602Y-74303040D01*
X91739270Y-74309333D01*
X91760868Y-74320877D01*
X91919881Y-74386743D01*
X92067451Y-74485346D01*
X92192950Y-74610845D01*
X92291553Y-74758415D01*
X92359473Y-74922387D01*
X92394097Y-75096458D01*
X92394097Y-75273940D01*
X92359473Y-75448011D01*
X92291553Y-75611983D01*
X92192950Y-75759553D01*
X92067451Y-75885052D01*
X91919881Y-75983655D01*
X91755909Y-76051575D01*
X91581838Y-76086199D01*
X91404355Y-76086199D01*
X91344566Y-76074306D01*
X91297682Y-76064981D01*
X91273298Y-76062579D01*
X91248912Y-76064981D01*
X91185999Y-76077495D01*
X90988818Y-76077495D01*
X90795427Y-76039027D01*
X90613258Y-75963570D01*
X90449305Y-75854020D01*
X90309883Y-75714598D01*
X90200333Y-75550645D01*
X90124876Y-75368476D01*
X90086408Y-75175085D01*
X90086408Y-74977905D01*
X90124876Y-74784514D01*
X90200333Y-74602345D01*
X90309883Y-74438392D01*
X90449305Y-74298970D01*
X90613258Y-74189420D01*
X90795427Y-74113963D01*
X90988818Y-74075495D01*
X91185998Y-74075495D01*
X91379389Y-74113963D01*
X91379389Y-74113963D01*
G37*
G36*
X75798252Y-71727818D02*
X75798254Y-71727819D01*
X75798255Y-71727819D01*
X76171513Y-71882427D01*
X76356364Y-72005941D01*
X76507439Y-72106886D01*
X76793114Y-72392561D01*
X76793116Y-72392564D01*
X77017573Y-72728487D01*
X77172181Y-73101745D01*
X77172182Y-73101748D01*
X77251000Y-73497993D01*
X77251000Y-73902007D01*
X77175328Y-74282438D01*
X77172181Y-74298255D01*
X77017573Y-74671513D01*
X76821882Y-74964385D01*
X76793114Y-75007439D01*
X76507439Y-75293114D01*
X76507436Y-75293116D01*
X76171513Y-75517573D01*
X75798255Y-75672181D01*
X75798254Y-75672181D01*
X75798252Y-75672182D01*
X75402007Y-75751000D01*
X74997993Y-75751000D01*
X74601748Y-75672182D01*
X74601746Y-75672181D01*
X74601745Y-75672181D01*
X74228487Y-75517573D01*
X73892564Y-75293116D01*
X73892561Y-75293114D01*
X73606886Y-75007439D01*
X73578118Y-74964385D01*
X73382427Y-74671513D01*
X73227819Y-74298255D01*
X73224673Y-74282438D01*
X73149000Y-73902007D01*
X73149000Y-73497993D01*
X73227818Y-73101748D01*
X73227819Y-73101745D01*
X73382427Y-72728487D01*
X73606884Y-72392564D01*
X73606886Y-72392561D01*
X73892561Y-72106886D01*
X74043636Y-72005941D01*
X74228487Y-71882427D01*
X74601745Y-71727819D01*
X74601746Y-71727819D01*
X74601748Y-71727818D01*
X74997993Y-71649000D01*
X75402007Y-71649000D01*
X75798252Y-71727818D01*
X75798252Y-71727818D01*
G37*
G36*
X56698252Y-71727818D02*
X56698254Y-71727819D01*
X56698255Y-71727819D01*
X57071513Y-71882427D01*
X57256364Y-72005941D01*
X57407439Y-72106886D01*
X57693114Y-72392561D01*
X57693116Y-72392564D01*
X57917573Y-72728487D01*
X58072181Y-73101745D01*
X58072182Y-73101748D01*
X58151000Y-73497993D01*
X58151000Y-73902007D01*
X58075328Y-74282438D01*
X58072181Y-74298255D01*
X57917573Y-74671513D01*
X57721882Y-74964385D01*
X57693114Y-75007439D01*
X57407439Y-75293114D01*
X57407436Y-75293116D01*
X57071513Y-75517573D01*
X56698255Y-75672181D01*
X56698254Y-75672181D01*
X56698252Y-75672182D01*
X56302007Y-75751000D01*
X55897993Y-75751000D01*
X55501748Y-75672182D01*
X55501746Y-75672181D01*
X55501745Y-75672181D01*
X55128487Y-75517573D01*
X54792564Y-75293116D01*
X54792561Y-75293114D01*
X54506886Y-75007439D01*
X54478118Y-74964385D01*
X54282427Y-74671513D01*
X54127819Y-74298255D01*
X54124673Y-74282438D01*
X54049000Y-73902007D01*
X54049000Y-73497993D01*
X54127818Y-73101748D01*
X54127819Y-73101745D01*
X54282427Y-72728487D01*
X54506884Y-72392564D01*
X54506886Y-72392561D01*
X54792561Y-72106886D01*
X54943636Y-72005941D01*
X55128487Y-71882427D01*
X55501745Y-71727819D01*
X55501746Y-71727819D01*
X55501748Y-71727818D01*
X55897993Y-71649000D01*
X56302007Y-71649000D01*
X56698252Y-71727818D01*
X56698252Y-71727818D01*
G37*
G36*
X69991981Y-72737468D02*
X70117561Y-72789485D01*
X70141010Y-72796598D01*
X70165396Y-72799000D01*
X70208741Y-72799000D01*
X70382812Y-72833624D01*
X70546784Y-72901544D01*
X70694354Y-73000147D01*
X70819853Y-73125646D01*
X70918456Y-73273216D01*
X70986376Y-73437188D01*
X71021000Y-73611259D01*
X71021000Y-73788741D01*
X70986376Y-73962812D01*
X70918456Y-74126784D01*
X70819853Y-74274354D01*
X70694354Y-74399853D01*
X70546784Y-74498456D01*
X70382812Y-74566376D01*
X70208741Y-74601000D01*
X70165396Y-74601000D01*
X70141010Y-74603402D01*
X70117561Y-74610515D01*
X69991981Y-74662532D01*
X69798590Y-74701000D01*
X69601410Y-74701000D01*
X69408019Y-74662532D01*
X69225850Y-74587075D01*
X69061897Y-74477525D01*
X68922475Y-74338103D01*
X68812925Y-74174150D01*
X68737468Y-73991981D01*
X68699000Y-73798590D01*
X68699000Y-73601410D01*
X68737468Y-73408019D01*
X68812925Y-73225850D01*
X68922475Y-73061897D01*
X69061897Y-72922475D01*
X69225850Y-72812925D01*
X69408019Y-72737468D01*
X69601410Y-72699000D01*
X69798590Y-72699000D01*
X69991981Y-72737468D01*
X69991981Y-72737468D01*
G37*
G36*
X61891981Y-72737468D02*
X62074150Y-72812925D01*
X62238103Y-72922475D01*
X62377525Y-73061897D01*
X62487075Y-73225850D01*
X62562532Y-73408019D01*
X62601000Y-73601410D01*
X62601000Y-73798590D01*
X62562532Y-73991981D01*
X62487075Y-74174150D01*
X62377525Y-74338103D01*
X62238103Y-74477525D01*
X62074150Y-74587075D01*
X61891981Y-74662532D01*
X61698590Y-74701000D01*
X61501410Y-74701000D01*
X61308019Y-74662532D01*
X61182439Y-74610515D01*
X61158990Y-74603402D01*
X61134604Y-74601000D01*
X61091259Y-74601000D01*
X60917188Y-74566376D01*
X60753216Y-74498456D01*
X60605646Y-74399853D01*
X60480147Y-74274354D01*
X60381544Y-74126784D01*
X60313624Y-73962812D01*
X60279000Y-73788741D01*
X60279000Y-73611259D01*
X60313624Y-73437188D01*
X60381544Y-73273216D01*
X60480147Y-73125646D01*
X60605646Y-73000147D01*
X60753216Y-72901544D01*
X60917188Y-72833624D01*
X61091259Y-72799000D01*
X61134604Y-72799000D01*
X61158990Y-72796598D01*
X61182439Y-72789485D01*
X61308019Y-72737468D01*
X61501410Y-72699000D01*
X61698590Y-72699000D01*
X61891981Y-72737468D01*
X61891981Y-72737468D01*
G37*
G36*
X80991981Y-72737468D02*
X81174150Y-72812925D01*
X81338103Y-72922475D01*
X81477525Y-73061897D01*
X81587075Y-73225850D01*
X81662532Y-73408019D01*
X81701000Y-73601410D01*
X81701000Y-73798590D01*
X81662532Y-73991981D01*
X81587075Y-74174150D01*
X81477525Y-74338103D01*
X81338103Y-74477525D01*
X81174150Y-74587075D01*
X80991981Y-74662532D01*
X80798590Y-74701000D01*
X80601410Y-74701000D01*
X80408019Y-74662532D01*
X80282439Y-74610515D01*
X80258990Y-74603402D01*
X80234604Y-74601000D01*
X80191259Y-74601000D01*
X80017188Y-74566376D01*
X79853216Y-74498456D01*
X79705646Y-74399853D01*
X79580147Y-74274354D01*
X79481544Y-74126784D01*
X79413624Y-73962812D01*
X79379000Y-73788741D01*
X79379000Y-73611259D01*
X79413624Y-73437188D01*
X79481544Y-73273216D01*
X79580147Y-73125646D01*
X79705646Y-73000147D01*
X79853216Y-72901544D01*
X80017188Y-72833624D01*
X80191259Y-72799000D01*
X80234604Y-72799000D01*
X80258990Y-72796598D01*
X80282439Y-72789485D01*
X80408019Y-72737468D01*
X80601410Y-72699000D01*
X80798590Y-72699000D01*
X80991981Y-72737468D01*
X80991981Y-72737468D01*
G37*
G36*
X50891981Y-72737468D02*
X51017561Y-72789485D01*
X51041010Y-72796598D01*
X51065396Y-72799000D01*
X51108741Y-72799000D01*
X51282812Y-72833624D01*
X51446784Y-72901544D01*
X51594354Y-73000147D01*
X51719853Y-73125646D01*
X51818456Y-73273216D01*
X51886376Y-73437188D01*
X51921000Y-73611259D01*
X51921000Y-73788741D01*
X51886376Y-73962812D01*
X51818456Y-74126784D01*
X51719853Y-74274354D01*
X51594354Y-74399853D01*
X51446784Y-74498456D01*
X51282812Y-74566376D01*
X51108741Y-74601000D01*
X51065396Y-74601000D01*
X51041010Y-74603402D01*
X51017561Y-74610515D01*
X50891981Y-74662532D01*
X50698590Y-74701000D01*
X50501410Y-74701000D01*
X50308019Y-74662532D01*
X50125850Y-74587075D01*
X49961897Y-74477525D01*
X49822475Y-74338103D01*
X49712925Y-74174150D01*
X49637468Y-73991981D01*
X49599000Y-73798590D01*
X49599000Y-73601410D01*
X49637468Y-73408019D01*
X49712925Y-73225850D01*
X49822475Y-73061897D01*
X49961897Y-72922475D01*
X50125850Y-72812925D01*
X50308019Y-72737468D01*
X50501410Y-72699000D01*
X50698590Y-72699000D01*
X50891981Y-72737468D01*
X50891981Y-72737468D01*
G37*
G36*
X102689894Y-73264321D02*
X102790168Y-73305856D01*
X102880418Y-73366159D01*
X102957161Y-73442902D01*
X103017464Y-73533152D01*
X103058999Y-73633426D01*
X103080173Y-73739877D01*
X103080173Y-73848417D01*
X103058999Y-73954868D01*
X103017464Y-74055142D01*
X102957161Y-74145392D01*
X102880418Y-74222135D01*
X102790168Y-74282438D01*
X102689894Y-74323973D01*
X102583443Y-74345147D01*
X102474903Y-74345147D01*
X102368452Y-74323973D01*
X102268178Y-74282438D01*
X102177928Y-74222135D01*
X102101185Y-74145392D01*
X102040882Y-74055142D01*
X101999347Y-73954868D01*
X101978173Y-73848417D01*
X101978173Y-73739877D01*
X101999347Y-73633426D01*
X102040882Y-73533152D01*
X102101185Y-73442902D01*
X102177928Y-73366159D01*
X102268178Y-73305856D01*
X102368452Y-73264321D01*
X102474903Y-73243147D01*
X102583443Y-73243147D01*
X102689894Y-73264321D01*
X102689894Y-73264321D01*
G37*
G36*
X87244096Y-67647033D02*
X87244098Y-67647034D01*
X87244099Y-67647034D01*
X87708352Y-67839333D01*
X88124284Y-68117250D01*
X88126171Y-68118511D01*
X88481489Y-68473829D01*
X88481491Y-68473832D01*
X88760667Y-68891648D01*
X88946081Y-69339279D01*
X88952967Y-69355904D01*
X89051000Y-69848747D01*
X89051000Y-70351253D01*
X88955556Y-70831081D01*
X88952966Y-70844099D01*
X88760667Y-71308352D01*
X88546662Y-71628633D01*
X88481489Y-71726171D01*
X88126171Y-72081489D01*
X88126168Y-72081491D01*
X87708352Y-72360667D01*
X87244099Y-72552966D01*
X87244098Y-72552966D01*
X87244096Y-72552967D01*
X86751253Y-72651000D01*
X86248747Y-72651000D01*
X85755904Y-72552967D01*
X85755902Y-72552966D01*
X85755901Y-72552966D01*
X85291648Y-72360667D01*
X84873832Y-72081491D01*
X84873829Y-72081489D01*
X84518511Y-71726171D01*
X84453338Y-71628633D01*
X84239333Y-71308352D01*
X84047034Y-70844099D01*
X84044445Y-70831081D01*
X83949000Y-70351253D01*
X83949000Y-69848747D01*
X84047033Y-69355904D01*
X84053919Y-69339279D01*
X84239333Y-68891648D01*
X84518509Y-68473832D01*
X84518511Y-68473829D01*
X84873829Y-68118511D01*
X84875716Y-68117250D01*
X85291648Y-67839333D01*
X85755901Y-67647034D01*
X85755902Y-67647034D01*
X85755904Y-67647033D01*
X86248747Y-67549000D01*
X86751253Y-67549000D01*
X87244096Y-67647033D01*
X87244096Y-67647033D01*
G37*
G36*
X131450619Y-70545542D02*
X131450625Y-70545543D01*
X131450624Y-70545543D01*
X131581353Y-70570067D01*
X131636254Y-70592109D01*
X131746053Y-70636192D01*
X131894693Y-70733182D01*
X132021551Y-70857302D01*
X132021552Y-70857304D01*
X132121759Y-71003789D01*
X132191464Y-71167010D01*
X132227985Y-71340693D01*
X132229375Y-71468097D01*
X132229921Y-71518164D01*
X132229564Y-71520066D01*
X132197197Y-71692602D01*
X132131071Y-71857304D01*
X132034083Y-72005942D01*
X131970622Y-72070803D01*
X131909959Y-72132804D01*
X131763475Y-72233009D01*
X131600254Y-72302714D01*
X131481902Y-72327600D01*
X131426572Y-72339234D01*
X131293570Y-72340685D01*
X131293563Y-72340685D01*
X130408441Y-72263248D01*
X130399167Y-72261508D01*
X130277707Y-72238723D01*
X130222806Y-72216681D01*
X130113007Y-72172598D01*
X129964365Y-72075607D01*
X129837508Y-71951488D01*
X129737300Y-71805000D01*
X129667595Y-71641779D01*
X129646937Y-71543533D01*
X129631074Y-71468097D01*
X129629139Y-71290627D01*
X129661862Y-71116188D01*
X129694926Y-71033837D01*
X129727987Y-70951488D01*
X129824978Y-70802846D01*
X129949097Y-70675989D01*
X130095585Y-70575781D01*
X130258806Y-70506076D01*
X130322338Y-70492717D01*
X130432488Y-70469555D01*
X130565489Y-70468105D01*
X130565496Y-70468105D01*
X131450619Y-70545542D01*
X131450619Y-70545542D01*
G37*
G36*
X128462035Y-70284075D02*
X128462041Y-70284076D01*
X128462040Y-70284076D01*
X128592769Y-70308600D01*
X128647670Y-70330642D01*
X128757469Y-70374725D01*
X128906109Y-70471715D01*
X129032967Y-70595835D01*
X129032968Y-70595837D01*
X129133175Y-70742322D01*
X129202880Y-70905543D01*
X129239401Y-71079226D01*
X129241337Y-71256696D01*
X129208613Y-71431135D01*
X129193773Y-71468097D01*
X129148699Y-71580366D01*
X129142487Y-71595837D01*
X129045499Y-71744475D01*
X128986280Y-71805000D01*
X128921375Y-71871337D01*
X128774891Y-71971542D01*
X128611670Y-72041247D01*
X128493318Y-72066133D01*
X128437988Y-72077767D01*
X128304986Y-72079218D01*
X128304979Y-72079218D01*
X127419857Y-72001781D01*
X127410583Y-72000041D01*
X127289123Y-71977256D01*
X127224938Y-71951486D01*
X127124423Y-71911131D01*
X126975781Y-71814140D01*
X126848924Y-71690021D01*
X126748716Y-71543533D01*
X126679011Y-71380312D01*
X126660153Y-71290626D01*
X126642490Y-71206630D01*
X126640555Y-71029160D01*
X126673278Y-70854721D01*
X126718405Y-70742323D01*
X126739403Y-70690021D01*
X126836394Y-70541379D01*
X126960513Y-70414522D01*
X127107001Y-70314314D01*
X127270222Y-70244609D01*
X127333754Y-70231250D01*
X127443904Y-70208088D01*
X127576905Y-70206638D01*
X127576912Y-70206638D01*
X128462035Y-70284075D01*
X128462035Y-70284075D01*
G37*
G36*
X123135487Y-68061377D02*
X123135493Y-68061378D01*
X123135492Y-68061378D01*
X123266221Y-68085902D01*
X123321122Y-68107944D01*
X123430921Y-68152027D01*
X123579561Y-68249017D01*
X123706419Y-68373137D01*
X123706420Y-68373139D01*
X123806627Y-68519624D01*
X123876332Y-68682845D01*
X123912853Y-68856528D01*
X123914789Y-69033998D01*
X123882065Y-69208437D01*
X123815939Y-69373139D01*
X123718951Y-69521777D01*
X123687159Y-69554270D01*
X123590742Y-69652814D01*
X123575405Y-69671925D01*
X123564090Y-69693661D01*
X123557233Y-69717186D01*
X123555097Y-69741597D01*
X123557765Y-69765956D01*
X123565134Y-69789326D01*
X123576920Y-69810809D01*
X123592671Y-69829581D01*
X123611782Y-69844918D01*
X123633518Y-69856233D01*
X123669196Y-69864757D01*
X124477257Y-69935452D01*
X124477263Y-69935453D01*
X124477262Y-69935453D01*
X124607991Y-69959977D01*
X124662892Y-69982019D01*
X124772691Y-70026102D01*
X124921331Y-70123092D01*
X125048189Y-70247212D01*
X125083250Y-70298465D01*
X125148397Y-70393699D01*
X125218102Y-70556920D01*
X125254623Y-70730603D01*
X125256559Y-70908073D01*
X125223835Y-71082512D01*
X125157709Y-71247214D01*
X125060721Y-71395852D01*
X125026199Y-71431135D01*
X124936597Y-71522714D01*
X124790113Y-71622919D01*
X124626892Y-71692624D01*
X124508540Y-71717510D01*
X124453210Y-71729144D01*
X124320208Y-71730595D01*
X124320201Y-71730595D01*
X123435079Y-71653158D01*
X123425805Y-71651418D01*
X123304345Y-71628633D01*
X123222655Y-71595835D01*
X123139645Y-71562508D01*
X122991003Y-71465517D01*
X122864146Y-71341398D01*
X122763938Y-71194910D01*
X122694233Y-71031689D01*
X122673136Y-70931355D01*
X122657712Y-70858007D01*
X122655777Y-70680537D01*
X122688500Y-70506098D01*
X122733627Y-70393700D01*
X122754625Y-70341398D01*
X122851616Y-70192756D01*
X122979823Y-70061721D01*
X122995161Y-70042610D01*
X123006476Y-70020875D01*
X123013333Y-69997350D01*
X123015469Y-69972938D01*
X123012801Y-69948580D01*
X123005432Y-69925210D01*
X122993646Y-69903726D01*
X122977895Y-69884955D01*
X122958784Y-69869617D01*
X122937049Y-69858302D01*
X122913524Y-69851445D01*
X122901370Y-69849778D01*
X122093309Y-69779083D01*
X122084035Y-69777343D01*
X121962575Y-69754558D01*
X121907674Y-69732516D01*
X121797875Y-69688433D01*
X121649233Y-69591442D01*
X121522376Y-69467323D01*
X121422168Y-69320835D01*
X121352463Y-69157614D01*
X121339104Y-69094082D01*
X121315942Y-68983932D01*
X121314007Y-68806462D01*
X121346730Y-68632023D01*
X121391857Y-68519625D01*
X121412855Y-68467323D01*
X121509846Y-68318681D01*
X121633965Y-68191824D01*
X121780453Y-68091616D01*
X121943674Y-68021911D01*
X122007206Y-68008552D01*
X122117356Y-67985390D01*
X122250357Y-67983940D01*
X122250364Y-67983940D01*
X123135487Y-68061377D01*
X123135487Y-68061377D01*
G37*
G36*
X92605628Y-70562250D02*
X92705902Y-70603785D01*
X92796152Y-70664088D01*
X92872895Y-70740831D01*
X92933198Y-70831081D01*
X92974733Y-70931355D01*
X92995907Y-71037806D01*
X92995907Y-71146346D01*
X92974733Y-71252797D01*
X92933198Y-71353071D01*
X92872895Y-71443321D01*
X92796152Y-71520064D01*
X92705902Y-71580367D01*
X92605628Y-71621902D01*
X92499177Y-71643076D01*
X92390637Y-71643076D01*
X92284186Y-71621902D01*
X92183912Y-71580367D01*
X92093662Y-71520064D01*
X92016919Y-71443321D01*
X91956616Y-71353071D01*
X91915081Y-71252797D01*
X91893907Y-71146346D01*
X91893907Y-71037806D01*
X91915081Y-70931355D01*
X91956616Y-70831081D01*
X92016919Y-70740831D01*
X92093662Y-70664088D01*
X92183912Y-70603785D01*
X92284186Y-70562250D01*
X92390637Y-70541076D01*
X92499177Y-70541076D01*
X92605628Y-70562250D01*
X92605628Y-70562250D01*
G37*
G36*
X120741434Y-68903702D02*
X120599718Y-70523516D01*
X118979904Y-70381800D01*
X119121620Y-68761986D01*
X120741434Y-68903702D01*
X120741434Y-68903702D01*
G37*
G36*
X101991306Y-68732759D02*
X103198123Y-69056124D01*
X103198123Y-69056125D01*
X103139698Y-69274168D01*
X102810154Y-70504047D01*
X102810153Y-70504047D01*
X102504172Y-70422059D01*
X101362231Y-70116078D01*
X101379669Y-70051000D01*
X101452918Y-69777630D01*
X101750200Y-68668155D01*
X101750201Y-68668155D01*
X101991306Y-68732759D01*
X101991306Y-68732759D01*
G37*
G36*
X118211100Y-68682327D02*
X118069384Y-70302141D01*
X116449570Y-70160425D01*
X116591286Y-68540611D01*
X118211100Y-68682327D01*
X118211100Y-68682327D01*
G37*
G36*
X133095598Y-68843283D02*
X133214069Y-68892355D01*
X133320700Y-68963604D01*
X133411370Y-69054274D01*
X133411372Y-69054277D01*
X133411373Y-69054278D01*
X133474501Y-69148755D01*
X133482619Y-69160905D01*
X133531691Y-69279376D01*
X133556708Y-69405147D01*
X133556708Y-69533385D01*
X133531691Y-69659156D01*
X133482619Y-69777627D01*
X133482617Y-69777630D01*
X133424401Y-69864757D01*
X133411370Y-69884258D01*
X133320700Y-69974928D01*
X133320697Y-69974930D01*
X133320696Y-69974931D01*
X133251936Y-70020875D01*
X133214069Y-70046177D01*
X133095598Y-70095249D01*
X132969827Y-70120266D01*
X132841589Y-70120266D01*
X132715818Y-70095249D01*
X132597347Y-70046177D01*
X132559480Y-70020875D01*
X132490720Y-69974931D01*
X132490719Y-69974930D01*
X132490716Y-69974928D01*
X132400046Y-69884258D01*
X132387016Y-69864757D01*
X132328799Y-69777630D01*
X132328797Y-69777627D01*
X132279725Y-69659156D01*
X132254708Y-69533385D01*
X132254708Y-69405147D01*
X132279725Y-69279376D01*
X132328797Y-69160905D01*
X132336915Y-69148755D01*
X132400043Y-69054278D01*
X132400044Y-69054277D01*
X132400046Y-69054274D01*
X132490716Y-68963604D01*
X132597347Y-68892355D01*
X132715818Y-68843283D01*
X132841589Y-68818266D01*
X132969827Y-68818266D01*
X133095598Y-68843283D01*
X133095598Y-68843283D01*
G37*
G36*
X115680765Y-68460951D02*
X115539049Y-70080765D01*
X113919235Y-69939049D01*
X114060951Y-68319235D01*
X115680765Y-68460951D01*
X115680765Y-68460951D01*
G37*
G36*
X80580721Y-68970174D02*
X80680995Y-69011709D01*
X80771245Y-69072012D01*
X80847988Y-69148755D01*
X80908291Y-69239005D01*
X80949826Y-69339279D01*
X80971000Y-69445730D01*
X80971000Y-69554270D01*
X80949826Y-69660721D01*
X80908291Y-69760995D01*
X80847988Y-69851245D01*
X80771245Y-69927988D01*
X80680995Y-69988291D01*
X80580721Y-70029826D01*
X80474270Y-70051000D01*
X80365730Y-70051000D01*
X80259279Y-70029826D01*
X80159005Y-69988291D01*
X80068755Y-69927988D01*
X79992012Y-69851245D01*
X79931709Y-69760995D01*
X79890174Y-69660721D01*
X79869000Y-69554270D01*
X79869000Y-69445730D01*
X79890174Y-69339279D01*
X79931709Y-69239005D01*
X79992012Y-69148755D01*
X80068755Y-69072012D01*
X80159005Y-69011709D01*
X80259279Y-68970174D01*
X80365730Y-68949000D01*
X80474270Y-68949000D01*
X80580721Y-68970174D01*
X80580721Y-68970174D01*
G37*
G36*
X70140721Y-68970174D02*
X70240995Y-69011709D01*
X70331245Y-69072012D01*
X70407988Y-69148755D01*
X70468291Y-69239005D01*
X70509826Y-69339279D01*
X70531000Y-69445730D01*
X70531000Y-69554270D01*
X70509826Y-69660721D01*
X70468291Y-69760995D01*
X70407988Y-69851245D01*
X70331245Y-69927988D01*
X70240995Y-69988291D01*
X70140721Y-70029826D01*
X70034270Y-70051000D01*
X69925730Y-70051000D01*
X69819279Y-70029826D01*
X69719005Y-69988291D01*
X69628755Y-69927988D01*
X69552012Y-69851245D01*
X69491709Y-69760995D01*
X69450174Y-69660721D01*
X69429000Y-69554270D01*
X69429000Y-69445730D01*
X69450174Y-69339279D01*
X69491709Y-69239005D01*
X69552012Y-69148755D01*
X69628755Y-69072012D01*
X69719005Y-69011709D01*
X69819279Y-68970174D01*
X69925730Y-68949000D01*
X70034270Y-68949000D01*
X70140721Y-68970174D01*
X70140721Y-68970174D01*
G37*
G36*
X61480721Y-68970174D02*
X61580995Y-69011709D01*
X61671245Y-69072012D01*
X61747988Y-69148755D01*
X61808291Y-69239005D01*
X61849826Y-69339279D01*
X61871000Y-69445730D01*
X61871000Y-69554270D01*
X61849826Y-69660721D01*
X61808291Y-69760995D01*
X61747988Y-69851245D01*
X61671245Y-69927988D01*
X61580995Y-69988291D01*
X61480721Y-70029826D01*
X61374270Y-70051000D01*
X61265730Y-70051000D01*
X61159279Y-70029826D01*
X61059005Y-69988291D01*
X60968755Y-69927988D01*
X60892012Y-69851245D01*
X60831709Y-69760995D01*
X60790174Y-69660721D01*
X60769000Y-69554270D01*
X60769000Y-69445730D01*
X60790174Y-69339279D01*
X60831709Y-69239005D01*
X60892012Y-69148755D01*
X60968755Y-69072012D01*
X61059005Y-69011709D01*
X61159279Y-68970174D01*
X61265730Y-68949000D01*
X61374270Y-68949000D01*
X61480721Y-68970174D01*
X61480721Y-68970174D01*
G37*
G36*
X51040721Y-68970174D02*
X51140995Y-69011709D01*
X51231245Y-69072012D01*
X51307988Y-69148755D01*
X51368291Y-69239005D01*
X51409826Y-69339279D01*
X51431000Y-69445730D01*
X51431000Y-69554270D01*
X51409826Y-69660721D01*
X51368291Y-69760995D01*
X51307988Y-69851245D01*
X51231245Y-69927988D01*
X51140995Y-69988291D01*
X51040721Y-70029826D01*
X50934270Y-70051000D01*
X50825730Y-70051000D01*
X50719279Y-70029826D01*
X50619005Y-69988291D01*
X50528755Y-69927988D01*
X50452012Y-69851245D01*
X50391709Y-69760995D01*
X50350174Y-69660721D01*
X50329000Y-69554270D01*
X50329000Y-69445730D01*
X50350174Y-69339279D01*
X50391709Y-69239005D01*
X50452012Y-69148755D01*
X50528755Y-69072012D01*
X50619005Y-69011709D01*
X50719279Y-68970174D01*
X50825730Y-68949000D01*
X50934270Y-68949000D01*
X51040721Y-68970174D01*
X51040721Y-68970174D01*
G37*
G36*
X100448746Y-68550815D02*
X101127771Y-68732759D01*
X100855494Y-69748913D01*
X100855493Y-69748913D01*
X99501265Y-69386049D01*
X99531243Y-69274168D01*
X99773542Y-68369895D01*
X99773543Y-68369895D01*
X100448746Y-68550815D01*
X100448746Y-68550815D01*
G37*
G36*
X126122235Y-68233193D02*
X126240706Y-68282265D01*
X126240709Y-68282267D01*
X126319025Y-68334596D01*
X126347337Y-68353514D01*
X126438007Y-68444184D01*
X126438009Y-68444187D01*
X126438010Y-68444188D01*
X126488415Y-68519624D01*
X126509256Y-68550815D01*
X126558328Y-68669286D01*
X126583345Y-68795057D01*
X126583345Y-68923295D01*
X126558328Y-69049066D01*
X126509256Y-69167537D01*
X126509254Y-69167540D01*
X126461503Y-69239005D01*
X126438007Y-69274168D01*
X126347337Y-69364838D01*
X126240706Y-69436087D01*
X126122235Y-69485159D01*
X125996464Y-69510176D01*
X125868226Y-69510176D01*
X125742455Y-69485159D01*
X125623984Y-69436087D01*
X125517353Y-69364838D01*
X125426683Y-69274168D01*
X125403188Y-69239005D01*
X125355436Y-69167540D01*
X125355434Y-69167537D01*
X125306362Y-69049066D01*
X125281345Y-68923295D01*
X125281345Y-68795057D01*
X125306362Y-68669286D01*
X125355434Y-68550815D01*
X125376275Y-68519624D01*
X125426680Y-68444188D01*
X125426681Y-68444187D01*
X125426683Y-68444184D01*
X125517353Y-68353514D01*
X125545666Y-68334596D01*
X125623981Y-68282267D01*
X125623984Y-68282265D01*
X125742455Y-68233193D01*
X125868226Y-68208176D01*
X125996464Y-68208176D01*
X126122235Y-68233193D01*
X126122235Y-68233193D01*
G37*
G36*
X97698735Y-67813951D02*
X97426458Y-68830105D01*
X97426457Y-68830105D01*
X96072229Y-68467241D01*
X96096429Y-68376926D01*
X96344506Y-67451087D01*
X96344507Y-67451087D01*
X97698735Y-67813951D01*
X97698735Y-67813951D01*
G37*
G36*
X133248121Y-67099943D02*
X133366592Y-67149015D01*
X133366595Y-67149017D01*
X133454808Y-67207959D01*
X133473223Y-67220264D01*
X133563893Y-67310934D01*
X133563895Y-67310937D01*
X133563896Y-67310938D01*
X133608619Y-67377871D01*
X133635142Y-67417565D01*
X133684214Y-67536036D01*
X133709231Y-67661807D01*
X133709231Y-67790045D01*
X133684214Y-67915816D01*
X133635142Y-68034287D01*
X133635140Y-68034290D01*
X133578867Y-68118509D01*
X133563893Y-68140918D01*
X133473223Y-68231588D01*
X133366592Y-68302837D01*
X133248121Y-68351909D01*
X133122350Y-68376926D01*
X132994112Y-68376926D01*
X132868341Y-68351909D01*
X132749870Y-68302837D01*
X132643239Y-68231588D01*
X132552569Y-68140918D01*
X132537596Y-68118509D01*
X132481322Y-68034290D01*
X132481320Y-68034287D01*
X132432248Y-67915816D01*
X132407231Y-67790045D01*
X132407231Y-67661807D01*
X132432248Y-67536036D01*
X132481320Y-67417565D01*
X132507843Y-67377871D01*
X132552566Y-67310938D01*
X132552567Y-67310937D01*
X132552569Y-67310934D01*
X132643239Y-67220264D01*
X132661655Y-67207959D01*
X132749867Y-67149017D01*
X132749870Y-67149015D01*
X132868341Y-67099943D01*
X132994112Y-67074926D01*
X133122350Y-67074926D01*
X133248121Y-67099943D01*
X133248121Y-67099943D01*
G37*
G36*
X95138444Y-66893201D02*
X95274845Y-66949700D01*
X95397602Y-67031724D01*
X95501998Y-67136120D01*
X95584022Y-67258877D01*
X95640521Y-67395278D01*
X95669323Y-67540080D01*
X95669323Y-67687718D01*
X95640521Y-67832520D01*
X95584022Y-67968921D01*
X95501998Y-68091678D01*
X95397602Y-68196074D01*
X95274845Y-68278098D01*
X95138444Y-68334597D01*
X94993642Y-68363399D01*
X94846004Y-68363399D01*
X94701202Y-68334597D01*
X94564801Y-68278098D01*
X94442044Y-68196074D01*
X94337648Y-68091678D01*
X94255624Y-67968921D01*
X94199125Y-67832520D01*
X94170323Y-67687718D01*
X94170323Y-67540080D01*
X94199125Y-67395278D01*
X94255624Y-67258877D01*
X94337648Y-67136120D01*
X94442044Y-67031724D01*
X94564801Y-66949700D01*
X94701202Y-66893201D01*
X94846004Y-66864399D01*
X94993642Y-66864399D01*
X95138444Y-66893201D01*
X95138444Y-66893201D01*
G37*
G36*
X126274758Y-66489852D02*
X126393229Y-66538924D01*
X126393232Y-66538926D01*
X126474640Y-66593321D01*
X126499860Y-66610173D01*
X126590530Y-66700843D01*
X126590532Y-66700846D01*
X126590533Y-66700847D01*
X126661777Y-66807471D01*
X126661779Y-66807474D01*
X126710851Y-66925945D01*
X126735868Y-67051716D01*
X126735868Y-67179954D01*
X126710851Y-67305725D01*
X126661779Y-67424196D01*
X126590530Y-67530827D01*
X126499860Y-67621497D01*
X126499857Y-67621499D01*
X126499856Y-67621500D01*
X126439532Y-67661807D01*
X126393229Y-67692746D01*
X126274758Y-67741818D01*
X126148987Y-67766835D01*
X126020749Y-67766835D01*
X125894978Y-67741818D01*
X125776507Y-67692746D01*
X125730204Y-67661807D01*
X125669880Y-67621500D01*
X125669879Y-67621499D01*
X125669876Y-67621497D01*
X125579206Y-67530827D01*
X125507957Y-67424196D01*
X125458885Y-67305725D01*
X125433868Y-67179954D01*
X125433868Y-67051716D01*
X125458885Y-66925945D01*
X125507957Y-66807474D01*
X125507959Y-66807471D01*
X125579203Y-66700847D01*
X125579204Y-66700846D01*
X125579206Y-66700843D01*
X125669876Y-66610173D01*
X125695097Y-66593321D01*
X125776504Y-66538926D01*
X125776507Y-66538924D01*
X125894978Y-66489852D01*
X126020749Y-66464835D01*
X126148987Y-66464835D01*
X126274758Y-66489852D01*
X126274758Y-66489852D01*
G37*
G36*
X124995833Y-64008093D02*
X124995839Y-64008094D01*
X124995838Y-64008094D01*
X125126567Y-64032618D01*
X125172981Y-64051253D01*
X125291267Y-64098743D01*
X125439907Y-64195733D01*
X125566765Y-64319853D01*
X125601826Y-64371106D01*
X125666973Y-64466340D01*
X125736678Y-64629561D01*
X125773199Y-64803244D01*
X125775135Y-64980714D01*
X125742411Y-65155153D01*
X125676285Y-65319855D01*
X125579297Y-65468493D01*
X125544775Y-65503776D01*
X125455173Y-65595355D01*
X125308689Y-65695560D01*
X125145468Y-65765265D01*
X125027116Y-65790151D01*
X124971786Y-65801785D01*
X124838784Y-65803236D01*
X124838777Y-65803236D01*
X124030719Y-65732541D01*
X124006217Y-65732808D01*
X123982237Y-65737850D01*
X123959701Y-65747474D01*
X123939476Y-65761310D01*
X123922339Y-65778825D01*
X123908949Y-65799347D01*
X123899819Y-65822087D01*
X123895301Y-65846171D01*
X123895568Y-65870673D01*
X123900610Y-65894653D01*
X123916655Y-65927640D01*
X124019910Y-66078583D01*
X124020159Y-66078947D01*
X124089864Y-66242168D01*
X124126385Y-66415851D01*
X124128321Y-66593321D01*
X124095597Y-66767760D01*
X124029471Y-66932462D01*
X123932483Y-67081100D01*
X123880474Y-67134256D01*
X123808359Y-67207962D01*
X123661875Y-67308167D01*
X123498654Y-67377872D01*
X123380302Y-67402758D01*
X123324972Y-67414392D01*
X123191970Y-67415843D01*
X123191963Y-67415843D01*
X122306841Y-67338406D01*
X122297567Y-67336666D01*
X122176107Y-67313881D01*
X122121206Y-67291839D01*
X122011407Y-67247756D01*
X121862765Y-67150765D01*
X121735908Y-67026646D01*
X121635700Y-66880158D01*
X121565995Y-66716937D01*
X121552636Y-66653405D01*
X121529474Y-66543255D01*
X121527539Y-66365785D01*
X121530313Y-66351000D01*
X121538820Y-66305649D01*
X121560262Y-66191346D01*
X121593325Y-66108995D01*
X121626387Y-66026646D01*
X121723378Y-65878004D01*
X121847497Y-65751147D01*
X121993985Y-65650939D01*
X122157206Y-65581234D01*
X122221695Y-65567674D01*
X122330888Y-65544713D01*
X122463889Y-65543263D01*
X122463896Y-65543263D01*
X123271954Y-65613958D01*
X123296456Y-65613691D01*
X123320436Y-65608649D01*
X123342972Y-65599025D01*
X123363197Y-65585189D01*
X123380334Y-65567674D01*
X123393724Y-65547152D01*
X123402854Y-65524412D01*
X123407372Y-65500328D01*
X123407105Y-65475826D01*
X123402063Y-65451846D01*
X123386018Y-65418859D01*
X123282515Y-65267554D01*
X123212809Y-65104330D01*
X123194848Y-65018910D01*
X123176288Y-64930648D01*
X123174353Y-64753178D01*
X123207076Y-64578739D01*
X123252203Y-64466341D01*
X123273201Y-64414039D01*
X123370192Y-64265397D01*
X123494311Y-64138540D01*
X123640799Y-64038332D01*
X123804020Y-63968627D01*
X123867552Y-63955268D01*
X123977702Y-63932106D01*
X124110703Y-63930656D01*
X124110710Y-63930656D01*
X124995833Y-64008093D01*
X124995833Y-64008093D01*
G37*
G36*
X120344198Y-65072645D02*
X120535467Y-65151871D01*
X120707609Y-65266893D01*
X120853996Y-65413280D01*
X120969018Y-65585422D01*
X121048244Y-65776691D01*
X121088633Y-65979740D01*
X121088633Y-66186772D01*
X121048244Y-66389821D01*
X120969018Y-66581090D01*
X120853996Y-66753232D01*
X120707609Y-66899619D01*
X120535467Y-67014641D01*
X120344198Y-67093867D01*
X120141149Y-67134256D01*
X119934117Y-67134256D01*
X119731068Y-67093867D01*
X119539799Y-67014641D01*
X119367657Y-66899619D01*
X119221270Y-66753232D01*
X119106248Y-66581090D01*
X119027022Y-66389821D01*
X118986633Y-66186772D01*
X118986633Y-65979740D01*
X119027022Y-65776691D01*
X119106248Y-65585422D01*
X119221270Y-65413280D01*
X119367657Y-65266893D01*
X119539799Y-65151871D01*
X119731068Y-65072645D01*
X119934117Y-65032256D01*
X120141149Y-65032256D01*
X120344198Y-65072645D01*
X120344198Y-65072645D01*
G37*
G36*
X113868932Y-64506133D02*
X114060201Y-64585359D01*
X114232343Y-64700381D01*
X114378730Y-64846768D01*
X114493752Y-65018910D01*
X114572978Y-65210179D01*
X114613367Y-65413228D01*
X114613367Y-65620260D01*
X114572978Y-65823309D01*
X114493752Y-66014578D01*
X114378730Y-66186720D01*
X114232343Y-66333107D01*
X114060201Y-66448129D01*
X113868932Y-66527355D01*
X113665883Y-66567744D01*
X113458851Y-66567744D01*
X113255802Y-66527355D01*
X113064533Y-66448129D01*
X112892391Y-66333107D01*
X112746004Y-66186720D01*
X112630982Y-66014578D01*
X112551756Y-65823309D01*
X112511367Y-65620260D01*
X112511367Y-65413228D01*
X112551756Y-65210179D01*
X112630982Y-65018910D01*
X112746004Y-64846768D01*
X112892391Y-64700381D01*
X113064533Y-64585359D01*
X113255802Y-64506133D01*
X113458851Y-64465744D01*
X113665883Y-64465744D01*
X113868932Y-64506133D01*
X113868932Y-64506133D01*
G37*
G36*
X60559500Y-66549500D02*
X59060500Y-66549500D01*
X59060500Y-65050500D01*
X60559500Y-65050500D01*
X60559500Y-66549500D01*
X60559500Y-66549500D01*
G37*
G36*
X79759500Y-66549500D02*
X78260500Y-66549500D01*
X78260500Y-65050500D01*
X79759500Y-65050500D01*
X79759500Y-66549500D01*
X79759500Y-66549500D01*
G37*
G36*
X52408621Y-65079302D02*
X52545022Y-65135801D01*
X52667779Y-65217825D01*
X52772175Y-65322221D01*
X52854199Y-65444978D01*
X52910698Y-65581379D01*
X52939500Y-65726181D01*
X52939500Y-65873819D01*
X52910698Y-66018621D01*
X52854199Y-66155022D01*
X52772175Y-66277779D01*
X52667779Y-66382175D01*
X52545022Y-66464199D01*
X52408621Y-66520698D01*
X52263819Y-66549500D01*
X52116181Y-66549500D01*
X51971379Y-66520698D01*
X51834978Y-66464199D01*
X51712221Y-66382175D01*
X51607825Y-66277779D01*
X51525801Y-66155022D01*
X51469302Y-66018621D01*
X51440500Y-65873819D01*
X51440500Y-65726181D01*
X51469302Y-65581379D01*
X51525801Y-65444978D01*
X51607825Y-65322221D01*
X51712221Y-65217825D01*
X51834978Y-65135801D01*
X51971379Y-65079302D01*
X52116181Y-65050500D01*
X52263819Y-65050500D01*
X52408621Y-65079302D01*
X52408621Y-65079302D01*
G37*
G36*
X71608621Y-65079302D02*
X71745022Y-65135801D01*
X71867779Y-65217825D01*
X71972175Y-65322221D01*
X72054199Y-65444978D01*
X72110698Y-65581379D01*
X72139500Y-65726181D01*
X72139500Y-65873819D01*
X72110698Y-66018621D01*
X72054199Y-66155022D01*
X71972175Y-66277779D01*
X71867779Y-66382175D01*
X71745022Y-66464199D01*
X71608621Y-66520698D01*
X71463819Y-66549500D01*
X71316181Y-66549500D01*
X71171379Y-66520698D01*
X71034978Y-66464199D01*
X70912221Y-66382175D01*
X70807825Y-66277779D01*
X70725801Y-66155022D01*
X70669302Y-66018621D01*
X70640500Y-65873819D01*
X70640500Y-65726181D01*
X70669302Y-65581379D01*
X70725801Y-65444978D01*
X70807825Y-65322221D01*
X70912221Y-65217825D01*
X71034978Y-65135801D01*
X71171379Y-65079302D01*
X71316181Y-65050500D01*
X71463819Y-65050500D01*
X71608621Y-65079302D01*
X71608621Y-65079302D01*
G37*
G36*
X131969196Y-64618183D02*
X131969202Y-64618184D01*
X131969201Y-64618184D01*
X132099930Y-64642708D01*
X132154831Y-64664750D01*
X132264630Y-64708833D01*
X132413270Y-64805823D01*
X132540128Y-64929943D01*
X132540129Y-64929945D01*
X132640336Y-65076430D01*
X132710041Y-65239651D01*
X132746562Y-65413334D01*
X132747952Y-65540738D01*
X132748498Y-65590805D01*
X132744154Y-65613958D01*
X132715774Y-65765243D01*
X132692461Y-65823309D01*
X132650574Y-65927640D01*
X132649648Y-65929945D01*
X132552660Y-66078583D01*
X132489199Y-66143444D01*
X132428536Y-66205445D01*
X132282052Y-66305650D01*
X132118831Y-66375355D01*
X132000479Y-66400241D01*
X131945149Y-66411875D01*
X131812147Y-66413326D01*
X131812140Y-66413326D01*
X130927018Y-66335889D01*
X130912199Y-66333109D01*
X130796284Y-66311364D01*
X130741383Y-66289322D01*
X130631584Y-66245239D01*
X130482942Y-66148248D01*
X130356085Y-66024129D01*
X130255877Y-65877641D01*
X130186172Y-65714420D01*
X130172813Y-65650888D01*
X130149651Y-65540738D01*
X130147716Y-65363268D01*
X130180439Y-65188829D01*
X130213503Y-65106478D01*
X130246564Y-65024129D01*
X130343555Y-64875487D01*
X130467674Y-64748630D01*
X130614162Y-64648422D01*
X130777383Y-64578717D01*
X130840915Y-64565358D01*
X130951065Y-64542196D01*
X131084066Y-64540746D01*
X131084073Y-64540746D01*
X131969196Y-64618183D01*
X131969196Y-64618183D01*
G37*
G36*
X46144096Y-61347033D02*
X46144098Y-61347034D01*
X46144099Y-61347034D01*
X46608352Y-61539333D01*
X46995296Y-61797881D01*
X47026171Y-61818511D01*
X47381489Y-62173829D01*
X47381491Y-62173832D01*
X47660667Y-62591648D01*
X47852966Y-63055901D01*
X47852967Y-63055904D01*
X47951000Y-63548747D01*
X47951000Y-64051253D01*
X47853345Y-64542198D01*
X47852966Y-64544099D01*
X47660667Y-65008352D01*
X47452528Y-65319853D01*
X47381489Y-65426171D01*
X47026171Y-65781489D01*
X47026168Y-65781491D01*
X46608352Y-66060667D01*
X46144099Y-66252966D01*
X46144098Y-66252966D01*
X46144096Y-66252967D01*
X45651253Y-66351000D01*
X45148747Y-66351000D01*
X44655904Y-66252967D01*
X44655902Y-66252966D01*
X44655901Y-66252966D01*
X44191648Y-66060667D01*
X43773832Y-65781491D01*
X43773829Y-65781489D01*
X43418511Y-65426171D01*
X43347472Y-65319853D01*
X43139333Y-65008352D01*
X42947034Y-64544099D01*
X42946656Y-64542198D01*
X42849000Y-64051253D01*
X42849000Y-63548747D01*
X42947033Y-63055904D01*
X42947034Y-63055901D01*
X43139333Y-62591648D01*
X43418509Y-62173832D01*
X43418511Y-62173829D01*
X43773829Y-61818511D01*
X43804704Y-61797881D01*
X44191648Y-61539333D01*
X44655901Y-61347034D01*
X44655902Y-61347034D01*
X44655904Y-61347033D01*
X45148747Y-61249000D01*
X45651253Y-61249000D01*
X46144096Y-61347033D01*
X46144096Y-61347033D01*
G37*
G36*
X58476000Y-66326000D02*
X57074000Y-66326000D01*
X57074000Y-65274000D01*
X58476000Y-65274000D01*
X58476000Y-66326000D01*
X58476000Y-66326000D01*
G37*
G36*
X54926000Y-66326000D02*
X53524000Y-66326000D01*
X53524000Y-65274000D01*
X54926000Y-65274000D01*
X54926000Y-66326000D01*
X54926000Y-66326000D01*
G37*
G36*
X74126000Y-66326000D02*
X72724000Y-66326000D01*
X72724000Y-65274000D01*
X74126000Y-65274000D01*
X74126000Y-66326000D01*
X74126000Y-66326000D01*
G37*
G36*
X77676000Y-66326000D02*
X76274000Y-66326000D01*
X76274000Y-65274000D01*
X77676000Y-65274000D01*
X77676000Y-66326000D01*
X77676000Y-66326000D01*
G37*
G36*
X128980612Y-64356716D02*
X128980618Y-64356717D01*
X128980617Y-64356717D01*
X129111346Y-64381241D01*
X129166247Y-64403283D01*
X129276046Y-64447366D01*
X129424686Y-64544356D01*
X129551544Y-64668476D01*
X129551545Y-64668478D01*
X129651752Y-64814963D01*
X129721457Y-64978184D01*
X129757978Y-65151867D01*
X129759914Y-65329337D01*
X129727190Y-65503776D01*
X129661064Y-65668478D01*
X129564076Y-65817116D01*
X129511674Y-65870673D01*
X129439952Y-65943978D01*
X129293468Y-66044183D01*
X129130247Y-66113888D01*
X129011895Y-66138774D01*
X128956565Y-66150408D01*
X128823563Y-66151859D01*
X128823556Y-66151859D01*
X127938434Y-66074422D01*
X127929160Y-66072682D01*
X127807700Y-66049897D01*
X127743515Y-66024127D01*
X127643000Y-65983772D01*
X127494358Y-65886781D01*
X127367501Y-65762662D01*
X127267293Y-65616174D01*
X127197588Y-65452953D01*
X127178730Y-65363267D01*
X127161067Y-65279271D01*
X127159132Y-65101801D01*
X127191855Y-64927362D01*
X127236982Y-64814964D01*
X127257980Y-64762662D01*
X127354971Y-64614020D01*
X127479090Y-64487163D01*
X127625578Y-64386955D01*
X127788799Y-64317250D01*
X127852331Y-64303891D01*
X127962481Y-64280729D01*
X128095482Y-64279279D01*
X128095489Y-64279279D01*
X128980612Y-64356716D01*
X128980612Y-64356716D01*
G37*
G36*
X134526248Y-32662634D02*
X134674208Y-32723922D01*
X134712310Y-32749381D01*
X134763104Y-32783320D01*
X134807364Y-32812894D01*
X134920604Y-32926134D01*
X135009576Y-33059290D01*
X135070864Y-33207250D01*
X135102106Y-33364317D01*
X135102106Y-33524467D01*
X135070864Y-33681534D01*
X135009576Y-33829494D01*
X134979017Y-33875229D01*
X134920605Y-33962649D01*
X134807363Y-34075891D01*
X134741236Y-34120075D01*
X134674208Y-34164862D01*
X134526248Y-34226150D01*
X134369181Y-34257392D01*
X134209031Y-34257392D01*
X134051964Y-34226150D01*
X133904004Y-34164863D01*
X133819844Y-34108628D01*
X133796578Y-34093082D01*
X133774970Y-34081532D01*
X133751521Y-34074419D01*
X133727135Y-34072017D01*
X133702748Y-34074419D01*
X133679299Y-34081532D01*
X133657688Y-34093083D01*
X133638746Y-34108628D01*
X133623201Y-34127570D01*
X133611649Y-34149181D01*
X133604536Y-34172630D01*
X133602134Y-34197016D01*
X133604536Y-34221403D01*
X133611649Y-34244853D01*
X133658747Y-34358557D01*
X133689989Y-34515624D01*
X133689989Y-34675774D01*
X133658747Y-34832841D01*
X133597460Y-34980801D01*
X133541161Y-35065057D01*
X133529609Y-35086668D01*
X133522496Y-35110117D01*
X133520094Y-35134504D01*
X133522496Y-35158890D01*
X133529609Y-35182339D01*
X133541160Y-35203950D01*
X133556705Y-35222892D01*
X133575647Y-35238437D01*
X133597258Y-35249989D01*
X133620707Y-35257102D01*
X133645094Y-35259504D01*
X133669480Y-35257102D01*
X133692930Y-35249989D01*
X133830588Y-35192969D01*
X133987655Y-35161727D01*
X134147805Y-35161727D01*
X134304872Y-35192969D01*
X134414640Y-35238437D01*
X134442529Y-35249989D01*
X134452832Y-35254257D01*
X134490934Y-35279716D01*
X134569167Y-35331989D01*
X134585988Y-35343229D01*
X134699228Y-35456469D01*
X134788200Y-35589625D01*
X134849488Y-35737585D01*
X134880730Y-35894652D01*
X134880730Y-36054802D01*
X134849488Y-36211869D01*
X134806339Y-36316038D01*
X134792677Y-36349022D01*
X134788200Y-36359829D01*
X134757641Y-36405564D01*
X134699229Y-36492984D01*
X134585987Y-36606226D01*
X134536991Y-36638964D01*
X134452832Y-36695197D01*
X134452831Y-36695198D01*
X134452830Y-36695198D01*
X134434076Y-36702966D01*
X134304872Y-36756485D01*
X134147805Y-36787727D01*
X133987655Y-36787727D01*
X133830588Y-36756485D01*
X133682632Y-36695199D01*
X133682631Y-36695199D01*
X133682630Y-36695198D01*
X133575198Y-36623415D01*
X133553595Y-36611868D01*
X133530146Y-36604755D01*
X133505759Y-36602353D01*
X133481373Y-36604755D01*
X133457924Y-36611868D01*
X133436313Y-36623419D01*
X133417371Y-36638964D01*
X133401825Y-36657906D01*
X133390274Y-36679517D01*
X133383161Y-36702966D01*
X133380759Y-36727353D01*
X133383161Y-36751739D01*
X133390274Y-36775189D01*
X133437372Y-36888893D01*
X133468614Y-37045959D01*
X133468614Y-37206109D01*
X133437372Y-37363176D01*
X133376085Y-37511135D01*
X133319786Y-37595392D01*
X133308235Y-37617002D01*
X133301122Y-37640452D01*
X133298720Y-37664838D01*
X133301122Y-37689224D01*
X133308235Y-37712673D01*
X133319786Y-37734284D01*
X133335332Y-37753226D01*
X133354274Y-37768772D01*
X133375884Y-37780323D01*
X133399334Y-37787436D01*
X133423720Y-37789838D01*
X133448106Y-37787436D01*
X133471556Y-37780323D01*
X133609214Y-37723303D01*
X133766280Y-37692061D01*
X133926430Y-37692061D01*
X134083497Y-37723303D01*
X134166134Y-37757533D01*
X134221154Y-37780323D01*
X134231457Y-37784591D01*
X134269559Y-37810050D01*
X134347792Y-37862323D01*
X134364613Y-37873563D01*
X134477853Y-37986803D01*
X134566825Y-38119959D01*
X134628113Y-38267919D01*
X134659355Y-38424986D01*
X134659355Y-38585136D01*
X134628113Y-38742203D01*
X134566825Y-38890163D01*
X134536266Y-38935898D01*
X134477854Y-39023318D01*
X134364612Y-39136560D01*
X134298485Y-39180744D01*
X134231457Y-39225531D01*
X134083497Y-39286819D01*
X133926430Y-39318061D01*
X133766280Y-39318061D01*
X133609213Y-39286819D01*
X133461253Y-39225532D01*
X133377093Y-39169297D01*
X133353827Y-39153751D01*
X133332219Y-39142201D01*
X133308770Y-39135088D01*
X133284384Y-39132686D01*
X133259997Y-39135088D01*
X133236548Y-39142201D01*
X133214937Y-39153752D01*
X133195995Y-39169297D01*
X133180450Y-39188239D01*
X133168898Y-39209850D01*
X133161785Y-39233299D01*
X133159383Y-39257685D01*
X133161785Y-39282072D01*
X133168898Y-39305522D01*
X133215996Y-39419226D01*
X133247238Y-39576293D01*
X133247238Y-39736443D01*
X133215996Y-39893510D01*
X133154709Y-40041470D01*
X133098410Y-40125726D01*
X133086858Y-40147337D01*
X133079745Y-40170786D01*
X133077343Y-40195173D01*
X133079745Y-40219559D01*
X133086858Y-40243008D01*
X133098409Y-40264619D01*
X133113954Y-40283561D01*
X133132896Y-40299106D01*
X133154507Y-40310658D01*
X133177956Y-40317771D01*
X133202343Y-40320173D01*
X133226729Y-40317771D01*
X133250179Y-40310658D01*
X133387837Y-40253638D01*
X133544904Y-40222396D01*
X133705054Y-40222396D01*
X133862121Y-40253638D01*
X133971889Y-40299106D01*
X133999778Y-40310658D01*
X134010081Y-40314926D01*
X134048183Y-40340385D01*
X134126416Y-40392658D01*
X134143237Y-40403898D01*
X134256477Y-40517138D01*
X134345449Y-40650294D01*
X134406737Y-40798254D01*
X134437979Y-40955321D01*
X134437979Y-41115471D01*
X134406737Y-41272538D01*
X134363588Y-41376707D01*
X134349926Y-41409691D01*
X134345449Y-41420498D01*
X134314890Y-41466233D01*
X134256478Y-41553653D01*
X134143236Y-41666895D01*
X134094240Y-41699633D01*
X134010081Y-41755866D01*
X134010080Y-41755867D01*
X134010079Y-41755867D01*
X133991325Y-41763635D01*
X133862121Y-41817154D01*
X133705054Y-41848396D01*
X133544904Y-41848396D01*
X133387837Y-41817154D01*
X133239881Y-41755868D01*
X133239880Y-41755868D01*
X133239879Y-41755867D01*
X133132447Y-41684084D01*
X133110844Y-41672537D01*
X133087395Y-41665424D01*
X133063008Y-41663022D01*
X133038622Y-41665424D01*
X133015173Y-41672537D01*
X132993562Y-41684088D01*
X132974620Y-41699633D01*
X132959074Y-41718575D01*
X132947523Y-41740186D01*
X132940410Y-41763635D01*
X132938008Y-41788022D01*
X132940410Y-41812408D01*
X132947523Y-41835858D01*
X132994621Y-41949562D01*
X133025863Y-42106628D01*
X133025863Y-42266778D01*
X132994621Y-42423845D01*
X132933334Y-42571805D01*
X132877035Y-42656061D01*
X132865483Y-42677672D01*
X132858370Y-42701121D01*
X132855968Y-42725508D01*
X132858370Y-42749894D01*
X132865483Y-42773343D01*
X132877034Y-42794954D01*
X132892579Y-42813896D01*
X132911521Y-42829441D01*
X132933132Y-42840993D01*
X132956581Y-42848106D01*
X132980968Y-42850508D01*
X133005354Y-42848106D01*
X133028804Y-42840993D01*
X133166462Y-42783973D01*
X133323529Y-42752731D01*
X133483679Y-42752731D01*
X133640746Y-42783973D01*
X133750514Y-42829441D01*
X133778403Y-42840993D01*
X133788706Y-42845261D01*
X133849254Y-42885718D01*
X133905041Y-42922993D01*
X133921862Y-42934233D01*
X134035102Y-43047473D01*
X134124074Y-43180629D01*
X134185362Y-43328589D01*
X134216604Y-43485656D01*
X134216604Y-43645806D01*
X134185362Y-43802873D01*
X134124074Y-43950833D01*
X134093515Y-43996568D01*
X134035103Y-44083988D01*
X133921861Y-44197230D01*
X133872866Y-44229967D01*
X133788706Y-44286201D01*
X133640746Y-44347489D01*
X133483679Y-44378731D01*
X133323529Y-44378731D01*
X133166462Y-44347489D01*
X133018502Y-44286202D01*
X132934342Y-44229967D01*
X132911076Y-44214421D01*
X132889468Y-44202871D01*
X132866019Y-44195758D01*
X132841633Y-44193356D01*
X132817246Y-44195758D01*
X132793797Y-44202871D01*
X132772186Y-44214422D01*
X132753244Y-44229967D01*
X132737699Y-44248909D01*
X132726147Y-44270520D01*
X132719034Y-44293969D01*
X132716632Y-44318355D01*
X132719034Y-44342742D01*
X132726147Y-44366192D01*
X132773245Y-44479896D01*
X132804487Y-44636963D01*
X132804487Y-44797113D01*
X132773245Y-44954180D01*
X132711958Y-45102139D01*
X132655659Y-45186396D01*
X132644108Y-45208006D01*
X132636995Y-45231456D01*
X132634593Y-45255842D01*
X132636995Y-45280228D01*
X132644108Y-45303677D01*
X132655659Y-45325288D01*
X132671205Y-45344230D01*
X132690147Y-45359776D01*
X132711757Y-45371327D01*
X132735207Y-45378440D01*
X132759593Y-45380842D01*
X132783979Y-45378440D01*
X132807429Y-45371327D01*
X132945087Y-45314307D01*
X133102153Y-45283065D01*
X133262303Y-45283065D01*
X133419370Y-45314307D01*
X133502007Y-45348537D01*
X133557027Y-45371327D01*
X133567330Y-45375595D01*
X133605432Y-45401054D01*
X133683665Y-45453327D01*
X133700486Y-45464567D01*
X133813726Y-45577807D01*
X133902698Y-45710963D01*
X133963986Y-45858923D01*
X133995228Y-46015990D01*
X133995228Y-46176140D01*
X133963986Y-46333207D01*
X133902698Y-46481167D01*
X133872139Y-46526902D01*
X133813727Y-46614322D01*
X133700485Y-46727564D01*
X133651490Y-46760301D01*
X133567330Y-46816535D01*
X133419370Y-46877823D01*
X133262303Y-46909065D01*
X133102153Y-46909065D01*
X132945086Y-46877823D01*
X132797126Y-46816536D01*
X132712966Y-46760301D01*
X132689700Y-46744755D01*
X132668092Y-46733205D01*
X132644643Y-46726092D01*
X132620257Y-46723690D01*
X132595870Y-46726092D01*
X132572421Y-46733205D01*
X132550810Y-46744756D01*
X132531868Y-46760301D01*
X132516323Y-46779243D01*
X132504771Y-46800854D01*
X132497658Y-46824303D01*
X132495256Y-46848689D01*
X132497658Y-46873076D01*
X132504771Y-46896526D01*
X132551869Y-47010230D01*
X132583111Y-47167297D01*
X132583111Y-47327447D01*
X132551869Y-47484514D01*
X132490582Y-47632474D01*
X132434283Y-47716730D01*
X132422731Y-47738341D01*
X132415618Y-47761790D01*
X132413216Y-47786177D01*
X132415618Y-47810563D01*
X132422731Y-47834012D01*
X132434282Y-47855623D01*
X132449827Y-47874565D01*
X132468769Y-47890110D01*
X132490380Y-47901662D01*
X132513829Y-47908775D01*
X132538216Y-47911177D01*
X132562602Y-47908775D01*
X132586052Y-47901662D01*
X132723710Y-47844642D01*
X132880777Y-47813400D01*
X133040927Y-47813400D01*
X133197994Y-47844642D01*
X133307762Y-47890110D01*
X133335651Y-47901662D01*
X133345954Y-47905930D01*
X133406502Y-47946387D01*
X133462289Y-47983662D01*
X133479110Y-47994902D01*
X133592350Y-48108142D01*
X133681322Y-48241298D01*
X133742610Y-48389258D01*
X133773852Y-48546325D01*
X133773852Y-48706475D01*
X133742610Y-48863542D01*
X133699461Y-48967711D01*
X133685799Y-49000695D01*
X133681322Y-49011502D01*
X133650763Y-49057237D01*
X133592351Y-49144657D01*
X133479109Y-49257899D01*
X133412982Y-49302083D01*
X133345954Y-49346870D01*
X133345953Y-49346871D01*
X133345952Y-49346871D01*
X133327198Y-49354639D01*
X133197994Y-49408158D01*
X133040927Y-49439400D01*
X132880777Y-49439400D01*
X132723710Y-49408158D01*
X132575754Y-49346872D01*
X132575753Y-49346872D01*
X132575752Y-49346871D01*
X132468320Y-49275088D01*
X132446717Y-49263541D01*
X132423268Y-49256428D01*
X132398881Y-49254026D01*
X132374495Y-49256428D01*
X132351046Y-49263541D01*
X132329435Y-49275092D01*
X132310493Y-49290637D01*
X132294947Y-49309579D01*
X132283396Y-49331190D01*
X132276283Y-49354639D01*
X132273881Y-49379026D01*
X132276283Y-49403412D01*
X132283396Y-49426862D01*
X132330494Y-49540566D01*
X132361736Y-49697632D01*
X132361736Y-49857782D01*
X132330494Y-50014849D01*
X132269207Y-50162808D01*
X132212908Y-50247065D01*
X132201357Y-50268675D01*
X132194244Y-50292125D01*
X132191842Y-50316511D01*
X132194244Y-50340897D01*
X132201357Y-50364346D01*
X132212908Y-50385957D01*
X132228454Y-50404899D01*
X132247396Y-50420445D01*
X132269006Y-50431996D01*
X132292456Y-50439109D01*
X132316842Y-50441511D01*
X132341228Y-50439109D01*
X132364678Y-50431996D01*
X132502336Y-50374976D01*
X132659402Y-50343734D01*
X132819552Y-50343734D01*
X132976619Y-50374976D01*
X133059256Y-50409206D01*
X133114276Y-50431996D01*
X133124579Y-50436264D01*
X133162681Y-50461723D01*
X133240914Y-50513996D01*
X133257735Y-50525236D01*
X133370975Y-50638476D01*
X133459947Y-50771632D01*
X133521235Y-50919592D01*
X133552477Y-51076659D01*
X133552477Y-51236809D01*
X133521235Y-51393876D01*
X133459947Y-51541836D01*
X133429388Y-51587571D01*
X133370976Y-51674991D01*
X133257734Y-51788233D01*
X133208739Y-51820970D01*
X133124579Y-51877204D01*
X132976619Y-51938492D01*
X132819552Y-51969734D01*
X132659402Y-51969734D01*
X132502335Y-51938492D01*
X132354375Y-51877205D01*
X132270215Y-51820970D01*
X132246949Y-51805424D01*
X132225341Y-51793874D01*
X132201892Y-51786761D01*
X132177506Y-51784359D01*
X132153119Y-51786761D01*
X132129670Y-51793874D01*
X132108059Y-51805425D01*
X132089117Y-51820970D01*
X132073572Y-51839912D01*
X132062020Y-51861523D01*
X132054907Y-51884972D01*
X132052505Y-51909358D01*
X132054907Y-51933745D01*
X132062020Y-51957195D01*
X132109118Y-52070899D01*
X132140360Y-52227966D01*
X132140360Y-52388116D01*
X132109118Y-52545183D01*
X132047831Y-52693143D01*
X131991532Y-52777399D01*
X131979980Y-52799010D01*
X131972867Y-52822459D01*
X131970465Y-52846846D01*
X131972867Y-52871232D01*
X131979980Y-52894681D01*
X131991531Y-52916292D01*
X132007076Y-52935234D01*
X132026018Y-52950779D01*
X132047629Y-52962331D01*
X132071078Y-52969444D01*
X132095465Y-52971846D01*
X132119851Y-52969444D01*
X132143301Y-52962331D01*
X132280959Y-52905311D01*
X132438026Y-52874069D01*
X132598176Y-52874069D01*
X132755243Y-52905311D01*
X132865011Y-52950779D01*
X132892900Y-52962331D01*
X132903203Y-52966599D01*
X132963748Y-53007054D01*
X133019538Y-53044331D01*
X133036359Y-53055571D01*
X133149599Y-53168811D01*
X133238571Y-53301967D01*
X133299859Y-53449927D01*
X133331101Y-53606994D01*
X133331101Y-53767144D01*
X133299859Y-53924211D01*
X133256710Y-54028380D01*
X133243048Y-54061364D01*
X133238571Y-54072171D01*
X133208012Y-54117906D01*
X133149600Y-54205326D01*
X133036358Y-54318568D01*
X132970231Y-54362752D01*
X132903203Y-54407539D01*
X132903202Y-54407540D01*
X132903201Y-54407540D01*
X132884447Y-54415308D01*
X132755243Y-54468827D01*
X132598176Y-54500069D01*
X132438026Y-54500069D01*
X132280959Y-54468827D01*
X132133003Y-54407541D01*
X132133002Y-54407541D01*
X132133001Y-54407540D01*
X132025569Y-54335757D01*
X132003966Y-54324210D01*
X131980517Y-54317097D01*
X131956130Y-54314695D01*
X131931744Y-54317097D01*
X131908295Y-54324210D01*
X131886684Y-54335761D01*
X131867742Y-54351306D01*
X131852196Y-54370248D01*
X131840645Y-54391859D01*
X131833532Y-54415308D01*
X131831130Y-54439695D01*
X131833532Y-54464081D01*
X131840645Y-54487531D01*
X131887743Y-54601235D01*
X131918985Y-54758301D01*
X131918985Y-54918451D01*
X131887743Y-55075518D01*
X131826456Y-55223477D01*
X131770157Y-55307734D01*
X131758606Y-55329344D01*
X131751493Y-55352794D01*
X131749091Y-55377180D01*
X131751493Y-55401566D01*
X131758606Y-55425015D01*
X131770157Y-55446626D01*
X131785703Y-55465568D01*
X131804645Y-55481114D01*
X131826255Y-55492665D01*
X131849705Y-55499778D01*
X131874091Y-55502180D01*
X131898477Y-55499778D01*
X131921927Y-55492665D01*
X132059585Y-55435645D01*
X132216651Y-55404403D01*
X132376801Y-55404403D01*
X132533868Y-55435645D01*
X132616505Y-55469875D01*
X132671525Y-55492665D01*
X132681828Y-55496933D01*
X132719930Y-55522392D01*
X132798163Y-55574665D01*
X132814984Y-55585905D01*
X132928224Y-55699145D01*
X133017196Y-55832301D01*
X133078484Y-55980261D01*
X133109726Y-56137328D01*
X133109726Y-56297478D01*
X133078484Y-56454545D01*
X133017196Y-56602505D01*
X132986637Y-56648240D01*
X132928225Y-56735660D01*
X132814983Y-56848902D01*
X132765988Y-56881639D01*
X132681828Y-56937873D01*
X132533868Y-56999161D01*
X132376801Y-57030403D01*
X132216651Y-57030403D01*
X132059584Y-56999161D01*
X131911624Y-56937874D01*
X131827464Y-56881639D01*
X131804198Y-56866093D01*
X131782590Y-56854543D01*
X131759141Y-56847430D01*
X131734755Y-56845028D01*
X131710368Y-56847430D01*
X131686919Y-56854543D01*
X131665308Y-56866094D01*
X131646366Y-56881639D01*
X131630821Y-56900581D01*
X131619269Y-56922192D01*
X131612156Y-56945641D01*
X131609754Y-56970027D01*
X131612156Y-56994414D01*
X131619269Y-57017864D01*
X131666367Y-57131568D01*
X131697609Y-57288635D01*
X131697609Y-57448785D01*
X131666367Y-57605852D01*
X131605080Y-57753812D01*
X131548781Y-57838068D01*
X131537229Y-57859679D01*
X131530116Y-57883128D01*
X131527714Y-57907515D01*
X131530116Y-57931901D01*
X131537229Y-57955350D01*
X131548780Y-57976961D01*
X131564325Y-57995903D01*
X131583267Y-58011448D01*
X131604878Y-58023000D01*
X131628327Y-58030113D01*
X131652714Y-58032515D01*
X131677100Y-58030113D01*
X131700550Y-58023000D01*
X131838208Y-57965980D01*
X131995275Y-57934738D01*
X132155425Y-57934738D01*
X132312492Y-57965980D01*
X132422260Y-58011448D01*
X132450149Y-58023000D01*
X132460452Y-58027268D01*
X132520997Y-58067723D01*
X132576787Y-58105000D01*
X132593608Y-58116240D01*
X132706848Y-58229480D01*
X132795820Y-58362636D01*
X132857108Y-58510596D01*
X132888350Y-58667663D01*
X132888350Y-58827813D01*
X132857108Y-58984880D01*
X132795820Y-59132840D01*
X132765261Y-59178575D01*
X132706849Y-59265995D01*
X132593607Y-59379237D01*
X132544609Y-59411976D01*
X132460452Y-59468208D01*
X132312492Y-59529496D01*
X132155425Y-59560738D01*
X131995275Y-59560738D01*
X131838208Y-59529496D01*
X131690248Y-59468209D01*
X131606091Y-59411976D01*
X131582825Y-59396430D01*
X131561217Y-59384880D01*
X131537768Y-59377767D01*
X131513382Y-59375365D01*
X131488995Y-59377767D01*
X131465546Y-59384880D01*
X131443935Y-59396431D01*
X131424993Y-59411976D01*
X131409448Y-59430918D01*
X131397896Y-59452529D01*
X131390783Y-59475978D01*
X131388381Y-59500364D01*
X131390783Y-59524751D01*
X131397896Y-59548201D01*
X131444993Y-59661903D01*
X131476235Y-59818970D01*
X131476235Y-59979120D01*
X131444993Y-60136187D01*
X131383706Y-60284147D01*
X131327408Y-60368401D01*
X131315856Y-60390012D01*
X131308743Y-60413461D01*
X131306341Y-60437847D01*
X131308743Y-60462234D01*
X131315856Y-60485683D01*
X131327407Y-60507294D01*
X131342952Y-60526236D01*
X131361894Y-60541781D01*
X131383505Y-60553333D01*
X131406954Y-60560446D01*
X131431340Y-60562848D01*
X131455727Y-60560446D01*
X131479177Y-60553333D01*
X131616832Y-60496314D01*
X131773899Y-60465072D01*
X131934049Y-60465072D01*
X132091116Y-60496314D01*
X132239076Y-60557602D01*
X132277178Y-60583061D01*
X132355414Y-60635336D01*
X132372232Y-60646574D01*
X132485472Y-60759814D01*
X132574444Y-60892970D01*
X132635732Y-61040930D01*
X132666974Y-61197997D01*
X132666974Y-61358147D01*
X132635732Y-61515214D01*
X132625741Y-61539333D01*
X132578921Y-61652367D01*
X132574444Y-61663174D01*
X132543885Y-61708909D01*
X132485473Y-61796329D01*
X132372231Y-61909571D01*
X132323235Y-61942309D01*
X132239076Y-61998542D01*
X132239075Y-61998543D01*
X132239074Y-61998543D01*
X132220320Y-62006311D01*
X132091116Y-62059830D01*
X131934049Y-62091072D01*
X131773899Y-62091072D01*
X131616832Y-62059830D01*
X131468876Y-61998544D01*
X131468875Y-61998544D01*
X131468874Y-61998543D01*
X131361442Y-61926760D01*
X131339839Y-61915213D01*
X131316390Y-61908100D01*
X131292003Y-61905698D01*
X131267617Y-61908100D01*
X131244168Y-61915213D01*
X131222557Y-61926764D01*
X131203615Y-61942309D01*
X131188069Y-61961251D01*
X131176518Y-61982862D01*
X131169405Y-62006311D01*
X131167003Y-62030698D01*
X131169405Y-62055084D01*
X131176518Y-62078534D01*
X131223616Y-62192238D01*
X131254858Y-62349304D01*
X131254858Y-62509454D01*
X131223616Y-62666521D01*
X131162328Y-62814481D01*
X131073356Y-62947637D01*
X130960116Y-63060877D01*
X130826960Y-63149849D01*
X130679000Y-63211137D01*
X130521933Y-63242379D01*
X130361783Y-63242379D01*
X130204716Y-63211137D01*
X130056756Y-63149849D01*
X129923600Y-63060877D01*
X129810360Y-62947637D01*
X129721388Y-62814481D01*
X129660100Y-62666521D01*
X129628858Y-62509454D01*
X129628858Y-62349304D01*
X129660100Y-62192237D01*
X129714946Y-62059829D01*
X129721387Y-62044279D01*
X129751947Y-61998543D01*
X129789521Y-61942309D01*
X129810359Y-61911122D01*
X129923601Y-61797880D01*
X130000946Y-61746200D01*
X130056756Y-61708909D01*
X130056761Y-61708907D01*
X130090275Y-61695025D01*
X130204716Y-61647621D01*
X130361783Y-61616379D01*
X130521933Y-61616379D01*
X130679000Y-61647621D01*
X130826956Y-61708907D01*
X130826958Y-61708908D01*
X130934390Y-61780691D01*
X130955993Y-61792238D01*
X130979442Y-61799351D01*
X131003829Y-61801753D01*
X131028215Y-61799351D01*
X131051664Y-61792238D01*
X131073275Y-61780687D01*
X131092217Y-61765142D01*
X131107763Y-61746200D01*
X131119314Y-61724589D01*
X131126427Y-61701140D01*
X131128829Y-61676753D01*
X131126427Y-61652367D01*
X131119314Y-61628917D01*
X131072216Y-61515213D01*
X131040974Y-61358147D01*
X131040974Y-61197997D01*
X131072216Y-61040930D01*
X131133503Y-60892970D01*
X131189801Y-60808716D01*
X131201353Y-60787105D01*
X131208466Y-60763656D01*
X131210868Y-60739270D01*
X131208466Y-60714883D01*
X131201353Y-60691434D01*
X131189802Y-60669823D01*
X131174257Y-60650881D01*
X131155315Y-60635336D01*
X131133704Y-60623784D01*
X131110255Y-60616671D01*
X131085869Y-60614269D01*
X131061482Y-60616671D01*
X131038032Y-60623784D01*
X130900377Y-60680803D01*
X130743310Y-60712045D01*
X130583160Y-60712045D01*
X130426093Y-60680803D01*
X130278133Y-60619515D01*
X130193325Y-60562848D01*
X130144978Y-60530544D01*
X130031736Y-60417302D01*
X129942764Y-60284145D01*
X129903230Y-60188703D01*
X129881477Y-60136187D01*
X129850235Y-59979120D01*
X129850235Y-59818970D01*
X129881477Y-59661903D01*
X129942765Y-59513943D01*
X129996646Y-59433304D01*
X130031736Y-59380788D01*
X130144978Y-59267546D01*
X130242641Y-59202290D01*
X130278133Y-59178575D01*
X130426093Y-59117287D01*
X130583160Y-59086045D01*
X130743310Y-59086045D01*
X130900377Y-59117287D01*
X131048337Y-59178574D01*
X131126476Y-59230786D01*
X131155759Y-59250352D01*
X131177368Y-59261903D01*
X131200817Y-59269016D01*
X131225203Y-59271418D01*
X131249590Y-59269016D01*
X131273039Y-59261903D01*
X131294650Y-59250352D01*
X131313592Y-59234807D01*
X131329137Y-59215865D01*
X131340689Y-59194254D01*
X131347802Y-59170805D01*
X131350204Y-59146419D01*
X131347802Y-59122032D01*
X131340689Y-59098582D01*
X131293592Y-58984880D01*
X131262350Y-58827813D01*
X131262350Y-58667663D01*
X131293592Y-58510596D01*
X131354879Y-58362636D01*
X131411178Y-58278380D01*
X131422730Y-58256769D01*
X131429843Y-58233320D01*
X131432245Y-58208933D01*
X131429843Y-58184547D01*
X131422730Y-58161098D01*
X131411179Y-58139487D01*
X131395634Y-58120545D01*
X131376692Y-58105000D01*
X131355081Y-58093448D01*
X131331632Y-58086335D01*
X131307245Y-58083933D01*
X131282859Y-58086335D01*
X131259409Y-58093448D01*
X131121751Y-58150468D01*
X130964684Y-58181710D01*
X130804534Y-58181710D01*
X130647467Y-58150468D01*
X130533026Y-58103064D01*
X130499509Y-58089181D01*
X130499508Y-58089181D01*
X130499507Y-58089180D01*
X130406849Y-58027268D01*
X130366352Y-58000209D01*
X130253110Y-57886967D01*
X130187673Y-57789033D01*
X130164139Y-57753812D01*
X130102851Y-57605852D01*
X130071609Y-57448785D01*
X130071609Y-57288635D01*
X130102851Y-57131568D01*
X130164139Y-56983608D01*
X130226983Y-56889555D01*
X130253110Y-56850453D01*
X130366352Y-56737211D01*
X130443696Y-56685532D01*
X130499507Y-56648240D01*
X130508896Y-56644351D01*
X130565506Y-56620902D01*
X130647467Y-56586952D01*
X130804534Y-56555710D01*
X130964684Y-56555710D01*
X131121751Y-56586952D01*
X131269711Y-56648239D01*
X131347847Y-56700449D01*
X131377136Y-56720019D01*
X131398745Y-56731570D01*
X131422194Y-56738683D01*
X131446580Y-56741085D01*
X131470967Y-56738683D01*
X131494416Y-56731570D01*
X131516027Y-56720019D01*
X131534969Y-56704474D01*
X131550514Y-56685532D01*
X131562066Y-56663921D01*
X131569179Y-56640472D01*
X131571581Y-56616086D01*
X131569179Y-56591699D01*
X131562066Y-56568249D01*
X131514968Y-56454545D01*
X131483726Y-56297478D01*
X131483726Y-56137328D01*
X131514968Y-55980261D01*
X131576255Y-55832302D01*
X131632554Y-55748045D01*
X131644105Y-55726435D01*
X131651218Y-55702985D01*
X131653620Y-55678599D01*
X131651218Y-55654213D01*
X131644105Y-55630764D01*
X131632554Y-55609153D01*
X131617008Y-55590211D01*
X131598066Y-55574665D01*
X131576456Y-55563114D01*
X131553006Y-55556001D01*
X131528620Y-55553599D01*
X131504234Y-55556001D01*
X131480784Y-55563114D01*
X131343126Y-55620134D01*
X131186060Y-55651376D01*
X131025910Y-55651376D01*
X130868843Y-55620134D01*
X130754402Y-55572730D01*
X130720885Y-55558847D01*
X130720884Y-55558847D01*
X130720883Y-55558846D01*
X130636076Y-55502180D01*
X130587728Y-55469875D01*
X130474486Y-55356633D01*
X130385514Y-55223476D01*
X130345980Y-55128034D01*
X130324227Y-55075518D01*
X130292985Y-54918451D01*
X130292985Y-54758301D01*
X130324227Y-54601234D01*
X130379073Y-54468826D01*
X130385514Y-54453276D01*
X130416074Y-54407540D01*
X130453648Y-54351306D01*
X130474486Y-54320119D01*
X130587728Y-54206877D01*
X130665073Y-54155197D01*
X130720883Y-54117906D01*
X130720888Y-54117904D01*
X130786877Y-54090570D01*
X130868843Y-54056618D01*
X131025910Y-54025376D01*
X131186060Y-54025376D01*
X131343127Y-54056618D01*
X131491083Y-54117904D01*
X131491085Y-54117905D01*
X131598517Y-54189688D01*
X131620120Y-54201235D01*
X131643569Y-54208348D01*
X131667956Y-54210750D01*
X131692342Y-54208348D01*
X131715791Y-54201235D01*
X131737402Y-54189684D01*
X131756344Y-54174139D01*
X131771890Y-54155197D01*
X131783441Y-54133586D01*
X131790554Y-54110137D01*
X131792956Y-54085750D01*
X131790554Y-54061364D01*
X131783441Y-54037914D01*
X131736343Y-53924210D01*
X131705101Y-53767144D01*
X131705101Y-53606994D01*
X131736343Y-53449927D01*
X131797630Y-53301967D01*
X131853929Y-53217711D01*
X131865481Y-53196100D01*
X131872594Y-53172651D01*
X131874996Y-53148264D01*
X131872594Y-53123878D01*
X131865481Y-53100429D01*
X131853930Y-53078818D01*
X131838385Y-53059876D01*
X131819443Y-53044331D01*
X131797832Y-53032779D01*
X131774383Y-53025666D01*
X131749996Y-53023264D01*
X131725610Y-53025666D01*
X131702160Y-53032779D01*
X131564502Y-53089799D01*
X131407435Y-53121041D01*
X131247285Y-53121041D01*
X131090218Y-53089799D01*
X130975777Y-53042395D01*
X130942260Y-53028512D01*
X130942259Y-53028512D01*
X130942258Y-53028511D01*
X130857453Y-52971846D01*
X130809103Y-52939540D01*
X130695861Y-52826298D01*
X130606889Y-52693141D01*
X130567355Y-52597699D01*
X130545602Y-52545183D01*
X130514360Y-52388116D01*
X130514360Y-52227966D01*
X130545602Y-52070899D01*
X130606890Y-51922939D01*
X130669734Y-51828886D01*
X130695861Y-51789784D01*
X130809103Y-51676542D01*
X130886447Y-51624863D01*
X130942258Y-51587571D01*
X130951647Y-51583682D01*
X131008257Y-51560233D01*
X131090218Y-51526283D01*
X131247285Y-51495041D01*
X131407435Y-51495041D01*
X131564502Y-51526283D01*
X131712462Y-51587570D01*
X131790598Y-51639780D01*
X131819887Y-51659350D01*
X131841496Y-51670901D01*
X131864945Y-51678014D01*
X131889331Y-51680416D01*
X131913718Y-51678014D01*
X131937167Y-51670901D01*
X131958778Y-51659350D01*
X131977720Y-51643805D01*
X131993265Y-51624863D01*
X132004817Y-51603252D01*
X132011930Y-51579803D01*
X132014332Y-51555417D01*
X132011930Y-51531030D01*
X132004817Y-51507580D01*
X131957719Y-51393876D01*
X131926477Y-51236809D01*
X131926477Y-51076659D01*
X131957719Y-50919592D01*
X132019006Y-50771633D01*
X132075305Y-50687376D01*
X132086856Y-50665766D01*
X132093969Y-50642316D01*
X132096371Y-50617930D01*
X132093969Y-50593544D01*
X132086856Y-50570095D01*
X132075305Y-50548484D01*
X132059759Y-50529542D01*
X132040817Y-50513996D01*
X132019207Y-50502445D01*
X131995757Y-50495332D01*
X131971371Y-50492930D01*
X131946985Y-50495332D01*
X131923535Y-50502445D01*
X131785877Y-50559465D01*
X131628811Y-50590707D01*
X131468661Y-50590707D01*
X131311594Y-50559465D01*
X131197153Y-50512061D01*
X131163636Y-50498178D01*
X131163635Y-50498178D01*
X131163634Y-50498177D01*
X131078827Y-50441511D01*
X131030479Y-50409206D01*
X130917237Y-50295964D01*
X130828265Y-50162807D01*
X130788731Y-50067365D01*
X130766978Y-50014849D01*
X130735736Y-49857782D01*
X130735736Y-49697632D01*
X130766978Y-49540565D01*
X130821824Y-49408157D01*
X130828265Y-49392607D01*
X130858825Y-49346871D01*
X130896399Y-49290637D01*
X130917237Y-49259450D01*
X131030479Y-49146208D01*
X131107824Y-49094528D01*
X131163634Y-49057237D01*
X131163639Y-49057235D01*
X131229628Y-49029901D01*
X131311594Y-48995949D01*
X131468661Y-48964707D01*
X131628811Y-48964707D01*
X131785878Y-48995949D01*
X131933834Y-49057235D01*
X131933836Y-49057236D01*
X132041268Y-49129019D01*
X132062871Y-49140566D01*
X132086320Y-49147679D01*
X132110707Y-49150081D01*
X132135093Y-49147679D01*
X132158542Y-49140566D01*
X132180153Y-49129015D01*
X132199095Y-49113470D01*
X132214641Y-49094528D01*
X132226192Y-49072917D01*
X132233305Y-49049468D01*
X132235707Y-49025081D01*
X132233305Y-49000695D01*
X132226192Y-48977245D01*
X132179094Y-48863541D01*
X132147852Y-48706475D01*
X132147852Y-48546325D01*
X132179094Y-48389258D01*
X132240381Y-48241298D01*
X132296680Y-48157042D01*
X132308232Y-48135431D01*
X132315345Y-48111982D01*
X132317747Y-48087595D01*
X132315345Y-48063209D01*
X132308232Y-48039760D01*
X132296681Y-48018149D01*
X132281136Y-47999207D01*
X132262194Y-47983662D01*
X132240583Y-47972110D01*
X132217134Y-47964997D01*
X132192747Y-47962595D01*
X132168361Y-47964997D01*
X132144911Y-47972110D01*
X132007253Y-48029130D01*
X131850186Y-48060372D01*
X131690036Y-48060372D01*
X131532969Y-48029130D01*
X131418528Y-47981726D01*
X131385011Y-47967843D01*
X131385010Y-47967843D01*
X131385009Y-47967842D01*
X131300204Y-47911177D01*
X131251854Y-47878871D01*
X131138612Y-47765629D01*
X131049640Y-47632472D01*
X131010106Y-47537030D01*
X130988353Y-47484514D01*
X130957111Y-47327447D01*
X130957111Y-47167297D01*
X130988353Y-47010230D01*
X131049641Y-46862270D01*
X131112485Y-46768217D01*
X131138612Y-46729115D01*
X131251854Y-46615873D01*
X131329198Y-46564194D01*
X131385009Y-46526902D01*
X131394398Y-46523013D01*
X131451008Y-46499564D01*
X131532969Y-46465614D01*
X131690036Y-46434372D01*
X131850186Y-46434372D01*
X132007253Y-46465614D01*
X132155213Y-46526901D01*
X132233349Y-46579111D01*
X132262638Y-46598681D01*
X132284247Y-46610232D01*
X132307696Y-46617345D01*
X132332082Y-46619747D01*
X132356469Y-46617345D01*
X132379918Y-46610232D01*
X132401529Y-46598681D01*
X132420471Y-46583136D01*
X132436016Y-46564194D01*
X132447568Y-46542583D01*
X132454681Y-46519134D01*
X132457083Y-46494748D01*
X132454681Y-46470361D01*
X132447568Y-46446911D01*
X132400470Y-46333207D01*
X132369228Y-46176140D01*
X132369228Y-46015990D01*
X132400470Y-45858923D01*
X132461757Y-45710964D01*
X132518056Y-45626707D01*
X132529607Y-45605097D01*
X132536720Y-45581647D01*
X132539122Y-45557261D01*
X132536720Y-45532875D01*
X132529607Y-45509426D01*
X132518056Y-45487815D01*
X132502510Y-45468873D01*
X132483568Y-45453327D01*
X132461958Y-45441776D01*
X132438508Y-45434663D01*
X132414122Y-45432261D01*
X132389736Y-45434663D01*
X132366286Y-45441776D01*
X132228628Y-45498796D01*
X132071562Y-45530038D01*
X131911412Y-45530038D01*
X131754345Y-45498796D01*
X131639904Y-45451392D01*
X131606387Y-45437509D01*
X131606386Y-45437509D01*
X131606385Y-45437508D01*
X131517983Y-45378440D01*
X131473230Y-45348537D01*
X131359988Y-45235295D01*
X131294551Y-45137361D01*
X131271017Y-45102140D01*
X131209729Y-44954180D01*
X131178487Y-44797113D01*
X131178487Y-44636963D01*
X131209729Y-44479896D01*
X131271017Y-44331936D01*
X131326494Y-44248909D01*
X131359988Y-44198781D01*
X131473230Y-44085539D01*
X131570893Y-44020283D01*
X131606385Y-43996568D01*
X131754345Y-43935280D01*
X131911412Y-43904038D01*
X132071562Y-43904038D01*
X132228629Y-43935280D01*
X132376589Y-43996567D01*
X132454728Y-44048779D01*
X132484014Y-44068347D01*
X132505623Y-44079898D01*
X132529072Y-44087011D01*
X132553458Y-44089413D01*
X132577845Y-44087011D01*
X132601294Y-44079898D01*
X132622905Y-44068347D01*
X132641847Y-44052802D01*
X132657392Y-44033860D01*
X132668944Y-44012249D01*
X132676057Y-43988800D01*
X132678459Y-43964414D01*
X132676057Y-43940027D01*
X132668944Y-43916577D01*
X132621846Y-43802873D01*
X132590604Y-43645806D01*
X132590604Y-43485656D01*
X132621846Y-43328589D01*
X132683133Y-43180629D01*
X132739432Y-43096373D01*
X132750984Y-43074762D01*
X132758097Y-43051313D01*
X132760499Y-43026926D01*
X132758097Y-43002540D01*
X132750984Y-42979091D01*
X132739433Y-42957480D01*
X132723888Y-42938538D01*
X132704946Y-42922993D01*
X132683335Y-42911441D01*
X132659886Y-42904328D01*
X132635499Y-42901926D01*
X132611113Y-42904328D01*
X132587663Y-42911441D01*
X132450005Y-42968461D01*
X132292938Y-42999703D01*
X132132788Y-42999703D01*
X131975721Y-42968461D01*
X131861280Y-42921057D01*
X131827763Y-42907174D01*
X131827762Y-42907174D01*
X131827761Y-42907173D01*
X131742956Y-42850508D01*
X131694606Y-42818202D01*
X131581364Y-42704960D01*
X131492392Y-42571803D01*
X131452858Y-42476361D01*
X131431105Y-42423845D01*
X131399863Y-42266778D01*
X131399863Y-42106628D01*
X131431105Y-41949561D01*
X131485951Y-41817153D01*
X131492392Y-41801603D01*
X131522952Y-41755867D01*
X131547869Y-41718575D01*
X131581364Y-41668446D01*
X131694606Y-41555204D01*
X131792269Y-41489948D01*
X131827761Y-41466233D01*
X131827766Y-41466231D01*
X131861280Y-41452349D01*
X131975721Y-41404945D01*
X132132788Y-41373703D01*
X132292938Y-41373703D01*
X132450005Y-41404945D01*
X132588579Y-41462345D01*
X132597963Y-41466232D01*
X132705395Y-41538015D01*
X132726998Y-41549562D01*
X132750447Y-41556675D01*
X132774834Y-41559077D01*
X132799220Y-41556675D01*
X132822669Y-41549562D01*
X132844280Y-41538011D01*
X132863222Y-41522466D01*
X132878768Y-41503524D01*
X132890319Y-41481913D01*
X132897432Y-41458464D01*
X132899834Y-41434077D01*
X132897432Y-41409691D01*
X132890319Y-41386241D01*
X132843221Y-41272537D01*
X132811979Y-41115471D01*
X132811979Y-40955321D01*
X132843221Y-40798254D01*
X132904508Y-40650294D01*
X132960807Y-40566038D01*
X132972359Y-40544427D01*
X132979472Y-40520978D01*
X132981874Y-40496591D01*
X132979472Y-40472205D01*
X132972359Y-40448756D01*
X132960808Y-40427145D01*
X132945263Y-40408203D01*
X132926321Y-40392658D01*
X132904710Y-40381106D01*
X132881261Y-40373993D01*
X132856874Y-40371591D01*
X132832488Y-40373993D01*
X132809038Y-40381106D01*
X132671380Y-40438126D01*
X132514313Y-40469368D01*
X132354163Y-40469368D01*
X132197096Y-40438126D01*
X132082655Y-40390722D01*
X132049138Y-40376839D01*
X132049137Y-40376839D01*
X132049136Y-40376838D01*
X131964331Y-40320173D01*
X131915981Y-40287867D01*
X131802739Y-40174625D01*
X131737302Y-40076691D01*
X131713768Y-40041470D01*
X131652480Y-39893510D01*
X131621238Y-39736443D01*
X131621238Y-39576293D01*
X131652480Y-39419226D01*
X131713768Y-39271266D01*
X131776613Y-39177212D01*
X131802739Y-39138111D01*
X131915981Y-39024869D01*
X131993325Y-38973190D01*
X132049136Y-38935898D01*
X132197096Y-38874610D01*
X132354163Y-38843368D01*
X132514313Y-38843368D01*
X132671380Y-38874610D01*
X132819340Y-38935897D01*
X132897481Y-38988110D01*
X132926765Y-39007677D01*
X132948374Y-39019228D01*
X132971823Y-39026341D01*
X132996209Y-39028743D01*
X133020596Y-39026341D01*
X133044045Y-39019228D01*
X133065656Y-39007677D01*
X133084598Y-38992132D01*
X133100143Y-38973190D01*
X133111695Y-38951579D01*
X133118808Y-38928130D01*
X133121210Y-38903744D01*
X133118808Y-38879357D01*
X133111695Y-38855907D01*
X133064597Y-38742203D01*
X133033355Y-38585136D01*
X133033355Y-38424986D01*
X133064597Y-38267919D01*
X133125884Y-38119960D01*
X133182183Y-38035703D01*
X133193734Y-38014093D01*
X133200847Y-37990643D01*
X133203249Y-37966257D01*
X133200847Y-37941871D01*
X133193734Y-37918422D01*
X133182183Y-37896811D01*
X133166637Y-37877869D01*
X133147695Y-37862323D01*
X133126085Y-37850772D01*
X133102635Y-37843659D01*
X133078249Y-37841257D01*
X133053863Y-37843659D01*
X133030413Y-37850772D01*
X132892755Y-37907792D01*
X132735689Y-37939034D01*
X132575539Y-37939034D01*
X132418472Y-37907792D01*
X132304031Y-37860388D01*
X132270514Y-37846505D01*
X132270513Y-37846505D01*
X132270512Y-37846504D01*
X132185705Y-37789838D01*
X132137357Y-37757533D01*
X132024115Y-37644291D01*
X131935143Y-37511134D01*
X131895609Y-37415692D01*
X131873856Y-37363176D01*
X131842614Y-37206109D01*
X131842614Y-37045959D01*
X131873856Y-36888892D01*
X131928702Y-36756484D01*
X131935143Y-36740934D01*
X131965703Y-36695198D01*
X131990620Y-36657906D01*
X132024115Y-36607777D01*
X132137357Y-36494535D01*
X132214702Y-36442855D01*
X132270512Y-36405564D01*
X132270517Y-36405562D01*
X132336511Y-36378226D01*
X132418472Y-36344276D01*
X132575539Y-36313034D01*
X132735689Y-36313034D01*
X132892756Y-36344276D01*
X133031328Y-36401675D01*
X133040714Y-36405563D01*
X133148146Y-36477346D01*
X133169749Y-36488893D01*
X133193198Y-36496006D01*
X133217585Y-36498408D01*
X133241971Y-36496006D01*
X133265420Y-36488893D01*
X133287031Y-36477342D01*
X133305973Y-36461797D01*
X133321519Y-36442855D01*
X133333070Y-36421244D01*
X133340183Y-36397795D01*
X133342585Y-36373408D01*
X133340183Y-36349022D01*
X133333070Y-36325572D01*
X133285972Y-36211868D01*
X133254730Y-36054802D01*
X133254730Y-35894652D01*
X133285972Y-35737585D01*
X133347259Y-35589625D01*
X133403558Y-35505369D01*
X133415110Y-35483758D01*
X133422223Y-35460309D01*
X133424625Y-35435922D01*
X133422223Y-35411536D01*
X133415110Y-35388087D01*
X133403559Y-35366476D01*
X133388014Y-35347534D01*
X133369072Y-35331989D01*
X133347461Y-35320437D01*
X133324012Y-35313324D01*
X133299625Y-35310922D01*
X133275239Y-35313324D01*
X133251789Y-35320437D01*
X133114131Y-35377457D01*
X132957064Y-35408699D01*
X132796914Y-35408699D01*
X132639847Y-35377457D01*
X132525406Y-35330053D01*
X132491889Y-35316170D01*
X132491888Y-35316170D01*
X132491887Y-35316169D01*
X132399229Y-35254257D01*
X132358732Y-35227198D01*
X132245490Y-35113956D01*
X132156518Y-34980799D01*
X132142635Y-34947282D01*
X132095231Y-34832841D01*
X132063989Y-34675774D01*
X132063989Y-34515624D01*
X132095231Y-34358557D01*
X132156519Y-34210597D01*
X132219364Y-34116543D01*
X132245490Y-34077442D01*
X132358732Y-33964200D01*
X132436076Y-33912521D01*
X132491887Y-33875229D01*
X132639847Y-33813941D01*
X132796914Y-33782699D01*
X132957064Y-33782699D01*
X133114131Y-33813941D01*
X133262091Y-33875228D01*
X133340232Y-33927441D01*
X133369516Y-33947008D01*
X133391125Y-33958559D01*
X133414574Y-33965672D01*
X133438960Y-33968074D01*
X133463347Y-33965672D01*
X133486796Y-33958559D01*
X133508407Y-33947008D01*
X133527349Y-33931463D01*
X133542894Y-33912521D01*
X133554446Y-33890910D01*
X133561559Y-33867461D01*
X133563961Y-33843075D01*
X133561559Y-33818688D01*
X133554446Y-33795238D01*
X133507348Y-33681534D01*
X133476106Y-33524467D01*
X133476106Y-33364317D01*
X133507348Y-33207250D01*
X133568636Y-33059290D01*
X133657608Y-32926134D01*
X133770848Y-32812894D01*
X133815109Y-32783320D01*
X133865902Y-32749381D01*
X133904004Y-32723922D01*
X134051964Y-32662634D01*
X134209031Y-32631392D01*
X134369181Y-32631392D01*
X134526248Y-32662634D01*
X134526248Y-32662634D01*
G37*
G36*
X119364165Y-31336124D02*
X119512125Y-31397412D01*
X119645281Y-31486384D01*
X119758521Y-31599624D01*
X119847493Y-31732780D01*
X119908781Y-31880740D01*
X119940023Y-32037807D01*
X119940023Y-32197957D01*
X119908781Y-32355024D01*
X119867598Y-32454446D01*
X119847494Y-32502982D01*
X119758650Y-32635948D01*
X119758521Y-32636140D01*
X119645281Y-32749380D01*
X119512125Y-32838352D01*
X119364165Y-32899640D01*
X119207098Y-32930882D01*
X119046948Y-32930882D01*
X118889881Y-32899640D01*
X118741921Y-32838352D01*
X118631211Y-32764378D01*
X118608766Y-32749381D01*
X118608765Y-32749380D01*
X118607948Y-32748834D01*
X118586337Y-32737282D01*
X118562888Y-32730169D01*
X118538501Y-32727767D01*
X118514115Y-32730169D01*
X118490666Y-32737282D01*
X118469055Y-32748833D01*
X118450113Y-32764378D01*
X118434568Y-32783320D01*
X118423016Y-32804931D01*
X118415903Y-32828380D01*
X118413501Y-32852767D01*
X118415903Y-32877153D01*
X118423016Y-32900603D01*
X118476740Y-33030304D01*
X118507982Y-33187371D01*
X118507982Y-33347521D01*
X118476740Y-33504588D01*
X118415454Y-33652544D01*
X118415453Y-33652546D01*
X118347619Y-33754068D01*
X118336072Y-33775671D01*
X118328959Y-33799120D01*
X118326557Y-33823507D01*
X118328959Y-33847893D01*
X118336072Y-33871342D01*
X118347623Y-33892953D01*
X118363168Y-33911895D01*
X118382110Y-33927441D01*
X118403721Y-33938992D01*
X118427170Y-33946105D01*
X118451557Y-33948507D01*
X118475943Y-33946105D01*
X118499392Y-33938992D01*
X118520041Y-33927955D01*
X118668505Y-33866459D01*
X118825572Y-33835217D01*
X118985722Y-33835217D01*
X119142789Y-33866459D01*
X119252479Y-33911895D01*
X119290011Y-33927441D01*
X119290749Y-33927747D01*
X119342985Y-33962650D01*
X119423904Y-34016718D01*
X119537146Y-34129960D01*
X119560467Y-34164863D01*
X119626117Y-34263115D01*
X119687405Y-34411075D01*
X119718647Y-34568142D01*
X119718647Y-34728292D01*
X119687405Y-34885359D01*
X119626117Y-35033319D01*
X119604910Y-35065057D01*
X119537146Y-35166474D01*
X119423904Y-35279716D01*
X119373606Y-35313324D01*
X119290749Y-35368687D01*
X119142789Y-35429975D01*
X118985722Y-35461217D01*
X118825572Y-35461217D01*
X118668505Y-35429975D01*
X118520546Y-35368688D01*
X118409838Y-35294715D01*
X118387390Y-35279716D01*
X118387389Y-35279715D01*
X118386572Y-35279169D01*
X118364962Y-35267618D01*
X118341512Y-35260505D01*
X118317126Y-35258103D01*
X118292740Y-35260505D01*
X118269291Y-35267618D01*
X118247680Y-35279169D01*
X118228738Y-35294715D01*
X118213192Y-35313657D01*
X118201641Y-35335267D01*
X118194528Y-35358717D01*
X118192126Y-35383103D01*
X118194528Y-35407489D01*
X118201641Y-35430939D01*
X118255365Y-35560639D01*
X118286607Y-35717705D01*
X118286607Y-35877855D01*
X118255365Y-36034922D01*
X118194078Y-36182881D01*
X118126249Y-36284394D01*
X118114698Y-36306005D01*
X118107585Y-36329454D01*
X118105183Y-36353840D01*
X118107585Y-36378226D01*
X118114698Y-36401675D01*
X118126249Y-36423286D01*
X118141795Y-36442228D01*
X118160737Y-36457774D01*
X118182348Y-36469325D01*
X118205797Y-36476438D01*
X118230183Y-36478840D01*
X118254569Y-36476438D01*
X118278018Y-36469325D01*
X118298658Y-36458292D01*
X118447129Y-36396793D01*
X118604196Y-36365551D01*
X118764346Y-36365551D01*
X118921413Y-36396793D01*
X119069373Y-36458081D01*
X119123930Y-36494535D01*
X119202528Y-36547052D01*
X119315770Y-36660294D01*
X119344282Y-36702966D01*
X119404741Y-36793449D01*
X119466029Y-36941409D01*
X119497271Y-37098476D01*
X119497271Y-37258626D01*
X119466029Y-37415693D01*
X119404741Y-37563653D01*
X119375347Y-37607644D01*
X119315898Y-37696617D01*
X119315769Y-37696809D01*
X119202529Y-37810049D01*
X119069373Y-37899021D01*
X118921413Y-37960309D01*
X118764346Y-37991551D01*
X118604196Y-37991551D01*
X118447129Y-37960309D01*
X118299170Y-37899022D01*
X118188462Y-37825049D01*
X118166014Y-37810050D01*
X118166013Y-37810049D01*
X118165196Y-37809503D01*
X118143586Y-37797952D01*
X118120136Y-37790839D01*
X118095750Y-37788437D01*
X118071364Y-37790839D01*
X118047915Y-37797952D01*
X118026304Y-37809503D01*
X118007362Y-37825049D01*
X117991816Y-37843991D01*
X117980265Y-37865601D01*
X117973152Y-37889051D01*
X117970750Y-37913437D01*
X117973152Y-37937823D01*
X117980265Y-37961273D01*
X118033989Y-38090974D01*
X118065231Y-38248040D01*
X118065231Y-38408190D01*
X118033989Y-38565257D01*
X117972703Y-38713213D01*
X117972702Y-38713215D01*
X117904868Y-38814737D01*
X117893321Y-38836340D01*
X117886208Y-38859789D01*
X117883806Y-38884176D01*
X117886208Y-38908562D01*
X117893321Y-38932011D01*
X117904872Y-38953622D01*
X117920417Y-38972564D01*
X117939359Y-38988110D01*
X117960970Y-38999661D01*
X117984419Y-39006774D01*
X118008806Y-39009176D01*
X118033192Y-39006774D01*
X118056641Y-38999661D01*
X118077290Y-38988624D01*
X118225754Y-38927128D01*
X118382821Y-38895886D01*
X118542971Y-38895886D01*
X118700038Y-38927128D01*
X118809728Y-38972564D01*
X118847260Y-38988110D01*
X118847998Y-38988416D01*
X118900234Y-39023319D01*
X118981153Y-39077387D01*
X119094395Y-39190629D01*
X119117716Y-39225532D01*
X119183366Y-39323784D01*
X119244654Y-39471744D01*
X119275896Y-39628811D01*
X119275896Y-39788961D01*
X119244654Y-39946028D01*
X119205121Y-40041468D01*
X119183367Y-40093986D01*
X119094395Y-40227143D01*
X118981153Y-40340385D01*
X118930855Y-40373993D01*
X118847998Y-40429356D01*
X118700038Y-40490644D01*
X118542971Y-40521886D01*
X118382821Y-40521886D01*
X118225754Y-40490644D01*
X118077794Y-40429356D01*
X117995433Y-40374324D01*
X117944639Y-40340385D01*
X117944638Y-40340384D01*
X117943821Y-40339838D01*
X117922210Y-40328286D01*
X117898761Y-40321173D01*
X117874374Y-40318771D01*
X117849988Y-40321173D01*
X117826539Y-40328286D01*
X117804928Y-40339837D01*
X117785986Y-40355382D01*
X117770441Y-40374324D01*
X117758889Y-40395935D01*
X117751776Y-40419384D01*
X117749374Y-40443771D01*
X117751776Y-40468157D01*
X117758889Y-40491607D01*
X117812613Y-40621308D01*
X117843855Y-40778374D01*
X117843855Y-40938524D01*
X117812613Y-41095591D01*
X117804378Y-41115471D01*
X117751326Y-41243549D01*
X117683492Y-41345071D01*
X117671945Y-41366674D01*
X117664832Y-41390123D01*
X117662430Y-41414510D01*
X117664832Y-41438896D01*
X117671945Y-41462345D01*
X117683496Y-41483956D01*
X117699041Y-41502898D01*
X117717983Y-41518444D01*
X117739594Y-41529995D01*
X117763043Y-41537108D01*
X117787430Y-41539510D01*
X117811816Y-41537108D01*
X117835265Y-41529995D01*
X117855914Y-41518958D01*
X118004378Y-41457462D01*
X118161445Y-41426220D01*
X118321595Y-41426220D01*
X118478662Y-41457462D01*
X118588352Y-41502898D01*
X118625884Y-41518444D01*
X118626622Y-41518750D01*
X118681179Y-41555204D01*
X118759777Y-41607721D01*
X118873019Y-41720963D01*
X118901531Y-41763635D01*
X118961990Y-41854118D01*
X119023278Y-42002078D01*
X119054520Y-42159145D01*
X119054520Y-42319295D01*
X119023278Y-42476362D01*
X118961990Y-42624322D01*
X118932596Y-42668313D01*
X118873147Y-42757286D01*
X118873018Y-42757478D01*
X118759778Y-42870718D01*
X118626622Y-42959690D01*
X118478662Y-43020978D01*
X118321595Y-43052220D01*
X118161445Y-43052220D01*
X118004378Y-43020978D01*
X117856419Y-42959691D01*
X117745711Y-42885718D01*
X117723263Y-42870719D01*
X117723262Y-42870718D01*
X117722445Y-42870172D01*
X117700835Y-42858621D01*
X117677385Y-42851508D01*
X117652999Y-42849106D01*
X117628613Y-42851508D01*
X117605164Y-42858621D01*
X117583553Y-42870172D01*
X117564611Y-42885718D01*
X117549065Y-42904660D01*
X117537514Y-42926270D01*
X117530401Y-42949720D01*
X117527999Y-42974106D01*
X117530401Y-42998492D01*
X117537514Y-43021942D01*
X117591238Y-43151643D01*
X117622480Y-43308709D01*
X117622480Y-43468859D01*
X117591238Y-43625926D01*
X117583003Y-43645806D01*
X117529951Y-43773884D01*
X117462117Y-43875406D01*
X117450570Y-43897009D01*
X117443457Y-43920458D01*
X117441055Y-43944845D01*
X117443457Y-43969231D01*
X117450570Y-43992680D01*
X117462121Y-44014291D01*
X117477666Y-44033233D01*
X117496608Y-44048779D01*
X117518219Y-44060330D01*
X117541668Y-44067443D01*
X117566055Y-44069845D01*
X117590441Y-44067443D01*
X117613890Y-44060330D01*
X117634539Y-44049293D01*
X117783003Y-43987797D01*
X117940070Y-43956555D01*
X118100220Y-43956555D01*
X118257287Y-43987797D01*
X118366977Y-44033233D01*
X118404509Y-44048779D01*
X118405247Y-44049085D01*
X118459804Y-44085539D01*
X118538402Y-44138056D01*
X118651644Y-44251298D01*
X118672787Y-44282941D01*
X118740615Y-44384453D01*
X118801903Y-44532413D01*
X118833145Y-44689480D01*
X118833145Y-44849630D01*
X118801903Y-45006697D01*
X118740615Y-45154657D01*
X118711221Y-45198648D01*
X118651772Y-45287621D01*
X118651643Y-45287813D01*
X118538403Y-45401053D01*
X118405247Y-45490025D01*
X118257287Y-45551313D01*
X118100220Y-45582555D01*
X117940070Y-45582555D01*
X117783003Y-45551313D01*
X117635043Y-45490025D01*
X117524333Y-45416051D01*
X117501888Y-45401054D01*
X117501887Y-45401053D01*
X117501070Y-45400507D01*
X117479459Y-45388955D01*
X117456010Y-45381842D01*
X117431623Y-45379440D01*
X117407237Y-45381842D01*
X117383788Y-45388955D01*
X117362177Y-45400506D01*
X117343235Y-45416051D01*
X117327690Y-45434993D01*
X117316138Y-45456604D01*
X117309025Y-45480053D01*
X117306623Y-45504440D01*
X117309025Y-45528826D01*
X117316138Y-45552276D01*
X117369862Y-45681977D01*
X117401104Y-45839044D01*
X117401104Y-45999194D01*
X117369862Y-46156261D01*
X117308575Y-46304221D01*
X117240747Y-46405731D01*
X117229195Y-46427342D01*
X117222082Y-46450791D01*
X117219680Y-46475177D01*
X117222082Y-46499564D01*
X117229195Y-46523013D01*
X117240746Y-46544624D01*
X117256291Y-46563566D01*
X117275233Y-46579111D01*
X117296844Y-46590663D01*
X117320293Y-46597776D01*
X117344679Y-46600178D01*
X117369066Y-46597776D01*
X117392515Y-46590663D01*
X117413154Y-46579631D01*
X117561627Y-46518131D01*
X117718694Y-46486889D01*
X117878844Y-46486889D01*
X118035911Y-46518131D01*
X118114340Y-46550618D01*
X118183128Y-46579111D01*
X118183871Y-46579419D01*
X118238428Y-46615873D01*
X118317026Y-46668390D01*
X118430268Y-46781632D01*
X118451412Y-46813277D01*
X118519239Y-46914787D01*
X118580527Y-47062747D01*
X118611769Y-47219814D01*
X118611769Y-47379964D01*
X118580527Y-47537031D01*
X118519239Y-47684991D01*
X118489845Y-47728982D01*
X118430396Y-47817955D01*
X118430267Y-47818147D01*
X118317027Y-47931387D01*
X118183871Y-48020359D01*
X118035911Y-48081647D01*
X117878844Y-48112889D01*
X117718694Y-48112889D01*
X117561627Y-48081647D01*
X117413668Y-48020360D01*
X117302960Y-47946387D01*
X117280512Y-47931388D01*
X117280511Y-47931387D01*
X117279694Y-47930841D01*
X117258084Y-47919290D01*
X117234634Y-47912177D01*
X117210248Y-47909775D01*
X117185862Y-47912177D01*
X117162413Y-47919290D01*
X117140802Y-47930841D01*
X117121860Y-47946387D01*
X117106314Y-47965329D01*
X117094763Y-47986939D01*
X117087650Y-48010389D01*
X117085248Y-48034775D01*
X117087650Y-48059161D01*
X117094763Y-48082611D01*
X117148487Y-48212312D01*
X117179729Y-48369378D01*
X117179729Y-48529528D01*
X117148487Y-48686595D01*
X117087200Y-48834555D01*
X117019370Y-48936068D01*
X117007818Y-48957679D01*
X117000705Y-48981128D01*
X116998303Y-49005514D01*
X117000705Y-49029901D01*
X117007818Y-49053350D01*
X117019369Y-49074961D01*
X117034914Y-49093903D01*
X117053856Y-49109448D01*
X117075467Y-49121000D01*
X117098916Y-49128113D01*
X117123302Y-49130515D01*
X117147689Y-49128113D01*
X117171138Y-49121000D01*
X117191783Y-49109965D01*
X117340253Y-49048466D01*
X117497320Y-49017224D01*
X117657470Y-49017224D01*
X117814537Y-49048466D01*
X117924230Y-49093903D01*
X117961759Y-49109448D01*
X117962497Y-49109754D01*
X118017054Y-49146208D01*
X118095652Y-49198725D01*
X118208894Y-49311967D01*
X118237406Y-49354639D01*
X118297865Y-49445122D01*
X118359153Y-49593082D01*
X118390395Y-49750149D01*
X118390395Y-49910299D01*
X118359153Y-50067366D01*
X118297865Y-50215326D01*
X118268471Y-50259317D01*
X118209022Y-50348290D01*
X118208893Y-50348482D01*
X118095653Y-50461722D01*
X117962497Y-50550694D01*
X117814537Y-50611982D01*
X117657470Y-50643224D01*
X117497320Y-50643224D01*
X117340253Y-50611982D01*
X117192294Y-50550695D01*
X117081583Y-50476720D01*
X117059138Y-50461723D01*
X117059137Y-50461722D01*
X117058317Y-50461174D01*
X117036707Y-50449623D01*
X117013257Y-50442510D01*
X116988871Y-50440108D01*
X116964485Y-50442510D01*
X116941036Y-50449623D01*
X116919425Y-50461174D01*
X116900483Y-50476720D01*
X116884937Y-50495662D01*
X116873386Y-50517272D01*
X116866273Y-50540722D01*
X116863871Y-50565108D01*
X116866273Y-50589494D01*
X116873386Y-50612944D01*
X116927111Y-50742647D01*
X116958353Y-50899713D01*
X116958353Y-51059863D01*
X116927111Y-51216930D01*
X116865824Y-51364890D01*
X116797996Y-51466400D01*
X116786444Y-51488011D01*
X116779331Y-51511460D01*
X116776929Y-51535846D01*
X116779331Y-51560233D01*
X116786444Y-51583682D01*
X116797995Y-51605293D01*
X116813540Y-51624235D01*
X116832482Y-51639780D01*
X116854093Y-51651332D01*
X116877542Y-51658445D01*
X116901928Y-51660847D01*
X116926315Y-51658445D01*
X116949764Y-51651332D01*
X116970403Y-51640300D01*
X117118876Y-51578800D01*
X117275943Y-51547558D01*
X117436093Y-51547558D01*
X117593160Y-51578800D01*
X117671589Y-51611287D01*
X117740377Y-51639780D01*
X117741120Y-51640088D01*
X117795677Y-51676542D01*
X117874275Y-51729059D01*
X117987517Y-51842301D01*
X118008661Y-51873946D01*
X118076488Y-51975456D01*
X118137776Y-52123416D01*
X118169018Y-52280483D01*
X118169018Y-52440633D01*
X118137776Y-52597700D01*
X118076488Y-52745660D01*
X118047094Y-52789651D01*
X117987645Y-52878624D01*
X117987516Y-52878816D01*
X117874276Y-52992056D01*
X117741120Y-53081028D01*
X117593160Y-53142316D01*
X117436093Y-53173558D01*
X117275943Y-53173558D01*
X117118876Y-53142316D01*
X116970917Y-53081029D01*
X116860206Y-53007054D01*
X116837761Y-52992057D01*
X116837760Y-52992056D01*
X116836940Y-52991508D01*
X116815330Y-52979957D01*
X116791880Y-52972844D01*
X116767494Y-52970442D01*
X116743108Y-52972844D01*
X116719659Y-52979957D01*
X116698048Y-52991508D01*
X116679106Y-53007054D01*
X116663560Y-53025996D01*
X116652009Y-53047606D01*
X116644896Y-53071056D01*
X116642494Y-53095442D01*
X116644896Y-53119828D01*
X116652009Y-53143278D01*
X116705734Y-53272981D01*
X116736976Y-53430047D01*
X116736976Y-53590197D01*
X116705734Y-53747264D01*
X116644447Y-53895224D01*
X116576617Y-53996737D01*
X116565065Y-54018348D01*
X116557952Y-54041797D01*
X116555550Y-54066183D01*
X116557952Y-54090570D01*
X116565065Y-54114019D01*
X116576616Y-54135630D01*
X116592161Y-54154572D01*
X116611103Y-54170117D01*
X116632714Y-54181669D01*
X116656163Y-54188782D01*
X116680549Y-54191184D01*
X116704936Y-54188782D01*
X116728385Y-54181669D01*
X116749030Y-54170634D01*
X116897500Y-54109135D01*
X117054567Y-54077893D01*
X117214717Y-54077893D01*
X117371784Y-54109135D01*
X117481477Y-54154572D01*
X117519006Y-54170117D01*
X117519744Y-54170423D01*
X117574301Y-54206877D01*
X117652899Y-54259394D01*
X117766141Y-54372636D01*
X117794653Y-54415308D01*
X117855112Y-54505791D01*
X117916400Y-54653751D01*
X117947642Y-54810818D01*
X117947642Y-54970968D01*
X117916400Y-55128035D01*
X117855112Y-55275995D01*
X117825718Y-55319986D01*
X117766269Y-55408959D01*
X117766140Y-55409151D01*
X117652900Y-55522391D01*
X117519744Y-55611363D01*
X117371784Y-55672651D01*
X117214717Y-55703893D01*
X117054567Y-55703893D01*
X116897500Y-55672651D01*
X116749541Y-55611364D01*
X116638833Y-55537391D01*
X116616385Y-55522392D01*
X116616384Y-55522391D01*
X116615567Y-55521845D01*
X116593957Y-55510294D01*
X116570507Y-55503181D01*
X116546121Y-55500779D01*
X116521735Y-55503181D01*
X116498286Y-55510294D01*
X116476675Y-55521845D01*
X116457733Y-55537391D01*
X116442187Y-55556333D01*
X116430636Y-55577943D01*
X116423523Y-55601393D01*
X116421121Y-55625779D01*
X116423523Y-55650165D01*
X116430636Y-55673615D01*
X116484360Y-55803316D01*
X116515602Y-55960382D01*
X116515602Y-56120532D01*
X116484360Y-56277599D01*
X116423073Y-56425559D01*
X116355245Y-56527069D01*
X116343693Y-56548680D01*
X116336580Y-56572129D01*
X116334178Y-56596515D01*
X116336580Y-56620902D01*
X116343693Y-56644351D01*
X116355244Y-56665962D01*
X116370789Y-56684904D01*
X116389731Y-56700449D01*
X116411342Y-56712001D01*
X116434791Y-56719114D01*
X116459177Y-56721516D01*
X116483564Y-56719114D01*
X116507013Y-56712001D01*
X116527652Y-56700969D01*
X116676125Y-56639469D01*
X116833192Y-56608227D01*
X116993342Y-56608227D01*
X117150409Y-56639469D01*
X117228838Y-56671956D01*
X117297626Y-56700449D01*
X117298369Y-56700757D01*
X117352926Y-56737211D01*
X117431524Y-56789728D01*
X117544766Y-56902970D01*
X117565910Y-56934615D01*
X117633737Y-57036125D01*
X117695025Y-57184085D01*
X117726267Y-57341152D01*
X117726267Y-57501302D01*
X117695025Y-57658369D01*
X117633737Y-57806329D01*
X117604343Y-57850320D01*
X117544894Y-57939293D01*
X117544765Y-57939485D01*
X117431525Y-58052725D01*
X117298369Y-58141697D01*
X117150409Y-58202985D01*
X116993342Y-58234227D01*
X116833192Y-58234227D01*
X116676125Y-58202985D01*
X116528165Y-58141697D01*
X116417455Y-58067723D01*
X116395010Y-58052726D01*
X116395009Y-58052725D01*
X116394192Y-58052179D01*
X116372581Y-58040627D01*
X116349132Y-58033514D01*
X116324745Y-58031112D01*
X116300359Y-58033514D01*
X116276910Y-58040627D01*
X116255299Y-58052178D01*
X116236357Y-58067723D01*
X116220812Y-58086665D01*
X116209260Y-58108276D01*
X116202147Y-58131725D01*
X116199745Y-58156112D01*
X116202147Y-58180498D01*
X116209260Y-58203948D01*
X116262984Y-58333649D01*
X116294226Y-58490716D01*
X116294226Y-58650866D01*
X116262984Y-58807933D01*
X116254749Y-58827813D01*
X116201697Y-58955891D01*
X116133863Y-59057413D01*
X116122316Y-59079016D01*
X116115203Y-59102465D01*
X116112801Y-59126852D01*
X116115203Y-59151238D01*
X116122316Y-59174687D01*
X116133867Y-59196298D01*
X116149412Y-59215240D01*
X116168354Y-59230786D01*
X116189965Y-59242337D01*
X116213414Y-59249450D01*
X116237801Y-59251852D01*
X116262187Y-59249450D01*
X116285636Y-59242337D01*
X116306285Y-59231300D01*
X116454749Y-59169804D01*
X116611816Y-59138562D01*
X116771966Y-59138562D01*
X116929033Y-59169804D01*
X117038723Y-59215240D01*
X117076255Y-59230786D01*
X117076993Y-59231092D01*
X117131550Y-59267546D01*
X117190767Y-59307113D01*
X117210149Y-59320064D01*
X117323389Y-59433304D01*
X117412361Y-59566460D01*
X117473649Y-59714420D01*
X117504891Y-59871487D01*
X117504891Y-60031637D01*
X117473649Y-60188704D01*
X117432466Y-60288126D01*
X117412362Y-60336662D01*
X117323390Y-60469819D01*
X117210148Y-60583061D01*
X117159847Y-60616671D01*
X117076993Y-60672032D01*
X116929033Y-60733320D01*
X116771966Y-60764562D01*
X116611816Y-60764562D01*
X116454749Y-60733320D01*
X116306790Y-60672033D01*
X116196082Y-60598060D01*
X116173634Y-60583061D01*
X116173633Y-60583060D01*
X116172816Y-60582514D01*
X116151206Y-60570963D01*
X116127756Y-60563850D01*
X116103370Y-60561448D01*
X116078984Y-60563850D01*
X116055535Y-60570963D01*
X116033924Y-60582514D01*
X116014982Y-60598060D01*
X115999436Y-60617002D01*
X115987885Y-60638612D01*
X115980772Y-60662062D01*
X115978370Y-60686448D01*
X115980772Y-60710834D01*
X115987885Y-60734284D01*
X116041609Y-60863985D01*
X116072851Y-61021051D01*
X116072851Y-61181201D01*
X116041609Y-61338268D01*
X115980321Y-61486228D01*
X115944837Y-61539333D01*
X115891350Y-61619383D01*
X115778108Y-61732625D01*
X115711981Y-61776809D01*
X115644953Y-61821596D01*
X115496993Y-61882884D01*
X115339926Y-61914126D01*
X115179776Y-61914126D01*
X115022709Y-61882884D01*
X114874749Y-61821596D01*
X114807721Y-61776809D01*
X114741594Y-61732625D01*
X114628352Y-61619383D01*
X114574865Y-61539333D01*
X114539381Y-61486228D01*
X114478093Y-61338268D01*
X114446851Y-61181201D01*
X114446851Y-61021051D01*
X114478093Y-60863984D01*
X114539381Y-60716024D01*
X114601014Y-60623784D01*
X114628352Y-60582869D01*
X114741594Y-60469627D01*
X114819904Y-60417302D01*
X114874749Y-60380656D01*
X115022709Y-60319368D01*
X115179776Y-60288126D01*
X115339926Y-60288126D01*
X115496993Y-60319368D01*
X115644952Y-60380655D01*
X115699798Y-60417302D01*
X115778108Y-60469627D01*
X115778109Y-60469628D01*
X115778926Y-60470174D01*
X115800536Y-60481725D01*
X115823986Y-60488838D01*
X115848372Y-60491240D01*
X115872758Y-60488838D01*
X115896207Y-60481725D01*
X115917818Y-60470174D01*
X115936760Y-60454628D01*
X115952306Y-60435686D01*
X115963857Y-60414076D01*
X115970970Y-60390626D01*
X115973372Y-60366240D01*
X115970970Y-60341854D01*
X115963857Y-60318404D01*
X115910133Y-60188703D01*
X115878891Y-60031637D01*
X115878891Y-59871487D01*
X115910133Y-59714420D01*
X115971419Y-59566464D01*
X115971420Y-59566462D01*
X116039254Y-59464940D01*
X116050801Y-59443337D01*
X116057914Y-59419888D01*
X116060316Y-59395501D01*
X116057914Y-59371115D01*
X116050801Y-59347666D01*
X116039250Y-59326055D01*
X116023705Y-59307113D01*
X116004763Y-59291567D01*
X115983152Y-59280016D01*
X115959703Y-59272903D01*
X115935316Y-59270501D01*
X115910930Y-59272903D01*
X115887481Y-59280016D01*
X115866832Y-59291053D01*
X115718368Y-59352549D01*
X115561301Y-59383791D01*
X115401151Y-59383791D01*
X115244084Y-59352549D01*
X115129643Y-59305145D01*
X115096126Y-59291262D01*
X115096125Y-59291262D01*
X115096124Y-59291261D01*
X115022904Y-59242337D01*
X114962969Y-59202290D01*
X114849727Y-59089048D01*
X114780125Y-58984881D01*
X114760756Y-58955893D01*
X114699468Y-58807933D01*
X114668226Y-58650866D01*
X114668226Y-58490716D01*
X114699468Y-58333649D01*
X114760756Y-58185689D01*
X114822389Y-58093448D01*
X114849727Y-58052534D01*
X114962969Y-57939292D01*
X115082119Y-57859679D01*
X115096124Y-57850321D01*
X115244084Y-57789033D01*
X115401151Y-57757791D01*
X115561301Y-57757791D01*
X115718368Y-57789033D01*
X115866328Y-57850321D01*
X115880333Y-57859679D01*
X115999483Y-57939292D01*
X115999484Y-57939293D01*
X116000301Y-57939839D01*
X116021912Y-57951391D01*
X116045361Y-57958504D01*
X116069748Y-57960906D01*
X116094134Y-57958504D01*
X116117583Y-57951391D01*
X116139194Y-57939840D01*
X116158136Y-57924295D01*
X116173681Y-57905353D01*
X116185233Y-57883742D01*
X116192346Y-57860293D01*
X116194748Y-57835906D01*
X116192346Y-57811520D01*
X116185233Y-57788070D01*
X116131509Y-57658369D01*
X116100267Y-57501302D01*
X116100267Y-57341152D01*
X116131509Y-57184085D01*
X116192796Y-57036125D01*
X116246373Y-56955943D01*
X116260625Y-56934612D01*
X116272176Y-56913004D01*
X116279289Y-56889555D01*
X116281691Y-56865169D01*
X116279289Y-56840782D01*
X116272176Y-56817333D01*
X116260625Y-56795722D01*
X116245080Y-56776780D01*
X116226138Y-56761235D01*
X116204527Y-56749683D01*
X116181078Y-56742570D01*
X116156692Y-56740168D01*
X116132305Y-56742570D01*
X116108856Y-56749683D01*
X116088217Y-56760715D01*
X115939744Y-56822215D01*
X115782677Y-56853457D01*
X115622527Y-56853457D01*
X115465460Y-56822215D01*
X115351019Y-56774811D01*
X115317502Y-56760928D01*
X115317501Y-56760928D01*
X115317500Y-56760927D01*
X115233012Y-56704474D01*
X115184345Y-56671956D01*
X115071103Y-56558714D01*
X115026919Y-56492587D01*
X114982132Y-56425559D01*
X114920844Y-56277599D01*
X114889602Y-56120532D01*
X114889602Y-55960382D01*
X114920844Y-55803315D01*
X114982132Y-55655355D01*
X115043765Y-55563114D01*
X115071103Y-55522200D01*
X115184345Y-55408958D01*
X115262655Y-55356633D01*
X115317500Y-55319987D01*
X115465460Y-55258699D01*
X115622527Y-55227457D01*
X115782677Y-55227457D01*
X115939744Y-55258699D01*
X116087703Y-55319986D01*
X116142549Y-55356633D01*
X116220859Y-55408958D01*
X116220860Y-55408959D01*
X116221677Y-55409505D01*
X116243287Y-55421056D01*
X116266737Y-55428169D01*
X116291123Y-55430571D01*
X116315509Y-55428169D01*
X116338958Y-55421056D01*
X116360569Y-55409505D01*
X116379511Y-55393959D01*
X116395057Y-55375017D01*
X116406608Y-55353407D01*
X116413721Y-55329957D01*
X116416123Y-55305571D01*
X116413721Y-55281185D01*
X116406608Y-55257735D01*
X116352884Y-55128034D01*
X116321642Y-54970968D01*
X116321642Y-54810818D01*
X116352884Y-54653751D01*
X116414171Y-54505791D01*
X116474631Y-54415308D01*
X116482002Y-54404275D01*
X116493553Y-54382667D01*
X116500666Y-54359218D01*
X116503068Y-54334832D01*
X116500666Y-54310445D01*
X116493553Y-54286996D01*
X116482002Y-54265385D01*
X116466457Y-54246443D01*
X116447515Y-54230898D01*
X116425904Y-54219346D01*
X116402455Y-54212233D01*
X116378069Y-54209831D01*
X116353682Y-54212233D01*
X116330233Y-54219346D01*
X116309588Y-54230381D01*
X116161118Y-54291880D01*
X116004051Y-54323122D01*
X115843901Y-54323122D01*
X115686834Y-54291880D01*
X115572393Y-54244476D01*
X115538876Y-54230593D01*
X115538875Y-54230593D01*
X115538874Y-54230592D01*
X115454386Y-54174139D01*
X115405719Y-54141621D01*
X115292477Y-54028379D01*
X115222875Y-53924212D01*
X115203506Y-53895224D01*
X115142218Y-53747264D01*
X115110976Y-53590197D01*
X115110976Y-53430047D01*
X115142218Y-53272980D01*
X115203506Y-53125020D01*
X115265139Y-53032779D01*
X115292477Y-52991865D01*
X115405719Y-52878623D01*
X115484029Y-52826298D01*
X115538874Y-52789652D01*
X115686834Y-52728364D01*
X115843901Y-52697122D01*
X116004051Y-52697122D01*
X116161118Y-52728364D01*
X116309077Y-52789651D01*
X116363923Y-52826298D01*
X116442233Y-52878623D01*
X116442234Y-52878624D01*
X116443054Y-52879172D01*
X116464664Y-52890723D01*
X116488114Y-52897836D01*
X116512500Y-52900238D01*
X116536886Y-52897836D01*
X116560335Y-52890723D01*
X116581946Y-52879172D01*
X116600888Y-52863626D01*
X116616434Y-52844684D01*
X116627985Y-52823074D01*
X116635098Y-52799624D01*
X116637500Y-52775238D01*
X116635098Y-52750852D01*
X116627985Y-52727402D01*
X116574260Y-52597699D01*
X116543018Y-52440633D01*
X116543018Y-52280483D01*
X116574260Y-52123416D01*
X116635547Y-51975456D01*
X116689124Y-51895274D01*
X116703376Y-51873943D01*
X116714927Y-51852335D01*
X116722040Y-51828886D01*
X116724442Y-51804500D01*
X116722040Y-51780113D01*
X116714927Y-51756664D01*
X116703376Y-51735053D01*
X116687831Y-51716111D01*
X116668889Y-51700566D01*
X116647278Y-51689014D01*
X116623829Y-51681901D01*
X116599443Y-51679499D01*
X116575056Y-51681901D01*
X116551607Y-51689014D01*
X116530968Y-51700046D01*
X116382495Y-51761546D01*
X116225428Y-51792788D01*
X116065278Y-51792788D01*
X115908211Y-51761546D01*
X115793770Y-51714142D01*
X115760253Y-51700259D01*
X115760252Y-51700259D01*
X115760251Y-51700258D01*
X115675763Y-51643805D01*
X115627096Y-51611287D01*
X115513854Y-51498045D01*
X115469670Y-51431918D01*
X115424883Y-51364890D01*
X115363595Y-51216930D01*
X115332353Y-51059863D01*
X115332353Y-50899713D01*
X115363595Y-50742646D01*
X115424883Y-50594686D01*
X115486516Y-50502445D01*
X115513854Y-50461531D01*
X115627096Y-50348289D01*
X115705406Y-50295964D01*
X115760251Y-50259318D01*
X115908211Y-50198030D01*
X116065278Y-50166788D01*
X116225428Y-50166788D01*
X116382495Y-50198030D01*
X116530454Y-50259317D01*
X116585300Y-50295964D01*
X116663610Y-50348289D01*
X116663611Y-50348290D01*
X116664431Y-50348838D01*
X116686041Y-50360389D01*
X116709491Y-50367502D01*
X116733877Y-50369904D01*
X116758263Y-50367502D01*
X116781712Y-50360389D01*
X116803323Y-50348838D01*
X116822265Y-50333292D01*
X116837811Y-50314350D01*
X116849362Y-50292740D01*
X116856475Y-50269290D01*
X116858877Y-50244904D01*
X116856475Y-50220518D01*
X116849362Y-50197068D01*
X116795637Y-50067365D01*
X116764395Y-49910299D01*
X116764395Y-49750149D01*
X116795637Y-49593082D01*
X116856924Y-49445122D01*
X116917384Y-49354639D01*
X116924755Y-49343606D01*
X116936306Y-49321998D01*
X116943419Y-49298549D01*
X116945821Y-49274163D01*
X116943419Y-49249776D01*
X116936306Y-49226327D01*
X116924755Y-49204716D01*
X116909210Y-49185774D01*
X116890268Y-49170229D01*
X116868657Y-49158677D01*
X116845208Y-49151564D01*
X116820822Y-49149162D01*
X116796435Y-49151564D01*
X116772986Y-49158677D01*
X116752341Y-49169712D01*
X116603871Y-49231211D01*
X116446804Y-49262453D01*
X116286654Y-49262453D01*
X116129587Y-49231211D01*
X116015146Y-49183807D01*
X115981629Y-49169924D01*
X115981628Y-49169924D01*
X115981627Y-49169923D01*
X115897139Y-49113470D01*
X115848472Y-49080952D01*
X115735230Y-48967710D01*
X115665628Y-48863543D01*
X115646259Y-48834555D01*
X115584971Y-48686595D01*
X115553729Y-48529528D01*
X115553729Y-48369378D01*
X115584971Y-48212311D01*
X115646259Y-48064351D01*
X115707892Y-47972110D01*
X115735230Y-47931196D01*
X115848472Y-47817954D01*
X115926782Y-47765629D01*
X115981627Y-47728983D01*
X116129587Y-47667695D01*
X116286654Y-47636453D01*
X116446804Y-47636453D01*
X116603871Y-47667695D01*
X116751830Y-47728982D01*
X116806676Y-47765629D01*
X116884986Y-47817954D01*
X116884987Y-47817955D01*
X116885804Y-47818501D01*
X116907414Y-47830052D01*
X116930864Y-47837165D01*
X116955250Y-47839567D01*
X116979636Y-47837165D01*
X117003085Y-47830052D01*
X117024696Y-47818501D01*
X117043638Y-47802955D01*
X117059184Y-47784013D01*
X117070735Y-47762403D01*
X117077848Y-47738953D01*
X117080250Y-47714567D01*
X117077848Y-47690181D01*
X117070735Y-47666731D01*
X117017011Y-47537030D01*
X116985769Y-47379964D01*
X116985769Y-47219814D01*
X117017011Y-47062747D01*
X117078298Y-46914787D01*
X117131875Y-46834605D01*
X117146127Y-46813274D01*
X117157678Y-46791666D01*
X117164791Y-46768217D01*
X117167193Y-46743831D01*
X117164791Y-46719444D01*
X117157678Y-46695995D01*
X117146127Y-46674384D01*
X117130582Y-46655442D01*
X117111640Y-46639897D01*
X117090029Y-46628345D01*
X117066580Y-46621232D01*
X117042194Y-46618830D01*
X117017807Y-46621232D01*
X116994358Y-46628345D01*
X116973719Y-46639377D01*
X116825246Y-46700877D01*
X116668179Y-46732119D01*
X116508029Y-46732119D01*
X116350962Y-46700877D01*
X116236521Y-46653473D01*
X116203004Y-46639590D01*
X116203003Y-46639590D01*
X116203002Y-46639589D01*
X116118514Y-46583136D01*
X116069847Y-46550618D01*
X115956605Y-46437376D01*
X115912421Y-46371249D01*
X115867634Y-46304221D01*
X115806346Y-46156261D01*
X115775104Y-45999194D01*
X115775104Y-45839044D01*
X115806346Y-45681977D01*
X115867634Y-45534017D01*
X115929267Y-45441776D01*
X115956605Y-45400862D01*
X116069847Y-45287620D01*
X116188078Y-45208621D01*
X116203002Y-45198649D01*
X116350962Y-45137361D01*
X116508029Y-45106119D01*
X116668179Y-45106119D01*
X116825246Y-45137361D01*
X116973206Y-45198649D01*
X116988130Y-45208621D01*
X117106361Y-45287620D01*
X117106362Y-45287621D01*
X117107179Y-45288167D01*
X117128790Y-45299719D01*
X117152239Y-45306832D01*
X117176626Y-45309234D01*
X117201012Y-45306832D01*
X117224461Y-45299719D01*
X117246072Y-45288168D01*
X117265014Y-45272623D01*
X117280559Y-45253681D01*
X117292111Y-45232070D01*
X117299224Y-45208621D01*
X117301626Y-45184234D01*
X117299224Y-45159848D01*
X117292111Y-45136398D01*
X117238387Y-45006697D01*
X117207145Y-44849630D01*
X117207145Y-44689480D01*
X117238387Y-44532413D01*
X117299673Y-44384457D01*
X117299674Y-44384455D01*
X117367508Y-44282933D01*
X117379055Y-44261330D01*
X117386168Y-44237881D01*
X117388570Y-44213494D01*
X117386168Y-44189108D01*
X117379055Y-44165659D01*
X117367504Y-44144048D01*
X117351959Y-44125106D01*
X117333017Y-44109560D01*
X117311406Y-44098009D01*
X117287957Y-44090896D01*
X117263570Y-44088494D01*
X117239184Y-44090896D01*
X117215735Y-44098009D01*
X117195086Y-44109046D01*
X117046622Y-44170542D01*
X116889555Y-44201784D01*
X116729405Y-44201784D01*
X116572338Y-44170542D01*
X116457897Y-44123138D01*
X116424380Y-44109255D01*
X116424379Y-44109255D01*
X116424378Y-44109254D01*
X116351158Y-44060330D01*
X116291223Y-44020283D01*
X116177981Y-43907041D01*
X116108379Y-43802874D01*
X116089010Y-43773886D01*
X116027722Y-43625926D01*
X115996480Y-43468859D01*
X115996480Y-43308709D01*
X116027722Y-43151642D01*
X116089010Y-43003682D01*
X116150643Y-42911441D01*
X116177981Y-42870527D01*
X116291223Y-42757285D01*
X116369533Y-42704960D01*
X116424378Y-42668314D01*
X116572338Y-42607026D01*
X116729405Y-42575784D01*
X116889555Y-42575784D01*
X117046622Y-42607026D01*
X117194581Y-42668313D01*
X117249427Y-42704960D01*
X117327737Y-42757285D01*
X117327738Y-42757286D01*
X117328555Y-42757832D01*
X117350165Y-42769383D01*
X117373615Y-42776496D01*
X117398001Y-42778898D01*
X117422387Y-42776496D01*
X117445836Y-42769383D01*
X117467447Y-42757832D01*
X117486389Y-42742286D01*
X117501935Y-42723344D01*
X117513486Y-42701734D01*
X117520599Y-42678284D01*
X117523001Y-42653898D01*
X117520599Y-42629512D01*
X117513486Y-42606062D01*
X117459762Y-42476361D01*
X117428520Y-42319295D01*
X117428520Y-42159145D01*
X117459762Y-42002078D01*
X117521048Y-41854122D01*
X117521049Y-41854120D01*
X117588883Y-41752598D01*
X117600430Y-41730995D01*
X117607543Y-41707546D01*
X117609945Y-41683159D01*
X117607543Y-41658773D01*
X117600430Y-41635324D01*
X117588879Y-41613713D01*
X117573334Y-41594771D01*
X117554392Y-41579225D01*
X117532781Y-41567674D01*
X117509332Y-41560561D01*
X117484945Y-41558159D01*
X117460559Y-41560561D01*
X117437110Y-41567674D01*
X117416461Y-41578711D01*
X117267997Y-41640207D01*
X117110930Y-41671449D01*
X116950780Y-41671449D01*
X116793713Y-41640207D01*
X116679272Y-41592803D01*
X116645755Y-41578920D01*
X116645754Y-41578920D01*
X116645753Y-41578919D01*
X116532916Y-41503524D01*
X116512598Y-41489948D01*
X116399356Y-41376706D01*
X116329754Y-41272539D01*
X116310385Y-41243551D01*
X116249097Y-41095591D01*
X116217855Y-40938524D01*
X116217855Y-40778374D01*
X116249097Y-40621307D01*
X116310385Y-40473347D01*
X116372018Y-40381106D01*
X116399356Y-40340192D01*
X116512598Y-40226950D01*
X116631748Y-40147337D01*
X116645753Y-40137979D01*
X116793713Y-40076691D01*
X116950780Y-40045449D01*
X117110930Y-40045449D01*
X117267997Y-40076691D01*
X117415957Y-40137979D01*
X117429962Y-40147337D01*
X117549112Y-40226950D01*
X117549113Y-40226951D01*
X117549930Y-40227497D01*
X117571541Y-40239049D01*
X117594990Y-40246162D01*
X117619377Y-40248564D01*
X117643763Y-40246162D01*
X117667212Y-40239049D01*
X117688823Y-40227498D01*
X117707765Y-40211953D01*
X117723310Y-40193011D01*
X117734862Y-40171400D01*
X117741975Y-40147951D01*
X117744377Y-40123564D01*
X117741975Y-40099178D01*
X117734862Y-40075728D01*
X117681138Y-39946027D01*
X117649896Y-39788961D01*
X117649896Y-39628811D01*
X117681138Y-39471744D01*
X117742424Y-39323788D01*
X117742425Y-39323786D01*
X117810259Y-39222264D01*
X117821806Y-39200661D01*
X117828919Y-39177212D01*
X117831321Y-39152825D01*
X117828919Y-39128439D01*
X117821806Y-39104990D01*
X117810255Y-39083379D01*
X117794710Y-39064437D01*
X117775768Y-39048891D01*
X117754157Y-39037340D01*
X117730708Y-39030227D01*
X117706321Y-39027825D01*
X117681935Y-39030227D01*
X117658486Y-39037340D01*
X117637837Y-39048377D01*
X117489373Y-39109873D01*
X117332306Y-39141115D01*
X117172156Y-39141115D01*
X117015089Y-39109873D01*
X116900648Y-39062469D01*
X116867131Y-39048586D01*
X116867130Y-39048586D01*
X116867129Y-39048585D01*
X116754292Y-38973190D01*
X116733974Y-38959614D01*
X116620732Y-38846372D01*
X116576548Y-38780245D01*
X116531761Y-38713217D01*
X116470473Y-38565257D01*
X116439231Y-38408190D01*
X116439231Y-38248040D01*
X116470473Y-38090973D01*
X116531761Y-37943013D01*
X116593394Y-37850772D01*
X116620732Y-37809858D01*
X116733974Y-37696616D01*
X116812284Y-37644291D01*
X116867129Y-37607645D01*
X117015089Y-37546357D01*
X117172156Y-37515115D01*
X117332306Y-37515115D01*
X117489373Y-37546357D01*
X117637332Y-37607644D01*
X117692178Y-37644291D01*
X117770488Y-37696616D01*
X117770489Y-37696617D01*
X117771306Y-37697163D01*
X117792916Y-37708714D01*
X117816366Y-37715827D01*
X117840752Y-37718229D01*
X117865138Y-37715827D01*
X117888587Y-37708714D01*
X117910198Y-37697163D01*
X117929140Y-37681617D01*
X117944686Y-37662675D01*
X117956237Y-37641065D01*
X117963350Y-37617615D01*
X117965752Y-37593229D01*
X117963350Y-37568843D01*
X117956237Y-37545393D01*
X117902513Y-37415692D01*
X117871271Y-37258626D01*
X117871271Y-37098476D01*
X117902513Y-36941409D01*
X117963800Y-36793450D01*
X118031629Y-36691937D01*
X118043180Y-36670326D01*
X118050293Y-36646877D01*
X118052695Y-36622491D01*
X118050293Y-36598105D01*
X118043180Y-36574656D01*
X118031629Y-36553045D01*
X118016083Y-36534103D01*
X117997141Y-36518557D01*
X117975530Y-36507006D01*
X117952081Y-36499893D01*
X117927695Y-36497491D01*
X117903309Y-36499893D01*
X117879860Y-36507006D01*
X117859220Y-36518039D01*
X117710749Y-36579538D01*
X117553682Y-36610780D01*
X117393532Y-36610780D01*
X117236465Y-36579538D01*
X117088505Y-36518250D01*
X117004017Y-36461797D01*
X116955350Y-36429279D01*
X116842108Y-36316037D01*
X116772506Y-36211870D01*
X116753137Y-36182882D01*
X116691849Y-36034922D01*
X116660607Y-35877855D01*
X116660607Y-35717705D01*
X116691849Y-35560638D01*
X116753137Y-35412678D01*
X116814770Y-35320437D01*
X116842108Y-35279523D01*
X116955350Y-35166281D01*
X117033660Y-35113956D01*
X117088505Y-35077310D01*
X117236465Y-35016022D01*
X117393532Y-34984780D01*
X117553682Y-34984780D01*
X117710749Y-35016022D01*
X117858708Y-35077309D01*
X117913554Y-35113956D01*
X117991864Y-35166281D01*
X117991865Y-35166282D01*
X117992682Y-35166828D01*
X118014292Y-35178379D01*
X118037742Y-35185492D01*
X118062128Y-35187894D01*
X118086514Y-35185492D01*
X118109963Y-35178379D01*
X118131574Y-35166828D01*
X118150516Y-35151282D01*
X118166062Y-35132340D01*
X118177613Y-35110730D01*
X118184726Y-35087280D01*
X118187128Y-35062894D01*
X118184726Y-35038508D01*
X118177613Y-35015058D01*
X118123889Y-34885358D01*
X118092647Y-34728292D01*
X118092647Y-34568142D01*
X118123889Y-34411075D01*
X118185175Y-34263119D01*
X118185176Y-34263117D01*
X118253010Y-34161595D01*
X118264557Y-34139992D01*
X118271670Y-34116543D01*
X118274072Y-34092156D01*
X118271670Y-34067770D01*
X118264557Y-34044321D01*
X118253006Y-34022710D01*
X118237461Y-34003768D01*
X118218519Y-33988222D01*
X118196908Y-33976671D01*
X118173459Y-33969558D01*
X118149072Y-33967156D01*
X118124686Y-33969558D01*
X118101237Y-33976671D01*
X118080588Y-33987708D01*
X117932124Y-34049204D01*
X117775057Y-34080446D01*
X117614907Y-34080446D01*
X117457840Y-34049204D01*
X117343399Y-34001800D01*
X117309882Y-33987917D01*
X117309881Y-33987917D01*
X117309880Y-33987916D01*
X117197043Y-33912521D01*
X117176725Y-33898945D01*
X117063483Y-33785703D01*
X117019299Y-33719576D01*
X116974512Y-33652548D01*
X116913224Y-33504588D01*
X116881982Y-33347521D01*
X116881982Y-33187371D01*
X116913224Y-33030304D01*
X116974512Y-32882344D01*
X117063355Y-32749381D01*
X117063483Y-32749189D01*
X117176725Y-32635947D01*
X117294956Y-32556948D01*
X117309880Y-32546976D01*
X117457840Y-32485688D01*
X117614907Y-32454446D01*
X117775057Y-32454446D01*
X117932124Y-32485688D01*
X118080084Y-32546976D01*
X118095008Y-32556948D01*
X118213239Y-32635947D01*
X118213240Y-32635948D01*
X118214057Y-32636494D01*
X118235668Y-32648046D01*
X118259117Y-32655159D01*
X118283504Y-32657561D01*
X118307890Y-32655159D01*
X118331339Y-32648046D01*
X118352950Y-32636495D01*
X118371892Y-32620950D01*
X118387437Y-32602008D01*
X118398989Y-32580397D01*
X118406102Y-32556948D01*
X118408504Y-32532561D01*
X118406102Y-32508175D01*
X118398989Y-32484725D01*
X118345265Y-32355024D01*
X118314023Y-32197957D01*
X118314023Y-32037807D01*
X118345265Y-31880740D01*
X118406553Y-31732780D01*
X118495525Y-31599624D01*
X118608765Y-31486384D01*
X118741921Y-31397412D01*
X118889881Y-31336124D01*
X119046948Y-31304882D01*
X119207098Y-31304882D01*
X119364165Y-31336124D01*
X119364165Y-31336124D01*
G37*
M02*
