M48
;DRILL file {KiCad (5.0.1)-4} date 20/01/2019 17:45:14
;FORMAT={-:-/ absolute / metric / decimal}
FMAT,2
METRIC,TZ
T1C1.000
T2C1.200
T3C1.700
T4C1.900
T5C4.000
T6C4.800
%
G90
G05
M71
T1
X113.779Y-78.553
X69.98Y-69.5
X80.42Y-69.5
X50.88Y-69.5
X61.32Y-69.5
X122.821Y-83.773
X92.445Y-71.092
X102.529Y-73.794
T2
X125.932Y-68.859
X126.085Y-67.116
X132.906Y-69.469
X133.058Y-67.726
T3
X91.493Y-75.185
X101.307Y-77.815
X70.12Y-73.7
X80.28Y-73.7
X51.02Y-73.7
X61.18Y-73.7
X111.801Y-82.26
X120.599Y-87.34
T4
X91.087Y-75.076
X101.713Y-77.924
X69.7Y-73.7
X80.7Y-73.7
X50.6Y-73.7
X61.6Y-73.7
X111.437Y-82.05
X120.963Y-87.55
T5
X116.2Y-84.8
X96.4Y-76.5
X75.2Y-73.7
X56.1Y-73.7
T6
X45.4Y-63.8
X47.1Y-83.3
X118.4Y-97.6
X128.8Y-81.7
X86.5Y-70.1
T0
M30
