G04 #@! TF.GenerationSoftware,KiCad,Pcbnew,(5.0.1)-4*
G04 #@! TF.CreationDate,2018-12-04T01:58:54+09:00*
G04 #@! TF.ProjectId,va4,7661342E6B696361645F706362000000,rev?*
G04 #@! TF.SameCoordinates,Original*
G04 #@! TF.FileFunction,Legend,Bot*
G04 #@! TF.FilePolarity,Positive*
%FSLAX46Y46*%
G04 Gerber Fmt 4.6, Leading zero omitted, Abs format (unit mm)*
G04 Created by KiCad (PCBNEW (5.0.1)-4) date 04/12/2018 01:58:54*
%MOMM*%
%LPD*%
G01*
G04 APERTURE LIST*
%ADD10C,0.010000*%
%ADD11C,0.150000*%
%ADD12C,0.125000*%
G04 APERTURE END LIST*
D10*
G04 #@! TO.C,G\002A\002A\002A*
G36*
X114845419Y-72283457D02*
X114665176Y-72302109D01*
X114427650Y-72337770D01*
X114155633Y-72386505D01*
X113871918Y-72444379D01*
X113599296Y-72507455D01*
X113473539Y-72539911D01*
X113180400Y-72619442D01*
X112973876Y-72677828D01*
X112838219Y-72720799D01*
X112757678Y-72754083D01*
X112716506Y-72783413D01*
X112698952Y-72814517D01*
X112696581Y-72822594D01*
X112702168Y-72890785D01*
X112727240Y-73047956D01*
X112769093Y-73279600D01*
X112825026Y-73571216D01*
X112892339Y-73908299D01*
X112959848Y-74235846D01*
X113240665Y-75429698D01*
X113567344Y-76538415D01*
X113944110Y-77574162D01*
X114375184Y-78549098D01*
X114634167Y-79058572D01*
X114771323Y-79302298D01*
X114919911Y-79543656D01*
X115067307Y-79764513D01*
X115200883Y-79946730D01*
X115308015Y-80072175D01*
X115374837Y-80122482D01*
X115444672Y-80116536D01*
X115591552Y-80092265D01*
X115789192Y-80054214D01*
X115886522Y-80034052D01*
X116095199Y-79989094D01*
X116261359Y-79951790D01*
X116360148Y-79927785D01*
X116376108Y-79922773D01*
X116377321Y-79871662D01*
X116354242Y-79807908D01*
X116299578Y-79667994D01*
X116278614Y-79600998D01*
X116249888Y-79519143D01*
X116188154Y-79357555D01*
X116100544Y-79134423D01*
X115994188Y-78867943D01*
X115897576Y-78628823D01*
X115723651Y-78184454D01*
X115552889Y-77718291D01*
X115392973Y-77253512D01*
X115251588Y-76813289D01*
X115136414Y-76420796D01*
X115055136Y-76099207D01*
X115047884Y-76065820D01*
X114990899Y-75777774D01*
X114932870Y-75449836D01*
X114876207Y-75099727D01*
X114823320Y-74745167D01*
X114776620Y-74403878D01*
X114738516Y-74093580D01*
X114711418Y-73831993D01*
X114697736Y-73636838D01*
X114699880Y-73525836D01*
X114701459Y-73518461D01*
X114773960Y-73391279D01*
X114909777Y-73251713D01*
X115075472Y-73130258D01*
X115190133Y-73072804D01*
X115350873Y-73010872D01*
X115182223Y-72657419D01*
X115091539Y-72483165D01*
X115008752Y-72351329D01*
X114950218Y-72287603D01*
X114945587Y-72285750D01*
X114845419Y-72283457D01*
X114845419Y-72283457D01*
G37*
X114845419Y-72283457D02*
X114665176Y-72302109D01*
X114427650Y-72337770D01*
X114155633Y-72386505D01*
X113871918Y-72444379D01*
X113599296Y-72507455D01*
X113473539Y-72539911D01*
X113180400Y-72619442D01*
X112973876Y-72677828D01*
X112838219Y-72720799D01*
X112757678Y-72754083D01*
X112716506Y-72783413D01*
X112698952Y-72814517D01*
X112696581Y-72822594D01*
X112702168Y-72890785D01*
X112727240Y-73047956D01*
X112769093Y-73279600D01*
X112825026Y-73571216D01*
X112892339Y-73908299D01*
X112959848Y-74235846D01*
X113240665Y-75429698D01*
X113567344Y-76538415D01*
X113944110Y-77574162D01*
X114375184Y-78549098D01*
X114634167Y-79058572D01*
X114771323Y-79302298D01*
X114919911Y-79543656D01*
X115067307Y-79764513D01*
X115200883Y-79946730D01*
X115308015Y-80072175D01*
X115374837Y-80122482D01*
X115444672Y-80116536D01*
X115591552Y-80092265D01*
X115789192Y-80054214D01*
X115886522Y-80034052D01*
X116095199Y-79989094D01*
X116261359Y-79951790D01*
X116360148Y-79927785D01*
X116376108Y-79922773D01*
X116377321Y-79871662D01*
X116354242Y-79807908D01*
X116299578Y-79667994D01*
X116278614Y-79600998D01*
X116249888Y-79519143D01*
X116188154Y-79357555D01*
X116100544Y-79134423D01*
X115994188Y-78867943D01*
X115897576Y-78628823D01*
X115723651Y-78184454D01*
X115552889Y-77718291D01*
X115392973Y-77253512D01*
X115251588Y-76813289D01*
X115136414Y-76420796D01*
X115055136Y-76099207D01*
X115047884Y-76065820D01*
X114990899Y-75777774D01*
X114932870Y-75449836D01*
X114876207Y-75099727D01*
X114823320Y-74745167D01*
X114776620Y-74403878D01*
X114738516Y-74093580D01*
X114711418Y-73831993D01*
X114697736Y-73636838D01*
X114699880Y-73525836D01*
X114701459Y-73518461D01*
X114773960Y-73391279D01*
X114909777Y-73251713D01*
X115075472Y-73130258D01*
X115190133Y-73072804D01*
X115350873Y-73010872D01*
X115182223Y-72657419D01*
X115091539Y-72483165D01*
X115008752Y-72351329D01*
X114950218Y-72287603D01*
X114945587Y-72285750D01*
X114845419Y-72283457D01*
G36*
X111431174Y-71221425D02*
X111280273Y-71272371D01*
X111072073Y-71364567D01*
X110822112Y-71489530D01*
X110545934Y-71638778D01*
X110259079Y-71803826D01*
X109977089Y-71976192D01*
X109715503Y-72147393D01*
X109489866Y-72308947D01*
X109431313Y-72354418D01*
X109170324Y-72569702D01*
X108863726Y-72834981D01*
X108540007Y-73124688D01*
X108227658Y-73413256D01*
X107955171Y-73675118D01*
X107913973Y-73716028D01*
X107681228Y-73956674D01*
X107427099Y-74233390D01*
X107161964Y-74533472D01*
X106896198Y-74844215D01*
X106640176Y-75152915D01*
X106404273Y-75446867D01*
X106198867Y-75713367D01*
X106034330Y-75939710D01*
X105921042Y-76113192D01*
X105869956Y-76218843D01*
X105811584Y-76340045D01*
X105761244Y-76405919D01*
X105714079Y-76476668D01*
X105714367Y-76554120D01*
X105770671Y-76653780D01*
X105891557Y-76791147D01*
X106072556Y-76969292D01*
X106209359Y-77091742D01*
X106384571Y-77237255D01*
X106576706Y-77389372D01*
X106764276Y-77531632D01*
X106925795Y-77647573D01*
X107039772Y-77720737D01*
X107074418Y-77736781D01*
X107104427Y-77695034D01*
X107175733Y-77578120D01*
X107278085Y-77403298D01*
X107401233Y-77187836D01*
X107418201Y-77157800D01*
X107545422Y-76928959D01*
X107653462Y-76728331D01*
X107731423Y-76576594D01*
X107768411Y-76494421D01*
X107769229Y-76491644D01*
X107805529Y-76419125D01*
X107889878Y-76277518D01*
X108010840Y-76085273D01*
X108156980Y-75860836D01*
X108206054Y-75786940D01*
X108541782Y-75316537D01*
X108933250Y-74822418D01*
X109356373Y-74332164D01*
X109787065Y-73873348D01*
X110201241Y-73473550D01*
X110314253Y-73373080D01*
X110538165Y-73178302D01*
X110757588Y-72987334D01*
X110947503Y-72821957D01*
X111082887Y-72703953D01*
X111084160Y-72702842D01*
X111247850Y-72566647D01*
X111455870Y-72402613D01*
X111666071Y-72243901D01*
X111687302Y-72228347D01*
X111853731Y-72102523D01*
X111982416Y-71997017D01*
X112052681Y-71929100D01*
X112059681Y-71917250D01*
X112032522Y-71859376D01*
X111954893Y-71746461D01*
X111846139Y-71603007D01*
X111725608Y-71453508D01*
X111612644Y-71322464D01*
X111526594Y-71234375D01*
X111509231Y-71220212D01*
X111431174Y-71221425D01*
X111431174Y-71221425D01*
G37*
X111431174Y-71221425D02*
X111280273Y-71272371D01*
X111072073Y-71364567D01*
X110822112Y-71489530D01*
X110545934Y-71638778D01*
X110259079Y-71803826D01*
X109977089Y-71976192D01*
X109715503Y-72147393D01*
X109489866Y-72308947D01*
X109431313Y-72354418D01*
X109170324Y-72569702D01*
X108863726Y-72834981D01*
X108540007Y-73124688D01*
X108227658Y-73413256D01*
X107955171Y-73675118D01*
X107913973Y-73716028D01*
X107681228Y-73956674D01*
X107427099Y-74233390D01*
X107161964Y-74533472D01*
X106896198Y-74844215D01*
X106640176Y-75152915D01*
X106404273Y-75446867D01*
X106198867Y-75713367D01*
X106034330Y-75939710D01*
X105921042Y-76113192D01*
X105869956Y-76218843D01*
X105811584Y-76340045D01*
X105761244Y-76405919D01*
X105714079Y-76476668D01*
X105714367Y-76554120D01*
X105770671Y-76653780D01*
X105891557Y-76791147D01*
X106072556Y-76969292D01*
X106209359Y-77091742D01*
X106384571Y-77237255D01*
X106576706Y-77389372D01*
X106764276Y-77531632D01*
X106925795Y-77647573D01*
X107039772Y-77720737D01*
X107074418Y-77736781D01*
X107104427Y-77695034D01*
X107175733Y-77578120D01*
X107278085Y-77403298D01*
X107401233Y-77187836D01*
X107418201Y-77157800D01*
X107545422Y-76928959D01*
X107653462Y-76728331D01*
X107731423Y-76576594D01*
X107768411Y-76494421D01*
X107769229Y-76491644D01*
X107805529Y-76419125D01*
X107889878Y-76277518D01*
X108010840Y-76085273D01*
X108156980Y-75860836D01*
X108206054Y-75786940D01*
X108541782Y-75316537D01*
X108933250Y-74822418D01*
X109356373Y-74332164D01*
X109787065Y-73873348D01*
X110201241Y-73473550D01*
X110314253Y-73373080D01*
X110538165Y-73178302D01*
X110757588Y-72987334D01*
X110947503Y-72821957D01*
X111082887Y-72703953D01*
X111084160Y-72702842D01*
X111247850Y-72566647D01*
X111455870Y-72402613D01*
X111666071Y-72243901D01*
X111687302Y-72228347D01*
X111853731Y-72102523D01*
X111982416Y-71997017D01*
X112052681Y-71929100D01*
X112059681Y-71917250D01*
X112032522Y-71859376D01*
X111954893Y-71746461D01*
X111846139Y-71603007D01*
X111725608Y-71453508D01*
X111612644Y-71322464D01*
X111526594Y-71234375D01*
X111509231Y-71220212D01*
X111431174Y-71221425D01*
G36*
X111009966Y-69293289D02*
X110809821Y-69329571D01*
X110563620Y-69395683D01*
X110296268Y-69484121D01*
X110032672Y-69587386D01*
X109797736Y-69697976D01*
X109795864Y-69698962D01*
X109558367Y-69832769D01*
X109314155Y-69984121D01*
X109110198Y-70123688D01*
X109082770Y-70144239D01*
X108789551Y-70368017D01*
X109127634Y-70907724D01*
X109260809Y-71118501D01*
X109374042Y-71294308D01*
X109455416Y-71416877D01*
X109493015Y-71467935D01*
X109493109Y-71468008D01*
X109543082Y-71446768D01*
X109636940Y-71369136D01*
X109682778Y-71324731D01*
X109915148Y-71111473D01*
X110210418Y-70872021D01*
X110537774Y-70629358D01*
X110866400Y-70406465D01*
X111125544Y-70248679D01*
X111584469Y-69988165D01*
X111408263Y-69653338D01*
X111308416Y-69483857D01*
X111212899Y-69355574D01*
X111141653Y-69295091D01*
X111139149Y-69294340D01*
X111009966Y-69293289D01*
X111009966Y-69293289D01*
G37*
X111009966Y-69293289D02*
X110809821Y-69329571D01*
X110563620Y-69395683D01*
X110296268Y-69484121D01*
X110032672Y-69587386D01*
X109797736Y-69697976D01*
X109795864Y-69698962D01*
X109558367Y-69832769D01*
X109314155Y-69984121D01*
X109110198Y-70123688D01*
X109082770Y-70144239D01*
X108789551Y-70368017D01*
X109127634Y-70907724D01*
X109260809Y-71118501D01*
X109374042Y-71294308D01*
X109455416Y-71416877D01*
X109493015Y-71467935D01*
X109493109Y-71468008D01*
X109543082Y-71446768D01*
X109636940Y-71369136D01*
X109682778Y-71324731D01*
X109915148Y-71111473D01*
X110210418Y-70872021D01*
X110537774Y-70629358D01*
X110866400Y-70406465D01*
X111125544Y-70248679D01*
X111584469Y-69988165D01*
X111408263Y-69653338D01*
X111308416Y-69483857D01*
X111212899Y-69355574D01*
X111141653Y-69295091D01*
X111139149Y-69294340D01*
X111009966Y-69293289D01*
G36*
X110420880Y-68360058D02*
X110220870Y-68376404D01*
X109971320Y-68412052D01*
X109698459Y-68462528D01*
X109428515Y-68523366D01*
X109187715Y-68590094D01*
X109131683Y-68608343D01*
X108887673Y-68701039D01*
X108637840Y-68811912D01*
X108435050Y-68917449D01*
X108429916Y-68920482D01*
X108138814Y-69093389D01*
X108454238Y-69643018D01*
X108578612Y-69856575D01*
X108684548Y-70032546D01*
X108760877Y-70152785D01*
X108796432Y-70199143D01*
X108796515Y-70199165D01*
X108848980Y-70171348D01*
X108946261Y-70094087D01*
X108977514Y-70066481D01*
X109263077Y-69838764D01*
X109607979Y-69609709D01*
X109972117Y-69403406D01*
X110315389Y-69243944D01*
X110400890Y-69211473D01*
X110856867Y-69048604D01*
X110746467Y-68720226D01*
X110671093Y-68533212D01*
X110595041Y-68407441D01*
X110545122Y-68367480D01*
X110420880Y-68360058D01*
X110420880Y-68360058D01*
G37*
X110420880Y-68360058D02*
X110220870Y-68376404D01*
X109971320Y-68412052D01*
X109698459Y-68462528D01*
X109428515Y-68523366D01*
X109187715Y-68590094D01*
X109131683Y-68608343D01*
X108887673Y-68701039D01*
X108637840Y-68811912D01*
X108435050Y-68917449D01*
X108429916Y-68920482D01*
X108138814Y-69093389D01*
X108454238Y-69643018D01*
X108578612Y-69856575D01*
X108684548Y-70032546D01*
X108760877Y-70152785D01*
X108796432Y-70199143D01*
X108796515Y-70199165D01*
X108848980Y-70171348D01*
X108946261Y-70094087D01*
X108977514Y-70066481D01*
X109263077Y-69838764D01*
X109607979Y-69609709D01*
X109972117Y-69403406D01*
X110315389Y-69243944D01*
X110400890Y-69211473D01*
X110856867Y-69048604D01*
X110746467Y-68720226D01*
X110671093Y-68533212D01*
X110595041Y-68407441D01*
X110545122Y-68367480D01*
X110420880Y-68360058D01*
D11*
G04 #@! TO.C,J2*
X122859653Y-63822206D02*
X134813990Y-64868075D01*
X122336719Y-69799374D02*
X122859653Y-63822206D01*
X134291055Y-70845243D02*
X122336719Y-69799374D01*
X134813990Y-64868075D02*
X134291055Y-70845243D01*
G04 #@! TO.C,D4*
X107400481Y-82763269D02*
X108699519Y-83513269D01*
X110100481Y-78086731D02*
X107400481Y-82763269D01*
X111399519Y-78836731D02*
X110100481Y-78086731D01*
X108699519Y-83513269D02*
X111399519Y-78836731D01*
X110083013Y-80616987D02*
X109216987Y-80116987D01*
X108716987Y-80983013D02*
X109600000Y-80453590D01*
X109583013Y-81483013D02*
X108716987Y-80983013D01*
X109600000Y-80453590D02*
X109583013Y-81483013D01*
G04 #@! TO.C,D3*
X98986370Y-68703528D02*
X97987628Y-68953553D01*
X97987628Y-68953553D02*
X98246447Y-67987628D01*
X98246447Y-67987628D02*
X98986370Y-68703528D01*
X98953553Y-69212372D02*
X99212372Y-68246447D01*
X95797886Y-68625633D02*
X101013885Y-70023256D01*
X101013885Y-70023256D02*
X101402114Y-68574367D01*
X101402114Y-68574367D02*
X96186115Y-67176744D01*
X96186115Y-67176744D02*
X95797886Y-68625633D01*
G04 #@! TO.C,D2*
X72500000Y-65050000D02*
X72500000Y-66550000D01*
X77900000Y-65050000D02*
X72500000Y-65050000D01*
X77900000Y-66550000D02*
X77900000Y-65050000D01*
X72500000Y-66550000D02*
X77900000Y-66550000D01*
X75700000Y-66300000D02*
X75700000Y-65300000D01*
X74700000Y-65300000D02*
X75600000Y-65800000D01*
X74700000Y-66300000D02*
X74700000Y-65300000D01*
X75600000Y-65800000D02*
X74700000Y-66300000D01*
G04 #@! TO.C,D1*
X56400000Y-65800000D02*
X55500000Y-66300000D01*
X55500000Y-66300000D02*
X55500000Y-65300000D01*
X55500000Y-65300000D02*
X56400000Y-65800000D01*
X56500000Y-66300000D02*
X56500000Y-65300000D01*
X53300000Y-66550000D02*
X58700000Y-66550000D01*
X58700000Y-66550000D02*
X58700000Y-65050000D01*
X58700000Y-65050000D02*
X53300000Y-65050000D01*
X53300000Y-65050000D02*
X53300000Y-66550000D01*
G04 #@! TO.C,U1*
X131722510Y-33219844D02*
X134252844Y-33441220D01*
X134252844Y-33441220D02*
X131596337Y-63805234D01*
X131596337Y-63805234D02*
X129066003Y-63583859D01*
X129066003Y-63583859D02*
X131722510Y-33219844D01*
X116540503Y-31891591D02*
X119070837Y-32112966D01*
X119070837Y-32112966D02*
X116414330Y-62476981D01*
X116414330Y-62476981D02*
X113883996Y-62255605D01*
X113883996Y-62255605D02*
X116540503Y-31891591D01*
G04 #@! TO.C,SW1*
X113942150Y-64044241D02*
X113963938Y-63795192D01*
X113963938Y-63795192D02*
X119941107Y-64318127D01*
X119941107Y-64318127D02*
X119919318Y-64567175D01*
X119657850Y-67555759D02*
X119636062Y-67804808D01*
X119636062Y-67804808D02*
X113658893Y-67281873D01*
X113658893Y-67281873D02*
X113680682Y-67032825D01*
G04 #@! TO.C,J2*
X127690876Y-66415739D02*
X127641073Y-66984993D01*
X128662169Y-66787522D02*
X127665975Y-66700366D01*
X128558413Y-67973468D02*
X128113086Y-67599900D01*
X128608216Y-67404214D02*
X127612021Y-67317058D01*
X127578819Y-67696561D01*
X127617956Y-67795587D01*
X127661244Y-67847175D01*
X127751969Y-67902913D01*
X127894283Y-67915364D01*
X127993309Y-67876227D01*
X128044897Y-67832939D01*
X128100635Y-67742214D01*
X128133838Y-67362711D01*
X128471257Y-68969663D02*
X128025930Y-68596095D01*
X128521060Y-68400409D02*
X127524865Y-68313253D01*
X127491663Y-68692756D01*
X127530801Y-68791782D01*
X127574088Y-68843370D01*
X127664814Y-68899108D01*
X127807127Y-68911559D01*
X127906153Y-68872422D01*
X127957741Y-68829134D01*
X128013480Y-68738409D01*
X128046682Y-68358906D01*
X128390617Y-69345015D02*
X128425604Y-69491479D01*
X128404853Y-69728668D01*
X128349114Y-69819394D01*
X128297526Y-69862681D01*
X128198500Y-69901819D01*
X128103624Y-69893518D01*
X128012899Y-69837780D01*
X127969611Y-69786191D01*
X127930474Y-69687165D01*
X127899637Y-69493264D01*
X127860500Y-69394238D01*
X127817212Y-69342650D01*
X127726487Y-69286911D01*
X127631611Y-69278611D01*
X127532585Y-69317748D01*
X127480997Y-69361036D01*
X127425259Y-69451761D01*
X127404508Y-69688950D01*
X127439495Y-69835414D01*
G04 #@! TO.C,U1*
D12*
X131035024Y-34838873D02*
X131232184Y-34497615D01*
X131319651Y-34863774D02*
X131385018Y-34116628D01*
X131195267Y-34100027D01*
X131144716Y-34131455D01*
X131117884Y-34164958D01*
X131087940Y-34234040D01*
X131078602Y-34340775D01*
X131096096Y-34414007D01*
X131116702Y-34451661D01*
X131161027Y-34491389D01*
X131350778Y-34507990D01*
X130863949Y-34608801D02*
X130626760Y-34588050D01*
X130892711Y-34826422D02*
X130792045Y-34064750D01*
X130560646Y-34797370D01*
X130507418Y-34039848D02*
X130323457Y-34776619D01*
X130275271Y-34234642D01*
X130133705Y-34760017D01*
X130080477Y-34002496D01*
X115829297Y-33508543D02*
X116066486Y-33529295D01*
X116131853Y-32782149D01*
X115697505Y-33102655D02*
X115531472Y-33088129D01*
X115426076Y-33473266D02*
X115663265Y-33494018D01*
X115728632Y-32746871D01*
X115491442Y-32726120D01*
X115212605Y-33454590D02*
X115277972Y-32707444D01*
X115159377Y-32697068D01*
X115085108Y-32726421D01*
X115031445Y-32793428D01*
X115001500Y-32862509D01*
X114965331Y-33002748D01*
X114955993Y-33109483D01*
X114967261Y-33253872D01*
X114984754Y-33327103D01*
X115025967Y-33402410D01*
X115094011Y-33444214D01*
X115212605Y-33454590D01*
X130853757Y-36591959D02*
X130904307Y-36560531D01*
X130975464Y-36566756D01*
X131043508Y-36608560D01*
X131084720Y-36683867D01*
X131102214Y-36757099D01*
X131113482Y-36901487D01*
X131104144Y-37008223D01*
X131067974Y-37148461D01*
X131038030Y-37217543D01*
X130984367Y-37284549D01*
X130910097Y-37313902D01*
X130862659Y-37309752D01*
X130794615Y-37267948D01*
X130774009Y-37230294D01*
X130795798Y-36981246D01*
X130890674Y-36989546D01*
X130554313Y-37282775D02*
X130619680Y-36535629D01*
X130269686Y-37257873D01*
X130335053Y-36510727D01*
X130032497Y-37237122D02*
X130097864Y-36489976D01*
X129979269Y-36479600D01*
X129905000Y-36508953D01*
X129851337Y-36575960D01*
X129821392Y-36645041D01*
X129785222Y-36785280D01*
X129775884Y-36892015D01*
X129787152Y-37036404D01*
X129804646Y-37109635D01*
X129845858Y-37184942D01*
X129913902Y-37226746D01*
X130032497Y-37237122D01*
X115875330Y-36167172D02*
X115940697Y-35420026D01*
X115822102Y-35409650D01*
X115747833Y-35439003D01*
X115694169Y-35506010D01*
X115664225Y-35575091D01*
X115628055Y-35715330D01*
X115618717Y-35822065D01*
X115629985Y-35966454D01*
X115647479Y-36039685D01*
X115688691Y-36114992D01*
X115756735Y-36156796D01*
X115875330Y-36167172D01*
X115419628Y-35912199D02*
X115182438Y-35891448D01*
X115448389Y-36129819D02*
X115347724Y-35368147D01*
X115116324Y-36100768D01*
X115086815Y-35345321D02*
X114802188Y-35320419D01*
X114879135Y-36080016D02*
X114944502Y-35332870D01*
X114613184Y-35841644D02*
X114375995Y-35820893D01*
X114641946Y-36059265D02*
X114541280Y-35297593D01*
X114309881Y-36030213D01*
X130521115Y-39893316D02*
X130718275Y-39552058D01*
X130805742Y-39918218D02*
X130871109Y-39171072D01*
X130681358Y-39154471D01*
X130630807Y-39185899D01*
X130603976Y-39219402D01*
X130574031Y-39288484D01*
X130564693Y-39395219D01*
X130582187Y-39468451D01*
X130602793Y-39506104D01*
X130647118Y-39545833D01*
X130836870Y-39562434D01*
X130334477Y-39841137D02*
X130260207Y-39870490D01*
X130141613Y-39860114D01*
X130097288Y-39820385D01*
X130076681Y-39782732D01*
X130059188Y-39709500D01*
X130065413Y-39638343D01*
X130095358Y-39569262D01*
X130122189Y-39535758D01*
X130172740Y-39504330D01*
X130270728Y-39477052D01*
X130321279Y-39445624D01*
X130348110Y-39412121D01*
X130378055Y-39343039D01*
X130384280Y-39271883D01*
X130366787Y-39198651D01*
X130346180Y-39160997D01*
X130301855Y-39121269D01*
X130183261Y-39110893D01*
X130108991Y-39140246D01*
X129969790Y-39092217D02*
X129685163Y-39067315D01*
X129762110Y-39826912D02*
X129827477Y-39079766D01*
X115508098Y-37862833D02*
X115558648Y-37831405D01*
X115629805Y-37837630D01*
X115697849Y-37879434D01*
X115739061Y-37954741D01*
X115756555Y-38027973D01*
X115767823Y-38172361D01*
X115758485Y-38279097D01*
X115722315Y-38419335D01*
X115692371Y-38488417D01*
X115638708Y-38555423D01*
X115564438Y-38584776D01*
X115517000Y-38580626D01*
X115448956Y-38538822D01*
X115428350Y-38501168D01*
X115450139Y-38252120D01*
X115545015Y-38260420D01*
X115208654Y-38553649D02*
X115274021Y-37806503D01*
X114924027Y-38528747D01*
X114989394Y-37781601D01*
X114686838Y-38507996D02*
X114752205Y-37760850D01*
X114633610Y-37750474D01*
X114559341Y-37779827D01*
X114505678Y-37846834D01*
X114475733Y-37915915D01*
X114439563Y-38056154D01*
X114430225Y-38162889D01*
X114441493Y-38307278D01*
X114458987Y-38380509D01*
X114500199Y-38455816D01*
X114568243Y-38497620D01*
X114686838Y-38507996D01*
X130693212Y-41705210D02*
X130461813Y-42437830D01*
X130361148Y-41676158D01*
X129851347Y-42312720D02*
X129871953Y-42350373D01*
X129939997Y-42392177D01*
X129987435Y-42396327D01*
X130061704Y-42366974D01*
X130115367Y-42299968D01*
X130145312Y-42230886D01*
X130181482Y-42090648D01*
X130190820Y-41983913D01*
X130179552Y-41839524D01*
X130162058Y-41766292D01*
X130120846Y-41690985D01*
X130052802Y-41649181D01*
X130005364Y-41645031D01*
X129931094Y-41674384D01*
X129904263Y-41707887D01*
X129353249Y-42269142D02*
X129373855Y-42306795D01*
X129441900Y-42348599D01*
X129489337Y-42352749D01*
X129563607Y-42323396D01*
X129617270Y-42256390D01*
X129647214Y-42187308D01*
X129683384Y-42047070D01*
X129692722Y-41940335D01*
X129681454Y-41795946D01*
X129663961Y-41722714D01*
X129622748Y-41647407D01*
X129554704Y-41605603D01*
X129507266Y-41601453D01*
X129432997Y-41630806D01*
X129406165Y-41664309D01*
X115286723Y-40393168D02*
X115337273Y-40361740D01*
X115408430Y-40367965D01*
X115476474Y-40409769D01*
X115517686Y-40485076D01*
X115535180Y-40558308D01*
X115546448Y-40702696D01*
X115537110Y-40809432D01*
X115500940Y-40949670D01*
X115470996Y-41018752D01*
X115417333Y-41085758D01*
X115343063Y-41115111D01*
X115295625Y-41110961D01*
X115227581Y-41069157D01*
X115206975Y-41031503D01*
X115228764Y-40782455D01*
X115323640Y-40790755D01*
X114987279Y-41083984D02*
X115052646Y-40336838D01*
X114702652Y-41059082D01*
X114768019Y-40311936D01*
X114465463Y-41038331D02*
X114530830Y-40291185D01*
X114412235Y-40280809D01*
X114337966Y-40310162D01*
X114284303Y-40377169D01*
X114254358Y-40446250D01*
X114218188Y-40586489D01*
X114208850Y-40693224D01*
X114220118Y-40837613D01*
X114237612Y-40910844D01*
X114278824Y-40986151D01*
X114346868Y-41027955D01*
X114465463Y-41038331D01*
X129506051Y-52445685D02*
X129526658Y-52483338D01*
X129594702Y-52525142D01*
X129642140Y-52529292D01*
X129716409Y-52499939D01*
X129770072Y-52432933D01*
X129800017Y-52363851D01*
X129836186Y-52223613D01*
X129845524Y-52116877D01*
X129834256Y-51972489D01*
X129816763Y-51899257D01*
X129775550Y-51823950D01*
X129707506Y-51782146D01*
X129660068Y-51777996D01*
X129585799Y-51807349D01*
X129558967Y-51840852D01*
X129256847Y-51742718D02*
X129161971Y-51734418D01*
X129111421Y-51765846D01*
X129057757Y-51832853D01*
X129021588Y-51973091D01*
X128999799Y-52222140D01*
X129011067Y-52366528D01*
X129052279Y-52441835D01*
X129096604Y-52481564D01*
X129191480Y-52489864D01*
X129242031Y-52458436D01*
X129295694Y-52391430D01*
X129331864Y-52251192D01*
X129353652Y-52002143D01*
X129342384Y-51857754D01*
X129301172Y-51782447D01*
X129256847Y-51742718D01*
X128527350Y-52431761D02*
X128764539Y-52452512D01*
X128829906Y-51705366D01*
X128474122Y-51674239D02*
X128165776Y-51647262D01*
X128306907Y-51946415D01*
X128235750Y-51940190D01*
X128185200Y-51971618D01*
X128158368Y-52005121D01*
X128128424Y-52074203D01*
X128112860Y-52252095D01*
X128130354Y-52325327D01*
X128150960Y-52362980D01*
X128195285Y-52402709D01*
X128337599Y-52415160D01*
X128388149Y-52383731D01*
X128414981Y-52350228D01*
X114564879Y-48632393D02*
X114762039Y-48291135D01*
X114849506Y-48657295D02*
X114914873Y-47910149D01*
X114725122Y-47893548D01*
X114674571Y-47924976D01*
X114647740Y-47958479D01*
X114617795Y-48027561D01*
X114608457Y-48134296D01*
X114625951Y-48207528D01*
X114646557Y-48245181D01*
X114690882Y-48284910D01*
X114880633Y-48301511D01*
X114321900Y-47858270D02*
X114227024Y-47849970D01*
X114176474Y-47881398D01*
X114122811Y-47948405D01*
X114086641Y-48088643D01*
X114064852Y-48337692D01*
X114076120Y-48482080D01*
X114117332Y-48557387D01*
X114161658Y-48597116D01*
X114256533Y-48605416D01*
X114307084Y-48573988D01*
X114360747Y-48506982D01*
X114396917Y-48366743D01*
X114418706Y-48117695D01*
X114407438Y-47973306D01*
X114366225Y-47897999D01*
X114321900Y-47858270D01*
X113942397Y-47825068D02*
X113758436Y-48561839D01*
X113710251Y-48019862D01*
X113568685Y-48545238D01*
X113515457Y-47787716D01*
X113230830Y-47762814D02*
X113183392Y-47758664D01*
X113132841Y-47790092D01*
X113106010Y-47823595D01*
X113076065Y-47892677D01*
X113039896Y-48032915D01*
X113024332Y-48210807D01*
X113035600Y-48355196D01*
X113053094Y-48428428D01*
X113073700Y-48466081D01*
X113118025Y-48505810D01*
X113165463Y-48509960D01*
X113216013Y-48478532D01*
X113242845Y-48445029D01*
X113272789Y-48375947D01*
X113308959Y-48235709D01*
X113324523Y-48057817D01*
X113313255Y-47913428D01*
X113295761Y-47840196D01*
X113275155Y-47802543D01*
X113230830Y-47762814D01*
X129723941Y-49955198D02*
X129744548Y-49992851D01*
X129812592Y-50034655D01*
X129860030Y-50038805D01*
X129934299Y-50009452D01*
X129987962Y-49942446D01*
X130017907Y-49873364D01*
X130054076Y-49733126D01*
X130063414Y-49626390D01*
X130052146Y-49482002D01*
X130034653Y-49408770D01*
X129993440Y-49333463D01*
X129925396Y-49291659D01*
X129877958Y-49287509D01*
X129803689Y-49316862D01*
X129776857Y-49350365D01*
X129474737Y-49252231D02*
X129379861Y-49243931D01*
X129329311Y-49275359D01*
X129275647Y-49342366D01*
X129239478Y-49482604D01*
X129217689Y-49731653D01*
X129228957Y-49876041D01*
X129270169Y-49951348D01*
X129314494Y-49991077D01*
X129409370Y-49999377D01*
X129459921Y-49967949D01*
X129513584Y-49900943D01*
X129549754Y-49760705D01*
X129571542Y-49511656D01*
X129560274Y-49367267D01*
X129519062Y-49291960D01*
X129474737Y-49252231D01*
X128745240Y-49941274D02*
X128982429Y-49962025D01*
X129047796Y-49214879D01*
X128662068Y-49252834D02*
X128641462Y-49215180D01*
X128597137Y-49175451D01*
X128478542Y-49165076D01*
X128427992Y-49196504D01*
X128401160Y-49230007D01*
X128371216Y-49299089D01*
X128364990Y-49370245D01*
X128379371Y-49479056D01*
X128626646Y-49930898D01*
X128318300Y-49903921D01*
X114998302Y-46148502D02*
X114924032Y-46177855D01*
X114805437Y-46167479D01*
X114761112Y-46127751D01*
X114740506Y-46090097D01*
X114723013Y-46016865D01*
X114729238Y-45945709D01*
X114759182Y-45876627D01*
X114786014Y-45843124D01*
X114836565Y-45811696D01*
X114934553Y-45784418D01*
X114985103Y-45752990D01*
X115011935Y-45719486D01*
X115041879Y-45650405D01*
X115048105Y-45579248D01*
X115030611Y-45506016D01*
X115010005Y-45468363D01*
X114965680Y-45428634D01*
X114847085Y-45418258D01*
X114772816Y-45447611D01*
X114218690Y-46044444D02*
X114239296Y-46082098D01*
X114307340Y-46123902D01*
X114354778Y-46128052D01*
X114429047Y-46098699D01*
X114482711Y-46031692D01*
X114512655Y-45962611D01*
X114548825Y-45822372D01*
X114558163Y-45715637D01*
X114546895Y-45571249D01*
X114529401Y-45498017D01*
X114488189Y-45422710D01*
X114420145Y-45380906D01*
X114372707Y-45376756D01*
X114298437Y-45406109D01*
X114271606Y-45439612D01*
X113761805Y-46076173D02*
X113998994Y-46096925D01*
X114064361Y-45349779D01*
X129945709Y-47420380D02*
X129966316Y-47458033D01*
X130034360Y-47499837D01*
X130081798Y-47503987D01*
X130156067Y-47474634D01*
X130209730Y-47407628D01*
X130239675Y-47338546D01*
X130275844Y-47198308D01*
X130285182Y-47091572D01*
X130273914Y-46947184D01*
X130256421Y-46873952D01*
X130215208Y-46798645D01*
X130147164Y-46756841D01*
X130099726Y-46752691D01*
X130025457Y-46782044D01*
X129998625Y-46815547D01*
X129696505Y-46717413D02*
X129601629Y-46709113D01*
X129551079Y-46740541D01*
X129497415Y-46807548D01*
X129461246Y-46947786D01*
X129439457Y-47196835D01*
X129450725Y-47341223D01*
X129491937Y-47416530D01*
X129536262Y-47456259D01*
X129631138Y-47464559D01*
X129681689Y-47433131D01*
X129735352Y-47366125D01*
X129771522Y-47225887D01*
X129793310Y-46976838D01*
X129782042Y-46832449D01*
X129740830Y-46757142D01*
X129696505Y-46717413D01*
X128967008Y-47406456D02*
X129204197Y-47427207D01*
X129269564Y-46680061D01*
X128540068Y-47369103D02*
X128824695Y-47394005D01*
X128682381Y-47381554D02*
X128747748Y-46634408D01*
X128785848Y-46745293D01*
X128827060Y-46820600D01*
X128871385Y-46860329D01*
X115231535Y-43619205D02*
X115157266Y-43648558D01*
X115038671Y-43638182D01*
X114994346Y-43598453D01*
X114973740Y-43560800D01*
X114956246Y-43487568D01*
X114962471Y-43416411D01*
X114992416Y-43347330D01*
X115019247Y-43313826D01*
X115069798Y-43282398D01*
X115167786Y-43255120D01*
X115218337Y-43223692D01*
X115245169Y-43190189D01*
X115275113Y-43121107D01*
X115281338Y-43049951D01*
X115263845Y-42976719D01*
X115243239Y-42939065D01*
X115198913Y-42899337D01*
X115080319Y-42888961D01*
X115006049Y-42918314D01*
X114730325Y-43611205D02*
X114795692Y-42864059D01*
X114677097Y-42853684D01*
X114602828Y-42883037D01*
X114549164Y-42950043D01*
X114519220Y-43019125D01*
X114483050Y-43159363D01*
X114473712Y-43266098D01*
X114484980Y-43410487D01*
X114502474Y-43483719D01*
X114543686Y-43559026D01*
X114611730Y-43600830D01*
X114730325Y-43611205D01*
X114274623Y-43356232D02*
X114037434Y-43335481D01*
X114303384Y-43573853D02*
X114202719Y-42812181D01*
X113971319Y-43544801D01*
X130164077Y-44924415D02*
X130184684Y-44962068D01*
X130252728Y-45003872D01*
X130300166Y-45008022D01*
X130374435Y-44978669D01*
X130428098Y-44911663D01*
X130458043Y-44842581D01*
X130494212Y-44702343D01*
X130503550Y-44595607D01*
X130492282Y-44451219D01*
X130474789Y-44377987D01*
X130433576Y-44302680D01*
X130365532Y-44260876D01*
X130318094Y-44256726D01*
X130243825Y-44286079D01*
X130216993Y-44319582D01*
X129914873Y-44221448D02*
X129819997Y-44213148D01*
X129769447Y-44244576D01*
X129715783Y-44311583D01*
X129679614Y-44451821D01*
X129657825Y-44700870D01*
X129669093Y-44845258D01*
X129710305Y-44920565D01*
X129754630Y-44960294D01*
X129849506Y-44968594D01*
X129900057Y-44937166D01*
X129953720Y-44870160D01*
X129989890Y-44729922D01*
X130011678Y-44480873D01*
X130000410Y-44336484D01*
X129959198Y-44261177D01*
X129914873Y-44221448D01*
X129185376Y-44910491D02*
X129422565Y-44931242D01*
X129487932Y-44184096D01*
X128989835Y-44140518D02*
X128942397Y-44136368D01*
X128891846Y-44167796D01*
X128865015Y-44201299D01*
X128835071Y-44270381D01*
X128798901Y-44410619D01*
X128783337Y-44588511D01*
X128794605Y-44732900D01*
X128812099Y-44806132D01*
X128832705Y-44843785D01*
X128877030Y-44883514D01*
X128924468Y-44887664D01*
X128975019Y-44856236D01*
X129001850Y-44822733D01*
X129031795Y-44753651D01*
X129067964Y-44613413D01*
X129083528Y-44435521D01*
X129072260Y-44291132D01*
X129054766Y-44217900D01*
X129034160Y-44180247D01*
X128989835Y-44140518D01*
X128750386Y-62227619D02*
X128676117Y-62256972D01*
X128649285Y-62290475D01*
X128619341Y-62359556D01*
X128610003Y-62466292D01*
X128627496Y-62539523D01*
X128648103Y-62577177D01*
X128692428Y-62616906D01*
X128882179Y-62633507D01*
X128947546Y-61886361D01*
X128781513Y-61871835D01*
X128730963Y-61903263D01*
X128704131Y-61936766D01*
X128674187Y-62005848D01*
X128667962Y-62077005D01*
X128685455Y-62150236D01*
X128706061Y-62187890D01*
X128750386Y-62227619D01*
X128916419Y-62242145D01*
X128235978Y-61824107D02*
X128330854Y-61832407D01*
X128375179Y-61872136D01*
X128395785Y-61909789D01*
X128433885Y-62020675D01*
X128445153Y-62165063D01*
X128420251Y-62449690D01*
X128390307Y-62518772D01*
X128363476Y-62552275D01*
X128312925Y-62583703D01*
X128218049Y-62575403D01*
X128173724Y-62535674D01*
X128153118Y-62498021D01*
X128135624Y-62424789D01*
X128151188Y-62246897D01*
X128181132Y-62177815D01*
X128207964Y-62144312D01*
X128258514Y-62112884D01*
X128353390Y-62121185D01*
X128397715Y-62160913D01*
X128418321Y-62198567D01*
X128435815Y-62271799D01*
X113309811Y-60940486D02*
X113235542Y-60969839D01*
X113208710Y-61003342D01*
X113178766Y-61072423D01*
X113169428Y-61179159D01*
X113186921Y-61252390D01*
X113207528Y-61290044D01*
X113251853Y-61329773D01*
X113441604Y-61346374D01*
X113506971Y-60599228D01*
X113340938Y-60584702D01*
X113290388Y-60616130D01*
X113263556Y-60649633D01*
X113233612Y-60718715D01*
X113227387Y-60789872D01*
X113244880Y-60863103D01*
X113265486Y-60900757D01*
X113309811Y-60940486D01*
X113475844Y-60955012D01*
X112771684Y-60534898D02*
X113008874Y-60555650D01*
X113001465Y-60913509D01*
X112980859Y-60875855D01*
X112936534Y-60836127D01*
X112817939Y-60825751D01*
X112767389Y-60857179D01*
X112740557Y-60890682D01*
X112710613Y-60959764D01*
X112695049Y-61137656D01*
X112712543Y-61210888D01*
X112733149Y-61248541D01*
X112777474Y-61288270D01*
X112896069Y-61298646D01*
X112946619Y-61267217D01*
X112973451Y-61233714D01*
X113531187Y-58410151D02*
X113456918Y-58439504D01*
X113430086Y-58473007D01*
X113400142Y-58542088D01*
X113390804Y-58648824D01*
X113408297Y-58722055D01*
X113428904Y-58759709D01*
X113473229Y-58799438D01*
X113662980Y-58816039D01*
X113728347Y-58068893D01*
X113562314Y-58054367D01*
X113511764Y-58085795D01*
X113484932Y-58119298D01*
X113454988Y-58188380D01*
X113448763Y-58259537D01*
X113466256Y-58332768D01*
X113486862Y-58370422D01*
X113531187Y-58410151D01*
X113697220Y-58424677D01*
X112994990Y-58255687D02*
X112951412Y-58753785D01*
X113138487Y-57981436D02*
X113210391Y-58525487D01*
X112902045Y-58498511D01*
X129040554Y-59639560D02*
X128966285Y-59668913D01*
X128939453Y-59702416D01*
X128909509Y-59771497D01*
X128900171Y-59878233D01*
X128917664Y-59951464D01*
X128938271Y-59989118D01*
X128982596Y-60028847D01*
X129172347Y-60045448D01*
X129237714Y-59298302D01*
X129071681Y-59283776D01*
X129021131Y-59315204D01*
X128994299Y-59348707D01*
X128964355Y-59417789D01*
X128958130Y-59488946D01*
X128975623Y-59562177D01*
X128996229Y-59599831D01*
X129040554Y-59639560D01*
X129206587Y-59654086D01*
X128757110Y-59327956D02*
X128736504Y-59290302D01*
X128692179Y-59250574D01*
X128573584Y-59240198D01*
X128523034Y-59271626D01*
X128496202Y-59305129D01*
X128466258Y-59374211D01*
X128460032Y-59445368D01*
X128474413Y-59554178D01*
X128721688Y-60006020D01*
X128413342Y-59979043D01*
X113892211Y-56321023D02*
X114089371Y-55979765D01*
X114176838Y-56345925D02*
X114242205Y-55598779D01*
X114052454Y-55582178D01*
X114001903Y-55613606D01*
X113975072Y-55647109D01*
X113945127Y-55716191D01*
X113935789Y-55822926D01*
X113953283Y-55896158D01*
X113973889Y-55933811D01*
X114018214Y-55973540D01*
X114207965Y-55990141D01*
X113649232Y-55546900D02*
X113554356Y-55538600D01*
X113503806Y-55570028D01*
X113450143Y-55637035D01*
X113413973Y-55777273D01*
X113392184Y-56026322D01*
X113403452Y-56170710D01*
X113444664Y-56246017D01*
X113488990Y-56285746D01*
X113583865Y-56294046D01*
X113634416Y-56262618D01*
X113688079Y-56195612D01*
X113724249Y-56055373D01*
X113746038Y-55806325D01*
X113734770Y-55661936D01*
X113693557Y-55586629D01*
X113649232Y-55546900D01*
X113269729Y-55513698D02*
X113085768Y-56250469D01*
X113037583Y-55708492D01*
X112896017Y-56233868D01*
X112842789Y-55476346D01*
X112700475Y-55463895D02*
X112392129Y-55436918D01*
X112533260Y-55736071D01*
X112462103Y-55729846D01*
X112411553Y-55761274D01*
X112384721Y-55794777D01*
X112354777Y-55863859D01*
X112339213Y-56041751D01*
X112356707Y-56114983D01*
X112377313Y-56152636D01*
X112421638Y-56192365D01*
X112563952Y-56204816D01*
X112614502Y-56173387D01*
X112641334Y-56139884D01*
X129057199Y-57576087D02*
X129077806Y-57613740D01*
X129145850Y-57655544D01*
X129193288Y-57659694D01*
X129267557Y-57630341D01*
X129321220Y-57563335D01*
X129351165Y-57494253D01*
X129387334Y-57354015D01*
X129396672Y-57247279D01*
X129385404Y-57102891D01*
X129367911Y-57029659D01*
X129326698Y-56954352D01*
X129258654Y-56912548D01*
X129211216Y-56908398D01*
X129136947Y-56937751D01*
X129110115Y-56971254D01*
X128807995Y-56873120D02*
X128713119Y-56864820D01*
X128662569Y-56896248D01*
X128608905Y-56963255D01*
X128572736Y-57103493D01*
X128550947Y-57352542D01*
X128562215Y-57496930D01*
X128603427Y-57572237D01*
X128647752Y-57611966D01*
X128742628Y-57620266D01*
X128793179Y-57588838D01*
X128846842Y-57521832D01*
X128883012Y-57381594D01*
X128904800Y-57132545D01*
X128893532Y-56988156D01*
X128852320Y-56912849D01*
X128807995Y-56873120D01*
X128078498Y-57562163D02*
X128315687Y-57582914D01*
X128381054Y-56835768D01*
X127740643Y-56779739D02*
X127977833Y-56800491D01*
X127970424Y-57158350D01*
X127949818Y-57120696D01*
X127905493Y-57080967D01*
X127786898Y-57070592D01*
X127736348Y-57102020D01*
X127709516Y-57135523D01*
X127679572Y-57204605D01*
X127664008Y-57382497D01*
X127681502Y-57455729D01*
X127702108Y-57493382D01*
X127746433Y-57533111D01*
X127865028Y-57543486D01*
X127915578Y-57512058D01*
X127942410Y-57478555D01*
X114111059Y-53819580D02*
X114308219Y-53478322D01*
X114395686Y-53844482D02*
X114461053Y-53097336D01*
X114271302Y-53080735D01*
X114220751Y-53112163D01*
X114193920Y-53145666D01*
X114163975Y-53214748D01*
X114154637Y-53321483D01*
X114172131Y-53394715D01*
X114192737Y-53432368D01*
X114237062Y-53472097D01*
X114426813Y-53488698D01*
X113868080Y-53045457D02*
X113773204Y-53037157D01*
X113722654Y-53068585D01*
X113668991Y-53135592D01*
X113632821Y-53275830D01*
X113611032Y-53524879D01*
X113622300Y-53669267D01*
X113663512Y-53744574D01*
X113707838Y-53784303D01*
X113802713Y-53792603D01*
X113853264Y-53761175D01*
X113906927Y-53694169D01*
X113943097Y-53553930D01*
X113964886Y-53304882D01*
X113953618Y-53160493D01*
X113912405Y-53085186D01*
X113868080Y-53045457D01*
X113488577Y-53012255D02*
X113304616Y-53749026D01*
X113256431Y-53207049D01*
X113114865Y-53732425D01*
X113061637Y-52974903D01*
X112889379Y-53031534D02*
X112868773Y-52993880D01*
X112824448Y-52954151D01*
X112705853Y-52943776D01*
X112655302Y-52975204D01*
X112628471Y-53008707D01*
X112598526Y-53077789D01*
X112592301Y-53148945D01*
X112606682Y-53257756D01*
X112853956Y-53709598D01*
X112545610Y-53682621D01*
X129237306Y-54943768D02*
X129257913Y-54981421D01*
X129325957Y-55023225D01*
X129373395Y-55027375D01*
X129447664Y-54998022D01*
X129501327Y-54931016D01*
X129531272Y-54861934D01*
X129567441Y-54721696D01*
X129576779Y-54614960D01*
X129565511Y-54470572D01*
X129548018Y-54397340D01*
X129506805Y-54322033D01*
X129438761Y-54280229D01*
X129391323Y-54276079D01*
X129317054Y-54305432D01*
X129290222Y-54338935D01*
X128988102Y-54240801D02*
X128893226Y-54232501D01*
X128842676Y-54263929D01*
X128789012Y-54330936D01*
X128752843Y-54471174D01*
X128731054Y-54720223D01*
X128742322Y-54864611D01*
X128783534Y-54939918D01*
X128827859Y-54979647D01*
X128922735Y-54987947D01*
X128973286Y-54956519D01*
X129026949Y-54889513D01*
X129063119Y-54749275D01*
X129084907Y-54500226D01*
X129073639Y-54355837D01*
X129032427Y-54280530D01*
X128988102Y-54240801D01*
X128258605Y-54929844D02*
X128495794Y-54950595D01*
X128561161Y-54203449D01*
X127922680Y-54398544D02*
X127879102Y-54896641D01*
X128066177Y-54124293D02*
X128138081Y-54668344D01*
X127829735Y-54641367D01*
X114337969Y-51225986D02*
X114535129Y-50884728D01*
X114622596Y-51250888D02*
X114687963Y-50503742D01*
X114498212Y-50487141D01*
X114447661Y-50518569D01*
X114420830Y-50552072D01*
X114390885Y-50621154D01*
X114381547Y-50727889D01*
X114399041Y-50801121D01*
X114419647Y-50838774D01*
X114463972Y-50878503D01*
X114653723Y-50895104D01*
X114094990Y-50451863D02*
X114000114Y-50443563D01*
X113949564Y-50474991D01*
X113895901Y-50541998D01*
X113859731Y-50682236D01*
X113837942Y-50931285D01*
X113849210Y-51075673D01*
X113890422Y-51150980D01*
X113934748Y-51190709D01*
X114029623Y-51199009D01*
X114080174Y-51167581D01*
X114133837Y-51100575D01*
X114170007Y-50960336D01*
X114191796Y-50711288D01*
X114180528Y-50566899D01*
X114139315Y-50491592D01*
X114094990Y-50451863D01*
X113715487Y-50418661D02*
X113531526Y-51155432D01*
X113483341Y-50613455D01*
X113341775Y-51138831D01*
X113288547Y-50381309D01*
X112772520Y-51089027D02*
X113057147Y-51113929D01*
X112914834Y-51101478D02*
X112980201Y-50354332D01*
X113018300Y-50465217D01*
X113059513Y-50540524D01*
X113103838Y-50580253D01*
D11*
G04 #@! TO.C,SW1*
X118080909Y-66366173D02*
X118454477Y-65920847D01*
X118650163Y-66415977D02*
X118737319Y-65419782D01*
X118357816Y-65386580D01*
X118258790Y-65425717D01*
X118207202Y-65469005D01*
X118151464Y-65559730D01*
X118139013Y-65702044D01*
X118178150Y-65801070D01*
X118221438Y-65852658D01*
X118312163Y-65908396D01*
X118691666Y-65941598D01*
X117699622Y-65807005D02*
X117367557Y-65777953D01*
X117179590Y-66287318D02*
X117653969Y-66328821D01*
X117741124Y-65332626D01*
X117266746Y-65291123D01*
X116804238Y-66206678D02*
X116657774Y-66241665D01*
X116420585Y-66220914D01*
X116329859Y-66165175D01*
X116286572Y-66113587D01*
X116247434Y-66014561D01*
X116255735Y-65919686D01*
X116311473Y-65828960D01*
X116363061Y-65785673D01*
X116462087Y-65746535D01*
X116655989Y-65715699D01*
X116755015Y-65676561D01*
X116806603Y-65633274D01*
X116862341Y-65542548D01*
X116870642Y-65447673D01*
X116831505Y-65348647D01*
X116788217Y-65297059D01*
X116697492Y-65241320D01*
X116460303Y-65220569D01*
X116313839Y-65255556D01*
X115849546Y-65645144D02*
X115517481Y-65616092D01*
X115329514Y-66125457D02*
X115803893Y-66166960D01*
X115891048Y-65170766D01*
X115416670Y-65129263D01*
X115132043Y-65104361D02*
X114562789Y-65054558D01*
X114760260Y-66075654D02*
X114847416Y-65079460D01*
G04 #@! TD*
M02*
