G04 #@! TF.GenerationSoftware,KiCad,Pcbnew,(5.0.1)-4*
G04 #@! TF.CreationDate,2018-12-04T01:58:54+09:00*
G04 #@! TF.ProjectId,va4,7661342E6B696361645F706362000000,rev?*
G04 #@! TF.SameCoordinates,Original*
G04 #@! TF.FileFunction,Legend,Top*
G04 #@! TF.FilePolarity,Positive*
%FSLAX46Y46*%
G04 Gerber Fmt 4.6, Leading zero omitted, Abs format (unit mm)*
G04 Created by KiCad (PCBNEW (5.0.1)-4) date 04/12/2018 01:58:54*
%MOMM*%
%LPD*%
G01*
G04 APERTURE LIST*
%ADD10C,0.300000*%
%ADD11C,0.150000*%
%ADD12C,0.010000*%
%ADD13C,0.125000*%
G04 APERTURE END LIST*
D10*
X50707142Y-62478571D02*
X51064285Y-63478571D01*
X51421428Y-62478571D01*
X52635714Y-63478571D02*
X52635714Y-62692857D01*
X52564285Y-62550000D01*
X52421428Y-62478571D01*
X52135714Y-62478571D01*
X51992857Y-62550000D01*
X52635714Y-63407142D02*
X52492857Y-63478571D01*
X52135714Y-63478571D01*
X51992857Y-63407142D01*
X51921428Y-63264285D01*
X51921428Y-63121428D01*
X51992857Y-62978571D01*
X52135714Y-62907142D01*
X52492857Y-62907142D01*
X52635714Y-62835714D01*
X53992857Y-62478571D02*
X53992857Y-63478571D01*
X53635714Y-61907142D02*
X53278571Y-62978571D01*
X54207142Y-62978571D01*
X56850000Y-62764285D02*
X56778571Y-62692857D01*
X56635714Y-62621428D01*
X56492857Y-62621428D01*
X56350000Y-62692857D01*
X56278571Y-62764285D01*
X56207142Y-62907142D01*
X56207142Y-63050000D01*
X56278571Y-63192857D01*
X56350000Y-63264285D01*
X56492857Y-63335714D01*
X56635714Y-63335714D01*
X56778571Y-63264285D01*
X56850000Y-63192857D01*
X56850000Y-62621428D02*
X56850000Y-63192857D01*
X56921428Y-63264285D01*
X56992857Y-63264285D01*
X57135714Y-63192857D01*
X57207142Y-63050000D01*
X57207142Y-62692857D01*
X57064285Y-62478571D01*
X56850000Y-62335714D01*
X56564285Y-62264285D01*
X56278571Y-62335714D01*
X56064285Y-62478571D01*
X55921428Y-62692857D01*
X55850000Y-62978571D01*
X55921428Y-63264285D01*
X56064285Y-63478571D01*
X56278571Y-63621428D01*
X56564285Y-63692857D01*
X56850000Y-63621428D01*
X57064285Y-63478571D01*
X57635714Y-62478571D02*
X58207142Y-62478571D01*
X57850000Y-61978571D02*
X57850000Y-63264285D01*
X57921428Y-63407142D01*
X58064285Y-63478571D01*
X58207142Y-63478571D01*
X58921428Y-63478571D02*
X58778571Y-63407142D01*
X58707142Y-63335714D01*
X58635714Y-63192857D01*
X58635714Y-62764285D01*
X58707142Y-62621428D01*
X58778571Y-62550000D01*
X58921428Y-62478571D01*
X59135714Y-62478571D01*
X59278571Y-62550000D01*
X59350000Y-62621428D01*
X59421428Y-62764285D01*
X59421428Y-63192857D01*
X59350000Y-63335714D01*
X59278571Y-63407142D01*
X59135714Y-63478571D01*
X58921428Y-63478571D01*
X60064285Y-63478571D02*
X60064285Y-61978571D01*
X60064285Y-62550000D02*
X60207142Y-62478571D01*
X60492857Y-62478571D01*
X60635714Y-62550000D01*
X60707142Y-62621428D01*
X60778571Y-62764285D01*
X60778571Y-63192857D01*
X60707142Y-63335714D01*
X60635714Y-63407142D01*
X60492857Y-63478571D01*
X60207142Y-63478571D01*
X60064285Y-63407142D01*
X61278571Y-62478571D02*
X61635714Y-63478571D01*
X61992857Y-62478571D02*
X61635714Y-63478571D01*
X61492857Y-63835714D01*
X61421428Y-63907142D01*
X61278571Y-63978571D01*
X62207142Y-63621428D02*
X63350000Y-63621428D01*
X63707142Y-62478571D02*
X63707142Y-63478571D01*
X63707142Y-62621428D02*
X63778571Y-62550000D01*
X63921428Y-62478571D01*
X64135714Y-62478571D01*
X64278571Y-62550000D01*
X64350000Y-62692857D01*
X64350000Y-63478571D01*
X65635714Y-63407142D02*
X65492857Y-63478571D01*
X65207142Y-63478571D01*
X65064285Y-63407142D01*
X64992857Y-63264285D01*
X64992857Y-62692857D01*
X65064285Y-62550000D01*
X65207142Y-62478571D01*
X65492857Y-62478571D01*
X65635714Y-62550000D01*
X65707142Y-62692857D01*
X65707142Y-62835714D01*
X64992857Y-62978571D01*
X66135714Y-62478571D02*
X66707142Y-62478571D01*
X66349999Y-61978571D02*
X66349999Y-63264285D01*
X66421428Y-63407142D01*
X66564285Y-63478571D01*
X66707142Y-63478571D01*
X68207142Y-62478571D02*
X68564285Y-63478571D01*
X68921428Y-62478571D01*
X69778571Y-61978571D02*
X69921428Y-61978571D01*
X70064285Y-62050000D01*
X70135714Y-62121428D01*
X70207142Y-62264285D01*
X70278571Y-62550000D01*
X70278571Y-62907142D01*
X70207142Y-63192857D01*
X70135714Y-63335714D01*
X70064285Y-63407142D01*
X69921428Y-63478571D01*
X69778571Y-63478571D01*
X69635714Y-63407142D01*
X69564285Y-63335714D01*
X69492857Y-63192857D01*
X69421428Y-62907142D01*
X69421428Y-62550000D01*
X69492857Y-62264285D01*
X69564285Y-62121428D01*
X69635714Y-62050000D01*
X69778571Y-61978571D01*
X70921428Y-63335714D02*
X70992857Y-63407142D01*
X70921428Y-63478571D01*
X70850000Y-63407142D01*
X70921428Y-63335714D01*
X70921428Y-63478571D01*
X71564285Y-62121428D02*
X71635714Y-62050000D01*
X71778571Y-61978571D01*
X72135714Y-61978571D01*
X72278571Y-62050000D01*
X72350000Y-62121428D01*
X72421428Y-62264285D01*
X72421428Y-62407142D01*
X72350000Y-62621428D01*
X71492857Y-63478571D01*
X72421428Y-63478571D01*
D11*
G04 #@! TO.C,J2*
X134661467Y-66611416D02*
X134138533Y-72588584D01*
X134138533Y-72588584D02*
X122184196Y-71542715D01*
X122184196Y-71542715D02*
X122707131Y-65565547D01*
X122707131Y-65565547D02*
X134661467Y-66611416D01*
G04 #@! TO.C,D4*
X107400481Y-82763269D02*
X108699519Y-83513269D01*
X110100481Y-78086731D02*
X107400481Y-82763269D01*
X111399519Y-78836731D02*
X110100481Y-78086731D01*
X108699519Y-83513269D02*
X111399519Y-78836731D01*
X110083013Y-80616987D02*
X109216987Y-80116987D01*
X108716987Y-80983013D02*
X109600000Y-80453590D01*
X109583013Y-81483013D02*
X108716987Y-80983013D01*
X109600000Y-80453590D02*
X109583013Y-81483013D01*
G04 #@! TO.C,D3*
X98986370Y-68703528D02*
X97987628Y-68953553D01*
X97987628Y-68953553D02*
X98246447Y-67987628D01*
X98246447Y-67987628D02*
X98986370Y-68703528D01*
X98953553Y-69212372D02*
X99212372Y-68246447D01*
X95797886Y-68625633D02*
X101013885Y-70023256D01*
X101013885Y-70023256D02*
X101402114Y-68574367D01*
X101402114Y-68574367D02*
X96186115Y-67176744D01*
X96186115Y-67176744D02*
X95797886Y-68625633D01*
G04 #@! TO.C,D2*
X72500000Y-65050000D02*
X72500000Y-66550000D01*
X77900000Y-65050000D02*
X72500000Y-65050000D01*
X77900000Y-66550000D02*
X77900000Y-65050000D01*
X72500000Y-66550000D02*
X77900000Y-66550000D01*
X75700000Y-66300000D02*
X75700000Y-65300000D01*
X74700000Y-65300000D02*
X75600000Y-65800000D01*
X74700000Y-66300000D02*
X74700000Y-65300000D01*
X75600000Y-65800000D02*
X74700000Y-66300000D01*
G04 #@! TO.C,D1*
X56400000Y-65800000D02*
X55500000Y-66300000D01*
X55500000Y-66300000D02*
X55500000Y-65300000D01*
X55500000Y-65300000D02*
X56400000Y-65800000D01*
X56500000Y-66300000D02*
X56500000Y-65300000D01*
X53300000Y-66550000D02*
X58700000Y-66550000D01*
X58700000Y-66550000D02*
X58700000Y-65050000D01*
X58700000Y-65050000D02*
X53300000Y-65050000D01*
X53300000Y-65050000D02*
X53300000Y-66550000D01*
G04 #@! TO.C,U1*
X130478119Y-62432552D02*
X133134626Y-32068537D01*
X133008454Y-62653927D02*
X130478119Y-62432552D01*
X135664961Y-32289913D02*
X133008454Y-62653927D01*
X133134626Y-32068537D02*
X135664961Y-32289913D01*
X115316036Y-61106041D02*
X117972543Y-30742027D01*
X117846371Y-61327417D02*
X115316036Y-61106041D01*
X120502878Y-30963403D02*
X117846371Y-61327417D01*
X117972543Y-30742027D02*
X120502878Y-30963403D01*
G04 #@! TO.C,SW1*
X119941107Y-64318127D02*
X113963938Y-63795192D01*
X113963938Y-63795192D02*
X113942150Y-64044241D01*
X119941107Y-64318127D02*
X119919318Y-64567175D01*
X119636062Y-67804808D02*
X119657850Y-67555759D01*
X119636062Y-67804808D02*
X113658893Y-67281873D01*
X113658893Y-67281873D02*
X113680682Y-67032825D01*
D12*
G04 #@! TO.C,G\002A\002A\002A*
G36*
X110779120Y-68360058D02*
X110979130Y-68376404D01*
X111228680Y-68412052D01*
X111501541Y-68462528D01*
X111771485Y-68523366D01*
X112012285Y-68590094D01*
X112068317Y-68608343D01*
X112312327Y-68701039D01*
X112562160Y-68811912D01*
X112764950Y-68917449D01*
X112770084Y-68920482D01*
X113061186Y-69093389D01*
X112745762Y-69643018D01*
X112621388Y-69856575D01*
X112515452Y-70032546D01*
X112439123Y-70152785D01*
X112403568Y-70199143D01*
X112403485Y-70199165D01*
X112351020Y-70171348D01*
X112253739Y-70094087D01*
X112222486Y-70066481D01*
X111936923Y-69838764D01*
X111592021Y-69609709D01*
X111227883Y-69403406D01*
X110884611Y-69243944D01*
X110799110Y-69211473D01*
X110343133Y-69048604D01*
X110453533Y-68720226D01*
X110528907Y-68533212D01*
X110604959Y-68407441D01*
X110654878Y-68367480D01*
X110779120Y-68360058D01*
X110779120Y-68360058D01*
G37*
X110779120Y-68360058D02*
X110979130Y-68376404D01*
X111228680Y-68412052D01*
X111501541Y-68462528D01*
X111771485Y-68523366D01*
X112012285Y-68590094D01*
X112068317Y-68608343D01*
X112312327Y-68701039D01*
X112562160Y-68811912D01*
X112764950Y-68917449D01*
X112770084Y-68920482D01*
X113061186Y-69093389D01*
X112745762Y-69643018D01*
X112621388Y-69856575D01*
X112515452Y-70032546D01*
X112439123Y-70152785D01*
X112403568Y-70199143D01*
X112403485Y-70199165D01*
X112351020Y-70171348D01*
X112253739Y-70094087D01*
X112222486Y-70066481D01*
X111936923Y-69838764D01*
X111592021Y-69609709D01*
X111227883Y-69403406D01*
X110884611Y-69243944D01*
X110799110Y-69211473D01*
X110343133Y-69048604D01*
X110453533Y-68720226D01*
X110528907Y-68533212D01*
X110604959Y-68407441D01*
X110654878Y-68367480D01*
X110779120Y-68360058D01*
G36*
X110190034Y-69293289D02*
X110390179Y-69329571D01*
X110636380Y-69395683D01*
X110903732Y-69484121D01*
X111167328Y-69587386D01*
X111402264Y-69697976D01*
X111404136Y-69698962D01*
X111641633Y-69832769D01*
X111885845Y-69984121D01*
X112089802Y-70123688D01*
X112117230Y-70144239D01*
X112410449Y-70368017D01*
X112072366Y-70907724D01*
X111939191Y-71118501D01*
X111825958Y-71294308D01*
X111744584Y-71416877D01*
X111706985Y-71467935D01*
X111706891Y-71468008D01*
X111656918Y-71446768D01*
X111563060Y-71369136D01*
X111517222Y-71324731D01*
X111284852Y-71111473D01*
X110989582Y-70872021D01*
X110662226Y-70629358D01*
X110333600Y-70406465D01*
X110074456Y-70248679D01*
X109615531Y-69988165D01*
X109791737Y-69653338D01*
X109891584Y-69483857D01*
X109987101Y-69355574D01*
X110058347Y-69295091D01*
X110060851Y-69294340D01*
X110190034Y-69293289D01*
X110190034Y-69293289D01*
G37*
X110190034Y-69293289D02*
X110390179Y-69329571D01*
X110636380Y-69395683D01*
X110903732Y-69484121D01*
X111167328Y-69587386D01*
X111402264Y-69697976D01*
X111404136Y-69698962D01*
X111641633Y-69832769D01*
X111885845Y-69984121D01*
X112089802Y-70123688D01*
X112117230Y-70144239D01*
X112410449Y-70368017D01*
X112072366Y-70907724D01*
X111939191Y-71118501D01*
X111825958Y-71294308D01*
X111744584Y-71416877D01*
X111706985Y-71467935D01*
X111706891Y-71468008D01*
X111656918Y-71446768D01*
X111563060Y-71369136D01*
X111517222Y-71324731D01*
X111284852Y-71111473D01*
X110989582Y-70872021D01*
X110662226Y-70629358D01*
X110333600Y-70406465D01*
X110074456Y-70248679D01*
X109615531Y-69988165D01*
X109791737Y-69653338D01*
X109891584Y-69483857D01*
X109987101Y-69355574D01*
X110058347Y-69295091D01*
X110060851Y-69294340D01*
X110190034Y-69293289D01*
G36*
X109768826Y-71221425D02*
X109919727Y-71272371D01*
X110127927Y-71364567D01*
X110377888Y-71489530D01*
X110654066Y-71638778D01*
X110940921Y-71803826D01*
X111222911Y-71976192D01*
X111484497Y-72147393D01*
X111710134Y-72308947D01*
X111768687Y-72354418D01*
X112029676Y-72569702D01*
X112336274Y-72834981D01*
X112659993Y-73124688D01*
X112972342Y-73413256D01*
X113244829Y-73675118D01*
X113286027Y-73716028D01*
X113518772Y-73956674D01*
X113772901Y-74233390D01*
X114038036Y-74533472D01*
X114303802Y-74844215D01*
X114559824Y-75152915D01*
X114795727Y-75446867D01*
X115001133Y-75713367D01*
X115165670Y-75939710D01*
X115278958Y-76113192D01*
X115330044Y-76218843D01*
X115388416Y-76340045D01*
X115438756Y-76405919D01*
X115485921Y-76476668D01*
X115485633Y-76554120D01*
X115429329Y-76653780D01*
X115308443Y-76791147D01*
X115127444Y-76969292D01*
X114990641Y-77091742D01*
X114815429Y-77237255D01*
X114623294Y-77389372D01*
X114435724Y-77531632D01*
X114274205Y-77647573D01*
X114160228Y-77720737D01*
X114125582Y-77736781D01*
X114095573Y-77695034D01*
X114024267Y-77578120D01*
X113921915Y-77403298D01*
X113798767Y-77187836D01*
X113781799Y-77157800D01*
X113654578Y-76928959D01*
X113546538Y-76728331D01*
X113468577Y-76576594D01*
X113431589Y-76494421D01*
X113430771Y-76491644D01*
X113394471Y-76419125D01*
X113310122Y-76277518D01*
X113189160Y-76085273D01*
X113043020Y-75860836D01*
X112993946Y-75786940D01*
X112658218Y-75316537D01*
X112266750Y-74822418D01*
X111843627Y-74332164D01*
X111412935Y-73873348D01*
X110998759Y-73473550D01*
X110885747Y-73373080D01*
X110661835Y-73178302D01*
X110442412Y-72987334D01*
X110252497Y-72821957D01*
X110117113Y-72703953D01*
X110115840Y-72702842D01*
X109952150Y-72566647D01*
X109744130Y-72402613D01*
X109533929Y-72243901D01*
X109512698Y-72228347D01*
X109346269Y-72102523D01*
X109217584Y-71997017D01*
X109147319Y-71929100D01*
X109140319Y-71917250D01*
X109167478Y-71859376D01*
X109245107Y-71746461D01*
X109353861Y-71603007D01*
X109474392Y-71453508D01*
X109587356Y-71322464D01*
X109673406Y-71234375D01*
X109690769Y-71220212D01*
X109768826Y-71221425D01*
X109768826Y-71221425D01*
G37*
X109768826Y-71221425D02*
X109919727Y-71272371D01*
X110127927Y-71364567D01*
X110377888Y-71489530D01*
X110654066Y-71638778D01*
X110940921Y-71803826D01*
X111222911Y-71976192D01*
X111484497Y-72147393D01*
X111710134Y-72308947D01*
X111768687Y-72354418D01*
X112029676Y-72569702D01*
X112336274Y-72834981D01*
X112659993Y-73124688D01*
X112972342Y-73413256D01*
X113244829Y-73675118D01*
X113286027Y-73716028D01*
X113518772Y-73956674D01*
X113772901Y-74233390D01*
X114038036Y-74533472D01*
X114303802Y-74844215D01*
X114559824Y-75152915D01*
X114795727Y-75446867D01*
X115001133Y-75713367D01*
X115165670Y-75939710D01*
X115278958Y-76113192D01*
X115330044Y-76218843D01*
X115388416Y-76340045D01*
X115438756Y-76405919D01*
X115485921Y-76476668D01*
X115485633Y-76554120D01*
X115429329Y-76653780D01*
X115308443Y-76791147D01*
X115127444Y-76969292D01*
X114990641Y-77091742D01*
X114815429Y-77237255D01*
X114623294Y-77389372D01*
X114435724Y-77531632D01*
X114274205Y-77647573D01*
X114160228Y-77720737D01*
X114125582Y-77736781D01*
X114095573Y-77695034D01*
X114024267Y-77578120D01*
X113921915Y-77403298D01*
X113798767Y-77187836D01*
X113781799Y-77157800D01*
X113654578Y-76928959D01*
X113546538Y-76728331D01*
X113468577Y-76576594D01*
X113431589Y-76494421D01*
X113430771Y-76491644D01*
X113394471Y-76419125D01*
X113310122Y-76277518D01*
X113189160Y-76085273D01*
X113043020Y-75860836D01*
X112993946Y-75786940D01*
X112658218Y-75316537D01*
X112266750Y-74822418D01*
X111843627Y-74332164D01*
X111412935Y-73873348D01*
X110998759Y-73473550D01*
X110885747Y-73373080D01*
X110661835Y-73178302D01*
X110442412Y-72987334D01*
X110252497Y-72821957D01*
X110117113Y-72703953D01*
X110115840Y-72702842D01*
X109952150Y-72566647D01*
X109744130Y-72402613D01*
X109533929Y-72243901D01*
X109512698Y-72228347D01*
X109346269Y-72102523D01*
X109217584Y-71997017D01*
X109147319Y-71929100D01*
X109140319Y-71917250D01*
X109167478Y-71859376D01*
X109245107Y-71746461D01*
X109353861Y-71603007D01*
X109474392Y-71453508D01*
X109587356Y-71322464D01*
X109673406Y-71234375D01*
X109690769Y-71220212D01*
X109768826Y-71221425D01*
G36*
X106354581Y-72283457D02*
X106534824Y-72302109D01*
X106772350Y-72337770D01*
X107044367Y-72386505D01*
X107328082Y-72444379D01*
X107600704Y-72507455D01*
X107726461Y-72539911D01*
X108019600Y-72619442D01*
X108226124Y-72677828D01*
X108361781Y-72720799D01*
X108442322Y-72754083D01*
X108483494Y-72783413D01*
X108501048Y-72814517D01*
X108503419Y-72822594D01*
X108497832Y-72890785D01*
X108472760Y-73047956D01*
X108430907Y-73279600D01*
X108374974Y-73571216D01*
X108307661Y-73908299D01*
X108240152Y-74235846D01*
X107959335Y-75429698D01*
X107632656Y-76538415D01*
X107255890Y-77574162D01*
X106824816Y-78549098D01*
X106565833Y-79058572D01*
X106428677Y-79302298D01*
X106280089Y-79543656D01*
X106132693Y-79764513D01*
X105999117Y-79946730D01*
X105891985Y-80072175D01*
X105825163Y-80122482D01*
X105755328Y-80116536D01*
X105608448Y-80092265D01*
X105410808Y-80054214D01*
X105313478Y-80034052D01*
X105104801Y-79989094D01*
X104938641Y-79951790D01*
X104839852Y-79927785D01*
X104823892Y-79922773D01*
X104822679Y-79871662D01*
X104845758Y-79807908D01*
X104900422Y-79667994D01*
X104921386Y-79600998D01*
X104950112Y-79519143D01*
X105011846Y-79357555D01*
X105099456Y-79134423D01*
X105205812Y-78867943D01*
X105302424Y-78628823D01*
X105476349Y-78184454D01*
X105647111Y-77718291D01*
X105807027Y-77253512D01*
X105948412Y-76813289D01*
X106063586Y-76420796D01*
X106144864Y-76099207D01*
X106152116Y-76065820D01*
X106209101Y-75777774D01*
X106267130Y-75449836D01*
X106323793Y-75099727D01*
X106376680Y-74745167D01*
X106423380Y-74403878D01*
X106461484Y-74093580D01*
X106488582Y-73831993D01*
X106502264Y-73636838D01*
X106500120Y-73525836D01*
X106498541Y-73518461D01*
X106426040Y-73391279D01*
X106290223Y-73251713D01*
X106124528Y-73130258D01*
X106009867Y-73072804D01*
X105849127Y-73010872D01*
X106017777Y-72657419D01*
X106108461Y-72483165D01*
X106191248Y-72351329D01*
X106249782Y-72287603D01*
X106254413Y-72285750D01*
X106354581Y-72283457D01*
X106354581Y-72283457D01*
G37*
X106354581Y-72283457D02*
X106534824Y-72302109D01*
X106772350Y-72337770D01*
X107044367Y-72386505D01*
X107328082Y-72444379D01*
X107600704Y-72507455D01*
X107726461Y-72539911D01*
X108019600Y-72619442D01*
X108226124Y-72677828D01*
X108361781Y-72720799D01*
X108442322Y-72754083D01*
X108483494Y-72783413D01*
X108501048Y-72814517D01*
X108503419Y-72822594D01*
X108497832Y-72890785D01*
X108472760Y-73047956D01*
X108430907Y-73279600D01*
X108374974Y-73571216D01*
X108307661Y-73908299D01*
X108240152Y-74235846D01*
X107959335Y-75429698D01*
X107632656Y-76538415D01*
X107255890Y-77574162D01*
X106824816Y-78549098D01*
X106565833Y-79058572D01*
X106428677Y-79302298D01*
X106280089Y-79543656D01*
X106132693Y-79764513D01*
X105999117Y-79946730D01*
X105891985Y-80072175D01*
X105825163Y-80122482D01*
X105755328Y-80116536D01*
X105608448Y-80092265D01*
X105410808Y-80054214D01*
X105313478Y-80034052D01*
X105104801Y-79989094D01*
X104938641Y-79951790D01*
X104839852Y-79927785D01*
X104823892Y-79922773D01*
X104822679Y-79871662D01*
X104845758Y-79807908D01*
X104900422Y-79667994D01*
X104921386Y-79600998D01*
X104950112Y-79519143D01*
X105011846Y-79357555D01*
X105099456Y-79134423D01*
X105205812Y-78867943D01*
X105302424Y-78628823D01*
X105476349Y-78184454D01*
X105647111Y-77718291D01*
X105807027Y-77253512D01*
X105948412Y-76813289D01*
X106063586Y-76420796D01*
X106144864Y-76099207D01*
X106152116Y-76065820D01*
X106209101Y-75777774D01*
X106267130Y-75449836D01*
X106323793Y-75099727D01*
X106376680Y-74745167D01*
X106423380Y-74403878D01*
X106461484Y-74093580D01*
X106488582Y-73831993D01*
X106502264Y-73636838D01*
X106500120Y-73525836D01*
X106498541Y-73518461D01*
X106426040Y-73391279D01*
X106290223Y-73251713D01*
X106124528Y-73130258D01*
X106009867Y-73072804D01*
X105849127Y-73010872D01*
X106017777Y-72657419D01*
X106108461Y-72483165D01*
X106191248Y-72351329D01*
X106249782Y-72287603D01*
X106254413Y-72285750D01*
X106354581Y-72283457D01*
G04 #@! TO.C,J2*
D11*
X127340815Y-69998171D02*
X127390618Y-69428916D01*
X128361912Y-69800699D02*
X127365717Y-69713543D01*
X128465668Y-68614753D02*
X127962238Y-68905315D01*
X128415865Y-69184007D02*
X127419670Y-69096852D01*
X127452873Y-68717349D01*
X127508611Y-68626623D01*
X127560199Y-68583336D01*
X127659225Y-68544199D01*
X127801539Y-68556649D01*
X127892264Y-68612388D01*
X127935552Y-68663976D01*
X127974689Y-68763002D01*
X127941487Y-69142505D01*
X128552824Y-67618558D02*
X128049394Y-67909121D01*
X128503021Y-68187813D02*
X127506826Y-68100657D01*
X127540028Y-67721154D01*
X127595767Y-67630429D01*
X127647355Y-67587141D01*
X127746381Y-67548004D01*
X127888694Y-67560455D01*
X127979420Y-67616193D01*
X128022707Y-67667781D01*
X128061845Y-67766807D01*
X128028642Y-68146310D01*
X128538588Y-67234905D02*
X128598477Y-67096742D01*
X128619228Y-66859553D01*
X128580091Y-66760527D01*
X128536804Y-66708939D01*
X128446078Y-66653201D01*
X128351203Y-66644900D01*
X128252177Y-66684037D01*
X128200588Y-66727325D01*
X128144850Y-66818050D01*
X128080811Y-67003651D01*
X128025073Y-67094377D01*
X127973485Y-67137664D01*
X127874459Y-67176802D01*
X127779583Y-67168501D01*
X127688858Y-67112763D01*
X127645570Y-67061175D01*
X127606433Y-66962149D01*
X127627184Y-66724959D01*
X127687073Y-66586796D01*
G04 #@! TO.C,U1*
D13*
X129684111Y-51230006D02*
X129549206Y-50859696D01*
X129399484Y-51205104D02*
X129464851Y-50457958D01*
X129654603Y-50474559D01*
X129698928Y-50514288D01*
X129719534Y-50551942D01*
X129737027Y-50625174D01*
X129727689Y-50731909D01*
X129697745Y-50800990D01*
X129670913Y-50834494D01*
X129620363Y-50865922D01*
X129430611Y-50849321D01*
X130057824Y-50509837D02*
X130152700Y-50518137D01*
X130197025Y-50557866D01*
X130238237Y-50633173D01*
X130249506Y-50777562D01*
X130227717Y-51026610D01*
X130191547Y-51166849D01*
X130137884Y-51233855D01*
X130087333Y-51265283D01*
X129992457Y-51256983D01*
X129948132Y-51217254D01*
X129906920Y-51141947D01*
X129895652Y-50997558D01*
X129917441Y-50748510D01*
X129953610Y-50608271D01*
X130007274Y-50541265D01*
X130057824Y-50509837D01*
X130437327Y-50543039D02*
X130490555Y-51300561D01*
X130632121Y-50775185D01*
X130680306Y-51317162D01*
X130864267Y-50580391D01*
X131249560Y-51366965D02*
X130964933Y-51342063D01*
X131107247Y-51354514D02*
X131172613Y-50607368D01*
X131115838Y-50709953D01*
X131062174Y-50776960D01*
X131011624Y-50808388D01*
X114409121Y-52379648D02*
X114382289Y-52413151D01*
X114308020Y-52442504D01*
X114260582Y-52438354D01*
X114192538Y-52396550D01*
X114151326Y-52321243D01*
X114133832Y-52248011D01*
X114122564Y-52103623D01*
X114131902Y-51996888D01*
X114168072Y-51856649D01*
X114198016Y-51787568D01*
X114251679Y-51720561D01*
X114325949Y-51691208D01*
X114373387Y-51695358D01*
X114441431Y-51737162D01*
X114462037Y-51774816D01*
X114776608Y-51730636D02*
X114871484Y-51738936D01*
X114915809Y-51778665D01*
X114957022Y-51853972D01*
X114968290Y-51998361D01*
X114946501Y-52247409D01*
X114910331Y-52387648D01*
X114856668Y-52454654D01*
X114806117Y-52486082D01*
X114711242Y-52477782D01*
X114666916Y-52438053D01*
X114625704Y-52362746D01*
X114614436Y-52218357D01*
X114636225Y-51969309D01*
X114672395Y-51829070D01*
X114726058Y-51762064D01*
X114776608Y-51730636D01*
X115375371Y-52535886D02*
X115138182Y-52515134D01*
X115203549Y-51767988D01*
X115798452Y-52070990D02*
X115754874Y-52569088D01*
X115704759Y-51775988D02*
X115539474Y-52299288D01*
X115847820Y-52326265D01*
X129412228Y-53763952D02*
X129277323Y-53393642D01*
X129127601Y-53739050D02*
X129192968Y-52991904D01*
X129382720Y-53008505D01*
X129427045Y-53048234D01*
X129447651Y-53085888D01*
X129465144Y-53159120D01*
X129455806Y-53265855D01*
X129425862Y-53334936D01*
X129399030Y-53368440D01*
X129348480Y-53399868D01*
X129158728Y-53383267D01*
X129785941Y-53043783D02*
X129880817Y-53052083D01*
X129925142Y-53091812D01*
X129966354Y-53167119D01*
X129977623Y-53311508D01*
X129955834Y-53560556D01*
X129919664Y-53700795D01*
X129866001Y-53767801D01*
X129815450Y-53799229D01*
X129720574Y-53790929D01*
X129676249Y-53751200D01*
X129635037Y-53675893D01*
X129623769Y-53531504D01*
X129645558Y-53282456D01*
X129681727Y-53142217D01*
X129735391Y-53075211D01*
X129785941Y-53043783D01*
X130165444Y-53076985D02*
X130218672Y-53834507D01*
X130360238Y-53309131D01*
X130408423Y-53851108D01*
X130592384Y-53114337D01*
X130752192Y-53200020D02*
X130779023Y-53166517D01*
X130829574Y-53135089D01*
X130948168Y-53145464D01*
X130992493Y-53185193D01*
X131013100Y-53222847D01*
X131030593Y-53296079D01*
X131024368Y-53367235D01*
X130991311Y-53471895D01*
X130669331Y-53873934D01*
X130977677Y-53900911D01*
X114182908Y-54965272D02*
X114156076Y-54998775D01*
X114081807Y-55028128D01*
X114034369Y-55023978D01*
X113966325Y-54982174D01*
X113925113Y-54906867D01*
X113907619Y-54833635D01*
X113896351Y-54689247D01*
X113905689Y-54582512D01*
X113941859Y-54442273D01*
X113971803Y-54373192D01*
X114025466Y-54306185D01*
X114099736Y-54276832D01*
X114147174Y-54280982D01*
X114215218Y-54322786D01*
X114235824Y-54360440D01*
X114550395Y-54316260D02*
X114645271Y-54324560D01*
X114689596Y-54364289D01*
X114730809Y-54439596D01*
X114742077Y-54583985D01*
X114720288Y-54833033D01*
X114684118Y-54973272D01*
X114630455Y-55040278D01*
X114579904Y-55071706D01*
X114485029Y-55063406D01*
X114440703Y-55023677D01*
X114399491Y-54948370D01*
X114388223Y-54803981D01*
X114410012Y-54554933D01*
X114446182Y-54414694D01*
X114499845Y-54347688D01*
X114550395Y-54316260D01*
X115149158Y-55121510D02*
X114911969Y-55100758D01*
X114977336Y-54353612D01*
X115617747Y-54409641D02*
X115380558Y-54388890D01*
X115325712Y-54742598D01*
X115352543Y-54709095D01*
X115403094Y-54677667D01*
X115521688Y-54688043D01*
X115566014Y-54727771D01*
X115586620Y-54765425D01*
X115604113Y-54838657D01*
X115588550Y-55016549D01*
X115558605Y-55085630D01*
X115531774Y-55119133D01*
X115481223Y-55150562D01*
X115362629Y-55140186D01*
X115318304Y-55100457D01*
X115297697Y-55062804D01*
X129186016Y-56349575D02*
X129051111Y-55979265D01*
X128901389Y-56324673D02*
X128966756Y-55577527D01*
X129156508Y-55594128D01*
X129200833Y-55633857D01*
X129221439Y-55671511D01*
X129238932Y-55744743D01*
X129229594Y-55851478D01*
X129199650Y-55920559D01*
X129172818Y-55954063D01*
X129122268Y-55985491D01*
X128932516Y-55968890D01*
X129559729Y-55629406D02*
X129654605Y-55637706D01*
X129698930Y-55677435D01*
X129740142Y-55752742D01*
X129751411Y-55897131D01*
X129729622Y-56146179D01*
X129693452Y-56286418D01*
X129639789Y-56353424D01*
X129589238Y-56384852D01*
X129494362Y-56376552D01*
X129450037Y-56336823D01*
X129408825Y-56261516D01*
X129397557Y-56117127D01*
X129419346Y-55868079D01*
X129455515Y-55727840D01*
X129509179Y-55660834D01*
X129559729Y-55629406D01*
X129939232Y-55662608D02*
X129992460Y-56420130D01*
X130134026Y-55894754D01*
X130182211Y-56436731D01*
X130366172Y-55699960D01*
X130508486Y-55712411D02*
X130816832Y-55739388D01*
X130625898Y-56009489D01*
X130697055Y-56015715D01*
X130741380Y-56055443D01*
X130761986Y-56093097D01*
X130779480Y-56166329D01*
X130763916Y-56344221D01*
X130733972Y-56413302D01*
X130707140Y-56446805D01*
X130656590Y-56478233D01*
X130514276Y-56465783D01*
X130469951Y-56426054D01*
X130449345Y-56388400D01*
X114336565Y-57170125D02*
X114404609Y-57211929D01*
X114425215Y-57249583D01*
X114442709Y-57322814D01*
X114433370Y-57429550D01*
X114403426Y-57498631D01*
X114376594Y-57532134D01*
X114326044Y-57563563D01*
X114136293Y-57546962D01*
X114201659Y-56799815D01*
X114367692Y-56814341D01*
X114412017Y-56854070D01*
X114432623Y-56891724D01*
X114450117Y-56964956D01*
X114443891Y-57036112D01*
X114413947Y-57105194D01*
X114387115Y-57138697D01*
X114336565Y-57170125D01*
X114170532Y-57155599D01*
X114669812Y-56912475D02*
X114696644Y-56878972D01*
X114747195Y-56847544D01*
X114865789Y-56857919D01*
X114910114Y-56897648D01*
X114930720Y-56935301D01*
X114948214Y-57008533D01*
X114941989Y-57079690D01*
X114908932Y-57184350D01*
X114586952Y-57586389D01*
X114895298Y-57613366D01*
X129431355Y-58462641D02*
X129499399Y-58504445D01*
X129520005Y-58542099D01*
X129537499Y-58615330D01*
X129528160Y-58722066D01*
X129498216Y-58791147D01*
X129471384Y-58824650D01*
X129420834Y-58856079D01*
X129231083Y-58839478D01*
X129296449Y-58092331D01*
X129462482Y-58106857D01*
X129506807Y-58146586D01*
X129527413Y-58184240D01*
X129544907Y-58257472D01*
X129538681Y-58328628D01*
X129508737Y-58397710D01*
X129481905Y-58431213D01*
X129431355Y-58462641D01*
X129265322Y-58448115D01*
X129986228Y-58403634D02*
X129942650Y-58901732D01*
X129892535Y-58108632D02*
X129727250Y-58631932D01*
X130035596Y-58658908D01*
X129204445Y-61056234D02*
X129272489Y-61098038D01*
X129293095Y-61135692D01*
X129310589Y-61208923D01*
X129301250Y-61315659D01*
X129271306Y-61384740D01*
X129244474Y-61418243D01*
X129193924Y-61449672D01*
X129004173Y-61433071D01*
X129069539Y-60685924D01*
X129235572Y-60700450D01*
X129279897Y-60740179D01*
X129300503Y-60777833D01*
X129317997Y-60851065D01*
X129311771Y-60922221D01*
X129281827Y-60991303D01*
X129254995Y-61024806D01*
X129204445Y-61056234D01*
X129038412Y-61041708D01*
X129804826Y-60750254D02*
X129567637Y-60729502D01*
X129512791Y-61083211D01*
X129539622Y-61049708D01*
X129590173Y-61018280D01*
X129708767Y-61028655D01*
X129753093Y-61068384D01*
X129773699Y-61106038D01*
X129791192Y-61179269D01*
X129775629Y-61357161D01*
X129745684Y-61426243D01*
X129718853Y-61459746D01*
X129668302Y-61491174D01*
X129549708Y-61480799D01*
X129505383Y-61441070D01*
X129484776Y-61403416D01*
X114014699Y-59701706D02*
X114082743Y-59743510D01*
X114103349Y-59781164D01*
X114120843Y-59854395D01*
X114111504Y-59961131D01*
X114081560Y-60030212D01*
X114054728Y-60063715D01*
X114004178Y-60095144D01*
X113814427Y-60078543D01*
X113879793Y-59331396D01*
X114045826Y-59345922D01*
X114090151Y-59385651D01*
X114110757Y-59423305D01*
X114128251Y-59496537D01*
X114122025Y-59567693D01*
X114092081Y-59636775D01*
X114065249Y-59670278D01*
X114014699Y-59701706D01*
X113848666Y-59687180D01*
X114591361Y-59393651D02*
X114496485Y-59385350D01*
X114445935Y-59416778D01*
X114419103Y-59450281D01*
X114362327Y-59552866D01*
X114326157Y-59693105D01*
X114301256Y-59977732D01*
X114318749Y-60050964D01*
X114339355Y-60088617D01*
X114383681Y-60128346D01*
X114478556Y-60136646D01*
X114529107Y-60105218D01*
X114555938Y-60071715D01*
X114585883Y-60002633D01*
X114601446Y-59824741D01*
X114583953Y-59751510D01*
X114563347Y-59713856D01*
X114519021Y-59674127D01*
X114424146Y-59665827D01*
X114373595Y-59697255D01*
X114346764Y-59730758D01*
X114316819Y-59799840D01*
X115343561Y-42272630D02*
X115316729Y-42306133D01*
X115242460Y-42335486D01*
X115195022Y-42331336D01*
X115126978Y-42289532D01*
X115085766Y-42214225D01*
X115068272Y-42140993D01*
X115057004Y-41996605D01*
X115066342Y-41889870D01*
X115102512Y-41749631D01*
X115132456Y-41680550D01*
X115186119Y-41613543D01*
X115260389Y-41584190D01*
X115307827Y-41588340D01*
X115375871Y-41630144D01*
X115396477Y-41667798D01*
X115711048Y-41623618D02*
X115805924Y-41631918D01*
X115850249Y-41671647D01*
X115891462Y-41746954D01*
X115902730Y-41891343D01*
X115880941Y-42140391D01*
X115844771Y-42280630D01*
X115791108Y-42347636D01*
X115740557Y-42379064D01*
X115645682Y-42370764D01*
X115601356Y-42331035D01*
X115560144Y-42255728D01*
X115548876Y-42111339D01*
X115570665Y-41862291D01*
X115606835Y-41722052D01*
X115660498Y-41655046D01*
X115711048Y-41623618D01*
X116309811Y-42428868D02*
X116072622Y-42408116D01*
X116137989Y-41660970D01*
X116636086Y-41704548D02*
X116683524Y-41708698D01*
X116727849Y-41748427D01*
X116748456Y-41786081D01*
X116765949Y-41859312D01*
X116777217Y-42003701D01*
X116761654Y-42181593D01*
X116725484Y-42321831D01*
X116695540Y-42390913D01*
X116668708Y-42424416D01*
X116618157Y-42455844D01*
X116570720Y-42451694D01*
X116526394Y-42411965D01*
X116505788Y-42374312D01*
X116488295Y-42301080D01*
X116477027Y-42156691D01*
X116492590Y-41978799D01*
X116528760Y-41838561D01*
X116558704Y-41769479D01*
X116585536Y-41735976D01*
X116636086Y-41704548D01*
X130585267Y-43623889D02*
X130653311Y-43665693D01*
X130771906Y-43676068D01*
X130822456Y-43644640D01*
X130849288Y-43611137D01*
X130879232Y-43542055D01*
X130885458Y-43470898D01*
X130867964Y-43397667D01*
X130847358Y-43360013D01*
X130803033Y-43320284D01*
X130711270Y-43276405D01*
X130666945Y-43236677D01*
X130646338Y-43199023D01*
X130628845Y-43125791D01*
X130635070Y-43054635D01*
X130665015Y-42985553D01*
X130691846Y-42952050D01*
X130742397Y-42920622D01*
X130860991Y-42930997D01*
X130929035Y-42972801D01*
X131080252Y-43703045D02*
X131145618Y-42955899D01*
X131264213Y-42966275D01*
X131332257Y-43008078D01*
X131373470Y-43083386D01*
X131390963Y-43156617D01*
X131402231Y-43301006D01*
X131392893Y-43407741D01*
X131356723Y-43547980D01*
X131326779Y-43617061D01*
X131273116Y-43684068D01*
X131198846Y-43713421D01*
X131080252Y-43703045D01*
X131573306Y-43531077D02*
X131810496Y-43551829D01*
X131507192Y-43740397D02*
X131738591Y-43007777D01*
X131839257Y-43769449D01*
X115173564Y-44789391D02*
X115146732Y-44822894D01*
X115072463Y-44852247D01*
X115025025Y-44848097D01*
X114956981Y-44806293D01*
X114915769Y-44730986D01*
X114898275Y-44657754D01*
X114887007Y-44513366D01*
X114896345Y-44406631D01*
X114932515Y-44266392D01*
X114962459Y-44197311D01*
X115016122Y-44130304D01*
X115090392Y-44100951D01*
X115137830Y-44105101D01*
X115205874Y-44146905D01*
X115226480Y-44184559D01*
X115541051Y-44140379D02*
X115635927Y-44148679D01*
X115680252Y-44188408D01*
X115721465Y-44263715D01*
X115732733Y-44408104D01*
X115710944Y-44657152D01*
X115674774Y-44797391D01*
X115621111Y-44864397D01*
X115570560Y-44895825D01*
X115475685Y-44887525D01*
X115431359Y-44847796D01*
X115390147Y-44772489D01*
X115378879Y-44628100D01*
X115400668Y-44379052D01*
X115436838Y-44238813D01*
X115490501Y-44171807D01*
X115541051Y-44140379D01*
X116139814Y-44945629D02*
X115902625Y-44924877D01*
X115967992Y-44177731D01*
X116566755Y-44982981D02*
X116282128Y-44958079D01*
X116424441Y-44970530D02*
X116489808Y-44223384D01*
X116433032Y-44325969D01*
X116379369Y-44392976D01*
X116328818Y-44424404D01*
X130375750Y-46155260D02*
X130443795Y-46197064D01*
X130562389Y-46207440D01*
X130612940Y-46176012D01*
X130639771Y-46142508D01*
X130669716Y-46073427D01*
X130675941Y-46002270D01*
X130658448Y-45929038D01*
X130637841Y-45891385D01*
X130593516Y-45851656D01*
X130501753Y-45807777D01*
X130457428Y-45768048D01*
X130436822Y-45730395D01*
X130419328Y-45657163D01*
X130425554Y-45586006D01*
X130455498Y-45516925D01*
X130482330Y-45483421D01*
X130532880Y-45451993D01*
X130651475Y-45462369D01*
X130719519Y-45504173D01*
X131161588Y-46188161D02*
X131134756Y-46221665D01*
X131060486Y-46251018D01*
X131013049Y-46246867D01*
X130945005Y-46205064D01*
X130903792Y-46129757D01*
X130886299Y-46056525D01*
X130875031Y-45912136D01*
X130884369Y-45805401D01*
X130920538Y-45665162D01*
X130950483Y-45596081D01*
X131004146Y-45529074D01*
X131078415Y-45499721D01*
X131125853Y-45503872D01*
X131193897Y-45545675D01*
X131214504Y-45583329D01*
X131606022Y-46298746D02*
X131368832Y-46277994D01*
X131434199Y-45530848D01*
X114902379Y-47315368D02*
X114875547Y-47348871D01*
X114801278Y-47378224D01*
X114753840Y-47374074D01*
X114685796Y-47332270D01*
X114644584Y-47256963D01*
X114627090Y-47183731D01*
X114615822Y-47039343D01*
X114625160Y-46932608D01*
X114661330Y-46792369D01*
X114691274Y-46723288D01*
X114744937Y-46656281D01*
X114819207Y-46626928D01*
X114866645Y-46631078D01*
X114934689Y-46672882D01*
X114955295Y-46710536D01*
X115269866Y-46666356D02*
X115364742Y-46674656D01*
X115409067Y-46714385D01*
X115450280Y-46789692D01*
X115461548Y-46934081D01*
X115439759Y-47183129D01*
X115403589Y-47323368D01*
X115349926Y-47390374D01*
X115299375Y-47421802D01*
X115204500Y-47413502D01*
X115160174Y-47373773D01*
X115118962Y-47298466D01*
X115107694Y-47154077D01*
X115129483Y-46905029D01*
X115165653Y-46764790D01*
X115219316Y-46697784D01*
X115269866Y-46666356D01*
X115868629Y-47471606D02*
X115631440Y-47450854D01*
X115696807Y-46703708D01*
X116070084Y-46808067D02*
X116096916Y-46774564D01*
X116147466Y-46743136D01*
X116266061Y-46753511D01*
X116310386Y-46793240D01*
X116330992Y-46830894D01*
X116348486Y-46904126D01*
X116342261Y-46975282D01*
X116309204Y-47079942D01*
X115987224Y-47481981D01*
X116295570Y-47508958D01*
X129852365Y-48733169D02*
X129717460Y-48362859D01*
X129567738Y-48708267D02*
X129633105Y-47961121D01*
X129822857Y-47977722D01*
X129867182Y-48017451D01*
X129887788Y-48055105D01*
X129905281Y-48128337D01*
X129895943Y-48235072D01*
X129865999Y-48304153D01*
X129839167Y-48337657D01*
X129788617Y-48369085D01*
X129598865Y-48352484D01*
X130226078Y-48013000D02*
X130320954Y-48021300D01*
X130365279Y-48061029D01*
X130406491Y-48136336D01*
X130417760Y-48280725D01*
X130395971Y-48529773D01*
X130359801Y-48670012D01*
X130306138Y-48737018D01*
X130255587Y-48768446D01*
X130160711Y-48760146D01*
X130116386Y-48720417D01*
X130075174Y-48645110D01*
X130063906Y-48500721D01*
X130085695Y-48251673D01*
X130121864Y-48111434D01*
X130175528Y-48044428D01*
X130226078Y-48013000D01*
X130605581Y-48046202D02*
X130658809Y-48803724D01*
X130800375Y-48278348D01*
X130848560Y-48820325D01*
X131032521Y-48083554D01*
X131317149Y-48108456D02*
X131364586Y-48112606D01*
X131408912Y-48152335D01*
X131429518Y-48189988D01*
X131447011Y-48263220D01*
X131458279Y-48407609D01*
X131442716Y-48585501D01*
X131406546Y-48725739D01*
X131376602Y-48794821D01*
X131349770Y-48828324D01*
X131299220Y-48859752D01*
X131251782Y-48855602D01*
X131207457Y-48815873D01*
X131186850Y-48778220D01*
X131169357Y-48704988D01*
X131158089Y-48560599D01*
X131173652Y-48382707D01*
X131209822Y-48242469D01*
X131239766Y-48173387D01*
X131266598Y-48139884D01*
X131317149Y-48108456D01*
X114577200Y-49884804D02*
X114550368Y-49918307D01*
X114476099Y-49947660D01*
X114428661Y-49943510D01*
X114360617Y-49901706D01*
X114319405Y-49826399D01*
X114301911Y-49753167D01*
X114290643Y-49608779D01*
X114299981Y-49502044D01*
X114336151Y-49361805D01*
X114366095Y-49292724D01*
X114419758Y-49225717D01*
X114494028Y-49196364D01*
X114541466Y-49200514D01*
X114609510Y-49242318D01*
X114630116Y-49279972D01*
X114944687Y-49235792D02*
X115039563Y-49244092D01*
X115083888Y-49283821D01*
X115125101Y-49359128D01*
X115136369Y-49503517D01*
X115114580Y-49752565D01*
X115078410Y-49892804D01*
X115024747Y-49959810D01*
X114974196Y-49991238D01*
X114879321Y-49982938D01*
X114834995Y-49943209D01*
X114793783Y-49867902D01*
X114782515Y-49723513D01*
X114804304Y-49474465D01*
X114840474Y-49334226D01*
X114894137Y-49267220D01*
X114944687Y-49235792D01*
X115543450Y-50041042D02*
X115306261Y-50020290D01*
X115371628Y-49273144D01*
X115727412Y-49304271D02*
X116035758Y-49331248D01*
X115844824Y-49601349D01*
X115915980Y-49607575D01*
X115960306Y-49647303D01*
X115980912Y-49684957D01*
X115998405Y-49758189D01*
X115982842Y-49936081D01*
X115952897Y-50005162D01*
X115926066Y-50038665D01*
X115875515Y-50070094D01*
X115733202Y-50057643D01*
X115688877Y-50017914D01*
X115668270Y-49980261D01*
X131085579Y-40500537D02*
X131041254Y-40460809D01*
X130970097Y-40454583D01*
X130895828Y-40483936D01*
X130842165Y-40550943D01*
X130812220Y-40620024D01*
X130776050Y-40760263D01*
X130766712Y-40866998D01*
X130777980Y-41011387D01*
X130795474Y-41084618D01*
X130836686Y-41159925D01*
X130904730Y-41201729D01*
X130952168Y-41205880D01*
X131026438Y-41176527D01*
X131053269Y-41143023D01*
X131075058Y-40893975D01*
X130980183Y-40885674D01*
X131260514Y-41232856D02*
X131325881Y-40485710D01*
X131545141Y-41257758D01*
X131610508Y-40510612D01*
X131782331Y-41278509D02*
X131847697Y-40531363D01*
X131966292Y-40541739D01*
X132034336Y-40583543D01*
X132075548Y-40658850D01*
X132093042Y-40732082D01*
X132104310Y-40876470D01*
X132094972Y-40983206D01*
X132058802Y-41123444D01*
X132028858Y-41192526D01*
X131975195Y-41259532D01*
X131900925Y-41288885D01*
X131782331Y-41278509D01*
X115690849Y-39054079D02*
X115791514Y-39815751D01*
X116022914Y-39083131D01*
X116414432Y-39798548D02*
X116387600Y-39832051D01*
X116313331Y-39861404D01*
X116265893Y-39857254D01*
X116197849Y-39815450D01*
X116156636Y-39740143D01*
X116139143Y-39666911D01*
X116127875Y-39522523D01*
X116137213Y-39415787D01*
X116173383Y-39275549D01*
X116203327Y-39206467D01*
X116256990Y-39139461D01*
X116331260Y-39110108D01*
X116378698Y-39114258D01*
X116446742Y-39156062D01*
X116467348Y-39193716D01*
X116912529Y-39842126D02*
X116885698Y-39875629D01*
X116811428Y-39904982D01*
X116763990Y-39900832D01*
X116695946Y-39859028D01*
X116654734Y-39783721D01*
X116637240Y-39710489D01*
X116625972Y-39566100D01*
X116635310Y-39459365D01*
X116671480Y-39319127D01*
X116701424Y-39250045D01*
X116755088Y-39183039D01*
X116829357Y-39153686D01*
X116876795Y-39157836D01*
X116944839Y-39199640D01*
X116965445Y-39237293D01*
X131370213Y-37975736D02*
X131325888Y-37936008D01*
X131254731Y-37929782D01*
X131180462Y-37959135D01*
X131126799Y-38026142D01*
X131096854Y-38095223D01*
X131060684Y-38235462D01*
X131051346Y-38342197D01*
X131062614Y-38486586D01*
X131080108Y-38559817D01*
X131121320Y-38635124D01*
X131189364Y-38676928D01*
X131236802Y-38681079D01*
X131311072Y-38651726D01*
X131337903Y-38618222D01*
X131359692Y-38369174D01*
X131264817Y-38360873D01*
X131545148Y-38708055D02*
X131610515Y-37960909D01*
X131829775Y-38732957D01*
X131895142Y-37985811D01*
X132066965Y-38753708D02*
X132132331Y-38006562D01*
X132250926Y-38016938D01*
X132318970Y-38058742D01*
X132360182Y-38134049D01*
X132377676Y-38207281D01*
X132388944Y-38351669D01*
X132379606Y-38458405D01*
X132343436Y-38598643D01*
X132313492Y-38667725D01*
X132259829Y-38734731D01*
X132185559Y-38764084D01*
X132066965Y-38753708D01*
X116232687Y-37368389D02*
X116097782Y-36998079D01*
X115948060Y-37343487D02*
X116013427Y-36596341D01*
X116203178Y-36612942D01*
X116247503Y-36652671D01*
X116268110Y-36690325D01*
X116285603Y-36763557D01*
X116276265Y-36870292D01*
X116246321Y-36939373D01*
X116219489Y-36972877D01*
X116168939Y-37004305D01*
X115979187Y-36987704D01*
X116425551Y-37349412D02*
X116493595Y-37391216D01*
X116612190Y-37401591D01*
X116662740Y-37370163D01*
X116689572Y-37336660D01*
X116719516Y-37267578D01*
X116725742Y-37196421D01*
X116708248Y-37123190D01*
X116687642Y-37085536D01*
X116643317Y-37045807D01*
X116551554Y-37001928D01*
X116507229Y-36962200D01*
X116486623Y-36924546D01*
X116469129Y-36851314D01*
X116475355Y-36780158D01*
X116505299Y-36711076D01*
X116532131Y-36677573D01*
X116582681Y-36646145D01*
X116701276Y-36656520D01*
X116769320Y-36698324D01*
X116914746Y-36675197D02*
X117199373Y-36700098D01*
X116991693Y-37434793D02*
X117057059Y-36687647D01*
X130994436Y-36034384D02*
X131059803Y-35287238D01*
X131178397Y-35297614D01*
X131246441Y-35339418D01*
X131287654Y-35414725D01*
X131305147Y-35487957D01*
X131316415Y-35632345D01*
X131307077Y-35739081D01*
X131270907Y-35879319D01*
X131240963Y-35948401D01*
X131187300Y-36015407D01*
X131113030Y-36044760D01*
X130994436Y-36034384D01*
X131487490Y-35862417D02*
X131724680Y-35883168D01*
X131421376Y-36071737D02*
X131652776Y-35339117D01*
X131753441Y-36100789D01*
X131913684Y-35361943D02*
X132198311Y-35386845D01*
X131990630Y-36121540D02*
X132055997Y-35374394D01*
X132293934Y-35932971D02*
X132531123Y-35953723D01*
X132227820Y-36142291D02*
X132459219Y-35409671D01*
X132559885Y-36171343D01*
X116415116Y-34053890D02*
X116370791Y-34014162D01*
X116299634Y-34007936D01*
X116225365Y-34037289D01*
X116171702Y-34104296D01*
X116141757Y-34173377D01*
X116105587Y-34313616D01*
X116096249Y-34420351D01*
X116107517Y-34564740D01*
X116125011Y-34637971D01*
X116166223Y-34713278D01*
X116234267Y-34755082D01*
X116281705Y-34759233D01*
X116355975Y-34729880D01*
X116382806Y-34696376D01*
X116404595Y-34447328D01*
X116309720Y-34439027D01*
X116590051Y-34786209D02*
X116655418Y-34039063D01*
X116874678Y-34811111D01*
X116940045Y-34063965D01*
X117111868Y-34831862D02*
X117177234Y-34084716D01*
X117295829Y-34095092D01*
X117363873Y-34136896D01*
X117405085Y-34212203D01*
X117422579Y-34285435D01*
X117433847Y-34429823D01*
X117424509Y-34536559D01*
X117388339Y-34676797D01*
X117358395Y-34745879D01*
X117304732Y-34812885D01*
X117230462Y-34842238D01*
X117111868Y-34831862D01*
X131791135Y-33566430D02*
X131553946Y-33545678D01*
X131619313Y-32798532D01*
X131991408Y-33189594D02*
X132157440Y-33204119D01*
X132194357Y-33601707D02*
X131957168Y-33580956D01*
X132022535Y-32833810D01*
X132259724Y-32854561D01*
X132407827Y-33620383D02*
X132473194Y-32873237D01*
X132591789Y-32883613D01*
X132659833Y-32925417D01*
X132701045Y-33000724D01*
X132718539Y-33073956D01*
X132729807Y-33218344D01*
X132720469Y-33325080D01*
X132684299Y-33465318D01*
X132654355Y-33534400D01*
X132600691Y-33601406D01*
X132526422Y-33630759D01*
X132407827Y-33620383D01*
X116609815Y-32238237D02*
X116474910Y-31867927D01*
X116325188Y-32213335D02*
X116390555Y-31466189D01*
X116580307Y-31482790D01*
X116624632Y-31522519D01*
X116645238Y-31560172D01*
X116662731Y-31633404D01*
X116653393Y-31740139D01*
X116623449Y-31809221D01*
X116596617Y-31842724D01*
X116546067Y-31874152D01*
X116356315Y-31857551D01*
X116818243Y-32041367D02*
X117055432Y-32062119D01*
X116752129Y-32250687D02*
X116983528Y-31518067D01*
X117084194Y-32279739D01*
X117268155Y-31542969D02*
X117321383Y-32300491D01*
X117462949Y-31775116D01*
X117511134Y-32317092D01*
X117695096Y-31580322D01*
D11*
G04 #@! TO.C,SW1*
X115313718Y-66124076D02*
X115023156Y-65620645D01*
X114744464Y-66074272D02*
X114831619Y-65078078D01*
X115211122Y-65111280D01*
X115301847Y-65167018D01*
X115345135Y-65218606D01*
X115384272Y-65317632D01*
X115371822Y-65459946D01*
X115316083Y-65550671D01*
X115264495Y-65593959D01*
X115165469Y-65633096D01*
X114785966Y-65599894D01*
X115786311Y-65639612D02*
X116118376Y-65668664D01*
X116215037Y-66202931D02*
X115740658Y-66161428D01*
X115827814Y-65165233D01*
X116302192Y-65206736D01*
X116598690Y-66188695D02*
X116736853Y-66248584D01*
X116974042Y-66269335D01*
X117073068Y-66230198D01*
X117124656Y-66186910D01*
X117180395Y-66096185D01*
X117188695Y-66001309D01*
X117149558Y-65902283D01*
X117106270Y-65850695D01*
X117015545Y-65794957D01*
X116829944Y-65730918D01*
X116739218Y-65675179D01*
X116695931Y-65623591D01*
X116656794Y-65524565D01*
X116665094Y-65429690D01*
X116720832Y-65338964D01*
X116772421Y-65295677D01*
X116871447Y-65256539D01*
X117108636Y-65277291D01*
X117246799Y-65337179D01*
X117636387Y-65801473D02*
X117968452Y-65830524D01*
X118065113Y-66364792D02*
X117590734Y-66323289D01*
X117677890Y-65327094D01*
X118152268Y-65368597D01*
X118436895Y-65393498D02*
X119006149Y-65443302D01*
X118634367Y-66414595D02*
X118721522Y-65418400D01*
G04 #@! TD*
M02*
