M48
;DRILL file {KiCad (5.0.1)-4} date 04/12/2018 02:00:46
;FORMAT={-:-/ absolute / metric / decimal}
FMAT,2
METRIC,TZ
T1C0.400
T2C0.813
T3C1.000
T4C1.200
T5C1.300
T6C1.500
%
G90
G05
M71
T1
X82.6Y-67.
X114.8Y-63.6
X116.Y-66.2
X118.4Y-67.6
X119.8Y-49.4
X119.8Y-54.6
X119.8Y-58.
X119.8Y-61.
X121.Y-40.
X121.Y-45.4
X121.Y-49.4
X121.Y-54.6
X121.Y-58.
X122.6Y-36.6
X122.6Y-39.8
X122.6Y-45.4
X122.6Y-49.4
X122.6Y-54.6
X122.6Y-58.
X122.6Y-33.4
X124.2Y-36.6
X124.2Y-40.
X124.2Y-45.4
X124.2Y-49.4
X124.2Y-54.6
X124.2Y-58.
X124.2Y-61.
X125.8Y-45.4
X125.8Y-49.4
X125.8Y-58.
X125.8Y-61.
X125.8Y-54.6
X127.2Y-51.2
X127.2Y-54.6
X127.2Y-58.
X127.2Y-61.
X128.2Y-42.4
X128.2Y-45.4
X128.2Y-49.4
X128.2Y-54.6
X128.2Y-58.
X128.2Y-61.
T2
X71.39Y-65.8
X79.01Y-65.8
X52.19Y-65.8
X59.81Y-65.8
X115.26Y-61.101
X115.481Y-58.571
X115.703Y-56.04
X115.924Y-53.51
X116.145Y-50.98
X116.367Y-48.449
X116.588Y-45.919
X116.692Y-59.952
X116.809Y-43.389
X116.913Y-57.421
X117.031Y-40.858
X117.135Y-54.891
X117.252Y-38.328
X117.356Y-52.361
X117.474Y-35.798
X117.577Y-49.83
X117.695Y-33.267
X117.799Y-47.3
X118.02Y-44.77
X118.242Y-42.239
X118.463Y-39.709
X118.684Y-37.179
X118.906Y-34.648
X119.127Y-32.118
X130.442Y-62.429
X130.663Y-59.899
X130.885Y-57.369
X131.106Y-54.838
X131.327Y-52.308
X131.549Y-49.778
X131.77Y-47.247
X131.854Y-61.278
X131.991Y-44.717
X132.075Y-58.748
X132.213Y-42.187
X132.297Y-56.217
X132.434Y-39.656
X132.518Y-53.687
X132.656Y-37.126
X132.739Y-51.157
X132.877Y-34.596
X132.961Y-48.626
X133.182Y-46.096
X133.404Y-43.566
X133.625Y-41.035
X133.846Y-38.505
X134.068Y-35.975
X134.289Y-33.444
X94.92Y-67.614
X102.28Y-69.586
X107.495Y-84.1
X111.305Y-77.5
T4
X51.Y-77.6
X56.1Y-79.6
X61.2Y-77.6
X70.1Y-77.6
X75.2Y-79.6
X80.3Y-77.6
X90.464Y-78.947
X94.873Y-82.199
X100.317Y-81.587
X117.027Y-91.167
X121.31Y-87.75
X122.127Y-82.333
T5
X113.562Y-65.517
X120.038Y-66.083
T6
X71.39Y-76.24
X72.66Y-77.7
X72.66Y-78.2
X72.66Y-78.78
X77.74Y-77.7
X77.74Y-78.2
X77.74Y-78.78
X79.01Y-76.24
X92.062Y-77.967
X92.632Y-80.75
X92.782Y-80.189
X92.911Y-79.706
X97.539Y-82.064
X97.689Y-81.504
X97.818Y-81.021
X99.423Y-79.94
X116.495Y-89.37
X118.394Y-89.
X118.827Y-89.25
X119.329Y-89.54
X120.305Y-82.77
X120.934Y-84.6
X121.367Y-84.85
X121.869Y-85.14
X52.29Y-76.24
X53.56Y-77.7
X53.56Y-78.2
X53.56Y-78.78
X58.64Y-77.7
X58.64Y-78.2
X58.64Y-78.78
X59.91Y-76.24
T3
X122.863Y-68.942G85X122.365Y-68.898
G05
X123.077Y-66.501G85X122.579Y-66.458
G05
X124.205Y-70.816G85X123.707Y-70.773
G05
X124.724Y-64.889G85X124.226Y-64.845
G05
X128.19Y-71.165G85X127.692Y-71.121
G05
X128.709Y-65.237G85X128.21Y-65.194
G05
X131.179Y-71.426G85X130.68Y-71.383
G05
X131.697Y-65.499G85X131.199Y-65.455
G05
T0
M30
