G04 #@! TF.GenerationSoftware,KiCad,Pcbnew,(5.0.1)-4*
G04 #@! TF.CreationDate,2018-12-04T01:58:54+09:00*
G04 #@! TF.ProjectId,va4,7661342E6B696361645F706362000000,rev?*
G04 #@! TF.SameCoordinates,Original*
G04 #@! TF.FileFunction,Copper,L2,Bot,Signal*
G04 #@! TF.FilePolarity,Positive*
%FSLAX46Y46*%
G04 Gerber Fmt 4.6, Leading zero omitted, Abs format (unit mm)*
G04 Created by KiCad (PCBNEW (5.0.1)-4) date 04/12/2018 01:58:54*
%MOMM*%
%LPD*%
G01*
G04 APERTURE LIST*
G04 #@! TA.AperFunction,ComponentPad*
%ADD10C,1.700000*%
G04 #@! TD*
G04 #@! TA.AperFunction,Conductor*
%ADD11C,1.700000*%
G04 #@! TD*
G04 #@! TA.AperFunction,WasherPad*
%ADD12C,5.000000*%
G04 #@! TD*
G04 #@! TA.AperFunction,ComponentPad*
%ADD13C,2.400000*%
G04 #@! TD*
G04 #@! TA.AperFunction,ComponentPad*
%ADD14C,1.550000*%
G04 #@! TD*
G04 #@! TA.AperFunction,Conductor*
%ADD15C,1.550000*%
G04 #@! TD*
G04 #@! TA.AperFunction,ComponentPad*
%ADD16C,2.200000*%
G04 #@! TD*
G04 #@! TA.AperFunction,ComponentPad*
%ADD17C,1.250000*%
G04 #@! TD*
G04 #@! TA.AperFunction,Conductor*
%ADD18C,1.250000*%
G04 #@! TD*
G04 #@! TA.AperFunction,ComponentPad*
%ADD19C,1.397000*%
G04 #@! TD*
G04 #@! TA.AperFunction,Conductor*
%ADD20C,0.100000*%
G04 #@! TD*
G04 #@! TA.AperFunction,SMDPad,CuDef*
%ADD21C,0.950000*%
G04 #@! TD*
G04 #@! TA.AperFunction,ComponentPad*
%ADD22R,1.397000X1.397000*%
G04 #@! TD*
G04 #@! TA.AperFunction,SMDPad,CuDef*
%ADD23R,1.300000X0.950000*%
G04 #@! TD*
G04 #@! TA.AperFunction,ComponentPad*
%ADD24C,1.524000*%
G04 #@! TD*
G04 #@! TA.AperFunction,ComponentPad*
%ADD25C,2.000000*%
G04 #@! TD*
G04 #@! TA.AperFunction,SMDPad,CuDef*
%ADD26C,1.524000*%
G04 #@! TD*
G04 #@! TA.AperFunction,ViaPad*
%ADD27C,0.800000*%
G04 #@! TD*
G04 #@! TA.AperFunction,Conductor*
%ADD28C,0.500000*%
G04 #@! TD*
G04 #@! TA.AperFunction,Conductor*
%ADD29C,0.250000*%
G04 #@! TD*
G04 #@! TA.AperFunction,Conductor*
%ADD30C,0.254000*%
G04 #@! TD*
G04 APERTURE END LIST*
D10*
G04 #@! TO.P,J2,D*
G04 #@! TO.N,VCC*
X124474744Y-64866946D03*
D11*
G04 #@! TD*
G04 #@! TO.N,VCC*
G04 #@! TO.C,J2*
X124873222Y-64901808D02*
X124076266Y-64832084D01*
D10*
G04 #@! TO.P,J2,A*
G04 #@! TO.N,Net-(J2-PadA)*
X122614398Y-68920230D03*
D11*
G04 #@! TD*
G04 #@! TO.N,Net-(J2-PadA)*
G04 #@! TO.C,J2*
X123012876Y-68955092D02*
X122215920Y-68885368D01*
D10*
G04 #@! TO.P,J2,B*
G04 #@! TO.N,data*
X131448107Y-65477036D03*
D11*
G04 #@! TD*
G04 #@! TO.N,data*
G04 #@! TO.C,J2*
X131846585Y-65511898D02*
X131049629Y-65442174D01*
D10*
G04 #@! TO.P,J2,C*
G04 #@! TO.N,GND*
X128459523Y-65215569D03*
D11*
G04 #@! TD*
G04 #@! TO.N,GND*
G04 #@! TO.C,J2*
X128858001Y-65250431D02*
X128061045Y-65180707D01*
D10*
G04 #@! TO.P,J2,B*
G04 #@! TO.N,data*
X130929530Y-71404395D03*
D11*
G04 #@! TD*
G04 #@! TO.N,data*
G04 #@! TO.C,J2*
X131328008Y-71439257D02*
X130531052Y-71369533D01*
D10*
G04 #@! TO.P,J2,C*
G04 #@! TO.N,GND*
X127940946Y-71142928D03*
D11*
G04 #@! TD*
G04 #@! TO.N,GND*
G04 #@! TO.C,J2*
X128339424Y-71177790D02*
X127542468Y-71108066D01*
D10*
G04 #@! TO.P,J2,D*
G04 #@! TO.N,VCC*
X123956168Y-70794305D03*
D11*
G04 #@! TD*
G04 #@! TO.N,VCC*
G04 #@! TO.C,J2*
X124354646Y-70829167D02*
X123557690Y-70759443D01*
D10*
G04 #@! TO.P,J2,A*
G04 #@! TO.N,Net-(J2-PadA)*
X122827930Y-66479553D03*
D11*
G04 #@! TD*
G04 #@! TO.N,Net-(J2-PadA)*
G04 #@! TO.C,J2*
X123226408Y-66514415D02*
X122429452Y-66444691D01*
D12*
G04 #@! TO.P,Ref\002A\002A,*
G04 #@! TO.N,*
X86500000Y-70100000D03*
G04 #@! TD*
G04 #@! TO.P,Ref\002A\002A,*
G04 #@! TO.N,*
X128800000Y-81700000D03*
G04 #@! TD*
G04 #@! TO.P,Ref\002A\002A,*
G04 #@! TO.N,*
X118400000Y-97600000D03*
G04 #@! TD*
D13*
G04 #@! TO.P,SW2,1*
G04 #@! TO.N,col0*
X58640000Y-78200000D03*
X58640000Y-77700000D03*
G04 #@! TO.P,SW2,2*
G04 #@! TO.N,Net-(D1-Pad2)*
X53560000Y-77700000D03*
X53560000Y-78200000D03*
D14*
X52290000Y-76240000D03*
D15*
G04 #@! TD*
G04 #@! TO.N,Net-(D1-Pad2)*
G04 #@! TO.C,SW2*
X52691742Y-76718778D02*
X51888258Y-75761222D01*
D13*
G04 #@! TO.P,SW2,1*
G04 #@! TO.N,col0*
X58640000Y-78780000D03*
D14*
X59910000Y-76240000D03*
D15*
G04 #@! TD*
G04 #@! TO.N,col0*
G04 #@! TO.C,SW2*
X60311742Y-75761222D02*
X59508258Y-76718778D01*
D13*
G04 #@! TO.P,SW2,2*
G04 #@! TO.N,Net-(D1-Pad2)*
X53560000Y-78780000D03*
D16*
X56100000Y-79600000D03*
D17*
G04 #@! TO.P,SW2,1*
G04 #@! TO.N,col0*
X61200000Y-77600000D03*
D18*
G04 #@! TD*
G04 #@! TO.N,col0*
G04 #@! TO.C,SW2*
X61505324Y-77236129D02*
X60894676Y-77963871D01*
D17*
G04 #@! TO.P,SW2,1*
G04 #@! TO.N,col0*
X51000000Y-77600000D03*
D18*
G04 #@! TD*
G04 #@! TO.N,col0*
G04 #@! TO.C,SW2*
X51305324Y-77963871D02*
X50694676Y-77236129D01*
D12*
G04 #@! TO.P,Ref\002A\002A,*
G04 #@! TO.N,*
X47100000Y-83300000D03*
G04 #@! TD*
G04 #@! TO.P,Ref\002A\002A,*
G04 #@! TO.N,*
X45400000Y-63800000D03*
G04 #@! TD*
D19*
G04 #@! TO.P,D4,2*
G04 #@! TO.N,Net-(D4-Pad2)*
X107495000Y-84099557D03*
G04 #@! TO.P,D4,1*
G04 #@! TO.N,row0*
X111305000Y-77500443D03*
D20*
G04 #@! TD*
G04 #@! TO.N,row0*
G04 #@! TO.C,D4*
G36*
X111049331Y-76546274D02*
X112259169Y-77244774D01*
X111560669Y-78454612D01*
X110350831Y-77756112D01*
X111049331Y-76546274D01*
X111049331Y-76546274D01*
G37*
D21*
G04 #@! TO.P,D4,1*
G04 #@! TO.N,row0*
X110287500Y-79262805D03*
D20*
G04 #@! TD*
G04 #@! TO.N,row0*
G04 #@! TO.C,D4*
G36*
X110201138Y-78462388D02*
X111023862Y-78937388D01*
X110373862Y-80063222D01*
X109551138Y-79588222D01*
X110201138Y-78462388D01*
X110201138Y-78462388D01*
G37*
D21*
G04 #@! TO.P,D4,2*
G04 #@! TO.N,Net-(D4-Pad2)*
X108512500Y-82337195D03*
D20*
G04 #@! TD*
G04 #@! TO.N,Net-(D4-Pad2)*
G04 #@! TO.C,D4*
G36*
X108426138Y-81536778D02*
X109248862Y-82011778D01*
X108598862Y-83137612D01*
X107776138Y-82662612D01*
X108426138Y-81536778D01*
X108426138Y-81536778D01*
G37*
D21*
G04 #@! TO.P,D3,2*
G04 #@! TO.N,Net-(D3-Pad2)*
X96885482Y-68140596D03*
D20*
G04 #@! TD*
G04 #@! TO.N,Net-(D3-Pad2)*
G04 #@! TO.C,D3*
G36*
X97636273Y-67850014D02*
X97390395Y-68767643D01*
X96134691Y-68431178D01*
X96380569Y-67513549D01*
X97636273Y-67850014D01*
X97636273Y-67850014D01*
G37*
D21*
G04 #@! TO.P,D3,1*
G04 #@! TO.N,row0*
X100314518Y-69059404D03*
D20*
G04 #@! TD*
G04 #@! TO.N,row0*
G04 #@! TO.C,D3*
G36*
X101065309Y-68768822D02*
X100819431Y-69686451D01*
X99563727Y-69349986D01*
X99809605Y-68432357D01*
X101065309Y-68768822D01*
X101065309Y-68768822D01*
G37*
D19*
G04 #@! TO.P,D3,1*
G04 #@! TO.N,row0*
X102280177Y-69586101D03*
D20*
G04 #@! TD*
G04 #@! TO.N,row0*
G04 #@! TO.C,D3*
G36*
X103135661Y-69092187D02*
X102774091Y-70441585D01*
X101424693Y-70080015D01*
X101786263Y-68730617D01*
X103135661Y-69092187D01*
X103135661Y-69092187D01*
G37*
D19*
G04 #@! TO.P,D3,2*
G04 #@! TO.N,Net-(D3-Pad2)*
X94919823Y-67613899D03*
G04 #@! TD*
G04 #@! TO.P,D2,2*
G04 #@! TO.N,Net-(D2-Pad2)*
X71390000Y-65800000D03*
D22*
G04 #@! TO.P,D2,1*
G04 #@! TO.N,row0*
X79010000Y-65800000D03*
D23*
X76975000Y-65800000D03*
G04 #@! TO.P,D2,2*
G04 #@! TO.N,Net-(D2-Pad2)*
X73425000Y-65800000D03*
G04 #@! TD*
G04 #@! TO.P,D1,2*
G04 #@! TO.N,Net-(D1-Pad2)*
X54225000Y-65800000D03*
G04 #@! TO.P,D1,1*
G04 #@! TO.N,row0*
X57775000Y-65800000D03*
D22*
X59810000Y-65800000D03*
D19*
G04 #@! TO.P,D1,2*
G04 #@! TO.N,Net-(D1-Pad2)*
X52190000Y-65800000D03*
G04 #@! TD*
D13*
G04 #@! TO.P,SW4,1*
G04 #@! TO.N,col2*
X97688766Y-81504067D03*
X97818175Y-81021104D03*
G04 #@! TO.P,SW4,2*
G04 #@! TO.N,Net-(D3-Pad2)*
X92911272Y-79706303D03*
X92781863Y-80189266D03*
D14*
X92062422Y-77967351D03*
D15*
G04 #@! TD*
G04 #@! TO.N,Net-(D3-Pad2)*
G04 #@! TO.C,SW4*
X92326558Y-78533793D02*
X91798286Y-77400909D01*
D13*
G04 #@! TO.P,SW4,1*
G04 #@! TO.N,col2*
X97538651Y-82064304D03*
D14*
X99422777Y-79939552D03*
D15*
G04 #@! TD*
G04 #@! TO.N,col2*
G04 #@! TO.C,SW4*
X99934747Y-79581067D02*
X98910807Y-80298037D01*
D13*
G04 #@! TO.P,SW4,2*
G04 #@! TO.N,Net-(D3-Pad2)*
X92631748Y-80749503D03*
D16*
X94872968Y-82198962D03*
D17*
G04 #@! TO.P,SW4,1*
G04 #@! TO.N,col2*
X100316827Y-81587088D03*
D18*
G04 #@! TD*
G04 #@! TO.N,col2*
G04 #@! TO.C,SW4*
X100705924Y-81314639D02*
X99927730Y-81859537D01*
D17*
G04 #@! TO.P,SW4,1*
G04 #@! TO.N,col2*
X90464384Y-78947134D03*
D18*
G04 #@! TD*
G04 #@! TO.N,col2*
G04 #@! TO.C,SW4*
X90665128Y-79377630D02*
X90263640Y-78516638D01*
D13*
G04 #@! TO.P,SW3,1*
G04 #@! TO.N,col1*
X77740000Y-78200000D03*
X77740000Y-77700000D03*
G04 #@! TO.P,SW3,2*
G04 #@! TO.N,Net-(D2-Pad2)*
X72660000Y-77700000D03*
X72660000Y-78200000D03*
D14*
X71390000Y-76240000D03*
D15*
G04 #@! TD*
G04 #@! TO.N,Net-(D2-Pad2)*
G04 #@! TO.C,SW3*
X71791742Y-76718778D02*
X70988258Y-75761222D01*
D13*
G04 #@! TO.P,SW3,1*
G04 #@! TO.N,col1*
X77740000Y-78780000D03*
D14*
X79010000Y-76240000D03*
D15*
G04 #@! TD*
G04 #@! TO.N,col1*
G04 #@! TO.C,SW3*
X79411742Y-75761222D02*
X78608258Y-76718778D01*
D13*
G04 #@! TO.P,SW3,2*
G04 #@! TO.N,Net-(D2-Pad2)*
X72660000Y-78780000D03*
D16*
X75200000Y-79600000D03*
D17*
G04 #@! TO.P,SW3,1*
G04 #@! TO.N,col1*
X80300000Y-77600000D03*
D18*
G04 #@! TD*
G04 #@! TO.N,col1*
G04 #@! TO.C,SW3*
X80605324Y-77236129D02*
X79994676Y-77963871D01*
D17*
G04 #@! TO.P,SW3,1*
G04 #@! TO.N,col1*
X70100000Y-77600000D03*
D18*
G04 #@! TD*
G04 #@! TO.N,col1*
G04 #@! TO.C,SW3*
X70405324Y-77963871D02*
X69794676Y-77236129D01*
D17*
G04 #@! TO.P,SW5,1*
G04 #@! TO.N,col3*
X117027499Y-91166730D03*
D18*
G04 #@! TD*
G04 #@! TO.N,col3*
G04 #@! TO.C,SW5*
X117495283Y-91084247D02*
X116559715Y-91249213D01*
D17*
G04 #@! TO.P,SW5,1*
G04 #@! TO.N,col3*
X122127499Y-82333270D03*
D18*
G04 #@! TD*
G04 #@! TO.N,col3*
G04 #@! TO.C,SW5*
X121965039Y-81886916D02*
X122289959Y-82779624D01*
D16*
G04 #@! TO.P,SW5,2*
G04 #@! TO.N,Net-(D4-Pad2)*
X121309550Y-87750000D03*
D13*
X119329409Y-89539705D03*
D14*
G04 #@! TO.P,SW5,1*
G04 #@! TO.N,col3*
X120304705Y-82770443D03*
D15*
G04 #@! TD*
G04 #@! TO.N,col3*
G04 #@! TO.C,SW5*
X120090942Y-82183135D02*
X120518468Y-83357751D01*
D13*
G04 #@! TO.P,SW5,1*
G04 #@! TO.N,col3*
X121869409Y-85140295D03*
D14*
G04 #@! TO.P,SW5,2*
G04 #@! TO.N,Net-(D4-Pad2)*
X116494705Y-89369557D03*
D15*
G04 #@! TD*
G04 #@! TO.N,Net-(D4-Pad2)*
G04 #@! TO.C,SW5*
X117110210Y-89261027D02*
X115879200Y-89478087D01*
D13*
G04 #@! TO.P,SW5,2*
G04 #@! TO.N,Net-(D4-Pad2)*
X118827114Y-89249705D03*
X118394102Y-88999705D03*
G04 #@! TO.P,SW5,1*
G04 #@! TO.N,col3*
X120934102Y-84600295D03*
X121367113Y-84850295D03*
G04 #@! TD*
D24*
G04 #@! TO.P,U1,24*
G04 #@! TO.N,Net-(U1-Pad24)*
X119127023Y-32117882D03*
G04 #@! TO.P,U1,23*
G04 #@! TO.N,GND*
X118905647Y-34648217D03*
G04 #@! TO.P,U1,22*
G04 #@! TO.N,reset*
X118684271Y-37178551D03*
G04 #@! TO.P,U1,21*
G04 #@! TO.N,VCC*
X118462896Y-39708886D03*
G04 #@! TO.P,U1,20*
G04 #@! TO.N,col0*
X118241520Y-42239220D03*
G04 #@! TO.P,U1,19*
G04 #@! TO.N,col1*
X118020145Y-44769555D03*
G04 #@! TO.P,U1,18*
G04 #@! TO.N,col2*
X117798769Y-47299889D03*
G04 #@! TO.P,U1,17*
G04 #@! TO.N,col3*
X117577395Y-49830224D03*
G04 #@! TO.P,U1,16*
G04 #@! TO.N,Net-(U1-Pad16)*
X117356018Y-52360558D03*
G04 #@! TO.P,U1,15*
G04 #@! TO.N,Net-(U1-Pad15)*
X117134642Y-54890893D03*
G04 #@! TO.P,U1,14*
G04 #@! TO.N,Net-(U1-Pad14)*
X116913267Y-57421227D03*
G04 #@! TO.P,U1,13*
G04 #@! TO.N,Net-(U1-Pad13)*
X116691891Y-59951562D03*
G04 #@! TO.P,U1,12*
G04 #@! TO.N,Net-(U1-Pad12)*
X131853974Y-61278072D03*
G04 #@! TO.P,U1,11*
G04 #@! TO.N,Net-(U1-Pad11)*
X132075350Y-58747738D03*
G04 #@! TO.P,U1,10*
G04 #@! TO.N,Net-(U1-Pad10)*
X132296726Y-56217403D03*
G04 #@! TO.P,U1,9*
G04 #@! TO.N,Net-(U1-Pad9)*
X132518101Y-53687069D03*
G04 #@! TO.P,U1,8*
G04 #@! TO.N,Net-(U1-Pad8)*
X132739477Y-51156734D03*
G04 #@! TO.P,U1,7*
G04 #@! TO.N,row0*
X132960852Y-48626400D03*
G04 #@! TO.P,U1,6*
G04 #@! TO.N,Net-(U1-Pad6)*
X133182228Y-46096065D03*
G04 #@! TO.P,U1,5*
G04 #@! TO.N,Net-(U1-Pad5)*
X133403604Y-43565731D03*
G04 #@! TO.P,U1,4*
G04 #@! TO.N,GND*
X133624979Y-41035396D03*
G04 #@! TO.P,U1,3*
X133846355Y-38505061D03*
G04 #@! TO.P,U1,2*
G04 #@! TO.N,data*
X134067730Y-35974727D03*
G04 #@! TO.P,U1,1*
G04 #@! TO.N,led*
X134289106Y-33444392D03*
X117694982Y-33267446D03*
G04 #@! TO.P,U1,2*
G04 #@! TO.N,data*
X117473607Y-35797780D03*
G04 #@! TO.P,U1,3*
G04 #@! TO.N,GND*
X117252231Y-38328115D03*
G04 #@! TO.P,U1,4*
X117030855Y-40858449D03*
G04 #@! TO.P,U1,5*
G04 #@! TO.N,Net-(U1-Pad5)*
X116809480Y-43388784D03*
G04 #@! TO.P,U1,6*
G04 #@! TO.N,Net-(U1-Pad6)*
X116588104Y-45919119D03*
G04 #@! TO.P,U1,7*
G04 #@! TO.N,row0*
X116366729Y-48449453D03*
G04 #@! TO.P,U1,8*
G04 #@! TO.N,Net-(U1-Pad8)*
X116145353Y-50979788D03*
G04 #@! TO.P,U1,9*
G04 #@! TO.N,Net-(U1-Pad9)*
X115923976Y-53510122D03*
G04 #@! TO.P,U1,10*
G04 #@! TO.N,Net-(U1-Pad10)*
X115702602Y-56040457D03*
G04 #@! TO.P,U1,11*
G04 #@! TO.N,Net-(U1-Pad11)*
X115481226Y-58570791D03*
G04 #@! TO.P,U1,12*
G04 #@! TO.N,Net-(U1-Pad12)*
X115259851Y-61101126D03*
G04 #@! TO.P,U1,13*
G04 #@! TO.N,Net-(U1-Pad13)*
X130441858Y-62429379D03*
G04 #@! TO.P,U1,14*
G04 #@! TO.N,Net-(U1-Pad14)*
X130663235Y-59899045D03*
G04 #@! TO.P,U1,15*
G04 #@! TO.N,Net-(U1-Pad15)*
X130884609Y-57368710D03*
G04 #@! TO.P,U1,16*
G04 #@! TO.N,Net-(U1-Pad16)*
X131105985Y-54838376D03*
G04 #@! TO.P,U1,17*
G04 #@! TO.N,col3*
X131327360Y-52308041D03*
G04 #@! TO.P,U1,18*
G04 #@! TO.N,col2*
X131548736Y-49777707D03*
G04 #@! TO.P,U1,19*
G04 #@! TO.N,col1*
X131770111Y-47247372D03*
G04 #@! TO.P,U1,20*
G04 #@! TO.N,col0*
X131991487Y-44717038D03*
G04 #@! TO.P,U1,21*
G04 #@! TO.N,VCC*
X132212863Y-42186703D03*
G04 #@! TO.P,U1,22*
G04 #@! TO.N,reset*
X132434238Y-39656368D03*
G04 #@! TO.P,U1,23*
G04 #@! TO.N,GND*
X132655614Y-37126034D03*
G04 #@! TO.P,U1,24*
G04 #@! TO.N,Net-(U1-Pad24)*
X132876989Y-34595699D03*
G04 #@! TD*
D25*
G04 #@! TO.P,SW1,1*
G04 #@! TO.N,reset*
X113562367Y-65516744D03*
G04 #@! TO.P,SW1,2*
G04 #@! TO.N,GND*
X120037633Y-66083256D03*
G04 #@! TD*
D26*
G04 #@! TO.P,J1,1*
G04 #@! TO.N,GND*
X119860669Y-69642751D03*
D20*
G04 #@! TD*
G04 #@! TO.N,GND*
G04 #@! TO.C,J1*
G36*
X120553357Y-70468264D02*
X119035156Y-70335439D01*
X119167981Y-68817238D01*
X120686182Y-68950063D01*
X120553357Y-70468264D01*
X120553357Y-70468264D01*
G37*
D26*
G04 #@! TO.P,J1,2*
G04 #@! TO.N,led*
X117330335Y-69421376D03*
D20*
G04 #@! TD*
G04 #@! TO.N,led*
G04 #@! TO.C,J1*
G36*
X118023023Y-70246889D02*
X116504822Y-70114064D01*
X116637647Y-68595863D01*
X118155848Y-68728688D01*
X118023023Y-70246889D01*
X118023023Y-70246889D01*
G37*
D26*
G04 #@! TO.P,J1,3*
G04 #@! TO.N,VCC*
X114800000Y-69200000D03*
D20*
G04 #@! TD*
G04 #@! TO.N,VCC*
G04 #@! TO.C,J1*
G36*
X115492688Y-70025513D02*
X113974487Y-69892688D01*
X114107312Y-68374487D01*
X115625513Y-68507312D01*
X115492688Y-70025513D01*
X115492688Y-70025513D01*
G37*
D27*
G04 #@! TO.N,VCC*
X125800000Y-61000000D03*
X125800000Y-58000000D03*
X125800000Y-49400000D03*
X125800006Y-54600000D03*
X125800000Y-45400004D03*
G04 #@! TO.N,led*
X122600010Y-33400000D03*
X124200000Y-49400000D03*
X124200000Y-58000000D03*
X124200006Y-61000000D03*
X124200000Y-54599998D03*
X124200000Y-45400010D03*
X124200000Y-40000002D03*
X124200000Y-36600000D03*
X118400002Y-67600000D03*
G04 #@! TO.N,GND*
X122600000Y-58000000D03*
X122600000Y-49400000D03*
X122600000Y-45400000D03*
X122600000Y-39800000D03*
X122600000Y-36600000D03*
X122600000Y-54600002D03*
G04 #@! TO.N,reset*
X121000000Y-40000000D03*
X121000000Y-45400000D03*
X121000000Y-49400000D03*
X121000000Y-54600000D03*
X121000000Y-58000000D03*
G04 #@! TO.N,col0*
X82600000Y-67000000D03*
G04 #@! TO.N,col1*
X114800000Y-63600000D03*
X116000004Y-66200000D03*
G04 #@! TO.N,col2*
X127200000Y-54600000D03*
X127200000Y-58000000D03*
X127200000Y-61000000D03*
X127200000Y-51200008D03*
G04 #@! TO.N,row0*
X119800000Y-49400000D03*
X119800000Y-54600002D03*
X119800000Y-58000000D03*
X119800000Y-61000004D03*
G04 #@! TO.N,data*
X128200000Y-61000000D03*
X128200000Y-58000000D03*
X128200000Y-54600000D03*
X128200000Y-49400000D03*
X128200000Y-45400000D03*
X128200000Y-42400000D03*
G04 #@! TD*
D28*
G04 #@! TO.N,VCC*
X125800000Y-62800000D02*
X125800000Y-61000000D01*
X124474744Y-64866946D02*
X124474744Y-64125256D01*
X124474744Y-64125256D02*
X125800000Y-62800000D01*
X125800000Y-58000000D02*
X125800000Y-54600006D01*
X125800000Y-54600006D02*
X125800006Y-54600000D01*
X125800000Y-49400000D02*
X125800000Y-45400004D01*
X124600000Y-70150473D02*
X123956168Y-70794305D01*
X124600000Y-65945449D02*
X124600000Y-70150473D01*
X124474744Y-64866946D02*
X124474744Y-65820193D01*
X124474744Y-65820193D02*
X124600000Y-65945449D01*
X122610924Y-70794305D02*
X123956168Y-70794305D01*
X114778624Y-68978624D02*
X114800000Y-69000000D01*
X114800000Y-69000000D02*
X114800000Y-69800000D01*
X114800000Y-69800000D02*
X116200000Y-71200000D01*
X116200000Y-71200000D02*
X122205229Y-71200000D01*
X122205229Y-71200000D02*
X122610924Y-70794305D01*
D29*
G04 #@! TO.N,led*
X134112160Y-33267446D02*
X134289106Y-33444392D01*
X132332554Y-33267446D02*
X134112160Y-33267446D01*
X131800000Y-33800000D02*
X132332554Y-33267446D01*
X120000000Y-33800000D02*
X131800000Y-33800000D01*
X117694982Y-33267446D02*
X119467446Y-33267446D01*
X119467446Y-33267446D02*
X120000000Y-33800000D01*
X117694982Y-33267446D02*
X122467456Y-33267446D01*
X122467456Y-33267446D02*
X122600010Y-33400000D01*
X124200000Y-58000000D02*
X124200000Y-54599998D01*
X124200000Y-49400000D02*
X124200000Y-45400010D01*
X124200000Y-36600000D02*
X124200000Y-40000002D01*
X118400002Y-65436408D02*
X118400002Y-67034315D01*
X118400002Y-67034315D02*
X118400002Y-67600000D01*
X124200006Y-61000000D02*
X122836410Y-61000000D01*
X122836410Y-61000000D02*
X118400002Y-65436408D01*
X117330335Y-68669665D02*
X117330335Y-69421376D01*
X118400002Y-67600000D02*
X118400000Y-67600000D01*
X118400000Y-67600000D02*
X117330335Y-68669665D01*
D28*
G04 #@! TO.N,GND*
X122600000Y-49400000D02*
X122600000Y-45400000D01*
X122600000Y-39800000D02*
X122600000Y-36600000D01*
X122600000Y-58000000D02*
X122600000Y-54600002D01*
X120037633Y-69362367D02*
X119800000Y-69600000D01*
X120037633Y-66083256D02*
X120037633Y-69362367D01*
D29*
G04 #@! TO.N,reset*
X118684271Y-37178551D02*
X121000000Y-39494280D01*
X121000000Y-39494280D02*
X121000000Y-40000000D01*
X121000000Y-45400000D02*
X121000000Y-49400000D01*
X121000000Y-54600000D02*
X121000000Y-58000000D01*
G04 #@! TO.N,col0*
X110800000Y-70200000D02*
X112000000Y-69000000D01*
X117200000Y-66600000D02*
X116600000Y-67200000D01*
X116600000Y-67200000D02*
X113800000Y-67200000D01*
X116600000Y-62800000D02*
X117200000Y-63400000D01*
X114000000Y-61800000D02*
X115000000Y-62800000D01*
X114000000Y-58000000D02*
X114000000Y-61800000D01*
X115000000Y-62800000D02*
X116600000Y-62800000D01*
X114400000Y-57600000D02*
X114000000Y-58000000D01*
X114400000Y-53200000D02*
X114400000Y-57600000D01*
X118002300Y-42000000D02*
X116200000Y-42000000D01*
X117200000Y-63400000D02*
X117200000Y-66600000D01*
X116200000Y-42000000D02*
X115400000Y-42800000D01*
X113800000Y-67200000D02*
X110800000Y-70200000D01*
X115400000Y-42800000D02*
X115400000Y-47400000D01*
X115400000Y-47400000D02*
X114800000Y-48000000D01*
X114800000Y-48000000D02*
X114800000Y-52800000D01*
X114800000Y-52800000D02*
X114400000Y-53200000D01*
X101000000Y-68200000D02*
X103200000Y-68200000D01*
X93200000Y-67000000D02*
X93800000Y-66400000D01*
X82600000Y-67000000D02*
X93200000Y-67000000D01*
X105200000Y-70200000D02*
X110800000Y-70200000D01*
X93800000Y-66400000D02*
X97000000Y-66400000D01*
X97000000Y-66400000D02*
X98000000Y-67400000D01*
X103200000Y-68200000D02*
X105200000Y-70200000D01*
X98000000Y-67400000D02*
X100200000Y-67400000D01*
X100200000Y-67400000D02*
X101000000Y-68200000D01*
G04 #@! TO.N,col1*
X116000000Y-66199996D02*
X116000004Y-66200000D01*
X114800000Y-63600000D02*
X116000000Y-64800000D01*
X116000000Y-64800000D02*
X116000000Y-66199996D01*
G04 #@! TO.N,col2*
X127200000Y-54600000D02*
X127200000Y-58000000D01*
X128000008Y-50400000D02*
X127200000Y-51200008D01*
X130200000Y-50400000D02*
X128000008Y-50400000D01*
X131548736Y-49777707D02*
X130822293Y-49777707D01*
X130822293Y-49777707D02*
X130200000Y-50400000D01*
X125800000Y-70360523D02*
X125800000Y-73000000D01*
X127200000Y-63600000D02*
X126400000Y-64400000D01*
X100719263Y-79939552D02*
X99422777Y-79939552D01*
X127200000Y-61000000D02*
X127200000Y-63600000D01*
X123200000Y-75600000D02*
X105923099Y-75600000D01*
X126400000Y-64400000D02*
X126400000Y-65600000D01*
X105923099Y-75600000D02*
X101583547Y-79939552D01*
X126400000Y-65600000D02*
X127600000Y-66800000D01*
X127600000Y-66800000D02*
X127600000Y-68560523D01*
X101583547Y-79939552D02*
X100719263Y-79939552D01*
X125800000Y-73000000D02*
X123200000Y-75600000D01*
X127600000Y-68560523D02*
X125800000Y-70360523D01*
G04 #@! TO.N,col3*
X122685837Y-81774932D02*
X122127499Y-82333270D01*
X133800000Y-59000000D02*
X133200000Y-59600000D01*
X133800000Y-53000000D02*
X133800000Y-59000000D01*
X131327360Y-52308041D02*
X133108041Y-52308041D01*
X133200000Y-59600000D02*
X133200000Y-61800000D01*
X133108041Y-52308041D02*
X133800000Y-53000000D01*
X132800000Y-62200000D02*
X132800000Y-63800000D01*
X132800000Y-63800000D02*
X133400000Y-64400000D01*
X133400000Y-65800000D02*
X131200000Y-68000000D01*
X133400000Y-64400000D02*
X133400000Y-65800000D01*
X133200000Y-61800000D02*
X132800000Y-62200000D01*
X131200000Y-68000000D02*
X129600000Y-68000000D01*
X129600000Y-68000000D02*
X127800000Y-69800000D01*
X127800000Y-69800000D02*
X126996934Y-69800000D01*
X126996934Y-69800000D02*
X126250011Y-70546923D01*
X126250011Y-70546923D02*
X126250011Y-78210758D01*
X126250011Y-78210758D02*
X122685837Y-81774932D01*
G04 #@! TO.N,Net-(U1-Pad12)*
X130776344Y-61278072D02*
X131853974Y-61278072D01*
X130078072Y-61278072D02*
X130776344Y-61278072D01*
X128900021Y-60100021D02*
X130078072Y-61278072D01*
X118499979Y-60100021D02*
X128900021Y-60100021D01*
X115259851Y-61101126D02*
X117498874Y-61101126D01*
X117498874Y-61101126D02*
X118499979Y-60100021D01*
G04 #@! TO.N,Net-(U1-Pad11)*
X130997720Y-58747738D02*
X132075350Y-58747738D01*
X129652262Y-58747738D02*
X130997720Y-58747738D01*
X128749990Y-59650010D02*
X129652262Y-58747738D01*
X118450010Y-59650010D02*
X128749990Y-59650010D01*
X115481226Y-58570791D02*
X117370791Y-58570791D01*
X117370791Y-58570791D02*
X118450010Y-59650010D01*
G04 #@! TO.N,Net-(U1-Pad10)*
X130182597Y-56217403D02*
X131219096Y-56217403D01*
X129200000Y-57200000D02*
X130182597Y-56217403D01*
X129200000Y-58200000D02*
X129200000Y-57200000D01*
X117240457Y-56040457D02*
X118200000Y-57000000D01*
X115702602Y-56040457D02*
X117240457Y-56040457D01*
X118200000Y-57000000D02*
X118200000Y-58200000D01*
X118200000Y-58200000D02*
X119200000Y-59200000D01*
X131219096Y-56217403D02*
X132296726Y-56217403D01*
X119200000Y-59200000D02*
X128200000Y-59200000D01*
X128200000Y-59200000D02*
X129200000Y-58200000D01*
G04 #@! TO.N,Net-(U1-Pad9)*
X129712931Y-53687069D02*
X132518101Y-53687069D01*
X128625862Y-52600000D02*
X129712931Y-53687069D01*
X118820244Y-52600000D02*
X128625862Y-52600000D01*
X115923977Y-53510122D02*
X117910122Y-53510122D01*
X117910122Y-53510122D02*
X118820244Y-52600000D01*
G04 #@! TO.N,Net-(U1-Pad8)*
X131661847Y-51156734D02*
X132739477Y-51156734D01*
X130556734Y-51156734D02*
X131661847Y-51156734D01*
X117243195Y-51000000D02*
X119000000Y-51000000D01*
X119000000Y-51000000D02*
X120000000Y-52000000D01*
X120000000Y-52000000D02*
X129713468Y-52000000D01*
X129713468Y-52000000D02*
X130556734Y-51156734D01*
X117222983Y-50979788D02*
X117243195Y-51000000D01*
X116145353Y-50979788D02*
X117222983Y-50979788D01*
G04 #@! TO.N,row0*
X57775000Y-65800000D02*
X59810000Y-65800000D01*
X79010000Y-65800000D02*
X76975000Y-65800000D01*
X78061500Y-65800000D02*
X79010000Y-65800000D01*
X77037999Y-66823501D02*
X78061500Y-65800000D01*
X61782001Y-66823501D02*
X77037999Y-66823501D01*
X60758500Y-65800000D02*
X61782001Y-66823501D01*
X59810000Y-65800000D02*
X60758500Y-65800000D01*
X101753480Y-69059404D02*
X102280177Y-69586101D01*
X100314518Y-69059404D02*
X101753480Y-69059404D01*
X111305000Y-78245305D02*
X110287500Y-79262805D01*
X111305000Y-77500443D02*
X111305000Y-78245305D01*
X116366729Y-48449453D02*
X118477543Y-48449453D01*
X118477543Y-48449453D02*
X118849453Y-48449453D01*
X118849453Y-48449453D02*
X119800000Y-49400000D01*
X119800000Y-54600002D02*
X119800000Y-58000000D01*
X99266278Y-72600000D02*
X102280177Y-69586101D01*
X90000000Y-72600000D02*
X99266278Y-72600000D01*
X89000000Y-73600000D02*
X90000000Y-72600000D01*
X79010000Y-65800000D02*
X80010000Y-66800000D01*
X81000000Y-66800000D02*
X82800000Y-68600000D01*
X80010000Y-66800000D02*
X81000000Y-66800000D01*
X82800000Y-68600000D02*
X82800000Y-72200000D01*
X82800000Y-72200000D02*
X84200000Y-73600000D01*
X84200000Y-73600000D02*
X89000000Y-73600000D01*
X102921209Y-70227133D02*
X102280177Y-69586101D01*
X104427133Y-70227133D02*
X102921209Y-70227133D01*
X105000000Y-70800000D02*
X104427133Y-70227133D01*
X111000000Y-70800000D02*
X105000000Y-70800000D01*
X119800000Y-63400000D02*
X117800000Y-65400000D01*
X119800000Y-61000004D02*
X119800000Y-63400000D01*
X117800000Y-65400000D02*
X117800000Y-67000000D01*
X117800000Y-67000000D02*
X117000000Y-67800000D01*
X117000000Y-67800000D02*
X114000000Y-67800000D01*
X114000000Y-67800000D02*
X111000000Y-70800000D01*
X131883222Y-48626400D02*
X132960852Y-48626400D01*
X131426400Y-48626400D02*
X131883222Y-48626400D01*
X129400000Y-44600000D02*
X130400000Y-45600000D01*
X119600000Y-47326996D02*
X119600000Y-45600000D01*
X118477543Y-48449453D02*
X119600000Y-47326996D01*
X119600000Y-45600000D02*
X121200000Y-44000000D01*
X130400000Y-47600000D02*
X131426400Y-48626400D01*
X130400000Y-45600000D02*
X130400000Y-47600000D01*
X121200000Y-44000000D02*
X126800000Y-44000000D01*
X126800000Y-44000000D02*
X127400000Y-44600000D01*
X127400000Y-44600000D02*
X129400000Y-44600000D01*
G04 #@! TO.N,Net-(U1-Pad6)*
X131532476Y-46096065D02*
X132104598Y-46096065D01*
X118480881Y-45919119D02*
X121000000Y-43400000D01*
X132104598Y-46096065D02*
X133182228Y-46096065D01*
X116588104Y-45919119D02*
X118480881Y-45919119D01*
X121000000Y-43400000D02*
X126963590Y-43400000D01*
X126963590Y-43400000D02*
X127713579Y-44149989D01*
X127713579Y-44149989D02*
X129586400Y-44149989D01*
X129586400Y-44149989D02*
X131532476Y-46096065D01*
G04 #@! TO.N,Net-(U1-Pad5)*
X127765731Y-43565731D02*
X133403604Y-43565731D01*
X127000000Y-42800000D02*
X127765731Y-43565731D01*
X120800000Y-42800000D02*
X127000000Y-42800000D01*
X116809480Y-43388784D02*
X120211216Y-43388784D01*
X120211216Y-43388784D02*
X120800000Y-42800000D01*
G04 #@! TO.N,data*
X133890783Y-35797780D02*
X134067730Y-35974727D01*
X132397780Y-35797780D02*
X133890783Y-35797780D01*
X121000000Y-34400000D02*
X131000000Y-34400000D01*
X117473607Y-35797780D02*
X119602220Y-35797780D01*
X119602220Y-35797780D02*
X121000000Y-34400000D01*
X131448107Y-65477036D02*
X128200000Y-62228929D01*
X128200000Y-62228929D02*
X128200000Y-61000000D01*
X128200000Y-58000000D02*
X128200000Y-54600000D01*
X128200000Y-49400000D02*
X128200000Y-45400000D01*
X131000000Y-34400000D02*
X132200000Y-35600000D01*
X132200000Y-35600000D02*
X132397780Y-35797780D01*
X128200000Y-41834315D02*
X128200000Y-42400000D01*
X128200000Y-39600000D02*
X128200000Y-41834315D01*
X132200000Y-35600000D02*
X128200000Y-39600000D01*
G04 #@! TO.N,Net-(D4-Pad2)*
X108512500Y-83082057D02*
X107495000Y-84099557D01*
X108512500Y-82337195D02*
X108512500Y-83082057D01*
G04 #@! TO.N,Net-(D1-Pad2)*
X54225000Y-65800000D02*
X52190000Y-65800000D01*
G04 #@! TO.N,Net-(D2-Pad2)*
X73425000Y-65800000D02*
X71390000Y-65800000D01*
G04 #@! TO.N,Net-(D3-Pad2)*
X95446520Y-68140596D02*
X94919823Y-67613899D01*
X96885482Y-68140596D02*
X95446520Y-68140596D01*
G04 #@! TD*
D30*
G04 #@! TO.N,GND*
G36*
X119300223Y-28913607D02*
X121447217Y-29094773D01*
X123594212Y-29275940D01*
X125741206Y-29457106D01*
X127888201Y-29638272D01*
X130035195Y-29819438D01*
X132182190Y-30000605D01*
X134395028Y-30187327D01*
X134917604Y-30240422D01*
X135339940Y-30372251D01*
X135723850Y-30581316D01*
X136059784Y-30858787D01*
X136337255Y-31194719D01*
X136546320Y-31578629D01*
X136678148Y-32000964D01*
X136720737Y-32420126D01*
X136713711Y-32455450D01*
X136722324Y-32498752D01*
X136585705Y-34212047D01*
X136197698Y-39027656D01*
X135640265Y-45922278D01*
X134986901Y-53978831D01*
X134311168Y-62279317D01*
X134148407Y-64266866D01*
X134115904Y-64103463D01*
X133947929Y-63852071D01*
X133884473Y-63809671D01*
X133560000Y-63485199D01*
X133560000Y-62514802D01*
X133684472Y-62390329D01*
X133747929Y-62347929D01*
X133915904Y-62096537D01*
X133960000Y-61874852D01*
X133960000Y-61874848D01*
X133974888Y-61800001D01*
X133960000Y-61725154D01*
X133960000Y-59914801D01*
X134284473Y-59590329D01*
X134347929Y-59547929D01*
X134515904Y-59296537D01*
X134560000Y-59074852D01*
X134560000Y-59074848D01*
X134574888Y-59000001D01*
X134560000Y-58925154D01*
X134560000Y-53074848D01*
X134574888Y-53000000D01*
X134560000Y-52925152D01*
X134560000Y-52925148D01*
X134518379Y-52715904D01*
X134515904Y-52703462D01*
X134390329Y-52515527D01*
X134347929Y-52452071D01*
X134284473Y-52409671D01*
X133873335Y-51998533D01*
X133923797Y-51948071D01*
X134136477Y-51434615D01*
X134136477Y-50878853D01*
X133923797Y-50365397D01*
X133530814Y-49972414D01*
X133446319Y-49937415D01*
X133752189Y-49810720D01*
X134145172Y-49417737D01*
X134357852Y-48904281D01*
X134357852Y-48348519D01*
X134145172Y-47835063D01*
X133752189Y-47442080D01*
X133667693Y-47407081D01*
X133973565Y-47280385D01*
X134366548Y-46887402D01*
X134579228Y-46373946D01*
X134579228Y-45818184D01*
X134366548Y-45304728D01*
X133973565Y-44911745D01*
X133889071Y-44876746D01*
X134194941Y-44750051D01*
X134587924Y-44357068D01*
X134800604Y-43843612D01*
X134800604Y-43287850D01*
X134587924Y-42774394D01*
X134194941Y-42381411D01*
X134128877Y-42354046D01*
X134246801Y-42316865D01*
X134337109Y-42081657D01*
X133609325Y-41214318D01*
X133602086Y-41220393D01*
X133432743Y-41051050D01*
X133803901Y-41051050D01*
X134531685Y-41918389D01*
X134779001Y-41870296D01*
X135010659Y-41365118D01*
X135031360Y-40809743D01*
X134906448Y-40413574D01*
X134671240Y-40323266D01*
X133803901Y-41051050D01*
X133432743Y-41051050D01*
X133431230Y-41049537D01*
X133241292Y-41239475D01*
X133215239Y-41213422D01*
X133446057Y-41019742D01*
X133439982Y-41012503D01*
X133610838Y-40841647D01*
X133417727Y-40648536D01*
X133444058Y-40622205D01*
X133640633Y-40856474D01*
X134507972Y-40128690D01*
X134459879Y-39881374D01*
X134340701Y-39826723D01*
X134468177Y-39786530D01*
X134558485Y-39551322D01*
X133830701Y-38683983D01*
X133823462Y-38690058D01*
X133654119Y-38520715D01*
X134025277Y-38520715D01*
X134753061Y-39388054D01*
X135000377Y-39339961D01*
X135232035Y-38834783D01*
X135252736Y-38279408D01*
X135127824Y-37883239D01*
X134892616Y-37792931D01*
X134025277Y-38520715D01*
X133654119Y-38520715D01*
X133652606Y-38519202D01*
X133462668Y-38709141D01*
X133436614Y-38683087D01*
X133667433Y-38489407D01*
X132939649Y-37622068D01*
X132910762Y-37627685D01*
X132798007Y-37493309D01*
X132835315Y-37097845D01*
X132849363Y-37111893D01*
X133039301Y-36921955D01*
X133065354Y-36948008D01*
X132834536Y-37141688D01*
X133562320Y-38009027D01*
X133591207Y-38003410D01*
X133862009Y-38326139D01*
X134729348Y-37598355D01*
X134681255Y-37351039D01*
X134545665Y-37288862D01*
X134859067Y-37159047D01*
X135252050Y-36766064D01*
X135464730Y-36252608D01*
X135464730Y-35696846D01*
X135252050Y-35183390D01*
X134859067Y-34790407D01*
X134774571Y-34755408D01*
X135080443Y-34628712D01*
X135473426Y-34235729D01*
X135686106Y-33722273D01*
X135686106Y-33166511D01*
X135473426Y-32653055D01*
X135080443Y-32260072D01*
X134566987Y-32047392D01*
X134011225Y-32047392D01*
X133497769Y-32260072D01*
X133250395Y-32507446D01*
X132407400Y-32507446D01*
X132332553Y-32492558D01*
X132257706Y-32507446D01*
X132257702Y-32507446D01*
X132036017Y-32551542D01*
X131784625Y-32719517D01*
X131742225Y-32782974D01*
X131485199Y-33040000D01*
X123571169Y-33040000D01*
X123477441Y-32813720D01*
X123186290Y-32522569D01*
X122805884Y-32365000D01*
X122394136Y-32365000D01*
X122050240Y-32507446D01*
X120477762Y-32507446D01*
X120524023Y-32395763D01*
X120524023Y-31840001D01*
X120311343Y-31326545D01*
X119918360Y-30933562D01*
X119404904Y-30720882D01*
X118849142Y-30720882D01*
X118335686Y-30933562D01*
X117942703Y-31326545D01*
X117730023Y-31840001D01*
X117730023Y-31870446D01*
X117417101Y-31870446D01*
X116903645Y-32083126D01*
X116510662Y-32476109D01*
X116297982Y-32989565D01*
X116297982Y-33545327D01*
X116510662Y-34058783D01*
X116903645Y-34451766D01*
X116988140Y-34486765D01*
X116682270Y-34613460D01*
X116289287Y-35006443D01*
X116076607Y-35519899D01*
X116076607Y-36075661D01*
X116289287Y-36589117D01*
X116682270Y-36982100D01*
X116748334Y-37009464D01*
X116630409Y-37046646D01*
X116540101Y-37281854D01*
X117267885Y-38149193D01*
X117275124Y-38143118D01*
X117445980Y-38313974D01*
X117645009Y-38114946D01*
X117671857Y-38141794D01*
X117431153Y-38343769D01*
X117437228Y-38351008D01*
X117266372Y-38521864D01*
X117470317Y-38725809D01*
X117443038Y-38753087D01*
X117236577Y-38507037D01*
X116369238Y-39234821D01*
X116417331Y-39482137D01*
X116536507Y-39536787D01*
X116409033Y-39576980D01*
X116318725Y-39812188D01*
X117046509Y-40679527D01*
X117053748Y-40673452D01*
X117224604Y-40844308D01*
X117423633Y-40645280D01*
X117450481Y-40672128D01*
X117209777Y-40874103D01*
X117215852Y-40881342D01*
X117044996Y-41052198D01*
X117232798Y-41240000D01*
X117185227Y-41240000D01*
X117015201Y-41037371D01*
X117007962Y-41043446D01*
X116837106Y-40872590D01*
X116469696Y-41240000D01*
X116378563Y-41240000D01*
X116851933Y-40842795D01*
X116124149Y-39975456D01*
X115876833Y-40023549D01*
X115645175Y-40528727D01*
X115624474Y-41084102D01*
X115725107Y-41403270D01*
X115652071Y-41452071D01*
X115609671Y-41515527D01*
X114915530Y-42209669D01*
X114852071Y-42252071D01*
X114684096Y-42503464D01*
X114640000Y-42725149D01*
X114640000Y-42725153D01*
X114625112Y-42800000D01*
X114640000Y-42874847D01*
X114640001Y-47085197D01*
X114315530Y-47409669D01*
X114252071Y-47452071D01*
X114084096Y-47703464D01*
X114040000Y-47925149D01*
X114040000Y-47925153D01*
X114025112Y-48000000D01*
X114040000Y-48074847D01*
X114040001Y-52485198D01*
X113915529Y-52609669D01*
X113852071Y-52652071D01*
X113684096Y-52903464D01*
X113640000Y-53125149D01*
X113640000Y-53125153D01*
X113625112Y-53200000D01*
X113640000Y-53274847D01*
X113640001Y-57285198D01*
X113515529Y-57409669D01*
X113452071Y-57452071D01*
X113284096Y-57703464D01*
X113240000Y-57925149D01*
X113240000Y-57925153D01*
X113225112Y-58000000D01*
X113240000Y-58074847D01*
X113240001Y-61725148D01*
X113225112Y-61800000D01*
X113240001Y-61874852D01*
X113271857Y-62035004D01*
X113284097Y-62096537D01*
X113388022Y-62252071D01*
X113452072Y-62347929D01*
X113515528Y-62390329D01*
X114030744Y-62905545D01*
X113922569Y-63013720D01*
X113765000Y-63394126D01*
X113765000Y-63805874D01*
X113796426Y-63881744D01*
X113237145Y-63881744D01*
X112636214Y-64130658D01*
X112176281Y-64590591D01*
X111927367Y-65191522D01*
X111927367Y-65841966D01*
X112176281Y-66442897D01*
X112636214Y-66902830D01*
X112909266Y-67015932D01*
X111515529Y-68409670D01*
X111515527Y-68409671D01*
X110485199Y-69440000D01*
X105514802Y-69440000D01*
X103790331Y-67715530D01*
X103747929Y-67652071D01*
X103496537Y-67484096D01*
X103274852Y-67440000D01*
X103274847Y-67440000D01*
X103200000Y-67425112D01*
X103125153Y-67440000D01*
X101314802Y-67440000D01*
X100790331Y-66915530D01*
X100747929Y-66852071D01*
X100496537Y-66684096D01*
X100274852Y-66640000D01*
X100274847Y-66640000D01*
X100200000Y-66625112D01*
X100125153Y-66640000D01*
X98314802Y-66640000D01*
X97590331Y-65915530D01*
X97547929Y-65852071D01*
X97296537Y-65684096D01*
X97074852Y-65640000D01*
X97074847Y-65640000D01*
X97000000Y-65625112D01*
X96925153Y-65640000D01*
X93874846Y-65640000D01*
X93799999Y-65625112D01*
X93725152Y-65640000D01*
X93725148Y-65640000D01*
X93503463Y-65684096D01*
X93252071Y-65852071D01*
X93209671Y-65915527D01*
X92885199Y-66240000D01*
X83303711Y-66240000D01*
X83186280Y-66122569D01*
X82805874Y-65965000D01*
X82394126Y-65965000D01*
X82013720Y-66122569D01*
X81722569Y-66413720D01*
X81712597Y-66437795D01*
X81590331Y-66315530D01*
X81547929Y-66252071D01*
X81296537Y-66084096D01*
X81074852Y-66040000D01*
X81074847Y-66040000D01*
X81000000Y-66025112D01*
X80925153Y-66040000D01*
X80355940Y-66040000D01*
X80355940Y-65101500D01*
X80306657Y-64853735D01*
X80166309Y-64643691D01*
X79956265Y-64503343D01*
X79708500Y-64454060D01*
X78311500Y-64454060D01*
X78063735Y-64503343D01*
X77853691Y-64643691D01*
X77806886Y-64713739D01*
X77625000Y-64677560D01*
X76325000Y-64677560D01*
X76077235Y-64726843D01*
X75867191Y-64867191D01*
X75726843Y-65077235D01*
X75677560Y-65325000D01*
X75677560Y-66063501D01*
X74722440Y-66063501D01*
X74722440Y-65325000D01*
X74673157Y-65077235D01*
X74532809Y-64867191D01*
X74322765Y-64726843D01*
X74075000Y-64677560D01*
X72775000Y-64677560D01*
X72527235Y-64726843D01*
X72332689Y-64856835D01*
X72145367Y-64669513D01*
X71655250Y-64466500D01*
X71124750Y-64466500D01*
X70634633Y-64669513D01*
X70259513Y-65044633D01*
X70056500Y-65534750D01*
X70056500Y-66063501D01*
X62096803Y-66063501D01*
X61348831Y-65315530D01*
X61306429Y-65252071D01*
X61155940Y-65151517D01*
X61155940Y-65101500D01*
X61106657Y-64853735D01*
X60966309Y-64643691D01*
X60756265Y-64503343D01*
X60508500Y-64454060D01*
X59111500Y-64454060D01*
X58863735Y-64503343D01*
X58653691Y-64643691D01*
X58606886Y-64713739D01*
X58425000Y-64677560D01*
X57125000Y-64677560D01*
X56877235Y-64726843D01*
X56667191Y-64867191D01*
X56526843Y-65077235D01*
X56477560Y-65325000D01*
X56477560Y-66275000D01*
X56526843Y-66522765D01*
X56667191Y-66732809D01*
X56877235Y-66873157D01*
X57125000Y-66922440D01*
X58425000Y-66922440D01*
X58606886Y-66886261D01*
X58653691Y-66956309D01*
X58863735Y-67096657D01*
X59111500Y-67145940D01*
X60508500Y-67145940D01*
X60756265Y-67096657D01*
X60890597Y-67006899D01*
X61191672Y-67307974D01*
X61234072Y-67371430D01*
X61485464Y-67539405D01*
X61707149Y-67583501D01*
X61707154Y-67583501D01*
X61782001Y-67598389D01*
X61856848Y-67583501D01*
X76963152Y-67583501D01*
X77037999Y-67598389D01*
X77112846Y-67583501D01*
X77112851Y-67583501D01*
X77334536Y-67539405D01*
X77585928Y-67371430D01*
X77628330Y-67307971D01*
X77929403Y-67006898D01*
X78063735Y-67096657D01*
X78311500Y-67145940D01*
X79281138Y-67145940D01*
X79419670Y-67284472D01*
X79462071Y-67347929D01*
X79713463Y-67515904D01*
X79935148Y-67560000D01*
X79935152Y-67560000D01*
X80010000Y-67574888D01*
X80084848Y-67560000D01*
X80685199Y-67560000D01*
X82040000Y-68914803D01*
X82040001Y-72125148D01*
X82025112Y-72200000D01*
X82084097Y-72496537D01*
X82192750Y-72659147D01*
X82252072Y-72747929D01*
X82315528Y-72790329D01*
X83609671Y-74084473D01*
X83652071Y-74147929D01*
X83903463Y-74315904D01*
X84125148Y-74360000D01*
X84125153Y-74360000D01*
X84200000Y-74374888D01*
X84274847Y-74360000D01*
X88925153Y-74360000D01*
X89000000Y-74374888D01*
X89074847Y-74360000D01*
X89074852Y-74360000D01*
X89296537Y-74315904D01*
X89547929Y-74147929D01*
X89590331Y-74084470D01*
X90314802Y-73360000D01*
X99191431Y-73360000D01*
X99266278Y-73374888D01*
X99341125Y-73360000D01*
X99341130Y-73360000D01*
X99562815Y-73315904D01*
X99814207Y-73147929D01*
X99856609Y-73084470D01*
X102028891Y-70912189D01*
X102606521Y-71066964D01*
X102858599Y-71083486D01*
X103097811Y-71002284D01*
X103115087Y-70987133D01*
X104112332Y-70987133D01*
X104409671Y-71284473D01*
X104452071Y-71347929D01*
X104703463Y-71515904D01*
X104925148Y-71560000D01*
X104925152Y-71560000D01*
X104999999Y-71574888D01*
X105074846Y-71560000D01*
X110925153Y-71560000D01*
X111000000Y-71574888D01*
X111074847Y-71560000D01*
X111074852Y-71560000D01*
X111296537Y-71515904D01*
X111547929Y-71347929D01*
X111590331Y-71284470D01*
X113357408Y-69517393D01*
X113329511Y-69836260D01*
X113357013Y-70087377D01*
X113478519Y-70308855D01*
X113675533Y-70466974D01*
X113918059Y-70537664D01*
X114321371Y-70572949D01*
X115512577Y-71764156D01*
X115561951Y-71838049D01*
X115635844Y-71887423D01*
X115635845Y-71887424D01*
X115659849Y-71903463D01*
X115854690Y-72033652D01*
X116112835Y-72085000D01*
X116112839Y-72085000D01*
X116200000Y-72102337D01*
X116287161Y-72085000D01*
X122118068Y-72085000D01*
X122205229Y-72102337D01*
X122292390Y-72085000D01*
X122292394Y-72085000D01*
X122550539Y-72033652D01*
X122671841Y-71952600D01*
X122858562Y-72102459D01*
X123282566Y-72226045D01*
X124370920Y-72321263D01*
X124809943Y-72273182D01*
X125040001Y-72146968D01*
X125040001Y-72685197D01*
X122885199Y-74840000D01*
X105997945Y-74840000D01*
X105923098Y-74825112D01*
X105848251Y-74840000D01*
X105848247Y-74840000D01*
X105626562Y-74884096D01*
X105564001Y-74925898D01*
X105438625Y-75009671D01*
X105438623Y-75009673D01*
X105375170Y-75052071D01*
X105332772Y-75115524D01*
X103163586Y-77284711D01*
X103056290Y-77025675D01*
X102610422Y-76579807D01*
X102027868Y-76338505D01*
X101623301Y-76338505D01*
X101602288Y-76329801D01*
X101011518Y-76329801D01*
X100465718Y-76555879D01*
X100047981Y-76973616D01*
X99821903Y-77519416D01*
X99821903Y-78110186D01*
X99847768Y-78172630D01*
X99623589Y-78177522D01*
X99239760Y-78346410D01*
X98040552Y-79186104D01*
X97453171Y-79186104D01*
X96778731Y-79465466D01*
X96262537Y-79981660D01*
X95983175Y-80656100D01*
X95983175Y-80826642D01*
X95974720Y-80847053D01*
X95855767Y-80728100D01*
X95218081Y-80463962D01*
X94616863Y-80463962D01*
X94616863Y-80383728D01*
X94746272Y-80071307D01*
X94746272Y-79341299D01*
X94466910Y-78666859D01*
X93950716Y-78150665D01*
X93644524Y-78023836D01*
X93017491Y-76679159D01*
X92769529Y-76340983D01*
X92562841Y-76215562D01*
X92752019Y-76026384D01*
X92772944Y-75975866D01*
X93765000Y-75975866D01*
X93765000Y-77024134D01*
X94166155Y-77992608D01*
X94907392Y-78733845D01*
X95875866Y-79135000D01*
X96924134Y-79135000D01*
X97892608Y-78733845D01*
X98633845Y-77992608D01*
X99035000Y-77024134D01*
X99035000Y-75975866D01*
X98633845Y-75007392D01*
X97892608Y-74266155D01*
X96924134Y-73865000D01*
X95875866Y-73865000D01*
X94907392Y-74266155D01*
X94166155Y-75007392D01*
X93765000Y-75975866D01*
X92772944Y-75975866D01*
X92978097Y-75480584D01*
X92978097Y-74889814D01*
X92752019Y-74344014D01*
X92334282Y-73926277D01*
X92068717Y-73816276D01*
X91985238Y-73732797D01*
X91588304Y-73568381D01*
X101394173Y-73568381D01*
X101394173Y-74019913D01*
X101566966Y-74437073D01*
X101886247Y-74756354D01*
X102303407Y-74929147D01*
X102754939Y-74929147D01*
X103172099Y-74756354D01*
X103491380Y-74437073D01*
X103664173Y-74019913D01*
X103664173Y-73568381D01*
X103491380Y-73151221D01*
X103172099Y-72831940D01*
X102754939Y-72659147D01*
X102303407Y-72659147D01*
X101886247Y-72831940D01*
X101566966Y-73151221D01*
X101394173Y-73568381D01*
X91588304Y-73568381D01*
X91402684Y-73491495D01*
X90772132Y-73491495D01*
X90189578Y-73732797D01*
X89743710Y-74178665D01*
X89502408Y-74761219D01*
X89502408Y-75391771D01*
X89743710Y-75974325D01*
X90189578Y-76420193D01*
X90632723Y-76603750D01*
X90447363Y-76909213D01*
X90393105Y-77261729D01*
X90207602Y-77233178D01*
X89720709Y-77352320D01*
X89316472Y-77648719D01*
X89056432Y-78077252D01*
X88980180Y-78572676D01*
X89069249Y-78936670D01*
X89575626Y-80022597D01*
X89797209Y-80324798D01*
X90225742Y-80584838D01*
X90721166Y-80661090D01*
X90796748Y-80642595D01*
X90796748Y-81114507D01*
X91076110Y-81788947D01*
X91592304Y-82305141D01*
X92266744Y-82584503D01*
X92996752Y-82584503D01*
X93137968Y-82526009D01*
X93137968Y-82544075D01*
X93402106Y-83181761D01*
X93890169Y-83669824D01*
X94527855Y-83933962D01*
X95218081Y-83933962D01*
X95855767Y-83669824D01*
X96202428Y-83323163D01*
X96499207Y-83619942D01*
X97173647Y-83899304D01*
X97903655Y-83899304D01*
X98060571Y-83834307D01*
X106161500Y-83834307D01*
X106161500Y-84364807D01*
X106364513Y-84854924D01*
X106739633Y-85230044D01*
X107229750Y-85433057D01*
X107760250Y-85433057D01*
X108250367Y-85230044D01*
X108625487Y-84854924D01*
X108828500Y-84364807D01*
X108828500Y-84275866D01*
X113565000Y-84275866D01*
X113565000Y-85324134D01*
X113966155Y-86292608D01*
X114707392Y-87033845D01*
X115675866Y-87435000D01*
X116724134Y-87435000D01*
X117692608Y-87033845D01*
X118433845Y-86292608D01*
X118835000Y-85324134D01*
X118835000Y-84275866D01*
X118433845Y-83307392D01*
X117692608Y-82566155D01*
X116724134Y-82165000D01*
X115675866Y-82165000D01*
X114707392Y-82566155D01*
X113966155Y-83307392D01*
X113565000Y-84275866D01*
X108828500Y-84275866D01*
X108828500Y-83840860D01*
X108996975Y-83672384D01*
X109060429Y-83629986D01*
X109102827Y-83566533D01*
X109102829Y-83566531D01*
X109216951Y-83395734D01*
X109228404Y-83378594D01*
X109239480Y-83322909D01*
X109809562Y-82335498D01*
X109890763Y-82096286D01*
X109874241Y-81844208D01*
X109762511Y-81617642D01*
X109572582Y-81451079D01*
X108749858Y-80976079D01*
X108510646Y-80894877D01*
X108258568Y-80911399D01*
X108032001Y-81023129D01*
X107865438Y-81213058D01*
X107215438Y-82338892D01*
X107134237Y-82578104D01*
X107148755Y-82799606D01*
X106739633Y-82969070D01*
X106364513Y-83344190D01*
X106161500Y-83834307D01*
X98060571Y-83834307D01*
X98578095Y-83619942D01*
X99094289Y-83103748D01*
X99182614Y-82890514D01*
X99237471Y-82943028D01*
X99704648Y-83124704D01*
X100205787Y-83113768D01*
X100548785Y-82962845D01*
X101530282Y-82275592D01*
X101789415Y-82004898D01*
X101971091Y-81537722D01*
X101960155Y-81036582D01*
X101799508Y-80671484D01*
X101880084Y-80655456D01*
X102131476Y-80487481D01*
X102173878Y-80424022D01*
X106237902Y-76360000D01*
X110409277Y-76360000D01*
X109790131Y-77432392D01*
X109708930Y-77671604D01*
X109725452Y-77923682D01*
X109762713Y-77999240D01*
X109640438Y-78138668D01*
X108990438Y-79264502D01*
X108909237Y-79503714D01*
X108925759Y-79755792D01*
X109037489Y-79982358D01*
X109227418Y-80148921D01*
X110050142Y-80623921D01*
X110289354Y-80705123D01*
X110541432Y-80688601D01*
X110767999Y-80576871D01*
X110934562Y-80386942D01*
X111584562Y-79261108D01*
X111644172Y-79085501D01*
X111728239Y-79079991D01*
X111954806Y-78968261D01*
X112121369Y-78778332D01*
X112597539Y-77953581D01*
X114037693Y-77953581D01*
X114037693Y-78405113D01*
X114210486Y-78822273D01*
X114529767Y-79141554D01*
X114946927Y-79314347D01*
X115398459Y-79314347D01*
X115815619Y-79141554D01*
X116134900Y-78822273D01*
X116307693Y-78405113D01*
X116307693Y-77953581D01*
X116134900Y-77536421D01*
X115815619Y-77217140D01*
X115398459Y-77044347D01*
X114946927Y-77044347D01*
X114529767Y-77217140D01*
X114210486Y-77536421D01*
X114037693Y-77953581D01*
X112597539Y-77953581D01*
X112819869Y-77568494D01*
X112901070Y-77329282D01*
X112884548Y-77077204D01*
X112772818Y-76850637D01*
X112582889Y-76684074D01*
X112021576Y-76360000D01*
X123125153Y-76360000D01*
X123200000Y-76374888D01*
X123274847Y-76360000D01*
X123274852Y-76360000D01*
X123496537Y-76315904D01*
X123747929Y-76147929D01*
X123790331Y-76084470D01*
X125490012Y-74384790D01*
X125490012Y-77895955D01*
X122597629Y-80788339D01*
X122507969Y-80722597D01*
X122021074Y-80603456D01*
X121525651Y-80679709D01*
X121097119Y-80939749D01*
X120986139Y-81091107D01*
X120698507Y-80880206D01*
X120351443Y-80795280D01*
X120535000Y-80352136D01*
X120535000Y-79721584D01*
X120293698Y-79139030D01*
X119847830Y-78693162D01*
X119265276Y-78451860D01*
X118634724Y-78451860D01*
X118052170Y-78693162D01*
X117606302Y-79139030D01*
X117365000Y-79721584D01*
X117365000Y-79839643D01*
X117255000Y-80105206D01*
X117255000Y-80695976D01*
X117481078Y-81241776D01*
X117898815Y-81659513D01*
X118444615Y-81885591D01*
X118712152Y-81885591D01*
X118654688Y-82120427D01*
X118718480Y-82534889D01*
X119225931Y-83929098D01*
X119099102Y-84235291D01*
X119099102Y-84965299D01*
X119378464Y-85639739D01*
X119894658Y-86155933D01*
X120207077Y-86285341D01*
X120263813Y-86342077D01*
X119838688Y-86767201D01*
X119574550Y-87404887D01*
X119574550Y-87573113D01*
X119554137Y-87564658D01*
X119433546Y-87444067D01*
X118759106Y-87164705D01*
X118029098Y-87164705D01*
X117354658Y-87444067D01*
X116939316Y-87859409D01*
X115497597Y-88113623D01*
X115106766Y-88265609D01*
X114944788Y-88420669D01*
X114918922Y-88358224D01*
X114501185Y-87940487D01*
X113955385Y-87714409D01*
X113364615Y-87714409D01*
X112818815Y-87940487D01*
X112401078Y-88358224D01*
X112392373Y-88379239D01*
X112106302Y-88665310D01*
X111865000Y-89247864D01*
X111865000Y-89878416D01*
X112106302Y-90460970D01*
X112552170Y-90906838D01*
X113134724Y-91148140D01*
X113765276Y-91148140D01*
X114347830Y-90906838D01*
X114793698Y-90460970D01*
X114816194Y-90406661D01*
X115054614Y-90655718D01*
X115381074Y-90799364D01*
X115305484Y-90971157D01*
X115294549Y-91472296D01*
X115476224Y-91939473D01*
X115822851Y-92301564D01*
X116281659Y-92503444D01*
X116656303Y-92511619D01*
X117836288Y-92303555D01*
X118185543Y-92167738D01*
X118547635Y-91821111D01*
X118749514Y-91362303D01*
X118751171Y-91286381D01*
X118964405Y-91374705D01*
X119694413Y-91374705D01*
X120368853Y-91095343D01*
X120885047Y-90579149D01*
X121164409Y-89904709D01*
X121164409Y-89485000D01*
X121654663Y-89485000D01*
X122292349Y-89220862D01*
X122780412Y-88732799D01*
X123044550Y-88095113D01*
X123044550Y-87404887D01*
X122780412Y-86767201D01*
X122767637Y-86754426D01*
X122908853Y-86695933D01*
X123425047Y-86179739D01*
X123704409Y-85505299D01*
X123704409Y-84775291D01*
X123425047Y-84100851D01*
X123091355Y-83767159D01*
X123157879Y-83726791D01*
X123454278Y-83322553D01*
X123573419Y-82835659D01*
X123516413Y-82465287D01*
X123397365Y-82138205D01*
X126734484Y-78801087D01*
X126797940Y-78758687D01*
X126965915Y-78507295D01*
X127010011Y-78285610D01*
X127010011Y-78285606D01*
X127024899Y-78210759D01*
X127010011Y-78135912D01*
X127010011Y-72469436D01*
X127286525Y-72576346D01*
X127685003Y-72611208D01*
X127803360Y-71258376D01*
X127783436Y-71256633D01*
X127805574Y-71003599D01*
X127825498Y-71005342D01*
X127827241Y-70985418D01*
X128080275Y-71007556D01*
X128078532Y-71027480D01*
X128098456Y-71029223D01*
X128076318Y-71282257D01*
X128056394Y-71280514D01*
X127938036Y-72633346D01*
X128336514Y-72668208D01*
X128907094Y-72555870D01*
X129332731Y-72272669D01*
X129371191Y-72342773D01*
X129831924Y-72712549D01*
X130255928Y-72836135D01*
X131344282Y-72931353D01*
X131783305Y-72883272D01*
X132301248Y-72599118D01*
X132671024Y-72138385D01*
X132836338Y-71571217D01*
X132772023Y-70983960D01*
X132606381Y-70682035D01*
X132660051Y-70704266D01*
X133151365Y-70704266D01*
X133605279Y-70516248D01*
X133638858Y-70482669D01*
X133186380Y-75946116D01*
X132884663Y-79474064D01*
X132880956Y-79512332D01*
X132876934Y-79548553D01*
X132872541Y-79583035D01*
X132867751Y-79615872D01*
X132862536Y-79647211D01*
X132856851Y-79677283D01*
X132852181Y-79699146D01*
X132326672Y-81080116D01*
X131935000Y-81852508D01*
X131935000Y-81076410D01*
X131457724Y-79924165D01*
X130575835Y-79042276D01*
X129423590Y-78565000D01*
X128176410Y-78565000D01*
X127024165Y-79042276D01*
X126142276Y-79924165D01*
X125665000Y-81076410D01*
X125665000Y-82323590D01*
X126142276Y-83475835D01*
X127024165Y-84357724D01*
X128176410Y-84835000D01*
X129423590Y-84835000D01*
X130575835Y-84357724D01*
X130591353Y-84342206D01*
X130013455Y-85358935D01*
X128458912Y-87934766D01*
X126798983Y-90590474D01*
X125151163Y-93173620D01*
X123670901Y-95473075D01*
X123670480Y-95473512D01*
X123631262Y-95534652D01*
X123592858Y-95594308D01*
X123592640Y-95594860D01*
X122370897Y-97499493D01*
X121766714Y-98326144D01*
X121269096Y-98865539D01*
X121535000Y-98223590D01*
X121535000Y-96976410D01*
X121057724Y-95824165D01*
X120175835Y-94942276D01*
X119023590Y-94465000D01*
X117776410Y-94465000D01*
X116624165Y-94942276D01*
X115742276Y-95824165D01*
X115265000Y-96976410D01*
X115265000Y-98223590D01*
X115742276Y-99375835D01*
X116363884Y-99997443D01*
X115633382Y-99671453D01*
X114184984Y-98835120D01*
X114184861Y-98835012D01*
X114119550Y-98797337D01*
X114059739Y-98762801D01*
X114059597Y-98762753D01*
X112514016Y-97871177D01*
X110727893Y-96840825D01*
X108983659Y-95833737D01*
X107277713Y-94846948D01*
X105666269Y-93912006D01*
X104201052Y-93057860D01*
X102935910Y-92314698D01*
X100097166Y-90638364D01*
X100070086Y-90618262D01*
X100034969Y-90601635D01*
X100001534Y-90581891D01*
X99969726Y-90570744D01*
X97007790Y-89168343D01*
X96980639Y-89151611D01*
X96942516Y-89137438D01*
X96905763Y-89120036D01*
X96874837Y-89112276D01*
X93765254Y-87956194D01*
X93738739Y-87942664D01*
X93697534Y-87931017D01*
X93657433Y-87916108D01*
X93628070Y-87911381D01*
X90385749Y-86994887D01*
X108817693Y-86994887D01*
X108817693Y-87446419D01*
X108990486Y-87863579D01*
X109309767Y-88182860D01*
X109726927Y-88355653D01*
X110178459Y-88355653D01*
X110595619Y-88182860D01*
X110914900Y-87863579D01*
X111087693Y-87446419D01*
X111087693Y-86994887D01*
X110914900Y-86577727D01*
X110595619Y-86258446D01*
X110178459Y-86085653D01*
X109726927Y-86085653D01*
X109309767Y-86258446D01*
X108990486Y-86577727D01*
X108817693Y-86994887D01*
X90385749Y-86994887D01*
X90377831Y-86992649D01*
X90352506Y-86982014D01*
X90308317Y-86973000D01*
X90264938Y-86960738D01*
X90237569Y-86958568D01*
X86853460Y-86268235D01*
X86829683Y-86260100D01*
X86782704Y-86253801D01*
X86736242Y-86244323D01*
X86711102Y-86244200D01*
X83199730Y-85773385D01*
X83177676Y-85767333D01*
X83128137Y-85763786D01*
X83078908Y-85757185D01*
X83056083Y-85758626D01*
X79423891Y-85498543D01*
X79403635Y-85494187D01*
X79351853Y-85493385D01*
X79300166Y-85489684D01*
X79279596Y-85492266D01*
X75549173Y-85434491D01*
X75546632Y-85433963D01*
X75476727Y-85433369D01*
X75407003Y-85432289D01*
X75404457Y-85432755D01*
X71564595Y-85400118D01*
X71555887Y-85398525D01*
X71492281Y-85399504D01*
X71428677Y-85398963D01*
X71419981Y-85400616D01*
X67102870Y-85467036D01*
X67097358Y-85466113D01*
X67030537Y-85468149D01*
X66963699Y-85469177D01*
X66958236Y-85470351D01*
X62481292Y-85606740D01*
X62477493Y-85606144D01*
X62408972Y-85608943D01*
X62340428Y-85611031D01*
X62336681Y-85611896D01*
X58007127Y-85788742D01*
X58004356Y-85788329D01*
X57934910Y-85791692D01*
X57865279Y-85794536D01*
X57862550Y-85795196D01*
X53988783Y-85982778D01*
X53986669Y-85982475D01*
X53916397Y-85986283D01*
X53846303Y-85989677D01*
X53844237Y-85990193D01*
X50735131Y-86158664D01*
X50733483Y-86158436D01*
X50662784Y-86162585D01*
X50592226Y-86166408D01*
X50590618Y-86166820D01*
X48555388Y-86286249D01*
X48554165Y-86286084D01*
X48483193Y-86290486D01*
X48412096Y-86294658D01*
X48410900Y-86294970D01*
X48000147Y-86320446D01*
X48875835Y-85957724D01*
X49757724Y-85075835D01*
X50235000Y-83923590D01*
X50235000Y-82676410D01*
X49757724Y-81524165D01*
X48875835Y-80642276D01*
X47723590Y-80165000D01*
X46476410Y-80165000D01*
X45324165Y-80642276D01*
X44442276Y-81524165D01*
X43965000Y-82676410D01*
X43965000Y-82795832D01*
X43816109Y-80933746D01*
X43816109Y-80933743D01*
X43607230Y-78321428D01*
X43607230Y-78321425D01*
X43398351Y-75709109D01*
X43398351Y-75709105D01*
X43212495Y-73384724D01*
X49015000Y-73384724D01*
X49015000Y-74015276D01*
X49256302Y-74597830D01*
X49702170Y-75043698D01*
X50284724Y-75285000D01*
X50558392Y-75285000D01*
X50456106Y-75635925D01*
X50494935Y-75990472D01*
X50308365Y-76010905D01*
X49868898Y-76252004D01*
X49555148Y-76642928D01*
X49414881Y-77124162D01*
X49469452Y-77622440D01*
X49649694Y-77950979D01*
X50419875Y-78868845D01*
X50712123Y-79103399D01*
X51193356Y-79243666D01*
X51691636Y-79189095D01*
X51733703Y-79166016D01*
X52004362Y-79819444D01*
X52520556Y-80335638D01*
X53194996Y-80615000D01*
X53925004Y-80615000D01*
X54537405Y-80361335D01*
X54629138Y-80582799D01*
X55117201Y-81070862D01*
X55754887Y-81335000D01*
X56445113Y-81335000D01*
X57082799Y-81070862D01*
X57570862Y-80582799D01*
X57662595Y-80361335D01*
X58274996Y-80615000D01*
X59005004Y-80615000D01*
X59679444Y-80335638D01*
X60195638Y-79819444D01*
X60466297Y-79166016D01*
X60508365Y-79189095D01*
X61006643Y-79243666D01*
X61487877Y-79103399D01*
X61780125Y-78868844D01*
X62550306Y-77950980D01*
X62730548Y-77622441D01*
X62785119Y-77124162D01*
X62644852Y-76642928D01*
X62331103Y-76252004D01*
X61891636Y-76010905D01*
X61705065Y-75990472D01*
X61743894Y-75635925D01*
X61641608Y-75285000D01*
X61915276Y-75285000D01*
X62497830Y-75043698D01*
X62943698Y-74597830D01*
X63185000Y-74015276D01*
X63185000Y-73384724D01*
X68115000Y-73384724D01*
X68115000Y-74015276D01*
X68356302Y-74597830D01*
X68802170Y-75043698D01*
X69384724Y-75285000D01*
X69658392Y-75285000D01*
X69556106Y-75635925D01*
X69594935Y-75990472D01*
X69408365Y-76010905D01*
X68968898Y-76252004D01*
X68655148Y-76642928D01*
X68514881Y-77124162D01*
X68569452Y-77622440D01*
X68749694Y-77950979D01*
X69519875Y-78868845D01*
X69812123Y-79103399D01*
X70293356Y-79243666D01*
X70791636Y-79189095D01*
X70833703Y-79166016D01*
X71104362Y-79819444D01*
X71620556Y-80335638D01*
X72294996Y-80615000D01*
X73025004Y-80615000D01*
X73637405Y-80361335D01*
X73729138Y-80582799D01*
X74217201Y-81070862D01*
X74854887Y-81335000D01*
X75545113Y-81335000D01*
X76182799Y-81070862D01*
X76670862Y-80582799D01*
X76762595Y-80361335D01*
X77374996Y-80615000D01*
X78105004Y-80615000D01*
X78779444Y-80335638D01*
X79295638Y-79819444D01*
X79566297Y-79166016D01*
X79608365Y-79189095D01*
X80106643Y-79243666D01*
X80587877Y-79103399D01*
X80880125Y-78868844D01*
X81650306Y-77950980D01*
X81830548Y-77622441D01*
X81885119Y-77124162D01*
X81744852Y-76642928D01*
X81431103Y-76252004D01*
X80991636Y-76010905D01*
X80805065Y-75990472D01*
X80843894Y-75635925D01*
X80741608Y-75285000D01*
X81015276Y-75285000D01*
X81597830Y-75043698D01*
X82043698Y-74597830D01*
X82285000Y-74015276D01*
X82285000Y-73384724D01*
X82043698Y-72802170D01*
X81597830Y-72356302D01*
X81015276Y-72115000D01*
X80384724Y-72115000D01*
X80143303Y-72215000D01*
X79984615Y-72215000D01*
X79438815Y-72441078D01*
X79021078Y-72858815D01*
X78795000Y-73404615D01*
X78795000Y-73995385D01*
X78971269Y-74420936D01*
X78747921Y-74486036D01*
X78420883Y-74748512D01*
X77484039Y-75865000D01*
X77374996Y-75865000D01*
X76700556Y-76144362D01*
X76184362Y-76660556D01*
X75905000Y-77334996D01*
X75905000Y-78014070D01*
X75545113Y-77865000D01*
X74854887Y-77865000D01*
X74495000Y-78014070D01*
X74495000Y-77334996D01*
X74215638Y-76660556D01*
X73699444Y-76144362D01*
X73025004Y-75865000D01*
X72915962Y-75865000D01*
X71979117Y-74748512D01*
X71652078Y-74486036D01*
X71428731Y-74420936D01*
X71605000Y-73995385D01*
X71605000Y-73404615D01*
X71510249Y-73175866D01*
X72565000Y-73175866D01*
X72565000Y-74224134D01*
X72966155Y-75192608D01*
X73707392Y-75933845D01*
X74675866Y-76335000D01*
X75724134Y-76335000D01*
X76692608Y-75933845D01*
X77433845Y-75192608D01*
X77835000Y-74224134D01*
X77835000Y-73175866D01*
X77433845Y-72207392D01*
X76692608Y-71466155D01*
X75724134Y-71065000D01*
X74675866Y-71065000D01*
X73707392Y-71466155D01*
X72966155Y-72207392D01*
X72565000Y-73175866D01*
X71510249Y-73175866D01*
X71378922Y-72858815D01*
X70961185Y-72441078D01*
X70415385Y-72215000D01*
X70256697Y-72215000D01*
X70015276Y-72115000D01*
X69384724Y-72115000D01*
X68802170Y-72356302D01*
X68356302Y-72802170D01*
X68115000Y-73384724D01*
X63185000Y-73384724D01*
X62943698Y-72802170D01*
X62497830Y-72356302D01*
X61915276Y-72115000D01*
X61284724Y-72115000D01*
X61043303Y-72215000D01*
X60884615Y-72215000D01*
X60338815Y-72441078D01*
X59921078Y-72858815D01*
X59695000Y-73404615D01*
X59695000Y-73995385D01*
X59871269Y-74420936D01*
X59647921Y-74486036D01*
X59320883Y-74748512D01*
X58384039Y-75865000D01*
X58274996Y-75865000D01*
X57600556Y-76144362D01*
X57084362Y-76660556D01*
X56805000Y-77334996D01*
X56805000Y-78014070D01*
X56445113Y-77865000D01*
X55754887Y-77865000D01*
X55395000Y-78014070D01*
X55395000Y-77334996D01*
X55115638Y-76660556D01*
X54599444Y-76144362D01*
X53925004Y-75865000D01*
X53815962Y-75865000D01*
X52879117Y-74748512D01*
X52552078Y-74486036D01*
X52328731Y-74420936D01*
X52505000Y-73995385D01*
X52505000Y-73404615D01*
X52410249Y-73175866D01*
X53465000Y-73175866D01*
X53465000Y-74224134D01*
X53866155Y-75192608D01*
X54607392Y-75933845D01*
X55575866Y-76335000D01*
X56624134Y-76335000D01*
X57592608Y-75933845D01*
X58333845Y-75192608D01*
X58735000Y-74224134D01*
X58735000Y-73175866D01*
X58333845Y-72207392D01*
X57592608Y-71466155D01*
X56624134Y-71065000D01*
X55575866Y-71065000D01*
X54607392Y-71466155D01*
X53866155Y-72207392D01*
X53465000Y-73175866D01*
X52410249Y-73175866D01*
X52278922Y-72858815D01*
X51861185Y-72441078D01*
X51315385Y-72215000D01*
X51156697Y-72215000D01*
X50915276Y-72115000D01*
X50284724Y-72115000D01*
X49702170Y-72356302D01*
X49256302Y-72802170D01*
X49015000Y-73384724D01*
X43212495Y-73384724D01*
X43189471Y-73096790D01*
X43189471Y-73096787D01*
X42980592Y-70484471D01*
X42980592Y-70484468D01*
X42883823Y-69274234D01*
X49745000Y-69274234D01*
X49745000Y-69725766D01*
X49917793Y-70142926D01*
X50237074Y-70462207D01*
X50654234Y-70635000D01*
X51105766Y-70635000D01*
X51522926Y-70462207D01*
X51842207Y-70142926D01*
X52015000Y-69725766D01*
X52015000Y-69274234D01*
X60185000Y-69274234D01*
X60185000Y-69725766D01*
X60357793Y-70142926D01*
X60677074Y-70462207D01*
X61094234Y-70635000D01*
X61545766Y-70635000D01*
X61962926Y-70462207D01*
X62282207Y-70142926D01*
X62455000Y-69725766D01*
X62455000Y-69274234D01*
X68845000Y-69274234D01*
X68845000Y-69725766D01*
X69017793Y-70142926D01*
X69337074Y-70462207D01*
X69754234Y-70635000D01*
X70205766Y-70635000D01*
X70622926Y-70462207D01*
X70942207Y-70142926D01*
X71115000Y-69725766D01*
X71115000Y-69274234D01*
X79285000Y-69274234D01*
X79285000Y-69725766D01*
X79457793Y-70142926D01*
X79777074Y-70462207D01*
X80194234Y-70635000D01*
X80645766Y-70635000D01*
X81062926Y-70462207D01*
X81382207Y-70142926D01*
X81555000Y-69725766D01*
X81555000Y-69274234D01*
X81382207Y-68857074D01*
X81062926Y-68537793D01*
X80645766Y-68365000D01*
X80194234Y-68365000D01*
X79777074Y-68537793D01*
X79457793Y-68857074D01*
X79285000Y-69274234D01*
X71115000Y-69274234D01*
X70942207Y-68857074D01*
X70622926Y-68537793D01*
X70205766Y-68365000D01*
X69754234Y-68365000D01*
X69337074Y-68537793D01*
X69017793Y-68857074D01*
X68845000Y-69274234D01*
X62455000Y-69274234D01*
X62282207Y-68857074D01*
X61962926Y-68537793D01*
X61545766Y-68365000D01*
X61094234Y-68365000D01*
X60677074Y-68537793D01*
X60357793Y-68857074D01*
X60185000Y-69274234D01*
X52015000Y-69274234D01*
X51842207Y-68857074D01*
X51522926Y-68537793D01*
X51105766Y-68365000D01*
X50654234Y-68365000D01*
X50237074Y-68537793D01*
X49917793Y-68857074D01*
X49745000Y-69274234D01*
X42883823Y-69274234D01*
X42771713Y-67872153D01*
X42771713Y-67872150D01*
X42562834Y-65259834D01*
X42562834Y-65259831D01*
X42551220Y-65114586D01*
X42742276Y-65575835D01*
X43624165Y-66457724D01*
X44776410Y-66935000D01*
X46023590Y-66935000D01*
X47175835Y-66457724D01*
X48057724Y-65575835D01*
X48074741Y-65534750D01*
X50856500Y-65534750D01*
X50856500Y-66065250D01*
X51059513Y-66555367D01*
X51434633Y-66930487D01*
X51924750Y-67133500D01*
X52455250Y-67133500D01*
X52945367Y-66930487D01*
X53132689Y-66743165D01*
X53327235Y-66873157D01*
X53575000Y-66922440D01*
X54875000Y-66922440D01*
X55122765Y-66873157D01*
X55332809Y-66732809D01*
X55473157Y-66522765D01*
X55522440Y-66275000D01*
X55522440Y-65325000D01*
X55473157Y-65077235D01*
X55332809Y-64867191D01*
X55122765Y-64726843D01*
X54875000Y-64677560D01*
X53575000Y-64677560D01*
X53327235Y-64726843D01*
X53132689Y-64856835D01*
X52945367Y-64669513D01*
X52455250Y-64466500D01*
X51924750Y-64466500D01*
X51434633Y-64669513D01*
X51059513Y-65044633D01*
X50856500Y-65534750D01*
X48074741Y-65534750D01*
X48535000Y-64423590D01*
X48535000Y-63176410D01*
X48057724Y-62024165D01*
X47175835Y-61142276D01*
X46023590Y-60665000D01*
X44776410Y-60665000D01*
X43624165Y-61142276D01*
X42742276Y-62024165D01*
X42375009Y-62910826D01*
X42354550Y-62654959D01*
X42415356Y-62212784D01*
X42595619Y-61736334D01*
X42891313Y-61242317D01*
X43279990Y-60774140D01*
X43732192Y-60369541D01*
X44213380Y-60060765D01*
X44684279Y-59871899D01*
X45147041Y-59805739D01*
X46235827Y-59864442D01*
X49007289Y-60019009D01*
X52926989Y-60240969D01*
X57534302Y-60505840D01*
X62364888Y-60788924D01*
X66958114Y-61065736D01*
X70849659Y-61311569D01*
X73532483Y-61498688D01*
X73535066Y-61499374D01*
X73560487Y-61500988D01*
X73563917Y-61501865D01*
X73589082Y-61503222D01*
X73592516Y-61504065D01*
X73617568Y-61505177D01*
X73621006Y-61505986D01*
X73645918Y-61506854D01*
X73649214Y-61507598D01*
X73660856Y-61507897D01*
X73672650Y-61508757D01*
X73675106Y-61508452D01*
X73677290Y-61508925D01*
X73688432Y-61509114D01*
X73701439Y-61509940D01*
X73703658Y-61509643D01*
X73705194Y-61509963D01*
X73715822Y-61510057D01*
X73730122Y-61510828D01*
X73733619Y-61510326D01*
X73758669Y-61511438D01*
X73762162Y-61510903D01*
X73787223Y-61511776D01*
X73790561Y-61511232D01*
X73798713Y-61511442D01*
X76668022Y-61662516D01*
X80530471Y-62060224D01*
X85043516Y-62649780D01*
X89866750Y-63374924D01*
X94663975Y-64179467D01*
X99099027Y-65006992D01*
X102832434Y-65800058D01*
X105545494Y-66505306D01*
X106368809Y-66730251D01*
X106412594Y-66745610D01*
X106438463Y-66749282D01*
X106463676Y-66756171D01*
X106509976Y-66759434D01*
X107377681Y-66882610D01*
X107429602Y-66892809D01*
X107449202Y-66892762D01*
X107468607Y-66895517D01*
X107521442Y-66892590D01*
X108417636Y-66890456D01*
X108484002Y-66891378D01*
X108489929Y-66890284D01*
X108495955Y-66890270D01*
X108561027Y-66877165D01*
X109306098Y-66739684D01*
X109321368Y-66742298D01*
X109449333Y-66713255D01*
X109505817Y-66702832D01*
X109519831Y-66697254D01*
X109534542Y-66693915D01*
X109587001Y-66670518D01*
X109708915Y-66621991D01*
X109720022Y-66611188D01*
X110290680Y-66356667D01*
X110331129Y-66351184D01*
X110423159Y-66297580D01*
X110453029Y-66284257D01*
X110485573Y-66261225D01*
X110520018Y-66241162D01*
X110544521Y-66219507D01*
X110631460Y-66157979D01*
X110653220Y-66123441D01*
X111148564Y-65685669D01*
X111198068Y-65659960D01*
X111257105Y-65589742D01*
X111270549Y-65577861D01*
X111303620Y-65534419D01*
X111338742Y-65492645D01*
X111347384Y-65476929D01*
X111402956Y-65403929D01*
X111417188Y-65349990D01*
X111772517Y-64703817D01*
X111805143Y-64670279D01*
X111842365Y-64576796D01*
X111855293Y-64553286D01*
X111869091Y-64509672D01*
X111886006Y-64467191D01*
X111890875Y-64440818D01*
X111921230Y-64344873D01*
X111917197Y-64298253D01*
X112092697Y-63347716D01*
X112102346Y-63314972D01*
X112105808Y-63276708D01*
X112112784Y-63238922D01*
X112112314Y-63204788D01*
X112479176Y-59149468D01*
X112479176Y-59149467D01*
X112842963Y-55128151D01*
X112842963Y-55128150D01*
X113206749Y-51106834D01*
X113206749Y-51106833D01*
X113570536Y-47085517D01*
X113570536Y-47085516D01*
X113934322Y-43064200D01*
X113934322Y-43064199D01*
X114298109Y-39042882D01*
X114298109Y-39042881D01*
X114342356Y-38553768D01*
X115845850Y-38553768D01*
X115970762Y-38949937D01*
X116205970Y-39040245D01*
X117073309Y-38312461D01*
X116345525Y-37445122D01*
X116098209Y-37493215D01*
X115866551Y-37998393D01*
X115845850Y-38553768D01*
X114342356Y-38553768D01*
X114661895Y-35021565D01*
X114661895Y-35021564D01*
X115018790Y-31076428D01*
X115072112Y-30551633D01*
X115203939Y-30129304D01*
X115413005Y-29745394D01*
X115690482Y-29409458D01*
X116026414Y-29131987D01*
X116410328Y-28922922D01*
X116832666Y-28791093D01*
X117293464Y-28744274D01*
X119300223Y-28913607D01*
X119300223Y-28913607D01*
G37*
X119300223Y-28913607D02*
X121447217Y-29094773D01*
X123594212Y-29275940D01*
X125741206Y-29457106D01*
X127888201Y-29638272D01*
X130035195Y-29819438D01*
X132182190Y-30000605D01*
X134395028Y-30187327D01*
X134917604Y-30240422D01*
X135339940Y-30372251D01*
X135723850Y-30581316D01*
X136059784Y-30858787D01*
X136337255Y-31194719D01*
X136546320Y-31578629D01*
X136678148Y-32000964D01*
X136720737Y-32420126D01*
X136713711Y-32455450D01*
X136722324Y-32498752D01*
X136585705Y-34212047D01*
X136197698Y-39027656D01*
X135640265Y-45922278D01*
X134986901Y-53978831D01*
X134311168Y-62279317D01*
X134148407Y-64266866D01*
X134115904Y-64103463D01*
X133947929Y-63852071D01*
X133884473Y-63809671D01*
X133560000Y-63485199D01*
X133560000Y-62514802D01*
X133684472Y-62390329D01*
X133747929Y-62347929D01*
X133915904Y-62096537D01*
X133960000Y-61874852D01*
X133960000Y-61874848D01*
X133974888Y-61800001D01*
X133960000Y-61725154D01*
X133960000Y-59914801D01*
X134284473Y-59590329D01*
X134347929Y-59547929D01*
X134515904Y-59296537D01*
X134560000Y-59074852D01*
X134560000Y-59074848D01*
X134574888Y-59000001D01*
X134560000Y-58925154D01*
X134560000Y-53074848D01*
X134574888Y-53000000D01*
X134560000Y-52925152D01*
X134560000Y-52925148D01*
X134518379Y-52715904D01*
X134515904Y-52703462D01*
X134390329Y-52515527D01*
X134347929Y-52452071D01*
X134284473Y-52409671D01*
X133873335Y-51998533D01*
X133923797Y-51948071D01*
X134136477Y-51434615D01*
X134136477Y-50878853D01*
X133923797Y-50365397D01*
X133530814Y-49972414D01*
X133446319Y-49937415D01*
X133752189Y-49810720D01*
X134145172Y-49417737D01*
X134357852Y-48904281D01*
X134357852Y-48348519D01*
X134145172Y-47835063D01*
X133752189Y-47442080D01*
X133667693Y-47407081D01*
X133973565Y-47280385D01*
X134366548Y-46887402D01*
X134579228Y-46373946D01*
X134579228Y-45818184D01*
X134366548Y-45304728D01*
X133973565Y-44911745D01*
X133889071Y-44876746D01*
X134194941Y-44750051D01*
X134587924Y-44357068D01*
X134800604Y-43843612D01*
X134800604Y-43287850D01*
X134587924Y-42774394D01*
X134194941Y-42381411D01*
X134128877Y-42354046D01*
X134246801Y-42316865D01*
X134337109Y-42081657D01*
X133609325Y-41214318D01*
X133602086Y-41220393D01*
X133432743Y-41051050D01*
X133803901Y-41051050D01*
X134531685Y-41918389D01*
X134779001Y-41870296D01*
X135010659Y-41365118D01*
X135031360Y-40809743D01*
X134906448Y-40413574D01*
X134671240Y-40323266D01*
X133803901Y-41051050D01*
X133432743Y-41051050D01*
X133431230Y-41049537D01*
X133241292Y-41239475D01*
X133215239Y-41213422D01*
X133446057Y-41019742D01*
X133439982Y-41012503D01*
X133610838Y-40841647D01*
X133417727Y-40648536D01*
X133444058Y-40622205D01*
X133640633Y-40856474D01*
X134507972Y-40128690D01*
X134459879Y-39881374D01*
X134340701Y-39826723D01*
X134468177Y-39786530D01*
X134558485Y-39551322D01*
X133830701Y-38683983D01*
X133823462Y-38690058D01*
X133654119Y-38520715D01*
X134025277Y-38520715D01*
X134753061Y-39388054D01*
X135000377Y-39339961D01*
X135232035Y-38834783D01*
X135252736Y-38279408D01*
X135127824Y-37883239D01*
X134892616Y-37792931D01*
X134025277Y-38520715D01*
X133654119Y-38520715D01*
X133652606Y-38519202D01*
X133462668Y-38709141D01*
X133436614Y-38683087D01*
X133667433Y-38489407D01*
X132939649Y-37622068D01*
X132910762Y-37627685D01*
X132798007Y-37493309D01*
X132835315Y-37097845D01*
X132849363Y-37111893D01*
X133039301Y-36921955D01*
X133065354Y-36948008D01*
X132834536Y-37141688D01*
X133562320Y-38009027D01*
X133591207Y-38003410D01*
X133862009Y-38326139D01*
X134729348Y-37598355D01*
X134681255Y-37351039D01*
X134545665Y-37288862D01*
X134859067Y-37159047D01*
X135252050Y-36766064D01*
X135464730Y-36252608D01*
X135464730Y-35696846D01*
X135252050Y-35183390D01*
X134859067Y-34790407D01*
X134774571Y-34755408D01*
X135080443Y-34628712D01*
X135473426Y-34235729D01*
X135686106Y-33722273D01*
X135686106Y-33166511D01*
X135473426Y-32653055D01*
X135080443Y-32260072D01*
X134566987Y-32047392D01*
X134011225Y-32047392D01*
X133497769Y-32260072D01*
X133250395Y-32507446D01*
X132407400Y-32507446D01*
X132332553Y-32492558D01*
X132257706Y-32507446D01*
X132257702Y-32507446D01*
X132036017Y-32551542D01*
X131784625Y-32719517D01*
X131742225Y-32782974D01*
X131485199Y-33040000D01*
X123571169Y-33040000D01*
X123477441Y-32813720D01*
X123186290Y-32522569D01*
X122805884Y-32365000D01*
X122394136Y-32365000D01*
X122050240Y-32507446D01*
X120477762Y-32507446D01*
X120524023Y-32395763D01*
X120524023Y-31840001D01*
X120311343Y-31326545D01*
X119918360Y-30933562D01*
X119404904Y-30720882D01*
X118849142Y-30720882D01*
X118335686Y-30933562D01*
X117942703Y-31326545D01*
X117730023Y-31840001D01*
X117730023Y-31870446D01*
X117417101Y-31870446D01*
X116903645Y-32083126D01*
X116510662Y-32476109D01*
X116297982Y-32989565D01*
X116297982Y-33545327D01*
X116510662Y-34058783D01*
X116903645Y-34451766D01*
X116988140Y-34486765D01*
X116682270Y-34613460D01*
X116289287Y-35006443D01*
X116076607Y-35519899D01*
X116076607Y-36075661D01*
X116289287Y-36589117D01*
X116682270Y-36982100D01*
X116748334Y-37009464D01*
X116630409Y-37046646D01*
X116540101Y-37281854D01*
X117267885Y-38149193D01*
X117275124Y-38143118D01*
X117445980Y-38313974D01*
X117645009Y-38114946D01*
X117671857Y-38141794D01*
X117431153Y-38343769D01*
X117437228Y-38351008D01*
X117266372Y-38521864D01*
X117470317Y-38725809D01*
X117443038Y-38753087D01*
X117236577Y-38507037D01*
X116369238Y-39234821D01*
X116417331Y-39482137D01*
X116536507Y-39536787D01*
X116409033Y-39576980D01*
X116318725Y-39812188D01*
X117046509Y-40679527D01*
X117053748Y-40673452D01*
X117224604Y-40844308D01*
X117423633Y-40645280D01*
X117450481Y-40672128D01*
X117209777Y-40874103D01*
X117215852Y-40881342D01*
X117044996Y-41052198D01*
X117232798Y-41240000D01*
X117185227Y-41240000D01*
X117015201Y-41037371D01*
X117007962Y-41043446D01*
X116837106Y-40872590D01*
X116469696Y-41240000D01*
X116378563Y-41240000D01*
X116851933Y-40842795D01*
X116124149Y-39975456D01*
X115876833Y-40023549D01*
X115645175Y-40528727D01*
X115624474Y-41084102D01*
X115725107Y-41403270D01*
X115652071Y-41452071D01*
X115609671Y-41515527D01*
X114915530Y-42209669D01*
X114852071Y-42252071D01*
X114684096Y-42503464D01*
X114640000Y-42725149D01*
X114640000Y-42725153D01*
X114625112Y-42800000D01*
X114640000Y-42874847D01*
X114640001Y-47085197D01*
X114315530Y-47409669D01*
X114252071Y-47452071D01*
X114084096Y-47703464D01*
X114040000Y-47925149D01*
X114040000Y-47925153D01*
X114025112Y-48000000D01*
X114040000Y-48074847D01*
X114040001Y-52485198D01*
X113915529Y-52609669D01*
X113852071Y-52652071D01*
X113684096Y-52903464D01*
X113640000Y-53125149D01*
X113640000Y-53125153D01*
X113625112Y-53200000D01*
X113640000Y-53274847D01*
X113640001Y-57285198D01*
X113515529Y-57409669D01*
X113452071Y-57452071D01*
X113284096Y-57703464D01*
X113240000Y-57925149D01*
X113240000Y-57925153D01*
X113225112Y-58000000D01*
X113240000Y-58074847D01*
X113240001Y-61725148D01*
X113225112Y-61800000D01*
X113240001Y-61874852D01*
X113271857Y-62035004D01*
X113284097Y-62096537D01*
X113388022Y-62252071D01*
X113452072Y-62347929D01*
X113515528Y-62390329D01*
X114030744Y-62905545D01*
X113922569Y-63013720D01*
X113765000Y-63394126D01*
X113765000Y-63805874D01*
X113796426Y-63881744D01*
X113237145Y-63881744D01*
X112636214Y-64130658D01*
X112176281Y-64590591D01*
X111927367Y-65191522D01*
X111927367Y-65841966D01*
X112176281Y-66442897D01*
X112636214Y-66902830D01*
X112909266Y-67015932D01*
X111515529Y-68409670D01*
X111515527Y-68409671D01*
X110485199Y-69440000D01*
X105514802Y-69440000D01*
X103790331Y-67715530D01*
X103747929Y-67652071D01*
X103496537Y-67484096D01*
X103274852Y-67440000D01*
X103274847Y-67440000D01*
X103200000Y-67425112D01*
X103125153Y-67440000D01*
X101314802Y-67440000D01*
X100790331Y-66915530D01*
X100747929Y-66852071D01*
X100496537Y-66684096D01*
X100274852Y-66640000D01*
X100274847Y-66640000D01*
X100200000Y-66625112D01*
X100125153Y-66640000D01*
X98314802Y-66640000D01*
X97590331Y-65915530D01*
X97547929Y-65852071D01*
X97296537Y-65684096D01*
X97074852Y-65640000D01*
X97074847Y-65640000D01*
X97000000Y-65625112D01*
X96925153Y-65640000D01*
X93874846Y-65640000D01*
X93799999Y-65625112D01*
X93725152Y-65640000D01*
X93725148Y-65640000D01*
X93503463Y-65684096D01*
X93252071Y-65852071D01*
X93209671Y-65915527D01*
X92885199Y-66240000D01*
X83303711Y-66240000D01*
X83186280Y-66122569D01*
X82805874Y-65965000D01*
X82394126Y-65965000D01*
X82013720Y-66122569D01*
X81722569Y-66413720D01*
X81712597Y-66437795D01*
X81590331Y-66315530D01*
X81547929Y-66252071D01*
X81296537Y-66084096D01*
X81074852Y-66040000D01*
X81074847Y-66040000D01*
X81000000Y-66025112D01*
X80925153Y-66040000D01*
X80355940Y-66040000D01*
X80355940Y-65101500D01*
X80306657Y-64853735D01*
X80166309Y-64643691D01*
X79956265Y-64503343D01*
X79708500Y-64454060D01*
X78311500Y-64454060D01*
X78063735Y-64503343D01*
X77853691Y-64643691D01*
X77806886Y-64713739D01*
X77625000Y-64677560D01*
X76325000Y-64677560D01*
X76077235Y-64726843D01*
X75867191Y-64867191D01*
X75726843Y-65077235D01*
X75677560Y-65325000D01*
X75677560Y-66063501D01*
X74722440Y-66063501D01*
X74722440Y-65325000D01*
X74673157Y-65077235D01*
X74532809Y-64867191D01*
X74322765Y-64726843D01*
X74075000Y-64677560D01*
X72775000Y-64677560D01*
X72527235Y-64726843D01*
X72332689Y-64856835D01*
X72145367Y-64669513D01*
X71655250Y-64466500D01*
X71124750Y-64466500D01*
X70634633Y-64669513D01*
X70259513Y-65044633D01*
X70056500Y-65534750D01*
X70056500Y-66063501D01*
X62096803Y-66063501D01*
X61348831Y-65315530D01*
X61306429Y-65252071D01*
X61155940Y-65151517D01*
X61155940Y-65101500D01*
X61106657Y-64853735D01*
X60966309Y-64643691D01*
X60756265Y-64503343D01*
X60508500Y-64454060D01*
X59111500Y-64454060D01*
X58863735Y-64503343D01*
X58653691Y-64643691D01*
X58606886Y-64713739D01*
X58425000Y-64677560D01*
X57125000Y-64677560D01*
X56877235Y-64726843D01*
X56667191Y-64867191D01*
X56526843Y-65077235D01*
X56477560Y-65325000D01*
X56477560Y-66275000D01*
X56526843Y-66522765D01*
X56667191Y-66732809D01*
X56877235Y-66873157D01*
X57125000Y-66922440D01*
X58425000Y-66922440D01*
X58606886Y-66886261D01*
X58653691Y-66956309D01*
X58863735Y-67096657D01*
X59111500Y-67145940D01*
X60508500Y-67145940D01*
X60756265Y-67096657D01*
X60890597Y-67006899D01*
X61191672Y-67307974D01*
X61234072Y-67371430D01*
X61485464Y-67539405D01*
X61707149Y-67583501D01*
X61707154Y-67583501D01*
X61782001Y-67598389D01*
X61856848Y-67583501D01*
X76963152Y-67583501D01*
X77037999Y-67598389D01*
X77112846Y-67583501D01*
X77112851Y-67583501D01*
X77334536Y-67539405D01*
X77585928Y-67371430D01*
X77628330Y-67307971D01*
X77929403Y-67006898D01*
X78063735Y-67096657D01*
X78311500Y-67145940D01*
X79281138Y-67145940D01*
X79419670Y-67284472D01*
X79462071Y-67347929D01*
X79713463Y-67515904D01*
X79935148Y-67560000D01*
X79935152Y-67560000D01*
X80010000Y-67574888D01*
X80084848Y-67560000D01*
X80685199Y-67560000D01*
X82040000Y-68914803D01*
X82040001Y-72125148D01*
X82025112Y-72200000D01*
X82084097Y-72496537D01*
X82192750Y-72659147D01*
X82252072Y-72747929D01*
X82315528Y-72790329D01*
X83609671Y-74084473D01*
X83652071Y-74147929D01*
X83903463Y-74315904D01*
X84125148Y-74360000D01*
X84125153Y-74360000D01*
X84200000Y-74374888D01*
X84274847Y-74360000D01*
X88925153Y-74360000D01*
X89000000Y-74374888D01*
X89074847Y-74360000D01*
X89074852Y-74360000D01*
X89296537Y-74315904D01*
X89547929Y-74147929D01*
X89590331Y-74084470D01*
X90314802Y-73360000D01*
X99191431Y-73360000D01*
X99266278Y-73374888D01*
X99341125Y-73360000D01*
X99341130Y-73360000D01*
X99562815Y-73315904D01*
X99814207Y-73147929D01*
X99856609Y-73084470D01*
X102028891Y-70912189D01*
X102606521Y-71066964D01*
X102858599Y-71083486D01*
X103097811Y-71002284D01*
X103115087Y-70987133D01*
X104112332Y-70987133D01*
X104409671Y-71284473D01*
X104452071Y-71347929D01*
X104703463Y-71515904D01*
X104925148Y-71560000D01*
X104925152Y-71560000D01*
X104999999Y-71574888D01*
X105074846Y-71560000D01*
X110925153Y-71560000D01*
X111000000Y-71574888D01*
X111074847Y-71560000D01*
X111074852Y-71560000D01*
X111296537Y-71515904D01*
X111547929Y-71347929D01*
X111590331Y-71284470D01*
X113357408Y-69517393D01*
X113329511Y-69836260D01*
X113357013Y-70087377D01*
X113478519Y-70308855D01*
X113675533Y-70466974D01*
X113918059Y-70537664D01*
X114321371Y-70572949D01*
X115512577Y-71764156D01*
X115561951Y-71838049D01*
X115635844Y-71887423D01*
X115635845Y-71887424D01*
X115659849Y-71903463D01*
X115854690Y-72033652D01*
X116112835Y-72085000D01*
X116112839Y-72085000D01*
X116200000Y-72102337D01*
X116287161Y-72085000D01*
X122118068Y-72085000D01*
X122205229Y-72102337D01*
X122292390Y-72085000D01*
X122292394Y-72085000D01*
X122550539Y-72033652D01*
X122671841Y-71952600D01*
X122858562Y-72102459D01*
X123282566Y-72226045D01*
X124370920Y-72321263D01*
X124809943Y-72273182D01*
X125040001Y-72146968D01*
X125040001Y-72685197D01*
X122885199Y-74840000D01*
X105997945Y-74840000D01*
X105923098Y-74825112D01*
X105848251Y-74840000D01*
X105848247Y-74840000D01*
X105626562Y-74884096D01*
X105564001Y-74925898D01*
X105438625Y-75009671D01*
X105438623Y-75009673D01*
X105375170Y-75052071D01*
X105332772Y-75115524D01*
X103163586Y-77284711D01*
X103056290Y-77025675D01*
X102610422Y-76579807D01*
X102027868Y-76338505D01*
X101623301Y-76338505D01*
X101602288Y-76329801D01*
X101011518Y-76329801D01*
X100465718Y-76555879D01*
X100047981Y-76973616D01*
X99821903Y-77519416D01*
X99821903Y-78110186D01*
X99847768Y-78172630D01*
X99623589Y-78177522D01*
X99239760Y-78346410D01*
X98040552Y-79186104D01*
X97453171Y-79186104D01*
X96778731Y-79465466D01*
X96262537Y-79981660D01*
X95983175Y-80656100D01*
X95983175Y-80826642D01*
X95974720Y-80847053D01*
X95855767Y-80728100D01*
X95218081Y-80463962D01*
X94616863Y-80463962D01*
X94616863Y-80383728D01*
X94746272Y-80071307D01*
X94746272Y-79341299D01*
X94466910Y-78666859D01*
X93950716Y-78150665D01*
X93644524Y-78023836D01*
X93017491Y-76679159D01*
X92769529Y-76340983D01*
X92562841Y-76215562D01*
X92752019Y-76026384D01*
X92772944Y-75975866D01*
X93765000Y-75975866D01*
X93765000Y-77024134D01*
X94166155Y-77992608D01*
X94907392Y-78733845D01*
X95875866Y-79135000D01*
X96924134Y-79135000D01*
X97892608Y-78733845D01*
X98633845Y-77992608D01*
X99035000Y-77024134D01*
X99035000Y-75975866D01*
X98633845Y-75007392D01*
X97892608Y-74266155D01*
X96924134Y-73865000D01*
X95875866Y-73865000D01*
X94907392Y-74266155D01*
X94166155Y-75007392D01*
X93765000Y-75975866D01*
X92772944Y-75975866D01*
X92978097Y-75480584D01*
X92978097Y-74889814D01*
X92752019Y-74344014D01*
X92334282Y-73926277D01*
X92068717Y-73816276D01*
X91985238Y-73732797D01*
X91588304Y-73568381D01*
X101394173Y-73568381D01*
X101394173Y-74019913D01*
X101566966Y-74437073D01*
X101886247Y-74756354D01*
X102303407Y-74929147D01*
X102754939Y-74929147D01*
X103172099Y-74756354D01*
X103491380Y-74437073D01*
X103664173Y-74019913D01*
X103664173Y-73568381D01*
X103491380Y-73151221D01*
X103172099Y-72831940D01*
X102754939Y-72659147D01*
X102303407Y-72659147D01*
X101886247Y-72831940D01*
X101566966Y-73151221D01*
X101394173Y-73568381D01*
X91588304Y-73568381D01*
X91402684Y-73491495D01*
X90772132Y-73491495D01*
X90189578Y-73732797D01*
X89743710Y-74178665D01*
X89502408Y-74761219D01*
X89502408Y-75391771D01*
X89743710Y-75974325D01*
X90189578Y-76420193D01*
X90632723Y-76603750D01*
X90447363Y-76909213D01*
X90393105Y-77261729D01*
X90207602Y-77233178D01*
X89720709Y-77352320D01*
X89316472Y-77648719D01*
X89056432Y-78077252D01*
X88980180Y-78572676D01*
X89069249Y-78936670D01*
X89575626Y-80022597D01*
X89797209Y-80324798D01*
X90225742Y-80584838D01*
X90721166Y-80661090D01*
X90796748Y-80642595D01*
X90796748Y-81114507D01*
X91076110Y-81788947D01*
X91592304Y-82305141D01*
X92266744Y-82584503D01*
X92996752Y-82584503D01*
X93137968Y-82526009D01*
X93137968Y-82544075D01*
X93402106Y-83181761D01*
X93890169Y-83669824D01*
X94527855Y-83933962D01*
X95218081Y-83933962D01*
X95855767Y-83669824D01*
X96202428Y-83323163D01*
X96499207Y-83619942D01*
X97173647Y-83899304D01*
X97903655Y-83899304D01*
X98060571Y-83834307D01*
X106161500Y-83834307D01*
X106161500Y-84364807D01*
X106364513Y-84854924D01*
X106739633Y-85230044D01*
X107229750Y-85433057D01*
X107760250Y-85433057D01*
X108250367Y-85230044D01*
X108625487Y-84854924D01*
X108828500Y-84364807D01*
X108828500Y-84275866D01*
X113565000Y-84275866D01*
X113565000Y-85324134D01*
X113966155Y-86292608D01*
X114707392Y-87033845D01*
X115675866Y-87435000D01*
X116724134Y-87435000D01*
X117692608Y-87033845D01*
X118433845Y-86292608D01*
X118835000Y-85324134D01*
X118835000Y-84275866D01*
X118433845Y-83307392D01*
X117692608Y-82566155D01*
X116724134Y-82165000D01*
X115675866Y-82165000D01*
X114707392Y-82566155D01*
X113966155Y-83307392D01*
X113565000Y-84275866D01*
X108828500Y-84275866D01*
X108828500Y-83840860D01*
X108996975Y-83672384D01*
X109060429Y-83629986D01*
X109102827Y-83566533D01*
X109102829Y-83566531D01*
X109216951Y-83395734D01*
X109228404Y-83378594D01*
X109239480Y-83322909D01*
X109809562Y-82335498D01*
X109890763Y-82096286D01*
X109874241Y-81844208D01*
X109762511Y-81617642D01*
X109572582Y-81451079D01*
X108749858Y-80976079D01*
X108510646Y-80894877D01*
X108258568Y-80911399D01*
X108032001Y-81023129D01*
X107865438Y-81213058D01*
X107215438Y-82338892D01*
X107134237Y-82578104D01*
X107148755Y-82799606D01*
X106739633Y-82969070D01*
X106364513Y-83344190D01*
X106161500Y-83834307D01*
X98060571Y-83834307D01*
X98578095Y-83619942D01*
X99094289Y-83103748D01*
X99182614Y-82890514D01*
X99237471Y-82943028D01*
X99704648Y-83124704D01*
X100205787Y-83113768D01*
X100548785Y-82962845D01*
X101530282Y-82275592D01*
X101789415Y-82004898D01*
X101971091Y-81537722D01*
X101960155Y-81036582D01*
X101799508Y-80671484D01*
X101880084Y-80655456D01*
X102131476Y-80487481D01*
X102173878Y-80424022D01*
X106237902Y-76360000D01*
X110409277Y-76360000D01*
X109790131Y-77432392D01*
X109708930Y-77671604D01*
X109725452Y-77923682D01*
X109762713Y-77999240D01*
X109640438Y-78138668D01*
X108990438Y-79264502D01*
X108909237Y-79503714D01*
X108925759Y-79755792D01*
X109037489Y-79982358D01*
X109227418Y-80148921D01*
X110050142Y-80623921D01*
X110289354Y-80705123D01*
X110541432Y-80688601D01*
X110767999Y-80576871D01*
X110934562Y-80386942D01*
X111584562Y-79261108D01*
X111644172Y-79085501D01*
X111728239Y-79079991D01*
X111954806Y-78968261D01*
X112121369Y-78778332D01*
X112597539Y-77953581D01*
X114037693Y-77953581D01*
X114037693Y-78405113D01*
X114210486Y-78822273D01*
X114529767Y-79141554D01*
X114946927Y-79314347D01*
X115398459Y-79314347D01*
X115815619Y-79141554D01*
X116134900Y-78822273D01*
X116307693Y-78405113D01*
X116307693Y-77953581D01*
X116134900Y-77536421D01*
X115815619Y-77217140D01*
X115398459Y-77044347D01*
X114946927Y-77044347D01*
X114529767Y-77217140D01*
X114210486Y-77536421D01*
X114037693Y-77953581D01*
X112597539Y-77953581D01*
X112819869Y-77568494D01*
X112901070Y-77329282D01*
X112884548Y-77077204D01*
X112772818Y-76850637D01*
X112582889Y-76684074D01*
X112021576Y-76360000D01*
X123125153Y-76360000D01*
X123200000Y-76374888D01*
X123274847Y-76360000D01*
X123274852Y-76360000D01*
X123496537Y-76315904D01*
X123747929Y-76147929D01*
X123790331Y-76084470D01*
X125490012Y-74384790D01*
X125490012Y-77895955D01*
X122597629Y-80788339D01*
X122507969Y-80722597D01*
X122021074Y-80603456D01*
X121525651Y-80679709D01*
X121097119Y-80939749D01*
X120986139Y-81091107D01*
X120698507Y-80880206D01*
X120351443Y-80795280D01*
X120535000Y-80352136D01*
X120535000Y-79721584D01*
X120293698Y-79139030D01*
X119847830Y-78693162D01*
X119265276Y-78451860D01*
X118634724Y-78451860D01*
X118052170Y-78693162D01*
X117606302Y-79139030D01*
X117365000Y-79721584D01*
X117365000Y-79839643D01*
X117255000Y-80105206D01*
X117255000Y-80695976D01*
X117481078Y-81241776D01*
X117898815Y-81659513D01*
X118444615Y-81885591D01*
X118712152Y-81885591D01*
X118654688Y-82120427D01*
X118718480Y-82534889D01*
X119225931Y-83929098D01*
X119099102Y-84235291D01*
X119099102Y-84965299D01*
X119378464Y-85639739D01*
X119894658Y-86155933D01*
X120207077Y-86285341D01*
X120263813Y-86342077D01*
X119838688Y-86767201D01*
X119574550Y-87404887D01*
X119574550Y-87573113D01*
X119554137Y-87564658D01*
X119433546Y-87444067D01*
X118759106Y-87164705D01*
X118029098Y-87164705D01*
X117354658Y-87444067D01*
X116939316Y-87859409D01*
X115497597Y-88113623D01*
X115106766Y-88265609D01*
X114944788Y-88420669D01*
X114918922Y-88358224D01*
X114501185Y-87940487D01*
X113955385Y-87714409D01*
X113364615Y-87714409D01*
X112818815Y-87940487D01*
X112401078Y-88358224D01*
X112392373Y-88379239D01*
X112106302Y-88665310D01*
X111865000Y-89247864D01*
X111865000Y-89878416D01*
X112106302Y-90460970D01*
X112552170Y-90906838D01*
X113134724Y-91148140D01*
X113765276Y-91148140D01*
X114347830Y-90906838D01*
X114793698Y-90460970D01*
X114816194Y-90406661D01*
X115054614Y-90655718D01*
X115381074Y-90799364D01*
X115305484Y-90971157D01*
X115294549Y-91472296D01*
X115476224Y-91939473D01*
X115822851Y-92301564D01*
X116281659Y-92503444D01*
X116656303Y-92511619D01*
X117836288Y-92303555D01*
X118185543Y-92167738D01*
X118547635Y-91821111D01*
X118749514Y-91362303D01*
X118751171Y-91286381D01*
X118964405Y-91374705D01*
X119694413Y-91374705D01*
X120368853Y-91095343D01*
X120885047Y-90579149D01*
X121164409Y-89904709D01*
X121164409Y-89485000D01*
X121654663Y-89485000D01*
X122292349Y-89220862D01*
X122780412Y-88732799D01*
X123044550Y-88095113D01*
X123044550Y-87404887D01*
X122780412Y-86767201D01*
X122767637Y-86754426D01*
X122908853Y-86695933D01*
X123425047Y-86179739D01*
X123704409Y-85505299D01*
X123704409Y-84775291D01*
X123425047Y-84100851D01*
X123091355Y-83767159D01*
X123157879Y-83726791D01*
X123454278Y-83322553D01*
X123573419Y-82835659D01*
X123516413Y-82465287D01*
X123397365Y-82138205D01*
X126734484Y-78801087D01*
X126797940Y-78758687D01*
X126965915Y-78507295D01*
X127010011Y-78285610D01*
X127010011Y-78285606D01*
X127024899Y-78210759D01*
X127010011Y-78135912D01*
X127010011Y-72469436D01*
X127286525Y-72576346D01*
X127685003Y-72611208D01*
X127803360Y-71258376D01*
X127783436Y-71256633D01*
X127805574Y-71003599D01*
X127825498Y-71005342D01*
X127827241Y-70985418D01*
X128080275Y-71007556D01*
X128078532Y-71027480D01*
X128098456Y-71029223D01*
X128076318Y-71282257D01*
X128056394Y-71280514D01*
X127938036Y-72633346D01*
X128336514Y-72668208D01*
X128907094Y-72555870D01*
X129332731Y-72272669D01*
X129371191Y-72342773D01*
X129831924Y-72712549D01*
X130255928Y-72836135D01*
X131344282Y-72931353D01*
X131783305Y-72883272D01*
X132301248Y-72599118D01*
X132671024Y-72138385D01*
X132836338Y-71571217D01*
X132772023Y-70983960D01*
X132606381Y-70682035D01*
X132660051Y-70704266D01*
X133151365Y-70704266D01*
X133605279Y-70516248D01*
X133638858Y-70482669D01*
X133186380Y-75946116D01*
X132884663Y-79474064D01*
X132880956Y-79512332D01*
X132876934Y-79548553D01*
X132872541Y-79583035D01*
X132867751Y-79615872D01*
X132862536Y-79647211D01*
X132856851Y-79677283D01*
X132852181Y-79699146D01*
X132326672Y-81080116D01*
X131935000Y-81852508D01*
X131935000Y-81076410D01*
X131457724Y-79924165D01*
X130575835Y-79042276D01*
X129423590Y-78565000D01*
X128176410Y-78565000D01*
X127024165Y-79042276D01*
X126142276Y-79924165D01*
X125665000Y-81076410D01*
X125665000Y-82323590D01*
X126142276Y-83475835D01*
X127024165Y-84357724D01*
X128176410Y-84835000D01*
X129423590Y-84835000D01*
X130575835Y-84357724D01*
X130591353Y-84342206D01*
X130013455Y-85358935D01*
X128458912Y-87934766D01*
X126798983Y-90590474D01*
X125151163Y-93173620D01*
X123670901Y-95473075D01*
X123670480Y-95473512D01*
X123631262Y-95534652D01*
X123592858Y-95594308D01*
X123592640Y-95594860D01*
X122370897Y-97499493D01*
X121766714Y-98326144D01*
X121269096Y-98865539D01*
X121535000Y-98223590D01*
X121535000Y-96976410D01*
X121057724Y-95824165D01*
X120175835Y-94942276D01*
X119023590Y-94465000D01*
X117776410Y-94465000D01*
X116624165Y-94942276D01*
X115742276Y-95824165D01*
X115265000Y-96976410D01*
X115265000Y-98223590D01*
X115742276Y-99375835D01*
X116363884Y-99997443D01*
X115633382Y-99671453D01*
X114184984Y-98835120D01*
X114184861Y-98835012D01*
X114119550Y-98797337D01*
X114059739Y-98762801D01*
X114059597Y-98762753D01*
X112514016Y-97871177D01*
X110727893Y-96840825D01*
X108983659Y-95833737D01*
X107277713Y-94846948D01*
X105666269Y-93912006D01*
X104201052Y-93057860D01*
X102935910Y-92314698D01*
X100097166Y-90638364D01*
X100070086Y-90618262D01*
X100034969Y-90601635D01*
X100001534Y-90581891D01*
X99969726Y-90570744D01*
X97007790Y-89168343D01*
X96980639Y-89151611D01*
X96942516Y-89137438D01*
X96905763Y-89120036D01*
X96874837Y-89112276D01*
X93765254Y-87956194D01*
X93738739Y-87942664D01*
X93697534Y-87931017D01*
X93657433Y-87916108D01*
X93628070Y-87911381D01*
X90385749Y-86994887D01*
X108817693Y-86994887D01*
X108817693Y-87446419D01*
X108990486Y-87863579D01*
X109309767Y-88182860D01*
X109726927Y-88355653D01*
X110178459Y-88355653D01*
X110595619Y-88182860D01*
X110914900Y-87863579D01*
X111087693Y-87446419D01*
X111087693Y-86994887D01*
X110914900Y-86577727D01*
X110595619Y-86258446D01*
X110178459Y-86085653D01*
X109726927Y-86085653D01*
X109309767Y-86258446D01*
X108990486Y-86577727D01*
X108817693Y-86994887D01*
X90385749Y-86994887D01*
X90377831Y-86992649D01*
X90352506Y-86982014D01*
X90308317Y-86973000D01*
X90264938Y-86960738D01*
X90237569Y-86958568D01*
X86853460Y-86268235D01*
X86829683Y-86260100D01*
X86782704Y-86253801D01*
X86736242Y-86244323D01*
X86711102Y-86244200D01*
X83199730Y-85773385D01*
X83177676Y-85767333D01*
X83128137Y-85763786D01*
X83078908Y-85757185D01*
X83056083Y-85758626D01*
X79423891Y-85498543D01*
X79403635Y-85494187D01*
X79351853Y-85493385D01*
X79300166Y-85489684D01*
X79279596Y-85492266D01*
X75549173Y-85434491D01*
X75546632Y-85433963D01*
X75476727Y-85433369D01*
X75407003Y-85432289D01*
X75404457Y-85432755D01*
X71564595Y-85400118D01*
X71555887Y-85398525D01*
X71492281Y-85399504D01*
X71428677Y-85398963D01*
X71419981Y-85400616D01*
X67102870Y-85467036D01*
X67097358Y-85466113D01*
X67030537Y-85468149D01*
X66963699Y-85469177D01*
X66958236Y-85470351D01*
X62481292Y-85606740D01*
X62477493Y-85606144D01*
X62408972Y-85608943D01*
X62340428Y-85611031D01*
X62336681Y-85611896D01*
X58007127Y-85788742D01*
X58004356Y-85788329D01*
X57934910Y-85791692D01*
X57865279Y-85794536D01*
X57862550Y-85795196D01*
X53988783Y-85982778D01*
X53986669Y-85982475D01*
X53916397Y-85986283D01*
X53846303Y-85989677D01*
X53844237Y-85990193D01*
X50735131Y-86158664D01*
X50733483Y-86158436D01*
X50662784Y-86162585D01*
X50592226Y-86166408D01*
X50590618Y-86166820D01*
X48555388Y-86286249D01*
X48554165Y-86286084D01*
X48483193Y-86290486D01*
X48412096Y-86294658D01*
X48410900Y-86294970D01*
X48000147Y-86320446D01*
X48875835Y-85957724D01*
X49757724Y-85075835D01*
X50235000Y-83923590D01*
X50235000Y-82676410D01*
X49757724Y-81524165D01*
X48875835Y-80642276D01*
X47723590Y-80165000D01*
X46476410Y-80165000D01*
X45324165Y-80642276D01*
X44442276Y-81524165D01*
X43965000Y-82676410D01*
X43965000Y-82795832D01*
X43816109Y-80933746D01*
X43816109Y-80933743D01*
X43607230Y-78321428D01*
X43607230Y-78321425D01*
X43398351Y-75709109D01*
X43398351Y-75709105D01*
X43212495Y-73384724D01*
X49015000Y-73384724D01*
X49015000Y-74015276D01*
X49256302Y-74597830D01*
X49702170Y-75043698D01*
X50284724Y-75285000D01*
X50558392Y-75285000D01*
X50456106Y-75635925D01*
X50494935Y-75990472D01*
X50308365Y-76010905D01*
X49868898Y-76252004D01*
X49555148Y-76642928D01*
X49414881Y-77124162D01*
X49469452Y-77622440D01*
X49649694Y-77950979D01*
X50419875Y-78868845D01*
X50712123Y-79103399D01*
X51193356Y-79243666D01*
X51691636Y-79189095D01*
X51733703Y-79166016D01*
X52004362Y-79819444D01*
X52520556Y-80335638D01*
X53194996Y-80615000D01*
X53925004Y-80615000D01*
X54537405Y-80361335D01*
X54629138Y-80582799D01*
X55117201Y-81070862D01*
X55754887Y-81335000D01*
X56445113Y-81335000D01*
X57082799Y-81070862D01*
X57570862Y-80582799D01*
X57662595Y-80361335D01*
X58274996Y-80615000D01*
X59005004Y-80615000D01*
X59679444Y-80335638D01*
X60195638Y-79819444D01*
X60466297Y-79166016D01*
X60508365Y-79189095D01*
X61006643Y-79243666D01*
X61487877Y-79103399D01*
X61780125Y-78868844D01*
X62550306Y-77950980D01*
X62730548Y-77622441D01*
X62785119Y-77124162D01*
X62644852Y-76642928D01*
X62331103Y-76252004D01*
X61891636Y-76010905D01*
X61705065Y-75990472D01*
X61743894Y-75635925D01*
X61641608Y-75285000D01*
X61915276Y-75285000D01*
X62497830Y-75043698D01*
X62943698Y-74597830D01*
X63185000Y-74015276D01*
X63185000Y-73384724D01*
X68115000Y-73384724D01*
X68115000Y-74015276D01*
X68356302Y-74597830D01*
X68802170Y-75043698D01*
X69384724Y-75285000D01*
X69658392Y-75285000D01*
X69556106Y-75635925D01*
X69594935Y-75990472D01*
X69408365Y-76010905D01*
X68968898Y-76252004D01*
X68655148Y-76642928D01*
X68514881Y-77124162D01*
X68569452Y-77622440D01*
X68749694Y-77950979D01*
X69519875Y-78868845D01*
X69812123Y-79103399D01*
X70293356Y-79243666D01*
X70791636Y-79189095D01*
X70833703Y-79166016D01*
X71104362Y-79819444D01*
X71620556Y-80335638D01*
X72294996Y-80615000D01*
X73025004Y-80615000D01*
X73637405Y-80361335D01*
X73729138Y-80582799D01*
X74217201Y-81070862D01*
X74854887Y-81335000D01*
X75545113Y-81335000D01*
X76182799Y-81070862D01*
X76670862Y-80582799D01*
X76762595Y-80361335D01*
X77374996Y-80615000D01*
X78105004Y-80615000D01*
X78779444Y-80335638D01*
X79295638Y-79819444D01*
X79566297Y-79166016D01*
X79608365Y-79189095D01*
X80106643Y-79243666D01*
X80587877Y-79103399D01*
X80880125Y-78868844D01*
X81650306Y-77950980D01*
X81830548Y-77622441D01*
X81885119Y-77124162D01*
X81744852Y-76642928D01*
X81431103Y-76252004D01*
X80991636Y-76010905D01*
X80805065Y-75990472D01*
X80843894Y-75635925D01*
X80741608Y-75285000D01*
X81015276Y-75285000D01*
X81597830Y-75043698D01*
X82043698Y-74597830D01*
X82285000Y-74015276D01*
X82285000Y-73384724D01*
X82043698Y-72802170D01*
X81597830Y-72356302D01*
X81015276Y-72115000D01*
X80384724Y-72115000D01*
X80143303Y-72215000D01*
X79984615Y-72215000D01*
X79438815Y-72441078D01*
X79021078Y-72858815D01*
X78795000Y-73404615D01*
X78795000Y-73995385D01*
X78971269Y-74420936D01*
X78747921Y-74486036D01*
X78420883Y-74748512D01*
X77484039Y-75865000D01*
X77374996Y-75865000D01*
X76700556Y-76144362D01*
X76184362Y-76660556D01*
X75905000Y-77334996D01*
X75905000Y-78014070D01*
X75545113Y-77865000D01*
X74854887Y-77865000D01*
X74495000Y-78014070D01*
X74495000Y-77334996D01*
X74215638Y-76660556D01*
X73699444Y-76144362D01*
X73025004Y-75865000D01*
X72915962Y-75865000D01*
X71979117Y-74748512D01*
X71652078Y-74486036D01*
X71428731Y-74420936D01*
X71605000Y-73995385D01*
X71605000Y-73404615D01*
X71510249Y-73175866D01*
X72565000Y-73175866D01*
X72565000Y-74224134D01*
X72966155Y-75192608D01*
X73707392Y-75933845D01*
X74675866Y-76335000D01*
X75724134Y-76335000D01*
X76692608Y-75933845D01*
X77433845Y-75192608D01*
X77835000Y-74224134D01*
X77835000Y-73175866D01*
X77433845Y-72207392D01*
X76692608Y-71466155D01*
X75724134Y-71065000D01*
X74675866Y-71065000D01*
X73707392Y-71466155D01*
X72966155Y-72207392D01*
X72565000Y-73175866D01*
X71510249Y-73175866D01*
X71378922Y-72858815D01*
X70961185Y-72441078D01*
X70415385Y-72215000D01*
X70256697Y-72215000D01*
X70015276Y-72115000D01*
X69384724Y-72115000D01*
X68802170Y-72356302D01*
X68356302Y-72802170D01*
X68115000Y-73384724D01*
X63185000Y-73384724D01*
X62943698Y-72802170D01*
X62497830Y-72356302D01*
X61915276Y-72115000D01*
X61284724Y-72115000D01*
X61043303Y-72215000D01*
X60884615Y-72215000D01*
X60338815Y-72441078D01*
X59921078Y-72858815D01*
X59695000Y-73404615D01*
X59695000Y-73995385D01*
X59871269Y-74420936D01*
X59647921Y-74486036D01*
X59320883Y-74748512D01*
X58384039Y-75865000D01*
X58274996Y-75865000D01*
X57600556Y-76144362D01*
X57084362Y-76660556D01*
X56805000Y-77334996D01*
X56805000Y-78014070D01*
X56445113Y-77865000D01*
X55754887Y-77865000D01*
X55395000Y-78014070D01*
X55395000Y-77334996D01*
X55115638Y-76660556D01*
X54599444Y-76144362D01*
X53925004Y-75865000D01*
X53815962Y-75865000D01*
X52879117Y-74748512D01*
X52552078Y-74486036D01*
X52328731Y-74420936D01*
X52505000Y-73995385D01*
X52505000Y-73404615D01*
X52410249Y-73175866D01*
X53465000Y-73175866D01*
X53465000Y-74224134D01*
X53866155Y-75192608D01*
X54607392Y-75933845D01*
X55575866Y-76335000D01*
X56624134Y-76335000D01*
X57592608Y-75933845D01*
X58333845Y-75192608D01*
X58735000Y-74224134D01*
X58735000Y-73175866D01*
X58333845Y-72207392D01*
X57592608Y-71466155D01*
X56624134Y-71065000D01*
X55575866Y-71065000D01*
X54607392Y-71466155D01*
X53866155Y-72207392D01*
X53465000Y-73175866D01*
X52410249Y-73175866D01*
X52278922Y-72858815D01*
X51861185Y-72441078D01*
X51315385Y-72215000D01*
X51156697Y-72215000D01*
X50915276Y-72115000D01*
X50284724Y-72115000D01*
X49702170Y-72356302D01*
X49256302Y-72802170D01*
X49015000Y-73384724D01*
X43212495Y-73384724D01*
X43189471Y-73096790D01*
X43189471Y-73096787D01*
X42980592Y-70484471D01*
X42980592Y-70484468D01*
X42883823Y-69274234D01*
X49745000Y-69274234D01*
X49745000Y-69725766D01*
X49917793Y-70142926D01*
X50237074Y-70462207D01*
X50654234Y-70635000D01*
X51105766Y-70635000D01*
X51522926Y-70462207D01*
X51842207Y-70142926D01*
X52015000Y-69725766D01*
X52015000Y-69274234D01*
X60185000Y-69274234D01*
X60185000Y-69725766D01*
X60357793Y-70142926D01*
X60677074Y-70462207D01*
X61094234Y-70635000D01*
X61545766Y-70635000D01*
X61962926Y-70462207D01*
X62282207Y-70142926D01*
X62455000Y-69725766D01*
X62455000Y-69274234D01*
X68845000Y-69274234D01*
X68845000Y-69725766D01*
X69017793Y-70142926D01*
X69337074Y-70462207D01*
X69754234Y-70635000D01*
X70205766Y-70635000D01*
X70622926Y-70462207D01*
X70942207Y-70142926D01*
X71115000Y-69725766D01*
X71115000Y-69274234D01*
X79285000Y-69274234D01*
X79285000Y-69725766D01*
X79457793Y-70142926D01*
X79777074Y-70462207D01*
X80194234Y-70635000D01*
X80645766Y-70635000D01*
X81062926Y-70462207D01*
X81382207Y-70142926D01*
X81555000Y-69725766D01*
X81555000Y-69274234D01*
X81382207Y-68857074D01*
X81062926Y-68537793D01*
X80645766Y-68365000D01*
X80194234Y-68365000D01*
X79777074Y-68537793D01*
X79457793Y-68857074D01*
X79285000Y-69274234D01*
X71115000Y-69274234D01*
X70942207Y-68857074D01*
X70622926Y-68537793D01*
X70205766Y-68365000D01*
X69754234Y-68365000D01*
X69337074Y-68537793D01*
X69017793Y-68857074D01*
X68845000Y-69274234D01*
X62455000Y-69274234D01*
X62282207Y-68857074D01*
X61962926Y-68537793D01*
X61545766Y-68365000D01*
X61094234Y-68365000D01*
X60677074Y-68537793D01*
X60357793Y-68857074D01*
X60185000Y-69274234D01*
X52015000Y-69274234D01*
X51842207Y-68857074D01*
X51522926Y-68537793D01*
X51105766Y-68365000D01*
X50654234Y-68365000D01*
X50237074Y-68537793D01*
X49917793Y-68857074D01*
X49745000Y-69274234D01*
X42883823Y-69274234D01*
X42771713Y-67872153D01*
X42771713Y-67872150D01*
X42562834Y-65259834D01*
X42562834Y-65259831D01*
X42551220Y-65114586D01*
X42742276Y-65575835D01*
X43624165Y-66457724D01*
X44776410Y-66935000D01*
X46023590Y-66935000D01*
X47175835Y-66457724D01*
X48057724Y-65575835D01*
X48074741Y-65534750D01*
X50856500Y-65534750D01*
X50856500Y-66065250D01*
X51059513Y-66555367D01*
X51434633Y-66930487D01*
X51924750Y-67133500D01*
X52455250Y-67133500D01*
X52945367Y-66930487D01*
X53132689Y-66743165D01*
X53327235Y-66873157D01*
X53575000Y-66922440D01*
X54875000Y-66922440D01*
X55122765Y-66873157D01*
X55332809Y-66732809D01*
X55473157Y-66522765D01*
X55522440Y-66275000D01*
X55522440Y-65325000D01*
X55473157Y-65077235D01*
X55332809Y-64867191D01*
X55122765Y-64726843D01*
X54875000Y-64677560D01*
X53575000Y-64677560D01*
X53327235Y-64726843D01*
X53132689Y-64856835D01*
X52945367Y-64669513D01*
X52455250Y-64466500D01*
X51924750Y-64466500D01*
X51434633Y-64669513D01*
X51059513Y-65044633D01*
X50856500Y-65534750D01*
X48074741Y-65534750D01*
X48535000Y-64423590D01*
X48535000Y-63176410D01*
X48057724Y-62024165D01*
X47175835Y-61142276D01*
X46023590Y-60665000D01*
X44776410Y-60665000D01*
X43624165Y-61142276D01*
X42742276Y-62024165D01*
X42375009Y-62910826D01*
X42354550Y-62654959D01*
X42415356Y-62212784D01*
X42595619Y-61736334D01*
X42891313Y-61242317D01*
X43279990Y-60774140D01*
X43732192Y-60369541D01*
X44213380Y-60060765D01*
X44684279Y-59871899D01*
X45147041Y-59805739D01*
X46235827Y-59864442D01*
X49007289Y-60019009D01*
X52926989Y-60240969D01*
X57534302Y-60505840D01*
X62364888Y-60788924D01*
X66958114Y-61065736D01*
X70849659Y-61311569D01*
X73532483Y-61498688D01*
X73535066Y-61499374D01*
X73560487Y-61500988D01*
X73563917Y-61501865D01*
X73589082Y-61503222D01*
X73592516Y-61504065D01*
X73617568Y-61505177D01*
X73621006Y-61505986D01*
X73645918Y-61506854D01*
X73649214Y-61507598D01*
X73660856Y-61507897D01*
X73672650Y-61508757D01*
X73675106Y-61508452D01*
X73677290Y-61508925D01*
X73688432Y-61509114D01*
X73701439Y-61509940D01*
X73703658Y-61509643D01*
X73705194Y-61509963D01*
X73715822Y-61510057D01*
X73730122Y-61510828D01*
X73733619Y-61510326D01*
X73758669Y-61511438D01*
X73762162Y-61510903D01*
X73787223Y-61511776D01*
X73790561Y-61511232D01*
X73798713Y-61511442D01*
X76668022Y-61662516D01*
X80530471Y-62060224D01*
X85043516Y-62649780D01*
X89866750Y-63374924D01*
X94663975Y-64179467D01*
X99099027Y-65006992D01*
X102832434Y-65800058D01*
X105545494Y-66505306D01*
X106368809Y-66730251D01*
X106412594Y-66745610D01*
X106438463Y-66749282D01*
X106463676Y-66756171D01*
X106509976Y-66759434D01*
X107377681Y-66882610D01*
X107429602Y-66892809D01*
X107449202Y-66892762D01*
X107468607Y-66895517D01*
X107521442Y-66892590D01*
X108417636Y-66890456D01*
X108484002Y-66891378D01*
X108489929Y-66890284D01*
X108495955Y-66890270D01*
X108561027Y-66877165D01*
X109306098Y-66739684D01*
X109321368Y-66742298D01*
X109449333Y-66713255D01*
X109505817Y-66702832D01*
X109519831Y-66697254D01*
X109534542Y-66693915D01*
X109587001Y-66670518D01*
X109708915Y-66621991D01*
X109720022Y-66611188D01*
X110290680Y-66356667D01*
X110331129Y-66351184D01*
X110423159Y-66297580D01*
X110453029Y-66284257D01*
X110485573Y-66261225D01*
X110520018Y-66241162D01*
X110544521Y-66219507D01*
X110631460Y-66157979D01*
X110653220Y-66123441D01*
X111148564Y-65685669D01*
X111198068Y-65659960D01*
X111257105Y-65589742D01*
X111270549Y-65577861D01*
X111303620Y-65534419D01*
X111338742Y-65492645D01*
X111347384Y-65476929D01*
X111402956Y-65403929D01*
X111417188Y-65349990D01*
X111772517Y-64703817D01*
X111805143Y-64670279D01*
X111842365Y-64576796D01*
X111855293Y-64553286D01*
X111869091Y-64509672D01*
X111886006Y-64467191D01*
X111890875Y-64440818D01*
X111921230Y-64344873D01*
X111917197Y-64298253D01*
X112092697Y-63347716D01*
X112102346Y-63314972D01*
X112105808Y-63276708D01*
X112112784Y-63238922D01*
X112112314Y-63204788D01*
X112479176Y-59149468D01*
X112479176Y-59149467D01*
X112842963Y-55128151D01*
X112842963Y-55128150D01*
X113206749Y-51106834D01*
X113206749Y-51106833D01*
X113570536Y-47085517D01*
X113570536Y-47085516D01*
X113934322Y-43064200D01*
X113934322Y-43064199D01*
X114298109Y-39042882D01*
X114298109Y-39042881D01*
X114342356Y-38553768D01*
X115845850Y-38553768D01*
X115970762Y-38949937D01*
X116205970Y-39040245D01*
X117073309Y-38312461D01*
X116345525Y-37445122D01*
X116098209Y-37493215D01*
X115866551Y-37998393D01*
X115845850Y-38553768D01*
X114342356Y-38553768D01*
X114661895Y-35021565D01*
X114661895Y-35021564D01*
X115018790Y-31076428D01*
X115072112Y-30551633D01*
X115203939Y-30129304D01*
X115413005Y-29745394D01*
X115690482Y-29409458D01*
X116026414Y-29131987D01*
X116410328Y-28922922D01*
X116832666Y-28791093D01*
X117293464Y-28744274D01*
X119300223Y-28913607D01*
G36*
X120053287Y-65904334D02*
X120060526Y-65898259D01*
X120231382Y-66069115D01*
X120576134Y-65724363D01*
X120611719Y-65767328D01*
X120216555Y-66098910D01*
X120222630Y-66106149D01*
X120051774Y-66277005D01*
X121124839Y-67350070D01*
X121194270Y-67280639D01*
X121269591Y-67417931D01*
X121486296Y-67591854D01*
X121242680Y-67725507D01*
X120872904Y-68186240D01*
X120832336Y-68325424D01*
X120615698Y-68306471D01*
X120267088Y-68275972D01*
X120095106Y-68420282D01*
X119998255Y-69527303D01*
X120018179Y-69529046D01*
X119996041Y-69782080D01*
X119976117Y-69780337D01*
X119974374Y-69800261D01*
X119721340Y-69778123D01*
X119723083Y-69758199D01*
X119703159Y-69756456D01*
X119725297Y-69503422D01*
X119745221Y-69505165D01*
X119842073Y-68398144D01*
X119697763Y-68226162D01*
X119349154Y-68195663D01*
X119274575Y-68189138D01*
X119277433Y-68186280D01*
X119435002Y-67805874D01*
X119435002Y-67607025D01*
X119630651Y-67699845D01*
X120280272Y-67732536D01*
X120784862Y-67573439D01*
X120906408Y-67316198D01*
X120021979Y-66262178D01*
X120014740Y-66268253D01*
X119843884Y-66097397D01*
X119160002Y-66781279D01*
X119160002Y-66653889D01*
X119858711Y-66067602D01*
X119852636Y-66060363D01*
X120023492Y-65889507D01*
X119522598Y-65388613D01*
X119575856Y-65335355D01*
X120053287Y-65904334D01*
X120053287Y-65904334D01*
G37*
X120053287Y-65904334D02*
X120060526Y-65898259D01*
X120231382Y-66069115D01*
X120576134Y-65724363D01*
X120611719Y-65767328D01*
X120216555Y-66098910D01*
X120222630Y-66106149D01*
X120051774Y-66277005D01*
X121124839Y-67350070D01*
X121194270Y-67280639D01*
X121269591Y-67417931D01*
X121486296Y-67591854D01*
X121242680Y-67725507D01*
X120872904Y-68186240D01*
X120832336Y-68325424D01*
X120615698Y-68306471D01*
X120267088Y-68275972D01*
X120095106Y-68420282D01*
X119998255Y-69527303D01*
X120018179Y-69529046D01*
X119996041Y-69782080D01*
X119976117Y-69780337D01*
X119974374Y-69800261D01*
X119721340Y-69778123D01*
X119723083Y-69758199D01*
X119703159Y-69756456D01*
X119725297Y-69503422D01*
X119745221Y-69505165D01*
X119842073Y-68398144D01*
X119697763Y-68226162D01*
X119349154Y-68195663D01*
X119274575Y-68189138D01*
X119277433Y-68186280D01*
X119435002Y-67805874D01*
X119435002Y-67607025D01*
X119630651Y-67699845D01*
X120280272Y-67732536D01*
X120784862Y-67573439D01*
X120906408Y-67316198D01*
X120021979Y-66262178D01*
X120014740Y-66268253D01*
X119843884Y-66097397D01*
X119160002Y-66781279D01*
X119160002Y-66653889D01*
X119858711Y-66067602D01*
X119852636Y-66060363D01*
X120023492Y-65889507D01*
X119522598Y-65388613D01*
X119575856Y-65335355D01*
X120053287Y-65904334D01*
G36*
X118684464Y-34689792D02*
X118512870Y-34861386D01*
X118486021Y-34834537D01*
X118687131Y-34665786D01*
X118684464Y-34689792D01*
X118684464Y-34689792D01*
G37*
X118684464Y-34689792D02*
X118512870Y-34861386D01*
X118486021Y-34834537D01*
X118687131Y-34665786D01*
X118684464Y-34689792D01*
G04 #@! TD*
M02*
